<?xml version="1.0" encoding="UTF-8"?>
<svg id="Layer_1" data-name="Layer 1" xmlns="http://www.w3.org/2000/svg" viewBox="0 0 8000 8000">
  <path d="M2892.08008,7200.21002c144.38989,29.54999,292.0498,47.53998,440.34985,53.69995-304.80005,100.98004-607.55005,208.38-909.27002,317.92004l-.19995.07001c-280.79004,100.67999-560.73999,204.34998-845.26001,294.17999-229.29004,71.06-463.33997,133.03998-702.52997,137.46997-462.72998,11.46002-814.60999-235.66998-870.08997-710.75-45.65997-431.39996,125.20001-857.9599,261.01001-1262.10004,145.66998-410.61987,296.69-819.54004,436.72998-1232.11987,9.29999,84.68994,22.46002,168.7998,39.46002,251.83984,36.33997,177.57007,90.56,352.23999,161.15997,519.15015,69.27002,163.77002,154.96991,321.68994,254.73993,469.36987,98.73999,146.14014,212.11011,283.55005,336.97009,408.41003,124.84998,124.85999,262.25989,238.2301,408.41003,336.96008,147.66992,99.77002,305.58984,185.47998,469.35986,254.74994,166.91016,70.59998,341.58008,124.82001,519.16016,161.15002Z" fill="#ffe480"/>
  <path d="M1495.15002,2541.29004c-90.49011,90.49023-174.94006,187.56982-252.16003,289.77979,92.34009-438.06006,172.79004-878.8999,255.96997-1318.72998,108.53003-523.5498,229.88013-1286.05957,810.43018-1473.84961,311.50977-95.47021,631.03979,47.36963,874.50977,243.01953,281.9502,227.54004,513.55005,514.44043,750.94019,787.19043,188.15991,222.18994,376.80981,444.26953,568.51978,663.61963h-1055.18994c-187.06006,0-374.15991,18.88037-556.08984,56.11035-177.58008,36.32959-352.25,90.56006-519.16016,161.1499-163.77002,69.27002-321.68994,154.97998-469.35986,254.75-146.15015,98.72998-283.56006,212.1001-408.41003,336.95996Z" fill="#ffe480"/>
  <path d="M7770.53027,6004.07007c-218.18018,218.48999-520.7002,320.29993-816.87012,395.91992-70.15039,17.65002-140.69043,33.76001-211.40039,49.08008-588.81982,122.80994-1183.05957,220.35986-1770.5498,349.33984,7.0498-4.66992,14.07031-9.36987,21.08008-14.09985,146.14014-98.72998,283.5498-212.1001,408.41016-336.96008,124.85986-124.85999,238.22998-262.2699,336.95996-408.41003,99.77002-147.67993,185.47998-305.59985,254.75-469.36987,70.59961-166.91016,124.81982-341.58008,161.15967-519.15015,37.22998-181.93994,56.1001-369.04004,56.1001-556.09985v-1047.60034c353.41992,308.54004,714.7998,608.11035,1066.28027,918.9502,80.05957,71.83008,159.11963,144.8501,235.09961,220.95996,193.83008,195.03003,373.20996,413.27002,448.70996,677.9502,77.84033,269.0498,9.29004,541.22998-189.72949,739.48999Z" fill="#ffe480"/>
  <path d="M5199.99793,4550.00037c-.00207,966.4986-783.50338,1750.00037-1749.9986,1749.99963-966.49597.00002-1749.99728-783.50175-1749.99933-1750.00037.0041-966.49096,783.50541-1749.99273,1749.9986-1749.99963h1750.0014l-.00207,1750.00037Z" fill="#fff"/>
</svg>