<svg width="400" height="578" viewBox="0 0 400 578" fill="none" xmlns="http://www.w3.org/2000/svg">
<ellipse opacity="0.3" cx="201.283" cy="559.419" rx="97.9977" ry="18.0919" fill="white"/>
<path fill-rule="evenodd" clip-rule="evenodd" d="M47.0002 113C47.0002 129.569 60.4316 143 77.0002 143C82.4331 143 87.5287 141.556 91.924 139.03L104.332 151.439C79.9317 176.153 62.5153 210.006 55.7057 248.087C54.6524 253.977 54.7716 259.819 55.9045 265.379C52.7529 267.375 49.8094 269.681 47.1119 272.29C36.0107 283.026 29.6274 298.364 29.6274 316.736C29.6274 338.898 35.5523 378.418 47.929 412.549C54.1193 429.62 62.1067 445.865 72.1677 457.98C82.2398 470.108 95.099 478.882 110.836 478.882C126.26 478.882 135.227 465.856 140.467 451.92C142.089 447.606 143.493 442.869 144.709 437.819C157.177 444.329 165.901 455.833 174.66 467.383C181.744 476.724 188.851 486.095 197.979 492.881C199.041 493.67 200.147 494.088 201.283 494.088C202.42 494.088 203.526 493.67 204.588 492.881C213.716 486.095 220.823 476.724 227.907 467.384C236.668 455.83 245.394 444.324 257.867 437.814C259.062 437.19 260.248 436.548 261.426 435.886C262.742 441.663 264.293 447.059 266.12 451.92C271.36 465.856 280.327 478.882 295.751 478.882C311.488 478.882 324.347 470.108 334.419 457.98C344.48 445.865 352.468 429.62 358.658 412.549C371.035 378.418 376.96 338.898 376.96 316.736C376.96 298.364 370.576 283.026 359.475 272.29C355.405 268.353 350.775 265.106 345.715 262.575C346.304 258.049 346.224 253.37 345.396 248.659C338.59 209.955 320.835 175.586 295.92 150.686L307.396 139.211C311.718 141.625 316.698 143 322 143C338.569 143 352 129.569 352 113C352 96.4315 338.569 83 322 83C305.432 83 292 96.4315 292 113C292 118.824 293.66 124.26 296.532 128.862L284.798 140.596C261.006 121.052 232.031 109.5 200.5 109.5C168.606 109.5 139.327 121.32 115.382 141.275L102.659 128.552C105.414 124.017 107 118.694 107 113C107 96.4315 93.5687 83 77.0002 83C60.4316 83 47.0002 96.4315 47.0002 113Z" fill="#FFDF6F"/>
<path d="M91.924 139.03L102.531 128.424L94.4095 120.303L84.4512 126.024L91.924 139.03ZM104.332 151.439L115.006 161.977L125.478 151.371L114.939 140.832L104.332 151.439ZM55.7057 248.087L40.9399 245.447H40.9399L55.7057 248.087ZM55.9045 265.379L63.9292 278.052L72.6677 272.519L70.6024 262.384L55.9045 265.379ZM47.1119 272.29L36.6837 261.508H36.6837L47.1119 272.29ZM47.929 412.549L62.0305 407.436H62.0305L47.929 412.549ZM72.1677 457.98L60.6283 467.563L60.6284 467.563L72.1677 457.98ZM140.467 451.92L154.507 457.199L154.507 457.199L140.467 451.92ZM144.709 437.819L151.652 424.522L134.622 415.629L130.125 434.308L144.709 437.819ZM174.66 467.383L162.708 476.447H162.708L174.66 467.383ZM197.979 492.881L206.928 480.843L206.928 480.843L197.979 492.881ZM204.588 492.881L213.537 504.919L213.537 504.919L204.588 492.881ZM227.907 467.384L239.858 476.447L227.907 467.384ZM257.867 437.814L250.926 424.517L250.926 424.517L257.867 437.814ZM261.426 435.886L276.051 432.553L271.588 412.968L254.077 422.809L261.426 435.886ZM266.12 451.92L280.16 446.64H280.16L266.12 451.92ZM334.419 457.98L345.959 467.563L334.419 457.98ZM358.658 412.549L372.76 417.663L358.658 412.549ZM359.475 272.29L349.047 283.072L349.047 283.072L359.475 272.29ZM345.715 262.575L330.84 260.641L329.465 271.217L339.004 275.99L345.715 262.575ZM345.396 248.659L360.169 246.061V246.061L345.396 248.659ZM295.92 150.686L285.314 140.08L274.704 150.689L285.317 161.296L295.92 150.686ZM307.396 139.211L314.708 126.115L304.807 120.586L296.789 128.605L307.396 139.211ZM296.532 128.862L307.138 139.468L315.571 131.036L309.257 120.92L296.532 128.862ZM284.798 140.596L275.277 152.186L285.787 160.82L295.405 151.202L284.798 140.596ZM115.382 141.275L104.775 151.881L114.461 161.568L124.984 152.798L115.382 141.275ZM102.659 128.552L89.839 120.765L83.7247 130.831L92.0526 139.159L102.659 128.552ZM77.0002 128C68.7159 128 62.0002 121.284 62.0002 113H32.0002C32.0002 137.853 52.1474 158 77.0002 158V128ZM84.4512 126.024C82.2691 127.278 79.7417 128 77.0002 128V158C85.1245 158 92.7882 155.834 99.3968 152.037L84.4512 126.024ZM114.939 140.832L102.531 128.424L81.3174 149.637L93.7256 162.045L114.939 140.832ZM70.4715 250.728C76.7826 215.433 92.8744 184.394 115.006 161.977L93.6581 140.9C66.9891 167.912 48.2479 204.578 40.9399 245.447L70.4715 250.728ZM70.6024 262.384C69.841 258.648 69.758 254.718 70.4715 250.728L40.9399 245.447C39.5469 253.237 39.7021 260.991 41.2066 268.374L70.6024 262.384ZM57.54 283.072C59.4903 281.185 61.6262 279.51 63.9292 278.052L47.8798 252.706C43.8796 255.239 40.1284 258.176 36.6837 261.508L57.54 283.072ZM44.6274 316.736C44.6274 301.957 49.6835 290.67 57.54 283.072L36.6837 261.508C22.3379 275.382 14.6274 294.77 14.6274 316.736H44.6274ZM62.0305 407.436C50.2259 374.882 44.6274 337.089 44.6274 316.736H14.6274C14.6274 340.706 20.8787 381.954 33.8275 417.663L62.0305 407.436ZM83.7071 448.396C75.2004 438.154 67.9307 423.707 62.0305 407.436L33.8275 417.663C40.3078 435.534 49.0129 453.577 60.6283 467.563L83.7071 448.396ZM110.836 463.882C101.241 463.882 92.2143 458.64 83.7071 448.396L60.6284 467.563C72.2653 481.575 88.9568 493.882 110.836 493.882V463.882ZM126.427 446.64C124.174 452.63 121.519 457.266 118.678 460.21C116.145 462.834 113.767 463.882 110.836 463.882V493.882C136.599 493.882 148.989 471.875 154.507 457.199L126.427 446.64ZM130.125 434.308C129.021 438.897 127.787 443.024 126.427 446.64L154.507 457.199C156.392 452.187 157.965 446.841 159.292 441.329L130.125 434.308ZM186.612 458.32C178.279 447.332 167.62 432.86 151.652 424.522L137.766 451.115C146.734 455.798 153.522 464.334 162.708 476.447L186.612 458.32ZM206.928 480.843C199.813 475.554 193.954 468.001 186.612 458.32L162.708 476.447C169.534 485.447 177.888 496.637 189.03 504.919L206.928 480.843ZM201.283 479.088C204.033 479.088 205.99 480.146 206.928 480.843L189.03 504.919C192.092 507.195 196.261 509.088 201.283 509.088V479.088ZM195.639 480.843C196.577 480.146 198.534 479.088 201.283 479.088V509.088C206.306 509.088 210.476 507.195 213.537 504.919L195.639 480.843ZM215.955 458.32C208.613 468.001 202.754 475.554 195.639 480.843L213.537 504.919C224.679 496.637 233.033 485.447 239.858 476.447L215.955 458.32ZM250.926 424.517C234.952 432.854 224.289 447.33 215.955 458.32L239.858 476.447C249.047 464.331 255.836 455.794 264.807 451.112L250.926 424.517ZM254.077 422.809C253.033 423.396 251.983 423.965 250.926 424.517L264.807 451.112C266.14 450.416 267.463 449.699 268.774 448.962L254.077 422.809ZM280.16 446.64C278.627 442.561 277.256 437.841 276.051 432.553L246.8 439.218C248.229 445.485 249.959 451.558 252.08 457.199L280.16 446.64ZM295.751 463.882C292.82 463.882 290.442 462.834 287.909 460.21C285.068 457.266 282.413 452.63 280.16 446.64L252.08 457.199C257.598 471.875 269.989 493.882 295.751 493.882V463.882ZM322.88 448.396C314.373 458.64 305.346 463.882 295.751 463.882V493.882C317.63 493.882 334.322 481.575 345.959 467.563L322.88 448.396ZM344.557 407.436C338.656 423.707 331.387 438.154 322.88 448.396L345.959 467.563C357.574 453.577 366.279 435.534 372.76 417.663L344.557 407.436ZM361.96 316.736C361.96 337.089 356.361 374.882 344.557 407.436L372.76 417.663C385.708 381.954 391.96 340.706 391.96 316.736H361.96ZM349.047 283.072C356.904 290.67 361.96 301.957 361.96 316.736H391.96C391.96 294.77 384.249 275.382 369.903 261.508L349.047 283.072ZM339.004 275.99C342.741 277.859 346.109 280.23 349.047 283.072L369.903 261.508C364.702 256.477 358.809 252.354 352.427 249.16L339.004 275.99ZM330.623 251.257C331.185 254.453 331.236 257.603 330.84 260.641L360.59 264.509C361.372 258.495 361.264 252.288 360.169 246.061L330.623 251.257ZM285.317 161.296C307.907 183.873 324.314 215.382 330.623 251.257L360.169 246.061C352.865 204.528 333.762 167.298 306.524 140.077L285.317 161.296ZM296.789 128.605L285.314 140.08L306.527 161.293L318.002 149.818L296.789 128.605ZM322 128C319.324 128 316.853 127.312 314.708 126.115L300.083 152.308C306.582 155.937 314.073 158 322 158V128ZM337 113C337 121.284 330.284 128 322 128V158C346.853 158 367 137.853 367 113H337ZM322 98C330.284 98 337 104.716 337 113H367C367 88.1472 346.853 68 322 68V98ZM307 113C307 104.716 313.716 98 322 98V68C297.147 68 277 88.1472 277 113H307ZM309.257 120.92C307.828 118.631 307 115.935 307 113H277C277 121.713 279.491 129.889 283.807 136.804L309.257 120.92ZM295.405 151.202L307.138 139.468L285.925 118.255L274.191 129.989L295.405 151.202ZM200.5 124.5C228.221 124.5 253.895 134.623 275.277 152.186L294.319 129.005C268.116 107.481 235.841 94.5 200.5 94.5V124.5ZM124.984 152.798C146.514 134.857 172.463 124.5 200.5 124.5V94.5C164.75 94.5 132.141 107.783 105.779 129.752L124.984 152.798ZM92.0526 139.159L104.775 151.881L125.988 130.668L113.266 117.946L92.0526 139.159ZM92.0002 113C92.0002 115.871 91.2083 118.511 89.839 120.765L115.479 136.34C119.62 129.524 122 121.517 122 113H92.0002ZM77.0002 98C85.2844 98 92.0002 104.716 92.0002 113H122C122 88.1472 101.853 68 77.0002 68V98ZM62.0002 113C62.0002 104.716 68.7159 98 77.0002 98V68C52.1474 68 32.0002 88.1472 32.0002 113H62.0002Z" fill="white"/>
<ellipse opacity="0.1" cx="201.283" cy="559.419" rx="97.9977" ry="18.0919" fill="black"/>
<path d="M295.751 471.344C346.378 471.344 369.421 359.242 369.421 316.736C369.421 283.606 346.561 263.528 316.507 263.528C286.641 263.528 262.395 276.371 262.094 292.275C262.093 334.246 254.706 471.344 295.751 471.344Z" fill="white" stroke="black" stroke-width="15.0766"/>
<path d="M110.837 471.344C60.2095 471.344 37.1663 359.242 37.1663 316.736C37.1663 283.606 60.0266 263.528 90.0801 263.528C119.946 263.528 144.193 276.371 144.494 292.275C144.495 334.246 151.882 471.344 110.837 471.344Z" fill="white" stroke="black" stroke-width="15.0766"/>
<mask id="path-7-inside-1_910_11189" fill="white">
<path fill-rule="evenodd" clip-rule="evenodd" d="M341.48 303.862C342.301 295.737 333.171 290.831 326.145 294.995C289.424 316.757 246.561 329.25 200.781 329.25C155.428 329.25 112.939 316.989 76.4465 295.602C69.4069 291.476 60.3077 296.415 61.1552 304.53C67.4064 364.388 100.015 414.491 144.7 437.814C157.173 444.324 165.899 455.83 174.66 467.383C181.744 476.724 188.85 486.095 197.979 492.881C199.041 493.67 200.147 494.088 201.283 494.088C202.42 494.088 203.526 493.67 204.588 492.881C213.716 486.095 220.823 476.724 227.906 467.384C236.668 455.83 245.394 444.324 257.866 437.814C302.717 414.404 335.402 364.015 341.48 303.862Z"/>
</mask>
<path fill-rule="evenodd" clip-rule="evenodd" d="M341.48 303.862C342.301 295.737 333.171 290.831 326.145 294.995C289.424 316.757 246.561 329.25 200.781 329.25C155.428 329.25 112.939 316.989 76.4465 295.602C69.4069 291.476 60.3077 296.415 61.1552 304.53C67.4064 364.388 100.015 414.491 144.7 437.814C157.173 444.324 165.899 455.83 174.66 467.383C181.744 476.724 188.85 486.095 197.979 492.881C199.041 493.67 200.147 494.088 201.283 494.088C202.42 494.088 203.526 493.67 204.588 492.881C213.716 486.095 220.823 476.724 227.906 467.384C236.668 455.83 245.394 444.324 257.866 437.814C302.717 414.404 335.402 364.015 341.48 303.862Z" fill="#FFDF6F"/>
<path d="M144.7 437.814L137.724 451.18H137.724L144.7 437.814ZM174.66 467.383L162.647 476.494H162.647L174.66 467.383ZM197.979 492.881L206.974 480.782L206.974 480.782L197.979 492.881ZM204.588 492.881L213.582 504.981L213.582 504.981L204.588 492.881ZM227.906 467.384L215.894 458.273L227.906 467.384ZM257.866 437.814L250.89 424.449L257.866 437.814ZM326.145 294.995L318.459 282.025L326.145 294.995ZM341.48 303.862L356.48 305.378L341.48 303.862ZM318.459 282.025C284 302.446 243.783 314.173 200.781 314.173V344.326C249.339 344.326 294.848 331.068 333.832 307.965L318.459 282.025ZM200.781 314.173C158.18 314.173 118.313 302.664 84.0698 282.595L68.8232 308.609C107.564 331.315 152.676 344.326 200.781 344.326V314.173ZM46.1602 306.096C52.8577 370.228 87.9229 425.186 137.724 451.18L151.676 424.449C112.107 403.796 81.955 358.548 76.1502 302.964L46.1602 306.096ZM137.724 451.18C146.677 455.853 153.456 464.374 162.647 476.494L186.673 458.273C178.341 447.286 167.668 432.795 151.676 424.449L137.724 451.18ZM162.647 476.494C169.471 485.492 177.832 496.69 188.984 504.981L206.974 480.782C199.869 475.5 194.016 467.956 186.673 458.273L162.647 476.494ZM188.984 504.981C192.056 507.264 196.241 509.164 201.283 509.164V479.011C204.053 479.011 206.026 480.077 206.974 480.782L188.984 504.981ZM201.283 509.164C206.326 509.164 210.511 507.264 213.582 504.981L195.593 480.782C196.541 480.077 198.514 479.011 201.283 479.011V509.164ZM213.582 504.981C224.734 496.69 233.095 485.492 239.919 476.494L215.894 458.273C208.55 467.956 202.698 475.5 195.593 480.782L213.582 504.981ZM239.919 476.494C249.11 464.374 255.889 455.853 264.842 451.18L250.89 424.449C234.899 432.796 224.226 447.286 215.894 458.273L239.919 476.494ZM264.842 451.18C314.828 425.09 349.969 369.821 356.48 305.378L326.48 302.347C320.836 358.209 290.607 403.719 250.89 424.449L264.842 451.18ZM84.0698 282.595C75.6691 277.671 65.8815 278.111 58.3919 282.369C50.7016 286.741 45.0499 295.464 46.1602 306.096L76.1502 302.964C76.2557 303.974 76.0528 305.219 75.4182 306.377C74.8226 307.464 74.0188 308.17 73.2945 308.582C71.9025 309.373 70.1843 309.407 68.8232 308.609L84.0698 282.595ZM333.832 307.965C332.474 308.77 330.754 308.744 329.359 307.958C328.632 307.549 327.825 306.845 327.225 305.76C326.585 304.603 326.378 303.358 326.48 302.347L356.48 305.378C357.556 294.734 351.865 286.025 344.152 281.683C336.64 277.454 326.843 277.056 318.459 282.025L333.832 307.965Z" fill="black" mask="url(#path-7-inside-1_910_11189)"/>
<ellipse cx="201.786" cy="302.113" rx="132.674" ry="44.2246" fill="black" stroke="black" stroke-width="15.0766"/>
<path d="M95.2446 376.491C95.2446 376.491 160.685 398.603 202.791 398.603C244.896 398.603 310.337 376.491 310.337 376.491" stroke="black" stroke-width="15.0766" stroke-linecap="round"/>
<circle r="30" transform="matrix(-1 0 0 1 77 113)" fill="black"/>
<path d="M72 108.5L128 164.5" stroke="black" stroke-width="15"/>
<circle cx="322" cy="113" r="30" fill="black"/>
<path d="M327.5 108.5L271.5 164.5" stroke="black" stroke-width="15"/>
<path fill-rule="evenodd" clip-rule="evenodd" d="M85.5156 292.019C69.3466 284.321 59.9364 267.036 63.0886 249.407C76.6178 173.747 133 117 200.5 117C268.164 117 324.656 174.023 338.009 249.958C341.115 267.618 331.628 284.895 315.404 292.53C280.687 308.868 241.91 318 201 318C159.665 318 120.508 308.677 85.5156 292.019Z" fill="#FFDF6F"/>
<path d="M338.009 249.958L345.396 248.659L338.009 249.958ZM315.404 292.53L312.21 285.744L315.404 292.53ZM70.4715 250.728C83.5443 177.62 137.582 124.5 200.5 124.5V109.5C128.418 109.5 69.6913 169.875 55.7057 248.087L70.4715 250.728ZM200.5 124.5C263.569 124.5 317.719 177.879 330.623 251.257L345.396 248.659C331.593 170.166 272.758 109.5 200.5 109.5V124.5ZM312.21 285.744C278.472 301.621 240.783 310.5 201 310.5V325.5C243.037 325.5 282.903 316.114 318.597 299.317L312.21 285.744ZM201 310.5C160.804 310.5 122.746 301.436 88.7394 285.247L82.2918 298.791C118.269 315.918 158.526 325.5 201 325.5V310.5ZM330.623 251.257C333.112 265.416 325.531 279.476 312.21 285.744L318.597 299.317C337.725 290.315 349.117 269.82 345.396 248.659L330.623 251.257ZM55.7057 248.087C51.9285 269.211 63.2298 289.716 82.2918 298.791L88.7394 285.247C75.4634 278.927 67.9444 264.86 70.4715 250.728L55.7057 248.087Z" fill="black"/>
<path fill-rule="evenodd" clip-rule="evenodd" d="M114.365 273.209C101.35 267.908 93.6294 254.06 98.1392 240.75C112.047 199.704 152.618 170 200.5 170C248.383 170 288.953 199.704 302.861 240.75C307.371 254.06 299.651 267.908 286.636 273.209C260.053 284.035 230.973 290 200.5 290C170.027 290 140.948 284.035 114.365 273.209Z" fill="black"/>
<ellipse cx="235" cy="234" rx="25" ry="20" fill="white"/>
<ellipse cx="163.432" cy="234.012" rx="25" ry="20" fill="white"/>
</svg>
