<svg xmlns="http://www.w3.org/2000/svg" width="277" height="400" fill="none"><ellipse cx="139.3" cy="387.14" fill="#000" opacity=".1" rx="67.82" ry="12.52"/><path fill="#fff" stroke="#000" stroke-width="10.43" d="M204.67 326.19c35.04 0 50.99-77.58 50.99-107 0-22.92-15.83-36.82-36.62-36.82-20.67 0-37.45 8.89-37.66 19.9 0 29.04-5.11 123.92 23.3 123.92Zm-127.97 0c-35.03 0-50.98-77.58-50.98-107 0-22.92 15.82-36.82 36.62-36.82 20.67 0 37.45 8.89 37.66 19.9 0 29.04 5.1 123.92-23.3 123.92Z"/><mask id="a" fill="#fff"><path fill-rule="evenodd" d="M236.32 210.29c.57-5.63-5.75-9.02-10.61-6.14a169.63 169.63 0 0 1-86.76 23.7c-31.39 0-60.8-8.48-86.05-23.28-4.87-2.86-11.16.56-10.58 6.18 4.33 41.42 26.9 76.1 57.82 92.24 8.63 4.5 14.67 12.46 20.73 20.46 4.9 6.46 9.82 12.95 16.14 17.64.73.55 1.5.84 2.29.84a3.8 3.8 0 0 0 2.28-.84c6.32-4.7 11.24-11.18 16.14-17.64 6.06-8 12.1-15.96 20.73-20.46 31.04-16.2 53.66-51.08 57.87-92.7Z" clip-rule="evenodd"/></mask><path fill="#FFDF6F" fill-rule="evenodd" d="M236.32 210.29c.57-5.63-5.75-9.02-10.61-6.14a169.63 169.63 0 0 1-86.76 23.7c-31.39 0-60.8-8.48-86.05-23.28-4.87-2.86-11.16.56-10.58 6.18 4.33 41.42 26.9 76.1 57.82 92.24 8.63 4.5 14.67 12.46 20.73 20.46 4.9 6.46 9.82 12.95 16.14 17.64.73.55 1.5.84 2.29.84a3.8 3.8 0 0 0 2.28-.84c6.32-4.7 11.24-11.18 16.14-17.64 6.06-8 12.1-15.96 20.73-20.46 31.04-16.2 53.66-51.08 57.87-92.7Z" clip-rule="evenodd"/><path fill="#000" d="m100.14 302.99-4.83 9.25 4.83-9.25Zm20.73 20.46-8.31 6.3 8.31-6.3Zm16.14 17.64-6.22 8.38 6.22-8.38Zm4.57 0-6.22-8.37 6.22 8.37Zm16.14-17.64 8.31 6.3-8.31-6.3Zm20.73-20.46 4.83 9.25-4.83-9.25Zm47.26-98.84 5.31 8.97-5.31-8.97Zm10.6 6.14-10.37-1.05 10.38 1.05Zm-15.92-15.12a159.19 159.19 0 0 1-81.44 22.25v20.87c33.6 0 65.1-9.18 92.08-25.16l-10.64-17.96Zm-81.44 22.25a159.2 159.2 0 0 1-80.77-21.85l-10.55 18a180.06 180.06 0 0 0 91.32 24.72v-20.87Zm-107-5.59c4.63 44.38 28.9 82.42 63.36 100.4l9.66-18.5c-27.39-14.29-48.25-45.6-52.27-84.07l-20.76 2.17Zm63.36 100.4c6.2 3.24 10.89 9.14 17.25 17.52l16.63-12.6c-5.77-7.6-13.16-17.64-24.22-23.41l-9.66 18.5Zm17.25 17.52c4.72 6.23 10.5 13.98 18.22 19.72l12.45-16.75c-4.91-3.65-8.96-8.88-14.04-15.58l-16.63 12.61Zm18.22 19.72a14.23 14.23 0 0 0 8.52 2.9V331.5c1.91 0 3.28.73 3.93 1.22l-12.44 16.75Zm8.52 2.9c3.49 0 6.38-1.32 8.5-2.9l-12.44-16.75a6.67 6.67 0 0 1 3.94-1.22v20.86Zm8.5-2.9c7.72-5.74 13.51-13.49 18.23-19.72l-16.62-12.6c-5.09 6.7-9.13 11.92-14.05 15.57l12.45 16.75Zm18.23-19.72c6.36-8.38 11.06-14.28 17.25-17.51l-9.65-18.5c-11.07 5.77-18.46 15.8-24.22 23.4l16.62 12.61Zm17.25-17.51c34.6-18.06 58.91-56.3 63.42-100.9l-20.76-2.1c-3.9 38.66-24.83 70.15-52.31 84.5l9.65 18.5ZM58.18 195.56a17.76 17.76 0 0 0-17.77-.16 16.74 16.74 0 0 0-8.47 16.42l20.76-2.17a4.13 4.13 0 0 1-1.98 3.9 3.1 3.1 0 0 1-3.1.01l10.56-18Zm172.84 17.56a3.1 3.1 0 0 1-3.09-.01 4.14 4.14 0 0 1-2-3.88l20.77 2.1c.74-7.37-3.2-13.4-8.53-16.4a17.76 17.76 0 0 0-17.78.23l10.64 17.96Z" mask="url(#a)"/><ellipse cx="139.64" cy="209.07" fill="#000" stroke="#000" stroke-width="10.43" rx="91.82" ry="30.61"/><path stroke="#000" stroke-linecap="round" stroke-width="10.43" d="M65.91 260.55s45.3 15.3 74.43 15.3c29.14 0 74.43-15.3 74.43-15.3"/><circle r="20.76" fill="#000" transform="matrix(-1 0 0 1 53.29 78.2)"/><path stroke="#000" stroke-width="10.38" d="m49.83 75.09 38.75 38.75"/><circle cx="222.84" cy="78.2" r="20.76" fill="#000"/><path stroke="#000" stroke-width="10.38" d="m226.64 75.09-38.75 38.75"/><path fill="#FFDF6F" fill-rule="evenodd" d="M59.18 202.09c-11.19-5.33-17.7-17.29-15.52-29.49 9.36-52.36 48.38-91.63 95.1-91.63 46.82 0 85.92 39.46 95.16 92.01 2.15 12.22-4.42 24.18-15.65 29.46a185.44 185.44 0 0 1-79.17 17.63c-28.6 0-55.7-6.45-79.92-17.98Z" clip-rule="evenodd"/><path fill="#000" d="m233.92 172.98-5.12.9 5.12-.9Zm-185.15.53c9.05-50.59 46.44-87.35 89.98-87.35V75.78c-49.88 0-90.52 41.78-100.2 95.9l10.22 1.83Zm89.98-87.35c43.65 0 81.12 36.94 90.05 87.72l10.23-1.8c-9.55-54.32-50.27-96.3-100.28-96.3v10.38Zm77.31 111.59a180.24 180.24 0 0 1-76.96 17.13v10.38c29.1 0 56.68-6.5 81.38-18.12l-4.42-9.4Zm-76.96 17.13c-27.82 0-54.16-6.27-77.69-17.48l-4.46 9.38a190.62 190.62 0 0 0 82.15 18.48v-10.38Zm89.7-41c1.73 9.8-3.52 19.53-12.74 23.87l4.42 9.39c13.24-6.23 21.12-20.41 18.55-35.06l-10.23 1.8Zm-190.25-2.2c-2.61 14.63 5.2 28.82 18.4 35.1l4.46-9.38c-9.19-4.37-14.39-14.1-12.64-23.89l-10.22-1.82Z"/><path fill="#000" fill-rule="evenodd" d="M79.15 189.07c-9.01-3.67-14.35-13.25-11.23-22.46 9.62-28.4 37.7-48.96 70.83-48.96 33.14 0 61.22 20.55 70.84 48.96 3.12 9.21-2.22 18.8-11.23 22.46a157.68 157.68 0 0 1-59.6 11.62c-21.1 0-41.22-4.13-59.61-11.62Z" clip-rule="evenodd"/><ellipse cx="162.63" cy="161.94" fill="#fff" rx="17.3" ry="13.84"/><ellipse cx="113.1" cy="161.95" fill="#fff" rx="17.3" ry="13.84"/></svg>