<svg width="16" height="16" viewBox="0 0 16 16" fill="none" xmlns="http://www.w3.org/2000/svg">
<circle r="1.51913" transform="matrix(-1 0 0 1 1.74137 3.51913)" fill="black"/>
<path d="M1.48815 3.29126L4.32385 6.12696" stroke="black" stroke-width="0.379781"/>
<circle cx="14.1475" cy="3.51913" r="1.51913" fill="black"/>
<path d="M14.426 3.29126L11.5903 6.12696" stroke="black" stroke-width="0.379781"/>
<path fill-rule="evenodd" clip-rule="evenodd" d="M1.51957 12.2514C1.1213 12.0347 0.887858 11.6032 0.934619 11.1523C1.36889 6.96392 4.36439 3.72168 7.99509 3.72168C11.6342 3.72168 14.6352 6.97902 15.0585 11.1815C15.104 11.6332 14.8687 12.0645 14.469 12.2797C12.5494 13.3133 10.3534 13.8998 8.0204 13.8998C5.66622 13.8998 3.45153 13.3026 1.51957 12.2514Z" fill="#FFDF6F"/>
<path d="M15.0586 11.1815L15.2475 11.1625L15.0586 11.1815ZM14.469 12.2797L14.379 12.1125L14.469 12.2797ZM1.51958 12.2514L1.61034 12.0846L1.51958 12.2514ZM1.12351 11.1718C1.55074 7.05146 4.48817 3.91157 7.9951 3.91157V3.53179C4.24064 3.53179 1.18707 6.87638 0.745754 11.1327L1.12351 11.1718ZM7.9951 3.91157C11.5102 3.91157 14.4531 7.06613 14.8696 11.2005L15.2475 11.1625C14.8173 6.89191 11.7583 3.53179 7.9951 3.53179V3.91157ZM14.379 12.1125C12.4863 13.1316 10.3212 13.7099 8.02041 13.7099V14.0897C10.3856 14.0897 12.6124 13.495 14.559 12.4469L14.379 12.1125ZM8.02041 13.7099C5.69873 13.7099 3.51515 13.121 1.61034 12.0846L1.42883 12.4182C3.38794 13.4842 5.63375 14.0897 8.02041 14.0897V13.7099ZM14.8696 11.2005C14.9072 11.5739 14.7128 11.9327 14.379 12.1125L14.559 12.4469C15.0246 12.1962 15.3009 11.6925 15.2475 11.1625L14.8696 11.2005ZM0.745754 11.1327C0.690888 11.6618 0.964958 12.1658 1.42883 12.4182L1.61034 12.0846C1.27767 11.9036 1.08485 11.5447 1.12351 11.1718L0.745754 11.1327Z" fill="black"/>
<path fill-rule="evenodd" clip-rule="evenodd" d="M3.09569 11.3966C2.77344 11.2457 2.58372 10.9021 2.65696 10.5539C3.15462 8.18814 5.35544 6.40544 7.99509 6.40544C10.6347 6.40544 12.8356 8.18814 13.3332 10.5539C13.4065 10.9021 13.2167 11.2457 12.8945 11.3966C11.4067 12.093 9.74633 12.482 7.99509 12.482C6.24385 12.482 4.58348 12.093 3.09569 11.3966Z" fill="black"/>
<ellipse cx="9.84335" cy="9.77288" rx="1.36721" ry="0.886157" fill="white"/>
<ellipse cx="6.21933" cy="9.77361" rx="1.36721" ry="0.886157" fill="white"/>
</svg>
