<svg xmlns="http://www.w3.org/2000/svg" width="1211" height="525" fill="none"><path fill="#fff" stroke="#fff" stroke-width="19.962" d="M90.151 181.767c7.255.742 14.267-.106 20.688-2.272l.151.137.243.242c-27.306 31.046-46.57 71.225-54.521 115.69-5.634 31.47 11.252 61.729 39.21 75.041 45.57 21.688 96.546 33.818 150.295 33.818 53.748 0 103.68-11.888 148.887-33.151 28.063-13.206 45.07-43.45 39.527-74.966-7.86-44.707-27.533-84.825-54.581-116.341-34.151-39.815.106-.167.106-.167s11.737 2.544 18.037 2.105c24.307-1.681 43.904-21.535 45.267-45.873 1.621-29.153-22.368-53.127-51.522-51.492-24.004 1.348-43.737 20.476-45.782 44.435-.636 7.466.424 14.645 2.832 21.172l-.394.394-.227.227c-29.471-21.733-64.622-34.545-102.741-34.545s-73.512 12.903-103.059 34.787l-.227-.227-.364-.363-.712-.712a48.862 48.862 0 0 0 2.636-20.991c-2.166-23.837-21.854-42.814-45.752-44.161-29.214-1.636-53.203 22.353-51.568 51.537 1.333 23.686 19.96 43.253 43.556 45.691l.015-.015Z"/><path fill="#FFDF6F" fill-rule="evenodd" d="M105.054 351.417c-19.764-9.405-31.259-30.531-27.412-52.082 8.042-45.01 28.502-84.538 56.883-113.252a182.681 182.681 0 0 1 13.539-12.388c27.7-22.823 61.291-36.181 97.501-36.181 36.211 0 69.56 13.267 97.199 35.939a179.023 179.023 0 0 1 13.569 12.358c28.669 28.88 49.296 68.771 57.277 114.205 3.802 21.581-7.799 42.708-27.623 52.037-42.436 19.961-89.823 31.122-139.816 31.122-49.992 0-98.379-11.388-141.148-31.758h.031Z" clip-rule="evenodd"/><path fill="#000" d="m95.649 121.279-12.964 12.964 30.834 30.835a36.788 36.788 0 0 0 13.116-12.813l-30.986-30.986Z"/><path fill="#000" fill-rule="evenodd" d="M395.361 96.609c-19.839-.333-37.104 16.447-37.301 36.286a36.485 36.485 0 0 0 5.543 19.764l31.364-31.365 12.964 12.964-31.062 31.047c6.149 3.422 13.388 5.149 21.051 4.498 17.659-1.5 31.925-15.826 33.349-33.485 1.726-21.415-14.963-39.36-35.908-39.71Zm-31.758 56.05-14.297 14.281c4.695 3.877 9.208 8.027 13.54 12.389l14.023-14.024a36.761 36.761 0 0 1-13.266-12.646Zm59.064 145.782c-8.254-46.978-29.714-88.732-59.821-119.112l-6.482 6.482a179.014 179.014 0 0 0-13.57-12.343l6.512-6.528c-29.199-24.231-64.879-38.573-103.725-38.573-38.846 0-74.754 14.433-104.014 38.831l6.513 6.512a176.616 176.616 0 0 0-13.54 12.388l-6.482-6.482c-29.82 30.199-51.113 71.574-59.442 118.129-4.604 25.806 9.208 50.87 32.5 61.956 43.965 20.93 93.17 32.652 145.086 32.652 51.915 0 100.09-11.479 143.722-32 23.368-11.011 37.301-36.06 32.743-61.912Zm-40.557 45.313c-41.224 19.415-87.294 30.259-135.908 30.259-48.615 0-95.639-11.071-137.211-30.865-16.22-7.724-25.412-24.913-22.323-42.178 7.77-43.465 27.397-81.16 54.354-108.405l13.585-12.328c26.109-21.248 57.519-33.545 90.974-33.545 33.454 0 64.622 12.191 90.686 33.288l13.615 12.313c27.23 27.396 47.024 65.439 54.732 109.313 3.045 17.311-6.224 34.5-22.504 42.148ZM126.65 152.28a36.917 36.917 0 0 1-13.115 12.813l14.523 14.523a186.482 186.482 0 0 1 13.509-12.418L126.65 152.28Zm0 0a36.555 36.555 0 0 0 5.3-19.718c-.393-20.067-17.34-36.347-37.407-35.953-20.915.424-37.528 18.34-35.802 39.709 1.44 17.749 15.842 32.107 33.591 33.5a36.827 36.827 0 0 0 21.203-4.725L82.7 134.258l12.964-12.964 30.986 30.986Z" clip-rule="evenodd"/><path fill="#000" fill-rule="evenodd" d="m407.931 134.258-31.061 31.047a36.756 36.756 0 0 1-13.267-12.646l31.364-31.364 12.964 12.963ZM362.845 179.329l-6.481 6.482a179.225 179.225 0 0 0-13.57-12.343l6.512-6.528c4.695 3.877 9.208 8.027 13.539 12.389ZM148.08 173.71a176.616 176.616 0 0 0-13.54 12.388l-6.482-6.482a186.482 186.482 0 0 1 13.509-12.418l6.513 6.512ZM126.65 152.28a36.917 36.917 0 0 1-13.115 12.813L82.7 134.258l12.964-12.963 30.986 30.985Z" clip-rule="evenodd"/><path fill="#000" fill-rule="evenodd" d="M407.931 134.243 376.87 165.29a36.756 36.756 0 0 1-13.267-12.646l31.364-31.365 12.964 12.964Z" clip-rule="evenodd"/><path fill="#000" d="m349.306 166.925-6.527 6.528a179.023 179.023 0 0 1 13.569 12.358l6.482-6.482a185.622 185.622 0 0 0-13.524-12.389v-.015ZM141.552 167.183a189.529 189.529 0 0 0-13.509 12.418l6.482 6.482a182.48 182.48 0 0 1 13.539-12.388l-6.512-6.512Z"/><path fill="#000" fill-rule="evenodd" d="M140.946 329.064c-15.901-6.482-25.336-23.399-19.824-39.664 16.992-50.159 66.576-86.476 125.095-86.476 58.519 0 108.102 36.302 125.11 86.476 5.512 16.265-3.923 33.197-19.825 39.664-32.485 13.236-68.029 20.521-105.27 20.521s-72.785-7.285-105.27-20.521h-.016Z" clip-rule="evenodd"/><path fill="#fff" d="M288.395 305.59c16.878 0 30.562-10.944 30.562-24.444 0-13.5-13.684-24.443-30.562-24.443-16.879 0-30.562 10.943-30.562 24.443 0 13.5 13.683 24.444 30.562 24.444ZM200.919 305.605c16.879 0 30.562-10.944 30.562-24.444 0-13.5-13.683-24.443-30.562-24.443s-30.562 10.943-30.562 24.443c0 13.5 13.683 24.444 30.562 24.444ZM674.301 263.384h-42.548l20.794-59.184 21.754 59.184Zm-49.906-128.925L542.817 352h57.904l15.036-42.868h75.18l15.676 46.067 57.264-5.758-81.258-214.982h-58.224ZM838.077 352V126.142l-58.224 3.519V352h58.224Zm61.345 0 28.792-29.112V126.142l-58.224 3.519V352h29.432Zm9.918-94.694c6.185-6.398 11.943-11.517 17.275-15.356 5.332-3.839 10.557-5.758 15.676-5.758 6.185 0 11.303 1.386 15.355 4.159 4.266 2.772 7.465 6.931 9.598 12.476 2.346 5.332 3.519 11.943 3.519 19.835 0 7.891-1.173 14.716-3.519 20.474-2.346 5.759-5.439 10.131-9.278 13.116-3.839 2.986-8.211 4.479-13.116 4.479-5.545 0-11.304-1.493-17.275-4.479-5.972-3.199-12.05-7.677-18.235-13.436l-16.316 34.231c5.972 6.825 11.943 12.37 17.915 16.635 6.185 4.052 12.37 7.038 18.555 8.958 6.398 1.919 12.797 2.879 19.195 2.879 16.422 0 30.711-3.092 42.868-9.277 12.373-6.185 21.963-15.463 28.793-27.833 7.04-12.37 10.56-27.726 10.56-46.067 0-18.555-3.52-33.804-10.56-45.748-6.83-11.943-16.21-20.794-28.153-26.552-11.943-5.759-25.593-8.638-40.949-8.638-7.891 0-15.569 1.386-23.034 4.159-7.464 2.772-14.289 6.398-20.474 10.877-5.972 4.265-10.877 8.744-14.716 13.436l16.316 37.43Zm179.15 95.334c-1.06 2.986-3.84 5.972-8.31 8.957-4.48 2.986-9.6 5.759-15.36 8.318a469.514 469.514 0 0 1-16 7.038l19.52 45.108c10.24-2.346 20.15-5.972 29.75-10.877 9.6-4.905 18.02-10.877 25.27-17.915 7.26-7.038 12.48-14.716 15.68-23.034l68.14-173.393h-57.9l-29.76 87.656-31.67-93.414-53.74 15.356 55.66 142.681-1.28 3.519Z"/></svg>