<svg xmlns="http://www.w3.org/2000/svg" width="308" height="308" fill="none"><g clip-path="url(#a)"><circle r="30" fill="#000" transform="matrix(-1 0 0 1 31 57)"/><path stroke="#000" stroke-width="15" d="m26 52.5 56 56"/><circle cx="276" cy="57" r="30" fill="#000"/><path stroke="#000" stroke-width="15" d="m281.5 52.5-56 56"/><path fill="#FFDF6F" fill-rule="evenodd" d="M39.52 236.02c-16.17-7.7-25.58-24.98-22.43-42.61C30.62 117.75 87 61 154.5 61c67.66 0 124.16 57.02 137.5 132.96 3.12 17.66-6.37 34.94-22.6 42.57A267.96 267.96 0 0 1 155 262c-41.33 0-80.5-9.32-115.48-25.98Z" clip-rule="evenodd"/><path fill="#000" d="m292 193.96 7.4-1.3-7.4 1.3Zm-22.6 42.57-3.19-6.79 3.2 6.79Zm-244.93-41.8C37.54 121.62 91.58 68.5 154.5 68.5v-15c-72.08 0-130.8 60.38-144.8 138.59l14.77 2.64ZM154.5 68.5c63.07 0 117.22 53.38 130.12 126.76l14.78-2.6C285.6 114.16 226.76 53.5 154.5 53.5v15Zm111.71 161.24A260.47 260.47 0 0 1 155 254.5v15c42.04 0 81.9-9.39 117.6-26.18l-6.39-13.58ZM155 254.5c-40.2 0-78.25-9.06-112.26-25.25l-6.45 13.54A275.46 275.46 0 0 0 155 269.5v-15Zm129.62-59.24c2.5 14.16-5.09 28.22-18.41 34.48l6.39 13.58c19.13-9 30.52-29.5 26.8-50.66l-14.78 2.6ZM9.71 192.09c-3.78 21.12 7.52 41.63 26.58 50.7l6.45-13.54c-13.28-6.32-20.8-20.39-18.27-34.52l-14.76-2.64Z"/><path fill="#000" fill-rule="evenodd" d="M68.36 217.2c-13.01-5.3-20.73-19.14-16.22-32.45C66.04 143.7 106.62 114 154.5 114s88.45 29.7 102.36 70.75c4.51 13.31-3.2 27.16-16.22 32.46A227.86 227.86 0 0 1 154.5 234c-30.47 0-59.55-5.97-86.14-16.8Z" clip-rule="evenodd"/><ellipse cx="189" cy="178" fill="#fff" rx="25" ry="20"/><ellipse cx="117.43" cy="178.01" fill="#fff" rx="25" ry="20"/></g><defs><clipPath id="a"><path fill="#fff" d="M0 0h308v308H0z"/></clipPath></defs></svg>