<svg width="400" height="400" viewBox="0 0 400 400" fill="none" xmlns="http://www.w3.org/2000/svg">
<rect width="400" height="400" fill="white"/>
<g clip-path="url(#clip0_566_24939)">
<path d="M116.888 148.915C116.888 148.922 116.894 148.928 116.897 148.934L116.907 148.954C116.901 148.941 116.894 148.928 116.888 148.915ZM116.677 148.525C116.677 148.525 116.677 148.525 116.677 148.522V148.525ZM326.875 277.088C324.625 264.544 319.096 250.522 311.07 235.725C309.662 233.126 308.181 230.509 306.629 227.878C299.656 236.858 292.408 245.267 284.334 253.392C290.405 264.963 293.963 274.576 295.397 282.134V282.144L295.4 282.154C297.032 290.707 295.563 293.827 295.105 294.499C294.984 294.675 294.821 294.874 294.245 295.123C293.521 295.437 291.989 295.869 289.23 295.869H288.504C282.437 295.683 273.752 293.574 262.289 288.438L262.277 288.432L262.264 288.426C259.614 287.245 256.897 285.939 254.126 284.515C245.342 292.531 236.83 299.853 228.008 306.614C235.297 310.906 242.465 314.65 249.429 317.779H249.435L249.771 317.933C263.777 324.182 277.163 327.958 289.041 328.006C301.342 328.054 313.557 323.955 321.237 312.88C328.481 302.429 329.083 289.379 326.878 277.088H326.875ZM240.088 253.898L240.427 253.574C249.672 244.714 258.44 235.552 266.609 226.288C280.136 210.65 292.897 193.485 305.736 173.635C307.614 170.496 309.393 167.376 311.07 164.285C319.099 149.488 324.629 135.466 326.875 122.922C329.08 110.63 328.478 97.5776 321.233 87.1296C313.553 76.0512 301.336 71.9552 289.038 72C281.889 72.0288 274.19 73.408 266.142 75.8656C272.926 84.7744 277.816 94.736 280.811 105.162C283.729 104.528 286.289 104.205 288.504 104.138H289.23C291.989 104.138 293.521 104.573 294.245 104.883C294.821 105.133 294.984 105.331 295.105 105.507C295.563 106.176 297.032 109.299 295.4 117.853V117.862L295.397 117.872C293.896 125.805 290.049 135.997 283.419 148.342C283.406 148.365 283.393 148.39 283.381 148.413L283.368 148.435C283.368 148.442 283.361 148.448 283.358 148.454V148.461C283.352 148.474 283.345 148.483 283.339 148.496L283.326 148.522C283.326 148.525 283.323 148.528 283.32 148.534V148.541C283.313 148.55 283.307 148.563 283.301 148.576C283.288 148.602 283.275 148.627 283.259 148.65C283.249 148.669 283.237 148.691 283.227 148.71C283.217 148.726 283.208 148.746 283.198 148.762C283.189 148.781 283.176 148.8 283.166 148.822V148.826C283.166 148.826 283.166 148.829 283.163 148.832C283.16 148.842 283.153 148.848 283.15 148.858C283.15 148.861 283.147 148.867 283.144 148.87C283.144 148.87 283.144 148.877 283.141 148.88C283.141 148.883 283.137 148.89 283.134 148.893C283.128 148.902 283.121 148.915 283.118 148.925C283.115 148.931 283.112 148.941 283.105 148.947C283.099 148.96 283.089 148.976 283.083 148.989C283.08 148.998 283.073 149.005 283.07 149.014C278.667 157.158 273.326 165.667 267.176 174.342C260.977 183.082 255.953 189.68 247.128 200C240.869 207.322 234.161 214.608 227.096 221.776C224.2 224.714 221.24 227.632 218.229 230.522H218.225C218.225 230.525 218.222 230.531 218.222 230.531C216.939 231.763 215.656 232.982 214.369 234.189C214.363 234.192 214.36 234.198 214.353 234.202C209.605 238.65 204.817 242.918 200.04 246.979L200.033 246.973C191.585 254.224 183.173 260.867 174.261 267.034C174.273 267.043 174.286 267.056 174.299 267.069C164.469 273.994 154.977 279.83 146.069 284.422C143.237 285.882 140.465 287.219 137.758 288.422L137.729 288.435C126.267 293.568 117.585 295.68 111.515 295.866H110.789C108.03 295.866 106.497 295.43 105.774 295.12C105.198 294.87 105.035 294.672 104.913 294.496C104.459 293.827 102.987 290.704 104.619 282.15V282.141L104.622 282.131C106.033 274.678 109.512 265.232 115.425 253.882C107.829 245.558 100.533 236.922 93.4318 227.805C91.8638 230.461 90.3694 233.101 88.9486 235.722C80.9198 250.518 75.3902 264.541 73.1438 277.085C70.9422 289.376 71.5406 302.429 78.7854 312.877C86.4654 323.952 98.6798 328.051 110.981 328.003C122.859 327.958 136.245 324.179 150.251 317.93L150.587 317.779H150.593C163 312.198 176.056 304.672 189.294 295.581C203.55 285.642 217.393 274.618 231.483 261.939C234.369 259.318 237.246 256.634 240.11 253.891L240.088 253.898ZM152.885 200.003C144.059 189.68 139.035 183.085 132.837 174.346C126.689 165.677 121.352 157.174 116.952 149.037C116.942 149.018 116.933 148.998 116.923 148.979C116.917 148.97 116.913 148.96 116.907 148.95C116.904 148.944 116.901 148.938 116.897 148.931C116.891 148.918 116.885 148.906 116.878 148.896C116.872 148.886 116.869 148.877 116.862 148.867C116.862 148.864 116.859 148.858 116.856 148.854C116.856 148.854 116.856 148.851 116.856 148.848C116.856 148.845 116.849 148.838 116.849 148.835L116.843 148.826C116.843 148.822 116.837 148.816 116.837 148.813C116.837 148.813 116.837 148.813 116.837 148.81C116.837 148.806 116.833 148.8 116.83 148.797C116.824 148.784 116.814 148.768 116.801 148.746C116.789 148.726 116.779 148.704 116.769 148.685C116.769 148.682 116.766 148.675 116.763 148.672C116.741 148.634 116.721 148.595 116.702 148.557C116.683 148.518 116.702 148.557 116.702 148.554C116.702 148.55 116.702 148.554 116.702 148.55C116.702 148.55 116.702 148.544 116.699 148.541C116.699 148.541 116.696 148.534 116.693 148.531C116.686 148.522 116.68 148.509 116.677 148.499C116.67 148.49 116.667 148.48 116.661 148.47C116.661 148.467 116.654 148.461 116.654 148.458C116.651 148.451 116.648 148.442 116.641 148.435C116.625 148.406 116.606 148.371 116.587 148.333C116.581 148.323 116.574 148.31 116.568 148.298C116.561 148.285 116.555 148.272 116.549 148.262C116.549 148.262 116.549 148.256 116.545 148.256C109.953 135.965 106.126 125.811 104.629 117.904V117.894L104.625 117.885C102.993 109.331 104.462 106.211 104.92 105.539C105.041 105.363 105.205 105.165 105.781 104.915C106.504 104.602 108.037 104.17 110.795 104.17H111.521C113.717 104.237 116.251 104.554 119.134 105.178C122.133 94.7488 127.025 84.7872 133.813 75.8784C125.761 73.3984 118.088 72.0288 110.958 72C98.6606 71.9552 86.443 76.0512 78.763 87.1264C71.5182 97.5776 70.9198 110.63 73.1214 122.922C75.371 135.466 80.9006 149.488 88.9262 164.285C90.3918 166.992 91.9406 169.722 93.563 172.464C106.238 192.333 119.073 209.578 132.958 225.498C132.917 225.555 132.878 225.61 132.84 225.667C138.542 232.157 144.539 238.598 150.789 244.925C159.355 238.794 167.8 232.243 176.27 225.146C167.966 216.902 160.126 208.477 152.885 200.006V200.003ZM116.888 148.915C116.888 148.922 116.894 148.928 116.897 148.934L116.907 148.954C116.901 148.941 116.894 148.928 116.888 148.915Z" fill="#FFC802"/>
<path d="M160.401 167.597C138.533 145.728 138.533 110.269 160.401 88.4C182.27 66.5312 217.729 66.5312 239.598 88.4C261.467 110.269 261.467 145.728 239.598 167.597L200.001 207.194L160.405 167.597H160.401Z" fill="#202020"/>
</g>
<defs>
<clipPath id="clip0_566_24939">
<rect width="256" height="256" fill="white" transform="translate(72 72)"/>
</clipPath>
</defs>
</svg>
