<svg width="110" height="49" viewBox="0 0 110 49" fill="none" xmlns="http://www.w3.org/2000/svg">
<rect width="48.1695" height="49" rx="10" fill="#F8C555"/>
<path d="M31.2761 35.2718C35.0422 35.2718 36.7564 26.5033 36.7564 23.1785C36.7564 20.5871 35.0558 19.0166 32.8202 19.0166C30.5985 19.0166 28.7948 20.0212 28.7724 21.2651C28.7724 24.5481 28.2228 35.2718 31.2761 35.2718Z" fill="white" stroke="black" stroke-width="1.14365"/>
<path d="M17.3499 35.2718C13.5837 35.2718 11.8696 26.5033 11.8696 23.1785C11.8696 20.5871 13.5701 19.0166 15.8058 19.0166C18.0275 19.0166 19.8312 20.0212 19.8536 21.2651C19.8536 24.5481 20.4031 35.2718 17.3499 35.2718Z" fill="white" stroke="black" stroke-width="1.14365"/>
<mask id="path-4-inside-1_2482_16001" fill="white">
<path fill-rule="evenodd" clip-rule="evenodd" d="M34.7945 22.5668C34.8567 21.9504 34.1642 21.5783 33.6313 21.8941C30.8458 23.5448 27.5945 24.4924 24.1219 24.4924C20.6814 24.4924 17.4582 23.5623 14.69 21.9398C14.156 21.6268 13.4658 22.0014 13.5301 22.617C14.0042 27.158 16.478 30.959 19.868 32.7281C20.8135 33.2215 21.475 34.0939 22.1392 34.9697C22.677 35.6789 23.2166 36.3904 23.9101 36.905C23.9905 36.9647 24.0743 36.9962 24.1603 36.9962C24.2466 36.9962 24.3305 36.9645 24.411 36.9046C25.1033 36.3899 25.6423 35.6791 26.1796 34.9707C26.8442 34.0944 27.5061 33.2215 28.4522 32.7277C31.8542 30.9518 34.3335 27.1296 34.7945 22.5668Z"/>
</mask>
<path fill-rule="evenodd" clip-rule="evenodd" d="M34.7945 22.5668C34.8567 21.9504 34.1642 21.5783 33.6313 21.8941C30.8458 23.5448 27.5945 24.4924 24.1219 24.4924C20.6814 24.4924 17.4582 23.5623 14.69 21.9398C14.156 21.6268 13.4658 22.0014 13.5301 22.617C14.0042 27.158 16.478 30.959 19.868 32.7281C20.8135 33.2215 21.475 34.0939 22.1392 34.9697C22.677 35.6789 23.2166 36.3904 23.9101 36.905C23.9905 36.9647 24.0743 36.9962 24.1603 36.9962C24.2466 36.9962 24.3305 36.9645 24.411 36.9046C25.1033 36.3899 25.6423 35.6791 26.1796 34.9707C26.8442 34.0944 27.5061 33.2215 28.4522 32.7277C31.8542 30.9518 34.3335 27.1296 34.7945 22.5668Z" fill="#FFDF6F"/>
<path d="M19.868 32.7281L20.3971 31.7142H20.3971L19.868 32.7281ZM22.1392 34.9697L23.0505 34.2787V34.2787L22.1392 34.9697ZM23.9101 36.905L23.2286 37.8235H23.2286L23.9101 36.905ZM24.411 36.9046L23.7286 35.9869L23.7286 35.9869L24.411 36.9046ZM26.1796 34.9707L27.0908 35.6618V35.6618L26.1796 34.9707ZM28.4522 32.7277L27.9229 31.7139H27.9229L28.4522 32.7277ZM34.7945 22.5668L35.9323 22.6817L34.7945 22.5668ZM33.0482 20.9102C30.4343 22.4592 27.3837 23.3487 24.1219 23.3487V25.636C27.8052 25.636 31.2572 24.6304 34.2143 22.878L33.0482 20.9102ZM24.1219 23.3487C20.8902 23.3487 17.8659 22.4756 15.2683 20.9531L14.1117 22.9265C17.0505 24.6489 20.4727 25.636 24.1219 25.636V23.3487ZM12.3926 22.7358C12.9005 27.601 15.5607 31.7703 19.3389 33.742L20.3971 31.7142C17.3953 30.1476 15.1078 26.715 14.6675 22.4983L12.3926 22.7358ZM19.3389 33.742C20.0174 34.0961 20.5312 34.742 21.228 35.6608L23.0505 34.2787C22.4189 33.4458 21.6097 32.347 20.3971 31.7142L19.3389 33.742ZM21.228 35.6608C21.746 36.3439 22.381 37.1945 23.2286 37.8235L24.5916 35.9866C24.0522 35.5863 23.6081 35.0139 23.0505 34.2787L21.228 35.6608ZM23.2286 37.8235C23.4615 37.9963 23.7786 38.1399 24.1603 38.1399V35.8526C24.37 35.8526 24.5195 35.9331 24.5916 35.9866L23.2286 37.8235ZM24.1603 38.1399C24.5429 38.1399 24.8605 37.9956 25.0935 37.8224L23.7286 35.9869C23.8005 35.9334 23.9502 35.8526 24.1603 35.8526V38.1399ZM25.0935 37.8224C25.9392 37.1935 26.5733 36.3442 27.0908 35.6618L25.2683 34.2797C24.7114 35.014 24.2675 35.5862 23.7286 35.9869L25.0935 37.8224ZM27.0908 35.6618C27.788 34.7425 28.3022 34.096 28.9814 33.7415L27.9229 31.7139C26.7099 32.347 25.9003 33.4462 25.2683 34.2797L27.0908 35.6618ZM28.9814 33.7415C32.7729 31.7624 35.4384 27.57 35.9323 22.6817L33.6566 22.4518C33.2285 26.6892 30.9356 30.1413 27.9229 31.7139L28.9814 33.7415ZM15.2683 20.9531C14.6311 20.5796 13.8886 20.613 13.3205 20.936C12.7371 21.2676 12.3084 21.9293 12.3926 22.7358L14.6675 22.4983C14.6755 22.5749 14.6601 22.6693 14.612 22.7572C14.5668 22.8396 14.5058 22.8932 14.4509 22.9244C14.3453 22.9844 14.215 22.987 14.1117 22.9265L15.2683 20.9531ZM34.2143 22.878C34.1113 22.939 33.9808 22.937 33.875 22.8774C33.8199 22.8464 33.7586 22.793 33.7131 22.7107C33.6646 22.6229 33.6489 22.5285 33.6566 22.4518L35.9323 22.6817C36.0139 21.8743 35.5822 21.2137 34.9971 20.8843C34.4273 20.5635 33.6842 20.5334 33.0482 20.9102L34.2143 22.878Z" fill="black" mask="url(#path-4-inside-1_2482_16001)"/>
<ellipse cx="24.1984" cy="22.4343" rx="10.0641" ry="3.35471" fill="black" stroke="black" stroke-width="1.14365"/>
<path d="M16.1162 28.0762C16.1162 28.0762 21.0803 29.7535 24.2743 29.7535C27.4682 29.7535 32.4323 28.0762 32.4323 28.0762" stroke="black" stroke-width="1.14365" stroke-linecap="round"/>
<circle r="2.2873" transform="matrix(-1 0 0 1 14.7439 8.10078)" fill="black"/>
<path d="M14.3632 7.75732L18.6328 12.027" stroke="black" stroke-width="1.14365"/>
<circle cx="33.425" cy="8.10078" r="2.2873" fill="black"/>
<path d="M33.8438 7.75732L29.5742 12.027" stroke="black" stroke-width="1.14365"/>
<path fill-rule="evenodd" clip-rule="evenodd" d="M15.3943 21.7499C14.1615 21.163 13.444 19.8451 13.6843 18.501C14.7158 12.7324 19.0146 8.40576 24.1611 8.40576C29.3199 8.40576 33.627 12.7533 34.6452 18.5428C34.882 19.8892 34.1587 21.2065 32.9217 21.7887C30.2748 23.0343 27.3182 23.7307 24.199 23.7307C21.0475 23.7307 18.0621 23.0199 15.3943 21.7499Z" fill="#FFDF6F"/>
<path d="M34.6452 18.5428L35.2084 18.4437L34.6452 18.5428ZM32.9217 21.7887L32.6782 21.2713L32.9217 21.7887ZM15.3943 21.7499L15.1485 22.2662L15.3943 21.7499ZM14.2472 18.6017C15.2439 13.0276 19.364 8.97759 24.1611 8.97759V7.83394C18.6652 7.83394 14.1877 12.4372 13.1214 18.4004L14.2472 18.6017ZM24.1611 8.97759C28.9696 8.97759 33.0981 13.0473 34.082 18.6418L35.2084 18.4437C34.1559 12.4593 29.6702 7.83394 24.1611 7.83394V8.97759ZM32.6782 21.2713C30.1058 22.4818 27.2323 23.1588 24.199 23.1588V24.3025C27.4041 24.3025 30.4437 23.5868 33.1652 22.3061L32.6782 21.2713ZM24.199 23.1588C21.1344 23.1588 18.2327 22.4678 15.6401 21.2336L15.1485 22.2662C17.8915 23.572 20.9607 24.3025 24.199 24.3025V23.1588ZM34.082 18.6418C34.2719 19.7213 33.6939 20.7933 32.6782 21.2713L33.1652 22.3061C34.6236 21.6198 35.4921 20.0571 35.2084 18.4437L34.082 18.6418ZM13.1214 18.4004C12.8334 20.0109 13.6951 21.5743 15.1485 22.2662L15.6401 21.2336C14.6278 20.7517 14.0545 19.6792 14.2472 18.6017L13.1214 18.4004Z" fill="black"/>
<path fill-rule="evenodd" clip-rule="evenodd" d="M17.5936 20.3163C16.6013 19.9122 16.0127 18.8564 16.3565 17.8416C17.4169 14.712 20.5101 12.4473 24.1609 12.4473C27.8115 12.4473 30.9047 14.7119 31.9652 17.8414C32.3091 18.8561 31.7204 19.912 30.7281 20.3161C28.7013 21.1416 26.4841 21.5964 24.1606 21.5964C21.8374 21.5964 19.6203 21.1417 17.5936 20.3163Z" fill="black"/>
<ellipse cx="26.9433" cy="17.7453" rx="2.05857" ry="1.33426" transform="rotate(-14 26.9433 17.7453)" fill="white"/>
<ellipse cx="21.4866" cy="17.7463" rx="2.05857" ry="1.33426" transform="rotate(14 21.4866 17.7463)" fill="white"/>
<ellipse opacity="0.1" cx="24.1603" cy="41.9529" rx="7.43373" ry="1.37238" fill="black"/>
<path d="M68.868 25.084H64.188L66.502 18.948L68.868 25.084ZM65.15 14.32L58.26 32H61.64L63.2 27.84H69.908L71.494 32.26L74.874 31.792L68.01 14.32H65.15ZM80.1827 32V13.644L76.8287 13.93V32H80.1827ZM85.2732 32L86.9112 29.842V13.644L83.5572 13.93V32H85.2732ZM85.7672 23.602C86.3739 23.0473 86.9372 22.6313 87.4572 22.354C87.9772 22.0767 88.5405 21.938 89.1472 21.938C89.8059 21.938 90.3519 22.1027 90.7852 22.432C91.2185 22.744 91.5479 23.1773 91.7732 23.732C91.9985 24.2693 92.1112 24.902 92.1112 25.63C92.1112 26.3407 91.9985 26.9907 91.7732 27.58C91.5652 28.152 91.2359 28.6027 90.7852 28.932C90.3345 29.2613 89.7885 29.426 89.1472 29.426C88.5579 29.426 87.9945 29.3047 87.4572 29.062C86.9199 28.802 86.3565 28.334 85.7672 27.658L84.8052 29.946C85.0652 30.3447 85.4379 30.726 85.9232 31.09C86.4085 31.454 86.9372 31.7487 87.5092 31.974C88.0985 32.1993 88.6445 32.312 89.1472 32.312C90.5339 32.312 91.7039 32.0347 92.6572 31.48C93.6105 30.908 94.3385 30.128 94.8412 29.14C95.3612 28.1347 95.6212 26.9647 95.6212 25.63C95.6212 24.2953 95.3612 23.134 94.8412 22.146C94.3385 21.158 93.6105 20.3953 92.6572 19.858C91.7212 19.3207 90.5945 19.052 89.2772 19.052C88.6879 19.052 88.1245 19.1473 87.5872 19.338C87.0499 19.5287 86.5472 19.7973 86.0792 20.144C85.6285 20.4907 85.2039 20.9067 84.8052 21.392L85.7672 23.602ZM100.268 32.598C100.129 32.9793 99.869 33.3173 99.4877 33.612C99.1237 33.9067 98.7077 34.1667 98.2397 34.392C97.789 34.6173 97.3643 34.8167 96.9657 34.99L98.1617 37.772C98.907 37.5987 99.6263 37.3213 100.32 36.94C101.03 36.5587 101.663 36.082 102.218 35.51C102.772 34.9553 103.18 34.34 103.44 33.664L109.082 19.39H105.52L102.79 27.034L99.8517 18.896L96.5237 19.936L100.866 31.116L100.268 32.598Z" fill="black"/>
</svg>
