<svg width="16" height="16" viewBox="0 0 16 16" fill="none" xmlns="http://www.w3.org/2000/svg">
<ellipse rx="1.62978" ry="1.6292" transform="matrix(-1 0 0 1 2.91831 4.0042)" fill="black"/>
<path d="M2.64671 3.75977L5.68896 6.80094" stroke="black" stroke-width="0.8146"/>
<ellipse cx="12.9686" cy="4.0042" rx="1.62978" ry="1.6292" fill="black"/>
<path d="M13.2675 3.75977L10.2252 6.80094" stroke="black" stroke-width="0.8146"/>
<path fill-rule="evenodd" clip-rule="evenodd" d="M1.75111 12.0967C0.872821 11.6788 0.361604 10.7399 0.532894 9.78244C1.26795 5.67369 4.33094 2.59204 7.99788 2.59204C11.6737 2.59204 14.7426 5.68863 15.4682 9.81229C15.6369 10.7715 15.1216 11.7099 14.2403 12.1245C12.3542 13.0118 10.2476 13.5077 8.02502 13.5077C5.77941 13.5077 3.6521 13.0014 1.75111 12.0967Z" fill="#FFDF6F"/>
<path fill-rule="evenodd" clip-rule="evenodd" d="M1.75111 12.0967C0.872821 11.6788 0.361604 10.7399 0.532894 9.78244C1.26795 5.67369 4.33094 2.59204 7.99788 2.59204C11.6737 2.59204 14.7426 5.68863 15.4682 9.81229C15.6369 10.7715 15.1216 11.7099 14.2403 12.1245C12.3542 13.0118 10.2476 13.5077 8.02502 13.5077C5.77941 13.5077 3.6521 13.0014 1.75111 12.0967Z" fill="black" fill-opacity="0.5" style="mix-blend-mode:saturation"/>
<path d="M15.4682 9.81229L15.067 9.88287L15.4682 9.81229ZM0.532894 9.78244L0.131959 9.71072L0.532894 9.78244ZM0.933828 9.85417C1.64407 5.88412 4.57968 2.99934 7.99788 2.99934V2.18474C4.0822 2.18474 0.891825 5.46327 0.131959 9.71072L0.933828 9.85417ZM7.99788 2.99934C11.4243 2.99934 14.366 5.89819 15.067 9.88287L15.8693 9.74172C15.1193 5.47906 11.9231 2.18474 7.99788 2.18474V2.99934ZM14.0669 11.7559C12.2339 12.6182 10.1864 13.1004 8.02502 13.1004V13.915C10.3087 13.915 12.4745 13.4053 14.4137 12.493L14.0669 11.7559ZM8.02502 13.1004C5.84123 13.1004 3.7736 12.6082 1.92613 11.729L1.57608 12.4645C3.5306 13.3947 5.71759 13.915 8.02502 13.915V13.1004ZM15.067 9.88287C15.2023 10.6519 14.7905 11.4155 14.0669 11.7559L14.4137 12.493C15.4526 12.0043 16.0715 10.8911 15.8693 9.74172L15.067 9.88287ZM0.131959 9.71072C-0.0732996 10.8581 0.540675 11.9718 1.57608 12.4645L1.92613 11.729C1.20497 11.3858 0.796507 10.6218 0.933828 9.85417L0.131959 9.71072Z" fill="black"/>
<path fill-rule="evenodd" clip-rule="evenodd" d="M3.31842 11.0752C2.61147 10.7873 2.19206 10.0352 2.43711 9.31232C3.19271 7.08327 5.39672 5.47021 7.99794 5.47021C10.5991 5.47021 12.8031 7.08324 13.5588 9.31226C13.8038 10.0351 13.3844 10.7873 12.6775 11.0751C11.2333 11.6631 9.65343 11.9871 7.99788 11.9871C6.34238 11.9871 4.76256 11.6631 3.31842 11.0752Z" fill="black"/>
<path d="M10.9586 9.19043H8.78552" stroke="white" stroke-width="0.543066" stroke-linecap="round"/>
<path d="M7.15577 9.19043H4.98273" stroke="white" stroke-width="0.543066" stroke-linecap="round"/>
</svg>
