<svg width="32" height="32" viewBox="0 0 32 32" fill="none" xmlns="http://www.w3.org/2000/svg">
<ellipse rx="3.25956" ry="3.2584" transform="matrix(-1 0 0 1 5.83672 8.0084)" fill="black"/>
<path d="M5.29344 7.51953L11.378 13.6019" stroke="black" stroke-width="1.6292"/>
<ellipse cx="25.9374" cy="8.0084" rx="3.25956" ry="3.2584" fill="black"/>
<path d="M26.5349 7.51953L20.4504 13.6019" stroke="black" stroke-width="1.6292"/>
<path fill-rule="evenodd" clip-rule="evenodd" d="M3.50222 24.1937C1.74564 23.3577 0.723203 21.48 1.06579 19.5651C2.53591 11.3476 8.66189 5.18433 15.9958 5.18433C23.3474 5.18433 29.4852 11.3775 30.9363 19.6248C31.2739 21.5432 30.2431 23.42 28.4806 24.2492C24.7084 26.0237 20.4951 27.0157 16.05 27.0157C11.5588 27.0157 7.3042 26.003 3.50222 24.1937Z" fill="#FFDF6F"/>
<path fill-rule="evenodd" clip-rule="evenodd" d="M3.50222 24.1937C1.74564 23.3577 0.723203 21.48 1.06579 19.5651C2.53591 11.3476 8.66189 5.18433 15.9958 5.18433C23.3474 5.18433 29.4852 11.3775 30.9363 19.6248C31.2739 21.5432 30.2431 23.42 28.4806 24.2492C24.7084 26.0237 20.4951 27.0157 16.05 27.0157C11.5588 27.0157 7.3042 26.003 3.50222 24.1937Z" fill="black" fill-opacity="0.5" style="mix-blend-mode:saturation"/>
<path d="M28.4806 24.2492L28.1338 23.5121L28.4806 24.2492ZM1.86766 19.7085C3.28815 11.7685 9.15936 5.99893 15.9958 5.99893V4.36973C8.16441 4.36973 1.78367 10.9267 0.263921 19.4216L1.86766 19.7085ZM15.9958 5.99893C22.8486 5.99893 28.7319 11.7966 30.134 19.7659L31.7386 19.4836C30.2386 10.9583 23.8461 4.36973 15.9958 4.36973V5.99893ZM28.1338 23.5121C24.4679 25.2366 20.3727 26.2011 16.05 26.2011V27.8303C20.6175 27.8303 24.949 26.8108 28.8273 24.9863L28.1338 23.5121ZM16.05 26.2011C11.6824 26.2011 7.5472 25.2165 3.85226 23.4581L3.15217 24.9292C7.0612 26.7895 11.4352 27.8303 16.05 27.8303V26.2011ZM30.134 19.7659C30.4046 21.3039 29.581 22.8312 28.1338 23.5121L28.8273 24.9863C30.9053 24.0087 32.1431 21.7824 31.7386 19.4836L30.134 19.7659ZM0.263921 19.4216C-0.146605 21.7163 1.08135 23.9438 3.15217 24.9292L3.85226 23.4581C2.40994 22.7717 1.59301 21.2437 1.86766 19.7085L0.263921 19.4216Z" fill="black"/>
<path fill-rule="evenodd" clip-rule="evenodd" d="M6.63678 22.1507C5.22287 21.5751 4.38405 20.0708 4.87417 18.625C6.38541 14.167 10.7934 10.9409 15.9958 10.9409C21.1981 10.9409 25.6061 14.1669 27.1174 18.6249C27.6075 20.0707 26.7687 21.5749 25.3548 22.1506C22.4664 23.3266 19.3067 23.9745 15.9957 23.9745C12.6847 23.9745 9.52506 23.3266 6.63678 22.1507Z" fill="black"/>
<path d="M21.9172 18.3809H17.5711" stroke="white" stroke-width="1.08613" stroke-linecap="round"/>
<path d="M14.3116 18.3809H9.96548" stroke="white" stroke-width="1.08613" stroke-linecap="round"/>
</svg>
