<svg width="32" height="32" viewBox="0 0 32 32" fill="none" xmlns="http://www.w3.org/2000/svg">
<circle r="3.03825" transform="matrix(-1 0 0 1 3.48268 7.03825)" fill="black"/>
<path d="M2.97636 6.58252L8.64777 12.2539" stroke="black" stroke-width="0.759563"/>
<circle cx="28.2951" cy="7.03825" r="3.03825" fill="black"/>
<path d="M28.8521 6.58252L23.1807 12.2539" stroke="black" stroke-width="0.759563"/>
<path fill-rule="evenodd" clip-rule="evenodd" d="M3.0391 24.5028C2.24257 24.0694 1.77568 23.2065 1.8692 22.3045C2.73775 13.9278 8.72875 7.44336 15.9901 7.44336C23.2684 7.44336 29.2704 13.958 30.1171 22.363C30.2081 23.2664 29.7374 24.1289 28.9379 24.5594C25.0987 26.6266 20.7067 27.7996 16.0408 27.7996C11.3324 27.7996 6.90303 26.6052 3.0391 24.5028Z" fill="#FFDF6F"/>
<path d="M28.9379 24.5594L28.7578 24.225L28.9379 24.5594ZM2.24696 22.3437C3.10142 14.1029 8.97627 7.82314 15.9901 7.82314V7.06358C8.48122 7.06358 2.37409 13.7528 1.49145 22.2653L2.24696 22.3437ZM15.9901 7.82314C23.0203 7.82314 28.9062 14.1323 29.7392 22.4011L30.4949 22.3249C29.6345 13.7838 23.5166 7.06358 15.9901 7.06358V7.82314ZM28.7578 24.225C24.9726 26.2632 20.6423 27.4198 16.0408 27.4198V28.1794C20.7711 28.1794 25.2248 26.9901 29.1179 24.8938L28.7578 24.225ZM16.0408 27.4198C11.3974 27.4198 7.03024 26.2421 3.22061 24.1692L2.85759 24.8364C6.77583 26.9683 11.2674 28.1794 16.0408 28.1794V27.4198ZM29.7392 22.4011C29.8144 23.1479 29.4256 23.8655 28.7578 24.225L29.1179 24.8938C30.0491 24.3924 30.6017 23.3849 30.4949 22.3249L29.7392 22.4011ZM1.49145 22.2653C1.38172 23.3236 1.92985 24.3316 2.85759 24.8364L3.22061 24.1692C2.55529 23.8072 2.16965 23.0893 2.24696 22.3437L1.49145 22.2653Z" fill="black"/>
<path fill-rule="evenodd" clip-rule="evenodd" d="M6.19139 22.793C5.54689 22.4914 5.16745 21.8041 5.31394 21.1077C6.30925 16.3762 10.7109 12.8108 15.9902 12.8108C21.2695 12.8108 25.6711 16.3762 26.6665 21.1077C26.8129 21.8041 26.4335 22.4914 25.789 22.7931C22.8134 24.1858 19.4927 24.9639 15.9902 24.9639C12.4877 24.9639 9.16697 24.1858 6.19139 22.793Z" fill="black"/>
<ellipse cx="19.6868" cy="19.5458" rx="2.73443" ry="1.77231" fill="white"/>
<ellipse cx="12.4387" cy="19.547" rx="2.73443" ry="1.77231" fill="white"/>
</svg>
