<svg width="48" height="48" viewBox="0 0 48 48" fill="none" xmlns="http://www.w3.org/2000/svg">
<circle r="3.6" transform="matrix(-1 0 0 1 9.24033 13.56)" fill="#3C6ECF"/>
<path d="M8.64035 13.0195L15.3604 19.7395" stroke="#3C6ECF" stroke-width="1.8"/>
<circle cx="38.64" cy="13.56" r="3.6" fill="#3C6ECF"/>
<path d="M39.3001 13.0195L32.5801 19.7395" stroke="#3C6ECF" stroke-width="1.8"/>
<path fill-rule="evenodd" clip-rule="evenodd" d="M10.2619 35.0423C8.32163 34.1186 7.19241 32.0443 7.57067 29.9289C9.19417 20.8497 15.9601 14.04 24.0601 14.04C32.1797 14.04 38.9587 20.8827 40.5612 29.995C40.9338 32.1142 39.7954 34.1875 37.8485 35.1037C33.6825 37.0642 29.0293 38.16 24.1201 38.16C19.1598 38.16 14.4609 37.0413 10.2619 35.0423Z" fill="#5D8FED"/>
<path d="M40.5612 29.995L41.4476 29.8391L40.5612 29.995ZM37.8485 35.1037L37.4653 34.2893L37.8485 35.1037ZM10.2619 35.0423L9.87506 35.8549L9.87506 35.8549L10.2619 35.0423ZM8.45662 30.0874C10.0254 21.3144 16.5099 14.94 24.0601 14.94V13.14C15.4102 13.14 8.36299 20.385 6.68472 29.7705L8.45662 30.0874ZM24.0601 14.94C31.6284 14.94 38.1263 21.3455 39.6748 30.1508L41.4476 29.8391C39.7911 20.42 32.731 13.14 24.0601 13.14V14.94ZM37.4653 34.2893C33.4167 36.1946 28.894 37.26 24.1201 37.26V39.06C29.1645 39.06 33.9484 37.9337 38.2317 35.918L37.4653 34.2893ZM24.1201 37.26C19.2965 37.26 14.7295 36.1723 10.6488 34.2297L9.87506 35.8549C14.1924 37.9102 19.0232 39.06 24.1201 39.06V37.26ZM39.6748 30.1508C39.9735 31.8499 39.0638 33.5371 37.4653 34.2893L38.2317 35.918C40.5271 34.8379 41.8941 32.3785 41.4476 29.8391L39.6748 30.1508ZM6.68472 29.7705C6.23146 32.3053 7.58762 34.766 9.87506 35.8549L10.6488 34.2297C9.05564 33.4713 8.15336 31.7833 8.45662 30.0874L6.68472 29.7705Z" fill="#3C6ECF"/>
<path fill-rule="evenodd" clip-rule="evenodd" d="M13.7235 32.7845C12.1617 32.1484 11.2353 30.4866 11.7764 28.8895C13.4454 23.9639 18.3139 20.3994 24.0598 20.3994C29.8056 20.3994 34.6741 23.9639 36.3431 28.8895C36.8843 30.4866 35.9578 32.1484 34.396 32.7845C31.2061 34.0836 27.7165 34.7994 24.0598 34.7994C20.403 34.7994 16.9134 34.0836 13.7235 32.7845Z" fill="white"/>
<path d="M22.0801 25.5596L22.0801 31.1996" stroke="#5D8FED" stroke-width="2.4" stroke-linecap="round"/>
<path d="M17.8799 27.2402L17.8799 29.4002" stroke="#5D8FED" stroke-width="2.4" stroke-linecap="round"/>
<path d="M26.2798 25.5596L26.2798 31.1996" stroke="#5D8FED" stroke-width="2.4" stroke-linecap="round"/>
<path d="M30.48 27.4805L30.48 29.1605" stroke="#5D8FED" stroke-width="2.4" stroke-linecap="round"/>
</svg>
