<?xml version="1.0" encoding="UTF-8"?>
<svg id="Layer_1" data-name="Layer 1" xmlns="http://www.w3.org/2000/svg" viewBox="0 0 9423.73226 10000.00015">
  <path d="M5527.96224,4990.99038c393.30097-.83389,787.34626,74.24689,1132.77979,208.88965,0,1299.07031-892.4502,1794.66992-2010.18018,1794.70996-.5,1.02002-678.01978,1397.06055,1141.30029,3005.41016-1807.59009,0-3151.49023-1108.55957-3151.49023-2496.66016,0-399.54004,105.11011-777.31006,292.13013-1112.73975,462.71997-829.91016,1481.01978-1399.60986,2595.46021-1399.60986ZM9260.87191,3990.18008c89.94043,0,162.86035,71.11011,162.86035,158.82007,0,87.72021-72.91992,158.83008-162.86035,158.83008-420.34961,0-761.79004,329.3999-767.7002,737.94971,395.18066,134.90039,679.28027,508.38037,679.28027,948v1001.80029h-1005.08984c-555.09033,0-1005.09033-448.52002-1005.09033-1001.80029s450-1001.7998,1005.09033-1001.7998h1.97998c34.22998-558.87988,509.84033-1001.80005,1091.52979-1001.80005ZM65.87383,3361.38003c-211.3608-681.57983,74.34121-894.85986,1024.97819-775.18994,460.32996,64.1001,1315.68005,332.36011,1957.75012,621.58008,1043.88989,468.09009,1727.36011,989.66016,1653.94995,1262.8501-43.5,161.87988-550.30029,399.52002-1054.13013,497.31006-1028.43994,195.6499-2013.84998,50.82959-2632.16992-378.31006-414.83099-284.95996-813.81001-809.21021-950.37821-1228.24023ZM4098.12191,435.87313c334.09033-630.92099,687.41016-580.36899,1274.72021,174.25299,280.02979,369.763,694.54004,1162.29407,943.37988,1819.33398,406.06006,1066.70996,519.31982,1917.22021,273.60986,2058.66016-145.59961,83.81006-672.5498-105.34033-1098.17969-391.29004-866.02002-586.48999-1460.07007-1383.40015-1592.8501-2122.64014-91.17017-493.87-1.38013-1145.76794,199.31982-1538.31696Z" fill="#ffc800"/>
</svg>