<svg width="300" height="300" viewBox="0 0 300 300" fill="none" xmlns="http://www.w3.org/2000/svg">
<rect width="300" height="300" rx="150" fill="#242424"/>
<g clip-path="url(#clip0_587_9271)">
<path d="M136.471 225.405C140.19 226.165 143.99 226.628 147.809 226.788C139.961 229.388 132.163 232.154 124.395 234.974H124.39C117.159 237.569 109.952 240.237 102.623 242.549C96.7186 244.38 90.6931 245.974 84.5337 246.09C72.6192 246.386 63.5577 240.021 62.1286 227.787C60.9518 216.678 65.3525 205.693 68.8494 195.288C72.6011 184.715 76.4894 174.186 80.0944 163.561C80.3339 165.742 80.6738 167.908 81.1115 170.045C82.0462 174.618 83.4445 179.114 85.2624 183.414C87.0469 187.632 89.2537 191.698 91.8209 195.501C94.3625 199.264 97.2825 202.804 100.499 206.018C103.712 209.234 107.253 212.151 111.015 214.696C114.818 217.265 118.884 219.472 123.102 221.254C127.4 223.072 131.898 224.468 136.471 225.405Z" fill="#FFE480"/>
<path d="M100.501 105.439C98.1705 107.769 95.9972 110.269 94.0068 112.901C96.3835 101.62 98.4564 90.2692 100.599 78.9443C103.393 65.4642 106.519 45.8273 121.467 40.994C129.488 38.5349 137.715 42.2145 143.985 47.2512C151.246 53.1094 157.21 60.497 163.321 67.5216C168.167 73.2433 173.023 78.9624 177.959 84.6093H150.788C145.97 84.6093 141.152 85.096 136.469 86.0539C131.895 86.9886 127.399 88.3869 123.099 90.2022C118.881 91.9867 114.815 94.1935 111.012 96.7633C107.247 99.3049 103.709 102.225 100.496 105.441L100.501 105.439Z" fill="#FFE480"/>
<path d="M262.09 194.605C256.472 200.232 248.682 202.853 241.055 204.8C239.247 205.256 237.432 205.67 235.612 206.064C220.45 209.226 205.147 211.739 190.021 215.059C190.201 214.938 190.384 214.817 190.564 214.696C194.327 212.154 197.865 209.234 201.081 206.018C204.297 202.802 207.214 199.264 209.759 195.502C212.328 191.698 214.535 187.632 216.32 183.414C218.138 179.117 219.533 174.618 220.471 170.045C221.428 165.361 221.915 160.543 221.915 155.726V128.75C231.015 136.694 240.321 144.408 249.372 152.414C251.435 154.263 253.469 156.145 255.426 158.105C260.416 163.126 265.036 168.747 266.98 175.563C268.984 182.49 267.22 189.499 262.095 194.605H262.09Z" fill="#FFE480"/>
<path d="M195.9 157.162C195.9 182.05 175.724 202.225 150.837 202.225C125.95 202.225 105.775 182.05 105.775 157.162C105.775 132.275 125.95 112.1 150.837 112.1H195.9V157.162Z" fill="white"/>
</g>
<defs>
<clipPath id="clip0_587_9271">
<rect width="206" height="206" fill="white" transform="translate(62 40)"/>
</clipPath>
</defs>
</svg>
