<svg width="48" height="48" viewBox="0 0 48 48" fill="none" xmlns="http://www.w3.org/2000/svg">
<circle r="4.55738" transform="matrix(-1 0 0 1 5.22406 10.5574)" fill="black"/>
<path d="M4.46451 9.87378L12.9716 18.3809" stroke="black" stroke-width="1.13934"/>
<circle cx="42.4426" cy="10.5574" r="4.55738" fill="black"/>
<path d="M43.2782 9.87378L34.7711 18.3809" stroke="black" stroke-width="1.13934"/>
<path fill-rule="evenodd" clip-rule="evenodd" d="M4.55868 36.7542C3.36388 36.1041 2.66355 34.8096 2.80384 33.4567C4.10669 20.8917 13.0932 11.165 23.9852 11.165C34.9026 11.165 43.9056 20.937 45.1756 33.5444C45.3121 34.8996 44.6061 36.1934 43.4069 36.8391C37.6481 39.9399 31.0601 41.6994 24.0612 41.6994C16.9987 41.6994 10.3546 39.9077 4.55868 36.7542Z" fill="#FFDF6F"/>
<path d="M45.1756 33.5444L44.6088 33.6015L45.1756 33.5444ZM4.55868 36.7542L4.28641 37.2546L4.55868 36.7542ZM3.37047 33.5154C4.65219 21.1543 13.4645 11.7347 23.9852 11.7347V10.5954C12.7219 10.5954 3.5612 20.6291 2.2372 33.3979L3.37047 33.5154ZM23.9852 11.7347C34.5304 11.7347 43.3593 21.1984 44.6088 33.6015L45.7424 33.4873C44.4518 20.6757 35.2749 10.5954 23.9852 10.5954V11.7347ZM43.1368 36.3375C37.4589 39.3947 30.9635 41.1297 24.0612 41.1297V42.269C31.1567 42.269 37.8372 40.485 43.6769 37.3406L43.1368 36.3375ZM24.0612 41.1297C17.0961 41.1297 10.5454 39.363 4.83095 36.2538L4.28641 37.2546C10.1638 40.4524 16.9012 42.269 24.0612 42.269V41.1297ZM44.6088 33.6015C44.7216 34.7218 44.1384 35.7981 43.1368 36.3375L43.6769 37.3406C45.0737 36.5886 45.9026 35.0773 45.7424 33.4873L44.6088 33.6015ZM2.2372 33.3979C2.0726 34.9854 2.89481 36.4974 4.28641 37.2546L4.83095 36.2538C3.83296 35.7107 3.2545 34.6339 3.37047 33.5154L2.2372 33.3979Z" fill="black"/>
<path fill-rule="evenodd" clip-rule="evenodd" d="M9.28706 34.1896C8.3203 33.7371 7.75114 32.7061 7.97088 31.6615C9.4639 24.5644 16.0663 19.2163 23.9852 19.2163C31.9041 19.2163 38.5066 24.5644 39.9996 31.6615C40.2193 32.7061 39.6502 33.7371 38.6834 34.1896C34.2201 36.2788 29.239 37.4459 23.9853 37.4459C18.7315 37.4459 13.7504 36.2788 9.28706 34.1896Z" fill="black"/>
<ellipse cx="29.53" cy="29.3186" rx="4.10164" ry="2.65847" fill="white"/>
<ellipse cx="18.6579" cy="29.3206" rx="4.10164" ry="2.65847" fill="white"/>
</svg>
