<svg width="48" height="48" viewBox="0 0 48 48" fill="none" xmlns="http://www.w3.org/2000/svg">
<ellipse rx="4.88935" ry="4.8876" transform="matrix(-1 0 0 1 8.75506 12.0126)" fill="black"/>
<path d="M7.94018 11.2793L17.067 20.4028" stroke="black" stroke-width="2.4438"/>
<ellipse cx="38.906" cy="12.0126" rx="4.88935" ry="4.8876" fill="black"/>
<path d="M39.8024 11.2793L30.6756 20.4028" stroke="black" stroke-width="2.4438"/>
<path fill-rule="evenodd" clip-rule="evenodd" d="M5.25329 36.2907C2.61844 35.0368 1.08478 32.2202 1.59865 29.3478C3.8038 17.0216 12.9928 7.77661 23.9936 7.77661C35.0211 7.77661 44.2279 17.0664 46.4045 29.4373C46.9108 32.3149 45.3647 35.1302 42.7208 36.3739C37.0626 39.0358 30.7426 40.5237 24.075 40.5237C17.3382 40.5237 10.9563 39.0048 5.25329 36.2907Z" fill="#FFDF6F"/>
<path fill-rule="evenodd" clip-rule="evenodd" d="M5.25329 36.2907C2.61844 35.0368 1.08478 32.2202 1.59865 29.3478C3.8038 17.0216 12.9928 7.77661 23.9936 7.77661C35.0211 7.77661 44.2279 17.0664 46.4045 29.4373C46.9108 32.3149 45.3647 35.1302 42.7208 36.3739C37.0626 39.0358 30.7426 40.5237 24.075 40.5237C17.3382 40.5237 10.9563 39.0048 5.25329 36.2907Z" fill="black" fill-opacity="0.5" style="mix-blend-mode:saturation"/>
<path d="M46.4045 29.4373L47.6079 29.2256L46.4045 29.4373ZM42.7208 36.3739L43.241 37.4796L42.7208 36.3739ZM1.59865 29.3478L0.395847 29.1327L1.59865 29.3478ZM5.25329 36.2907L4.72823 37.3941L5.25329 36.2907ZM2.80145 29.563C4.93216 17.6529 13.739 8.99851 23.9936 8.99851V6.55471C12.2466 6.55471 2.67544 16.3903 0.395847 29.1327L2.80145 29.563ZM23.9936 8.99851C34.2729 8.99851 43.0978 17.6951 45.2011 29.6491L47.6079 29.2256C45.3579 16.4377 35.7692 6.55471 23.9936 6.55471V8.99851ZM42.2007 35.2683C36.7018 37.8552 30.5591 39.3018 24.075 39.3018V41.7456C30.9262 41.7456 37.4235 40.2164 43.241 37.4796L42.2007 35.2683ZM24.075 39.3018C17.5236 39.3018 11.3208 37.825 5.77836 35.1874L4.72823 37.3941C10.5918 40.1845 17.1527 41.7456 24.075 41.7456V39.3018ZM45.2011 29.6491C45.607 31.9561 44.3715 34.2471 42.2007 35.2683L43.241 37.4796C46.3579 36.0133 48.2146 32.6738 47.6079 29.2256L45.2011 29.6491ZM0.395847 29.1327C-0.219928 32.5747 1.622 35.9158 4.72823 37.3941L5.77836 35.1874C3.61488 34.1578 2.38949 31.8658 2.80145 29.563L0.395847 29.1327Z" fill="black"/>
<path fill-rule="evenodd" clip-rule="evenodd" d="M9.95517 33.2265C7.83432 32.363 6.5761 30.1066 7.31124 27.9379C9.57804 21.2508 16.1901 16.4116 23.9937 16.4116C31.7973 16.4116 38.4093 21.2507 40.6762 27.9378C41.4113 30.1064 40.1532 32.3628 38.0323 33.2263C33.6998 34.9903 28.9602 35.9622 23.9936 35.9622C19.027 35.9622 14.2876 34.9903 9.95517 33.2265Z" fill="black"/>
<path d="M32.8758 27.5713H26.3567" stroke="white" stroke-width="1.6292" stroke-linecap="round"/>
<path d="M21.4674 27.5713H14.9482" stroke="white" stroke-width="1.6292" stroke-linecap="round"/>
</svg>
