<svg width="39" height="40" viewBox="0 0 39 40" fill="none" xmlns="http://www.w3.org/2000/svg">
    <path d="M13.8938 35.2778C14.5869 35.4197 15.2957 35.506 16.0075 35.5356C14.5445 36.0203 13.0913 36.5358 11.643 37.0616L11.6421 37.0619C10.2943 37.5452 8.9505 38.0428 7.5848 38.474C6.48421 38.8151 5.36077 39.1126 4.21266 39.1339C1.99156 39.1889 0.302532 38.0026 0.036228 35.7223C-0.18294 33.6515 0.637189 31.604 1.28908 29.6642C1.98829 27.6932 2.71319 25.7304 3.38538 23.75C3.43002 24.1565 3.49319 24.5602 3.57479 24.9588C3.74922 25.8112 4.00948 26.6496 4.34836 27.4508C4.68085 28.2368 5.09221 28.9949 5.57111 29.7037C6.04506 30.4052 6.58924 31.0648 7.18856 31.6641C7.78784 32.2634 8.44741 32.8076 9.14893 33.2815C9.85775 33.7604 10.6158 34.1718 11.4019 34.5043C12.203 34.8432 13.0414 35.1034 13.8938 35.2778Z" fill="#22C45E"/>
    <path d="M7.18791 12.9171C6.75355 13.3514 6.34819 13.8174 5.97754 14.308C6.42077 12.2053 6.80693 10.0893 7.20619 7.97813C7.72714 5.46509 8.30962 1.80505 11.0963 0.903654C12.5915 0.445397 14.1253 1.13103 15.2939 2.07015C16.6473 3.16234 17.7589 4.53946 18.8984 5.84866C19.8016 6.91517 20.7071 7.98115 21.6273 9.03403H16.5624C15.6645 9.03403 14.7664 9.12466 13.8932 9.30337C13.0408 9.47775 12.2024 9.73805 11.4012 10.0769C10.6151 10.4094 9.85709 10.8208 9.14828 11.2997C8.44675 11.7736 7.78719 12.3178 7.18791 12.9171Z" fill="#22C45E"/>
    <path d="M37.3103 29.537C36.2631 30.5858 34.811 31.0744 33.3893 31.4374C33.0526 31.5221 32.714 31.5995 32.3746 31.673C29.5483 32.2625 26.6959 32.7307 23.876 33.3498C23.9098 33.3274 23.9435 33.3049 23.9772 33.2822C24.6786 32.8082 25.3382 32.2641 25.9375 31.6647C26.5369 31.0654 27.081 30.4058 27.5549 29.7044C28.0338 28.9955 28.4452 28.2375 28.7777 27.4514C29.1166 26.6502 29.3769 25.8118 29.5513 24.9595C29.73 24.0862 29.8206 23.1881 29.8206 22.2902V17.2617C31.517 18.7427 33.2516 20.1806 34.9387 21.6727C35.323 22.0175 35.7025 22.368 36.0672 22.7333C36.9976 23.6694 37.8586 24.717 38.221 25.9875C38.5947 27.2789 38.2656 28.5854 37.3103 29.537Z" fill="#22C45E"/>
    <path d="M24.9719 22.5563C24.9719 27.1954 21.211 30.9563 16.5719 30.9563C11.9327 30.9563 8.17188 27.1954 8.17188 22.5562C8.17189 17.9171 11.9327 14.1563 16.5719 14.1562H24.9719L24.9719 22.5563Z" fill="#BAF6CF"/>
    </svg>