<svg width="64" height="64" viewBox="0 0 64 64" fill="none" xmlns="http://www.w3.org/2000/svg">
<circle r="6.0765" transform="matrix(-1 0 0 1 6.96543 14.0765)" fill="black"/>
<path d="M5.95266 13.165L17.2955 24.5078" stroke="black" stroke-width="1.51913"/>
<circle cx="56.5902" cy="14.0765" r="6.0765" fill="black"/>
<path d="M57.7042 13.165L46.3614 24.5078" stroke="black" stroke-width="1.51913"/>
<path fill-rule="evenodd" clip-rule="evenodd" d="M6.07823 49.0055C4.48517 48.1387 3.55139 46.4128 3.73844 44.6089C5.47558 27.8556 17.4575 14.8867 31.9803 14.8867C46.5368 14.8867 58.5408 27.9161 60.2341 44.7259C60.4161 46.5327 59.4747 48.2578 57.8758 49.1187C50.1974 53.2532 41.4135 55.5992 32.0816 55.5992C22.6649 55.5992 13.8061 53.2103 6.07823 49.0055Z" fill="#FFDF6F"/>
<path d="M57.8758 49.1187L58.2359 49.7875L57.8758 49.1187ZM6.07823 49.0055L5.71521 49.6727L6.07823 49.0055ZM4.49395 44.6872C6.20291 28.2058 17.9526 15.6463 31.9803 15.6463V14.1272C16.9625 14.1272 4.74825 27.5055 2.98293 44.5306L4.49395 44.6872ZM31.9803 15.6463C46.0406 15.6463 57.8125 28.2645 59.4784 44.802L60.9899 44.6498C59.2691 27.5676 47.0331 14.1272 31.9803 14.1272V15.6463ZM57.5157 48.45C49.9452 52.5263 41.2847 54.8396 32.0816 54.8396V56.3587C41.5422 56.3587 50.4496 53.98 58.2359 49.7875L57.5157 48.45ZM32.0816 54.8396C22.7948 54.8396 14.0605 52.484 6.44125 48.3383L5.71521 49.6727C13.5517 53.9366 22.5349 56.3587 32.0816 56.3587V54.8396ZM59.4784 44.802C59.6288 46.2957 58.8512 47.7309 57.5157 48.45L58.2359 49.7875C60.0982 48.7848 61.2034 46.7698 60.9899 44.6498L59.4784 44.802ZM2.98293 44.5306C2.76346 46.6472 3.85973 48.6632 5.71521 49.6727L6.44125 48.3383C5.1106 47.6143 4.33932 46.1785 4.49395 44.6872L2.98293 44.5306Z" fill="black"/>
<path fill-rule="evenodd" clip-rule="evenodd" d="M12.3828 45.5862C11.0937 44.9829 10.3349 43.6082 10.6278 42.2155C12.6185 32.7526 21.4218 25.6218 31.9803 25.6218C42.5389 25.6218 51.3421 32.7526 53.3328 42.2155C53.6258 43.6082 52.8669 44.9829 51.5779 45.5862C45.6268 48.3717 38.9853 49.928 31.9803 49.928C24.9754 49.928 18.3339 48.3717 12.3828 45.5862Z" fill="black"/>
<ellipse cx="39.3734" cy="39.0915" rx="5.46885" ry="3.54463" fill="white"/>
<ellipse cx="24.8772" cy="39.0939" rx="5.46885" ry="3.54463" fill="white"/>
</svg>
