<?xml version="1.0" encoding="UTF-8"?>
<svg id="Layer_1" data-name="Layer 1" xmlns="http://www.w3.org/2000/svg" viewBox="0 0 5216 800.20001">
  <g>
    <path d="M1134.91661,608.50811c-42.83154,0-76.02588-9.51465-99.58301-28.55469-23.55762-19.02881-35.33643-45.9209-35.33643-80.66602,0-37.12061,12.49268-65.42969,37.47803-84.94922,24.98486-19.5083,59.84131-29.26807,104.58008-29.26807h95.65723v61.3916h-69.95801c-31.88965,0-54.25342,4.40625-67.10303,13.20654-12.84912,8.81152-19.27393,21.3042-19.27393,37.47754,0,13.80908,5.58789,24.62842,16.77539,32.48096,11.17676,7.85205,26.77002,11.77832,46.75781,11.77832,18.08105,0,33.78564-4.0376,47.11475-12.13525,13.31787-8.08691,23.66895-18.79492,31.05322-32.12402,7.37256-13.31787,11.06445-28.30908,11.06445-44.97314h23.55762c0,48.54248-9.75977,86.73389-29.26855,114.57471-19.51953,27.84033-50.68359,41.76074-93.51562,41.76074ZM1237.71251,599.9417l-3.56934-67.10303v-116.35889c0-24.271-2.49854-44.61621-7.49512-61.03516-4.99707-16.41846-13.09521-29.02246-24.27148-37.83447-11.1875-8.80029-26.05566-13.20654-44.61621-13.20654-17.13281,0-32.12354,3.56934-44.97314,10.70801s-23.80273,18.32617-32.8374,33.55176l-69.9585-25.69922c7.60742-15.70508,17.72412-30.33887,30.33936-43.90234,12.604-13.56348,28.5542-24.38281,47.82861-32.48047,19.27393-8.08691,42.47461-12.13574,69.60107-12.13574,34.73389,0,63.76758,6.78174,87.09082,20.34521,23.31201,13.56299,40.56738,32.95996,51.75488,58.1792,11.17627,25.23047,16.77588,55.68115,16.77588,91.37402l-2.1416,195.59766h-73.52783Z" fill="#202020"/>
    <path d="M1376.192,599.9417V100.24004h79.95215v499.70166h-79.95215Z" fill="#202020"/>
    <path d="M1526.81114,599.9417V100.24004h79.95215v433.3125l-4.2832,66.38916h-75.66895ZM1719.55333,608.50811c-29.98242,0-55.80371-7.74121-77.45361-23.20068-21.66162-15.45947-38.19189-37.23193-49.61328-65.31787-11.42188-28.07471-17.13281-60.9126-17.13281-98.5127,0-38.06885,5.71094-71.0293,17.13281-98.86963,11.42139-27.84033,27.95166-49.49072,49.61328-64.96143,21.6499-15.45947,47.47119-23.2002,77.45361-23.2002,32.35791,0,60.55518,7.74072,84.59229,23.2002,24.02588,15.4707,42.83154,37.12109,56.39502,64.96143,13.56299,27.84033,20.34473,60.80078,20.34473,98.86963,0,37.6001-6.78174,70.43799-20.34473,98.5127-13.56348,28.08594-32.36914,49.8584-56.39502,65.31787-24.03711,15.45947-52.23438,23.20068-84.59229,23.20068ZM1699.56504,535.69415c19.02881,0,35.92725-4.87402,50.68408-14.63379,14.74561-9.74854,26.52441-23.20068,35.33594-40.33301,8.80078-17.13281,13.20654-36.87549,13.20654-59.25049,0-22.36377-4.17139-42.11768-12.49268-59.25049-8.33203-17.13232-19.87646-30.45068-34.62207-39.97607-14.75684-9.51416-31.88916-14.27734-51.39795-14.27734-18.0918,0-34.26514,4.76318-48.54248,14.27734-14.27686,9.52539-25.3418,22.84375-33.19434,39.97607-7.85254,17.13281-11.77881,36.88672-11.77881,59.25049,0,22.375,3.92627,42.11768,11.77881,59.25049,7.85254,17.13232,18.79443,30.58447,32.8374,40.33301,14.03174,9.75977,30.09375,14.63379,48.18555,14.63379Z" fill="#202020"/>
    <path d="M2037.93272,599.9417l-159.9043-356.92969h87.09082l124.21143,300.53467,25.69922,56.39502h-77.09717ZM1974.39952,751.28008c-11.42188,0-24.15967-2.1416-38.19141-6.4248-14.04297-4.2832-27.48389-9.75977-40.33301-16.41895l29.98193-64.96094c9.03467,4.2832,17.3667,7.72949,24.98486,10.35059,7.60742,2.61035,13.79785,3.92627,18.56055,3.92627,11.42188,0,21.05859-2.97803,28.91113-8.92285,7.85254-5.95654,14.15479-14.63428,18.91748-26.05615l42.11768-98.5127,120.64209-301.24854h87.09082l-165.61523,394.76416c-9.99414,22.84375-20.11084,42.83154-30.33887,59.96436-10.23975,17.13232-22.96631,30.33887-38.19189,39.61914-15.23633,9.28027-34.74463,13.92041-58.53613,13.92041Z" fill="#202020"/>
    <path d="M2446.26622,608.50811c-34.74512,0-65.56396-7.9751-92.44482-23.91455-26.89258-15.93896-48.07422-37.9458-63.53369-66.03174-15.4707-28.07471-23.20068-60.43262-23.20068-97.08496,0-36.64111,7.85254-68.99902,23.55762-97.08496,15.70508-28.07471,37.23242-50.08154,64.60449-66.03223,27.36084-15.93896,58.64795-23.91406,93.87256-23.91406,31.87793,0,60.67773,8.20947,86.37695,24.62793,25.69873,16.41895,46.04395,40.09912,61.03467,71.0293,14.99121,30.94141,22.48682,67.81641,22.48682,110.64844h-280.54688l10.70801-9.99414c0,21.89551,4.75146,40.8125,14.27686,56.75146,9.51465,15.95068,22.12988,28.19775,37.83496,36.76416,15.70459,8.56592,33.07178,12.84912,52.11133,12.84912,21.88428,0,39.97607-4.87402,54.25342-14.63379,14.27734-9.74902,25.45361-22.48682,33.55176-38.19141l70.67188,29.98193c-9.99414,19.04004-22.73193,35.69287-38.19141,49.97021-15.4707,14.27686-33.79688,25.23047-54.96729,32.8374-21.18164,7.60693-45.33008,11.42188-72.45654,11.42188ZM2354.17833,389.35333l-11.42188-9.99414h201.30811l-10.70752,9.99414c0-19.50879-4.2832-35.57031-12.84961-48.18555-8.56641-12.604-19.39697-22.12988-32.48047-28.55469-13.09521-6.4248-26.77002-9.63721-41.04688-9.63721s-28.55469,3.2124-42.83203,9.63721c-14.27686,6.4248-26.17822,15.95068-35.69287,28.55469-9.52539,12.61523-14.27686,28.67676-14.27686,48.18555Z" fill="#ffc800"/>
    <path d="M2616.17149,599.9417l146.34131-204.16406,102.08154-152.76562h94.22949l-139.20264,197.02539-107.79248,159.9043h-95.65723ZM2872.44688,599.9417l-105.65088-159.9043-141.34424-197.02539h94.22949l102.79541,152.76562,144.91357,204.16406h-94.94336Z" fill="#ffc800"/>
    <path d="M2968.09971,311.54229v-68.53027h234.85986v68.53027h-234.85986ZM3142.99522,608.50811c-37.60059,0-66.27734-9.3916-86.02002-28.19775-19.75391-18.79443-29.62549-45.79834-29.62549-81.02295V131.64971h79.23877v352.64697c0,16.66406,3.92627,29.26807,11.77832,37.83447,7.85254,8.56641,19.38574,12.84912,34.62256,12.84912,4.75146,0,9.99414-.94775,15.70459-2.85547,5.71094-1.896,12.13574-5.46533,19.27441-10.70752l29.26807,60.67773c-12.38086,8.56641-24.75049,15.11377-37.12061,19.63135-12.38086,4.51758-24.75098,6.78174-37.12061,6.78174Z" fill="#ffc800"/>
    <path d="M3418.54014,608.50811c-34.74512,0-65.56396-7.9751-92.44482-23.91455-26.89258-15.93896-48.07422-37.9458-63.53369-66.03174-15.4707-28.07471-23.20068-60.43262-23.20068-97.08496,0-36.64111,7.85254-68.99902,23.55762-97.08496,15.70508-28.07471,37.23242-50.08154,64.60449-66.03223,27.36084-15.93896,58.64795-23.91406,93.87256-23.91406,31.87793,0,60.67773,8.20947,86.37695,24.62793,25.69873,16.41895,46.04395,40.09912,61.03516,71.0293,14.99023,30.94141,22.48633,67.81641,22.48633,110.64844h-280.54688l10.70801-9.99414c0,21.89551,4.75146,40.8125,14.27686,56.75146,9.51465,15.95068,22.12988,28.19775,37.83496,36.76416,15.70459,8.56592,33.07178,12.84912,52.11133,12.84912,21.88428,0,39.97607-4.87402,54.25342-14.63379,14.27734-9.74902,25.45361-22.48682,33.55176-38.19141l70.67188,29.98193c-9.99414,19.04004-22.73193,35.69287-38.19141,49.97021-15.4707,14.27686-33.79688,25.23047-54.96729,32.8374-21.18164,7.60693-45.33008,11.42188-72.45654,11.42188ZM3326.45225,389.35333l-11.42188-9.99414h201.30811l-10.70752,9.99414c0-19.50879-4.2832-35.57031-12.84961-48.18555-8.56641-12.604-19.39697-22.12988-32.48047-28.55469-13.09521-6.4248-26.77002-9.63721-41.04688-9.63721s-28.55469,3.2124-42.83203,9.63721c-14.27686,6.4248-26.17822,15.95068-35.69287,28.55469-9.52539,12.61523-14.27686,28.67676-14.27686,48.18555Z" fill="#ffc800"/>
    <path d="M3634.83751,599.9417V243.01202h74.95508l4.99707,65.6748v291.25488h-79.95215ZM3876.83555,417.19366c0-28.5542-3.21289-50.56152-9.6377-66.03223-6.42383-15.45947-15.46973-26.29004-27.12598-32.48047-11.66699-6.1792-25.3418-9.28027-41.04688-9.28027-26.6582-.46826-47.36035,8.33203-62.10645,26.41309-14.75684,18.0918-22.12891,44.0249-22.12891,77.81055h-29.98242c0-37.58936,5.46582-69.83545,16.41895-96.72803,10.94238-26.88135,26.64648-47.34912,47.11426-61.3916,20.45703-14.03223,44.72754-21.05908,72.81348-21.05908,28.55469,0,52.9375,5.71094,73.1709,17.13281,20.22266,11.42139,35.69336,29.15674,46.40137,53.18213,10.70801,24.03711,16.06152,55.32422,16.06152,93.87256v18.56055h-79.95215ZM3876.83555,599.9417v-182.74805h79.95215v182.74805h-79.95215Z" fill="#ffc800"/>
    <path d="M4149.52598,608.50811c-23.80273,0-45.68652-3.56934-65.6748-10.70801s-37.12109-17.24414-51.39844-30.33887c-14.27637-13.08398-25.23047-28.43164-32.83691-46.04395l69.24414-30.69629c7.13867,13.3291,17.72363,24.5166,31.7666,33.55176,14.03223,9.0459,29.625,13.56299,46.75781,13.56299,18.56055,0,33.42871-3.2124,44.61621-9.63672,11.17676-6.4248,16.77539-15.34814,16.77539-26.77002,0-10.94189-4.2832-19.38574-12.84863-25.3418-8.56641-5.94531-20.70215-10.81934-36.40723-14.63428l-33.55176-9.28027c-33.79688-8.56641-60.20898-22.24121-79.23828-41.04688-19.04004-18.79443-28.55371-40.33301-28.55371-64.604,0-35.69336,11.5332-63.28809,34.62207-82.80811,23.07715-19.5083,56.27148-29.26807,99.58301-29.26807,21.88477,0,41.99512,3.2124,60.32129,9.63721,18.31445,6.4248,34.14258,15.4707,47.47168,27.12646,13.31738,11.66699,22.59766,25.34229,27.84082,41.04688l-66.38965,29.98242c-4.7627-11.89062-13.80859-21.05908-27.12598-27.48389-13.3291-6.4248-28.08594-9.63721-44.25977-9.63721-16.18457,0-28.7998,3.45801-37.83496,10.35107-9.0459,6.9043-13.5625,16.5415-13.5625,28.91162,0,7.13818,4.03711,13.68604,12.13574,19.63086,8.08594,5.95654,19.74219,10.83057,34.97852,14.63428l42.11816,9.99414c23.31152,5.71045,42.35156,14.63379,57.1084,26.76953,14.74609,12.13574,25.69922,25.69873,32.83789,40.68994s10.70801,30.10498,10.70801,45.33008c0,21.41602-6.06836,40.22168-18.2041,56.39502-12.13574,16.18457-28.67676,28.67725-49.61328,37.47754-20.94727,8.80078-44.73828,13.20654-71.38574,13.20654Z" fill="#ffc800"/>
    <path d="M4379.38047,175.19512c-12.84961,0-23.91406-4.64014-33.19434-13.91992-9.28027-9.28027-13.91992-20.34521-13.91992-33.19482s4.63965-23.7915,13.91992-32.8374c9.28027-9.03467,20.34473-13.56348,33.19434-13.56348s23.91406,4.52881,33.19434,13.56348c9.28027,9.0459,13.9209,19.98828,13.9209,32.8374s-4.64062,23.91455-13.9209,33.19482c-9.28027,9.27979-20.34473,13.91992-33.19434,13.91992ZM4339.40391,599.9417V243.01202h79.23926v356.92969h-79.23926Z" fill="#ffc800"/>
    <path d="M4659.21348,608.50811c-35.69336,0-67.45996-7.9751-95.30078-23.91455-27.83984-15.93896-49.61328-37.9458-65.31836-66.03174-15.7041-28.07471-23.55664-60.43262-23.55664-97.08496,0-36.64111,7.72949-68.99902,23.2002-97.08496,15.45996-28.07471,36.99805-50.08154,64.60449-66.03223,27.59473-15.93896,59.25-23.91406,94.94336-23.91406s67.33691,7.9751,94.94336,23.91406c27.59473,15.95068,49.13379,37.95752,64.60352,66.03223,15.45996,28.08594,23.20117,60.44385,23.20117,97.08496,0,36.65234-7.61816,69.01025-22.84375,97.08496-15.23633,28.08594-36.65234,50.09277-64.24707,66.03174-27.60645,15.93945-59.0166,23.91455-94.22949,23.91455ZM4659.21348,534.98028c19.50781,0,36.875-4.87402,52.11133-14.63379,15.22559-9.74854,27.12695-23.07764,35.69336-39.97607,8.56641-16.88721,12.84961-36.51855,12.84961-58.89355,0-22.36377-4.40625-41.99512-13.20703-58.89355-8.81152-16.88721-20.82422-30.21631-36.0498-39.97607-15.23633-9.74854-32.83691-14.63428-52.8252-14.63428s-37.60059,4.76318-52.82617,14.27734c-15.23633,9.52539-27.12598,22.84375-35.69238,39.97607-8.56641,17.13281-12.84961,36.88672-12.84961,59.25049,0,22.375,4.39453,42.00635,13.20605,58.89355,8.80078,16.89844,20.93652,30.22754,36.40723,39.97607,15.45898,9.75977,33.19434,14.63379,53.18262,14.63379Z" fill="#ffc800"/>
    <path d="M4891.92735,599.9417V243.01202h74.95508l4.99707,65.6748v291.25488h-79.95215ZM5133.9254,417.19366c0-28.5542-3.21289-50.56152-9.6377-66.03223-6.42383-15.45947-15.46973-26.29004-27.12598-32.48047-11.66699-6.1792-25.3418-9.28027-41.04688-9.28027-26.6582-.46826-47.36035,8.33203-62.10645,26.41309-14.75684,18.0918-22.12891,44.0249-22.12891,77.81055h-29.98242c0-37.58936,5.46582-69.83545,16.41895-96.72803,10.94238-26.88135,26.64648-47.34912,47.11426-61.3916,20.45703-14.03223,44.72754-21.05908,72.81348-21.05908,28.55469,0,52.9375,5.71094,73.1709,17.13281,20.22266,11.42139,35.69336,29.15674,46.40137,53.18213,10.70801,24.03711,16.06152,55.32422,16.06152,93.87256v18.56055h-79.95215ZM5133.9254,599.9417v-182.74805h79.95215v182.74805h-79.95215Z" fill="#ffc800"/>
  </g>
  <g>
    <path d="M289.70934,719.61911c14.43899,2.955,29.20498,4.754,44.03499,5.37-30.48,10.098-60.755,20.838-90.927,31.792l-.02.007c-28.079,10.068-56.074,20.435-84.526,29.418-22.929,7.106-46.334,13.304-70.253,13.747-46.273,1.146-81.461-23.567-87.009-71.075-4.566-43.14,12.52-85.79599,26.101-126.21,14.567-41.06199,29.669-81.954,43.673-123.21199.93,8.46899,2.246,16.87998,3.946,25.18398,3.634,17.75701,9.056,35.224,16.116,51.91501,6.927,16.377,15.49699,32.16899,25.47399,46.93699,9.874,14.61401,21.21101,28.355,33.69701,40.841,12.485,12.486,26.22599,23.82301,40.841,33.69601,14.76699,9.977,30.55898,18.548,46.93599,25.47499,16.69102,7.06,34.15801,12.482,51.91602,16.115Z" fill="#ffc800"/>
    <path d="M150.01634,253.72711c-9.04901,9.04902-17.49401,18.75698-25.216,28.97798,9.23401-43.80601,17.279-87.88999,25.597-131.873,10.853-52.35498,22.98801-128.60596,81.04302-147.38496,31.15098-9.54702,63.10398,4.73696,87.45098,24.30195,28.19502,22.754,51.355,51.44404,75.09402,78.71904,18.81599,22.21899,37.68098,44.42695,56.85198,66.36196h-105.51899c-18.70601,0-37.41599,1.88804-55.60898,5.61104-17.75801,3.63296-35.225,9.05601-51.91602,16.11499-16.377,6.927-32.16899,15.498-46.93599,25.475-14.61501,9.873-28.35601,21.21001-40.841,33.696Z" fill="#ffc800"/>
    <path d="M777.55436,600.00512c-21.81802,21.849-52.07002,32.02999-81.68701,39.59199-7.01504,1.765-14.06904,3.376-21.14004,4.90801-58.88198,12.28099-118.30596,22.03599-177.05498,34.93398.70498-.46699,1.40703-.93699,2.10801-1.40999,14.61401-9.873,28.35498-21.21001,40.84102-33.69601,12.48599-12.486,23.823-26.22699,33.696-40.841,9.977-14.76799,18.548-30.55999,25.475-46.93699,7.05996-16.69102,12.48198-34.15801,16.11597-51.91501,3.723-18.19399,5.61001-36.904,5.61001-55.60999v-104.76003c35.34199,30.854,71.47998,60.81104,106.62803,91.89502,8.00596,7.18301,15.91196,14.48501,23.50996,22.096,19.38301,19.503,37.321,41.327,44.871,67.79502,7.78403,26.90498.929,54.123-18.97295,73.949Z" fill="#ffc800"/>
    <path d="M520.50113,454.59815c-.00021,96.64986-78.35034,175.00004-174.99986,174.99996-96.6496,0-174.99973-78.35017-174.99993-175.00004.00041-96.6491,78.35054-174.99927,174.99986-174.99996h175.00014l-.00021,175.00004Z" fill="#202020"/>
  </g>
</svg>