<svg width="64" height="64" viewBox="0 0 64 64" fill="none" xmlns="http://www.w3.org/2000/svg">
<circle r="4.8" transform="matrix(-1 0 0 1 12.3201 18.0793)" fill="#3C6ECF"/>
<path d="M11.52 17.3594L20.48 26.3194" stroke="#3C6ECF" stroke-width="2.4"/>
<circle cx="51.5197" cy="18.0793" r="4.8" fill="#3C6ECF"/>
<path d="M52.3999 17.3594L43.4399 26.3194" stroke="#3C6ECF" stroke-width="2.4"/>
<path fill-rule="evenodd" clip-rule="evenodd" d="M13.6822 46.7227C11.0952 45.4912 9.58956 42.7254 10.0939 39.9049C12.2586 27.7993 21.2798 18.7197 32.0798 18.7197C42.9059 18.7197 51.9446 27.8433 54.0812 39.993C54.5781 42.8186 53.0602 45.583 50.4644 46.8046C44.9097 49.4186 38.7054 50.8797 32.1598 50.8797C25.5461 50.8797 19.2809 49.388 13.6822 46.7227Z" fill="#5D8FED"/>
<path d="M54.0812 39.993L52.8993 40.2008L54.0812 39.993ZM50.4644 46.8046L49.9534 45.7188L50.4644 46.8046ZM11.2752 40.1162C13.3668 28.4189 22.0129 19.9197 32.0798 19.9197V17.5197C20.5466 17.5197 11.1503 27.1797 8.91264 39.6937L11.2752 40.1162ZM32.0798 19.9197C42.1708 19.9197 50.8347 28.4604 52.8993 40.2008L55.2631 39.7851C53.0545 27.2263 43.641 17.5197 32.0798 17.5197V19.9197ZM49.9534 45.7188C44.5552 48.2591 38.5251 49.6797 32.1598 49.6797V52.0797C38.8857 52.0797 45.2641 50.578 50.9753 47.8904L49.9534 45.7188ZM32.1598 49.6797C25.7283 49.6797 19.639 48.2295 14.198 45.6392L13.1664 47.8062C18.9228 50.5466 25.3639 52.0797 32.1598 52.0797V49.6797ZM52.8993 40.2008C53.2977 42.4662 52.0847 44.7158 49.9534 45.7188L50.9753 47.8904C54.0358 46.4502 55.8585 43.1709 55.2631 39.7851L52.8993 40.2008ZM8.91264 39.6937C8.30829 43.0735 10.1165 46.3543 13.1664 47.8062L14.198 45.6392C12.0739 44.628 10.8708 42.3774 11.2752 40.1162L8.91264 39.6937Z" fill="#3C6ECF"/>
<path fill-rule="evenodd" clip-rule="evenodd" d="M18.2984 43.7126C16.2159 42.8645 14.9807 40.6488 15.7022 38.5193C17.9275 31.9518 24.4188 27.1992 32.08 27.1992C39.7412 27.1992 46.2325 31.9518 48.4578 38.5193C49.1793 40.6488 47.9441 42.8645 45.8616 43.7126C41.6084 45.4448 36.9557 46.3992 32.08 46.3992C27.2043 46.3992 22.5516 45.4448 18.2984 43.7126Z" fill="white"/>
<path d="M29.4399 34.0791L29.4399 41.5991" stroke="#5D8FED" stroke-width="3.2" stroke-linecap="round"/>
<path d="M23.8398 36.3193L23.8398 39.1993" stroke="#5D8FED" stroke-width="3.2" stroke-linecap="round"/>
<path d="M35.04 34.0791L35.04 41.5991" stroke="#5D8FED" stroke-width="3.2" stroke-linecap="round"/>
<path d="M40.6401 36.6396L40.6401 38.8796" stroke="#5D8FED" stroke-width="3.2" stroke-linecap="round"/>
</svg>
