<svg xmlns="http://www.w3.org/2000/svg" width="1211" height="525" fill="none"><circle cx="36.675" cy="36.675" r="36.675" fill="#000" transform="matrix(-1 0 0 1 131.381 101.468)"/><path stroke="#000" stroke-width="18.337" d="m88.594 132.641 68.46 68.46"/><circle cx="394.219" cy="138.143" r="36.675" fill="#000"/><path stroke="#000" stroke-width="18.337" d="m400.942 132.641-68.46 68.46"/><path fill="#FFDF6F" fill-rule="evenodd" d="M105.116 356.993c-19.766-9.41-31.27-30.542-27.417-52.092 16.54-92.495 85.467-161.868 167.986-161.868 82.719 0 151.78 69.71 168.105 162.54 3.796 21.59-7.801 42.712-27.635 52.045-42.441 19.973-89.846 31.137-139.859 31.137-50.532 0-98.402-11.398-141.18-31.762Z" clip-rule="evenodd"/><path fill="#000" d="m413.79 305.573 9.03-1.588-9.03 1.588Zm-327.065.942c15.981-89.375 82.043-154.314 158.96-154.314v-18.337c-88.121 0-159.914 73.808-177.011 169.423l18.05 3.228Zm158.96-154.314c77.102 0 143.3 65.256 159.075 154.96l18.06-3.176c-16.875-95.957-88.8-170.121-177.135-170.121v18.337Zm136.566 197.121c-41.246 19.41-87.32 30.264-135.955 30.264v18.338c51.39 0 100.126-11.475 143.763-32.01l-7.808-16.592Zm-135.955 30.264c-49.14 0-95.666-11.081-137.239-30.872l-7.882 16.557c43.983 20.939 93.197 32.653 145.121 32.653v-18.338Zm158.464-72.425c3.044 17.31-6.224 34.498-22.509 42.161l7.808 16.592c23.384-11.004 37.31-36.059 32.761-61.929l-18.06 3.176Zm-336.086-3.874c-4.618 25.823 9.198 50.891 32.501 61.984l7.882-16.557c-16.23-7.726-25.422-24.922-22.332-42.199l-18.051-3.228Z"/><path fill="#000" fill-rule="evenodd" d="M140.385 333.998c-15.911-6.48-25.349-23.409-19.836-39.681 17.002-50.179 66.6-86.492 125.136-86.492s108.134 36.313 125.137 86.492c5.513 16.272-3.925 33.201-19.836 39.681-32.498 13.235-68.048 20.527-105.301 20.527s-72.803-7.292-105.3-20.527Z" clip-rule="evenodd"/><ellipse cx="287.861" cy="286.065" fill="#fff" rx="30.563" ry="24.45"/><ellipse cx="200.369" cy="286.08" fill="#fff" rx="30.563" ry="24.45"/><path fill="#000" d="M624.474 134.4h58.24l81.28 215.04-57.28 5.76-15.68-46.08h-75.2L600.794 352h-57.92l81.6-217.6Zm49.92 128.96-21.76-59.2-20.8 59.2h42.56ZM838.214 352h-58.24V129.6l58.24-3.52V352Zm61.362 0h-29.44V129.6l58.24-3.52v69.44a66.375 66.375 0 0 1 11.2-2.88 54.44 54.44 0 0 1 11.84-1.28c15.36 0 29.014 2.88 40.96 8.64 11.944 5.76 21.334 14.613 28.164 26.56 7.04 11.947 10.56 27.2 10.56 45.76 0 18.347-3.52 33.707-10.56 46.08-6.83 12.373-16.43 21.653-28.804 27.84-12.16 6.187-26.453 9.28-42.88 9.28-6.826 0-13.546-1.067-20.16-3.2-6.4-2.133-12.8-5.547-19.2-10.24l-9.92 9.92Zm42.88-115.84c-4.266 0-8.96 1.6-14.08 4.8v65.28c5.76 2.987 11.307 4.48 16.64 4.48 7.254 0 13.334-3.307 18.24-9.92 5.12-6.827 7.68-16.213 7.68-28.16s-2.453-21.013-7.36-27.2c-4.906-6.187-11.946-9.28-21.12-9.28ZM1088.7 352.64l1.28-3.52-55.68-142.72 53.76-15.36 31.68 93.44 29.76-87.68h57.92l-68.16 173.44c-3.2 8.32-8.43 16-15.68 23.04-7.25 7.04-15.68 13.013-25.28 17.92-9.6 4.907-19.52 8.533-29.76 10.88l-19.52-45.12a467.71 467.71 0 0 0 16-7.04c5.76-2.56 10.88-5.333 15.36-8.32 4.48-2.987 7.25-5.973 8.32-8.96Z"/></svg>