<svg width="32" height="32" viewBox="0 0 32 32" fill="none" xmlns="http://www.w3.org/2000/svg">
<g clip-path="url(#clip0_1297_276)">
<path d="M5.81452 12.2106C6.28998 12.2592 6.74956 12.2037 7.17043 12.0617L7.18035 12.0707L7.19623 12.0865C5.40656 14.1214 4.14396 16.7548 3.62284 19.6691C3.25359 21.7317 4.36035 23.7149 6.19271 24.5874C9.17946 26.0089 12.5206 26.8039 16.0433 26.8039C19.5661 26.8039 22.8387 26.0247 25.8017 24.6311C27.641 23.7656 28.7557 21.7833 28.3924 19.7177C27.8772 16.7875 26.5878 14.1581 24.815 12.0925C22.5767 9.48292 24.822 12.0816 24.822 12.0816C24.822 12.0816 25.5912 12.2483 26.0042 12.2195C27.5973 12.1094 28.8817 10.8081 28.9711 9.21293C29.0773 7.30216 27.505 5.73086 25.5942 5.83807C24.0209 5.92641 22.7276 7.18007 22.5936 8.75038C22.5519 9.23973 22.6214 9.71023 22.7792 10.138L22.7534 10.1639L22.7385 10.1787C20.8069 8.75435 18.503 7.9146 16.0046 7.9146C13.5062 7.9146 11.1865 8.7603 9.24994 10.1946L9.23505 10.1797L9.21123 10.1559L9.16457 10.1093C9.31644 9.68442 9.38196 9.2179 9.33729 8.7335C9.19535 7.17114 7.90495 5.9274 6.33862 5.83906C4.42388 5.73186 2.85159 7.30415 2.95879 9.2169C3.04614 10.7693 4.26705 12.0518 5.81353 12.2116L5.81452 12.2106Z" fill="white" stroke="white" stroke-width="1.30835"/>
<path fill-rule="evenodd" clip-rule="evenodd" d="M6.79128 23.3298C5.49592 22.7134 4.74254 21.3287 4.99466 19.9162C5.52173 16.9662 6.86275 14.3755 8.72289 12.4935C9.00678 12.2056 9.30357 11.9356 9.61028 11.6815C11.4258 10.1857 13.6274 9.31018 16.0007 9.31018C18.374 9.31018 20.5597 10.1797 22.3713 11.6656C22.679 11.9178 22.9758 12.1887 23.2606 12.4756C25.1396 14.3685 26.4916 16.983 27.0147 19.9609C27.2638 21.3753 26.5035 22.76 25.2042 23.3715C22.4229 24.6797 19.317 25.4113 16.0404 25.4113C12.7638 25.4113 9.59242 24.6648 6.78929 23.3298H6.79128Z" fill="#FFDF6F"/>
<path d="M6.17536 8.24609L5.32568 9.09577L7.34663 11.1167C7.69901 10.9142 7.9958 10.6244 8.20623 10.277L6.17536 8.24609Z" fill="black"/>
<path fill-rule="evenodd" clip-rule="evenodd" d="M25.8188 6.62912C24.5185 6.60728 23.3869 7.70709 23.374 9.00741C23.3691 9.48287 23.5031 9.92756 23.7373 10.3028L25.793 8.24707L26.6427 9.09674L24.6069 11.1316C25.0099 11.3559 25.4843 11.4691 25.9866 11.4264C27.144 11.3281 28.079 10.3891 28.1723 9.23174C28.2855 7.82819 27.1916 6.65195 25.8188 6.62912ZM23.7373 10.3028L22.8003 11.2388C23.108 11.4929 23.4038 11.7649 23.6877 12.0507L24.6069 11.1316C24.2515 10.9331 23.9517 10.6472 23.7373 10.3028ZM27.6085 19.8576C27.0675 16.7785 25.661 14.0419 23.6877 12.0507L23.2629 12.4756C22.978 12.1887 22.6812 11.9187 22.3735 11.6666L22.8003 11.2388C20.8866 9.65062 18.548 8.71062 16.0019 8.71062C13.4559 8.71062 11.1024 9.65658 9.18471 11.2557L9.61153 11.6825C9.30382 11.9356 9.00802 12.2066 8.72414 12.4944L8.2993 12.0696C6.34486 14.0489 4.94925 16.7607 4.40332 19.8119C4.10156 21.5034 5.00682 23.1461 6.53345 23.8727C9.41499 25.2445 12.64 26.0128 16.0426 26.0128C19.4453 26.0128 22.6028 25.2604 25.4625 23.9154C26.9941 23.1938 27.9073 21.552 27.6085 19.8576ZM24.9503 22.8275C22.2484 24.1 19.2289 24.8107 16.0426 24.8107C12.8564 24.8107 9.77432 24.0851 7.04961 22.7878C5.98652 22.2816 5.38401 21.1549 5.5865 20.0234C6.09571 17.1746 7.38213 14.704 9.14897 12.9183L10.0393 12.1103C11.7506 10.7177 13.8093 9.91168 16.0019 9.91168C18.1946 9.91168 20.2374 10.7107 21.9457 12.0934L22.838 12.9004C24.6227 14.696 25.9201 17.1895 26.4253 20.0651C26.6248 21.1996 26.0174 22.3262 24.9503 22.8275ZM8.20699 10.2779C7.99656 10.6254 7.69977 10.9142 7.34739 11.1177L8.2993 12.0696C8.58319 11.7817 8.87799 11.5108 9.18471 11.2557L8.20699 10.2779ZM8.20699 10.2779C8.43529 9.90175 8.56334 9.45805 8.5544 8.98557C8.52859 7.67037 7.41787 6.60331 6.10266 6.62912C4.73187 6.65691 3.64298 7.83117 3.75613 9.23174C3.85043 10.3951 4.7944 11.3361 5.95774 11.4274C6.46595 11.4671 6.9434 11.348 7.34739 11.1177L5.32644 9.09674L6.17611 8.24707L8.20699 10.2779Z" fill="black"/>
<path fill-rule="evenodd" clip-rule="evenodd" d="M26.6427 9.09686L24.6068 11.1317C24.2515 10.9332 23.9517 10.6473 23.7373 10.3029L25.793 8.24719L26.6427 9.09686Z" fill="black"/>
<path fill-rule="evenodd" clip-rule="evenodd" d="M23.6877 12.0508L23.2629 12.4757C22.978 12.1888 22.6812 11.9188 22.3735 11.6667L22.8004 11.2389C23.1081 11.493 23.4039 11.765 23.6877 12.0508Z" fill="black"/>
<path fill-rule="evenodd" clip-rule="evenodd" d="M9.61154 11.6826C9.30384 11.9357 9.00804 12.2067 8.72415 12.4945L8.29932 12.0697C8.5832 11.7818 8.87801 11.5108 9.18472 11.2557L9.61154 11.6826Z" fill="black"/>
<path fill-rule="evenodd" clip-rule="evenodd" d="M8.20721 10.2781C7.99678 10.6255 7.69999 10.9143 7.34761 11.1178L5.32666 9.09686L6.17633 8.24719L8.20721 10.2781Z" fill="black"/>
<path fill-rule="evenodd" clip-rule="evenodd" d="M26.6427 9.09577L24.6068 11.1306C24.2515 10.9321 23.9517 10.6462 23.7373 10.3018L25.793 8.24609L26.6427 9.09577Z" fill="black"/>
<path d="M22.8004 11.2378L22.3726 11.6656C22.6803 11.9177 22.9771 12.1887 23.2619 12.4756L23.6868 12.0507C23.4029 11.7639 23.1071 11.4929 22.8004 11.2388V11.2378Z" fill="black"/>
<path d="M9.18375 11.2548C8.87703 11.5099 8.58223 11.7818 8.29834 12.0687L8.72318 12.4935C9.00706 12.2057 9.30385 11.9357 9.61057 11.6816L9.18375 11.2548Z" fill="black"/>
<path fill-rule="evenodd" clip-rule="evenodd" d="M9.14377 21.8647C8.10154 21.4399 7.48314 20.3311 7.84445 19.2651C8.95816 15.9776 12.208 13.5973 16.0434 13.5973C19.8788 13.5973 23.1286 15.9766 24.2433 19.2651C24.6046 20.3311 23.9862 21.4409 22.944 21.8647C20.8149 22.7323 18.4852 23.2097 16.0444 23.2097C13.6036 23.2097 11.2739 22.7323 9.14477 21.8647H9.14377Z" fill="black"/>
<path d="M18.8078 20.3262C19.914 20.3262 20.8109 19.6089 20.8109 18.7241C20.8109 17.8393 19.914 17.1221 18.8078 17.1221C17.7015 17.1221 16.8047 17.8393 16.8047 18.7241C16.8047 19.6089 17.7015 20.3262 18.8078 20.3262Z" fill="white"/>
<path d="M13.0749 20.3272C14.1811 20.3272 15.0779 19.6099 15.0779 18.7251C15.0779 17.8403 14.1811 17.123 13.0749 17.123C11.9686 17.123 11.0718 17.8403 11.0718 18.7251C11.0718 19.6099 11.9686 20.3272 13.0749 20.3272Z" fill="white"/>
</g>
<defs>
<clipPath id="clip0_1297_276">
<rect width="27.6074" height="22.56" fill="white" transform="translate(2.16016 5.04004)"/>
</clipPath>
</defs>
</svg>
