<svg width="64" height="64" viewBox="0 0 64 64" fill="none" xmlns="http://www.w3.org/2000/svg">
<ellipse rx="6.51913" ry="6.5168" transform="matrix(-1 0 0 1 11.6734 16.0168)" fill="black"/>
<path d="M10.5869 15.0393L22.7559 27.204" stroke="black" stroke-width="3.2584"/>
<ellipse cx="51.8747" cy="16.0168" rx="6.51913" ry="6.5168" fill="black"/>
<path d="M53.0699 15.0393L40.9008 27.204" stroke="black" stroke-width="3.2584"/>
<path fill-rule="evenodd" clip-rule="evenodd" d="M7.00443 48.3876C3.49128 46.7157 1.44641 42.9603 2.13158 39.1304C5.07182 22.6954 17.3238 10.3689 31.9915 10.3689C46.6948 10.3689 58.9705 22.7552 61.8726 39.2498C62.5477 43.0866 60.4862 46.8402 56.9611 48.4986C49.4169 52.0477 40.9902 54.0316 32.1 54.0316C23.1176 54.0316 14.6084 52.0063 7.00443 48.3876Z" fill="#FFDF6F"/>
<path fill-rule="evenodd" clip-rule="evenodd" d="M7.00443 48.3876C3.49128 46.7157 1.44641 42.9603 2.13158 39.1304C5.07182 22.6954 17.3238 10.3689 31.9915 10.3689C46.6948 10.3689 58.9705 22.7552 61.8726 39.2498C62.5477 43.0866 60.4862 46.8402 56.9611 48.4986C49.4169 52.0477 40.9902 54.0316 32.1 54.0316C23.1176 54.0316 14.6084 52.0063 7.00443 48.3876Z" fill="black" fill-opacity="0.5" style="mix-blend-mode:saturation"/>
<path d="M56.9611 48.4986L56.2676 47.0244L56.9611 48.4986ZM7.00443 48.3876L6.30434 49.8587L7.00443 48.3876ZM3.73532 39.4173C6.57631 23.5372 18.3187 11.9981 31.9915 11.9981V8.7397C16.3288 8.7397 3.56734 21.8537 0.527843 38.8435L3.73532 39.4173ZM31.9915 11.9981C45.6972 11.9981 57.4638 23.5934 60.2681 39.5321L63.4772 38.9674C60.4772 21.9169 47.6923 8.7397 31.9915 8.7397V11.9981ZM56.2676 47.0244C48.9358 50.4735 40.7455 52.4024 32.1 52.4024V55.6608C41.2349 55.6608 49.8979 53.6218 57.6546 49.9728L56.2676 47.0244ZM32.1 52.4024C23.3649 52.4024 15.0944 50.4333 7.70452 46.9165L6.30434 49.8587C14.1224 53.5793 22.8703 55.6608 32.1 55.6608V52.4024ZM60.2681 39.5321C60.8093 42.6081 59.162 45.6627 56.2676 47.0244L57.6546 49.9728C61.8105 48.0177 64.2861 43.565 63.4772 38.9674L60.2681 39.5321ZM0.527843 38.8435C-0.293209 43.4329 2.1627 47.8877 6.30434 49.8587L7.70452 46.9165C4.81987 45.5437 3.18602 42.4877 3.73532 39.4173L0.527843 38.8435Z" fill="black"/>
<path fill-rule="evenodd" clip-rule="evenodd" d="M13.2736 44.3019C10.4458 43.1506 8.76817 40.1421 9.7484 37.2505C12.7709 28.3344 21.5869 21.8823 31.9916 21.8823C42.3963 21.8823 51.2122 28.3343 54.2348 37.2502C55.2151 40.1418 53.5375 43.1504 50.7097 44.3017C44.933 46.6536 38.6136 47.9495 31.9914 47.9495C25.3694 47.9495 19.0502 46.6537 13.2736 44.3019Z" fill="black"/>
<path d="M43.8344 36.762H35.1422" stroke="white" stroke-width="2.17227" stroke-linecap="round"/>
<path d="M28.6231 36.762H19.931" stroke="white" stroke-width="2.17227" stroke-linecap="round"/>
</svg>
