<svg width="548" height="549" viewBox="0 0 548 549" fill="none" xmlns="http://www.w3.org/2000/svg">
<path d="M411.255 0.74823H134.442C60.1917 0.74823 0 60.9399 0 135.19V412.004C0 486.254 60.1917 546.445 134.442 546.445H411.255C485.506 546.445 545.697 486.254 545.697 412.004V135.19C545.697 60.9399 485.506 0.74823 411.255 0.74823Z" fill="url(#paint0_linear_4515_47154)"/>
<path d="M505.091 39.1409C528.58 63.3765 543.091 96.3602 543.091 132.571V409.383C543.091 483.326 482.592 543.825 408.649 543.825H131.837C96.2519 543.825 63.7822 529.811 39.6689 507.032C64.1476 532.288 98.3795 548.045 136.113 548.045H412.925C486.868 548.045 547.367 487.546 547.367 413.603V136.791C547.367 98.4336 531.086 63.6947 505.093 39.1409H505.091Z" fill="#1A1718"/>
<path d="M4.2272 415.96V139.148C4.2272 65.2052 64.7262 4.70623 138.669 4.70623H415.481C449.823 4.70623 481.263 17.7567 505.09 39.1427C480.817 15.4211 447.666 0.75 411.254 0.75H134.442C60.499 0.75 0 61.249 0 135.192V412.004C0 451.606 17.3546 487.349 44.8332 512.011C19.8143 487.56 4.2272 453.492 4.2272 415.96Z" fill="#58595B"/>
<path d="M362.478 254.098C361.068 247.809 358.972 241.786 356.304 236.068C353.332 229.665 349.636 223.642 345.291 218.115C340.795 212.397 335.65 207.251 329.934 202.753C324.409 198.408 318.388 194.71 311.985 191.737C306.269 189.069 300.248 187.011 293.961 185.562C287.444 184.037 280.623 183.275 273.649 183.275C266.676 183.275 259.854 184.037 253.338 185.562C252.385 190.251 251.471 195.168 250.671 200.314C249.184 209.462 247.965 219.335 247.012 229.97C246.555 235.306 246.174 240.871 245.869 246.627C245.412 255.432 245.145 264.695 245.145 274.453C245.145 284.212 245.412 293.436 245.869 302.279C254.672 302.737 263.932 303.004 273.688 303.004C283.443 303.004 292.665 302.737 301.506 302.279C307.222 301.975 312.786 301.593 318.121 301.136C328.791 300.183 338.661 298.963 347.806 297.477C352.951 296.638 357.867 295.761 362.554 294.808C364.04 288.29 364.841 281.467 364.841 274.491C364.841 267.516 364.078 260.693 362.554 254.175L362.478 254.098ZM336.069 247.199C333.745 247.542 331.496 248.114 329.286 248.876C325.323 250.248 321.665 252.269 318.349 254.823C310.08 261.112 304.135 270.565 302.421 280.743C302.421 280.933 302.23 281.01 302.116 280.971C302.001 280.971 301.887 280.857 301.887 280.743C299.181 263.399 285.158 249.867 268.238 247.161C267.933 247.123 267.933 246.665 268.238 246.627C269.419 246.437 270.563 246.208 271.706 245.903C281.233 243.501 289.502 237.593 295.028 229.741C296.819 227.225 298.305 224.519 299.486 221.622C300.629 218.839 301.468 215.904 301.925 212.893C301.963 212.588 302.421 212.588 302.459 212.893C303.488 219.449 306.155 225.434 309.928 230.541C312.1 233.476 314.615 236.068 317.473 238.317C322.808 242.549 329.172 245.484 336.069 246.665C336.374 246.703 336.374 247.161 336.069 247.199Z" fill="#F1F2F2"/>
<path d="M464.301 267.95L464.149 280.949C464.149 300.389 443.228 318.076 405.273 330.731C391.897 335.191 376.844 338.888 360.649 341.785C359.467 342.014 358.286 342.204 357.105 342.433C352.684 343.157 348.226 343.843 343.615 344.453C339.118 345.063 334.545 345.597 329.934 346.092C324.523 346.664 319.074 347.16 313.51 347.579C307.946 347.96 302.344 348.303 296.628 348.532C289.045 348.837 281.385 348.989 273.649 348.989C265.914 348.989 258.216 348.837 250.671 348.532C244.955 348.265 239.353 347.96 233.789 347.579C228.225 347.16 222.776 346.702 217.403 346.092C212.754 345.597 208.219 345.063 203.722 344.453C199.149 343.843 194.653 343.157 190.27 342.433C189.051 342.242 187.87 342.014 186.688 341.785C170.493 338.926 155.44 335.229 142.064 330.731C104.109 318.076 83.1885 300.389 83.1885 280.949V267.874C83.1885 248.434 104.109 230.747 142.064 218.092C155.44 213.632 170.493 209.935 186.688 207.038C186.498 208.639 186.307 210.202 186.117 211.841C185.126 220.189 184.364 228.689 183.83 237.38C179.638 238.218 175.599 239.057 171.674 240.01C134.71 248.701 110.283 261.585 103.957 274.43C110.283 287.276 134.71 300.16 171.674 308.813C175.599 309.728 179.638 310.604 183.83 311.443C186.193 311.9 188.594 312.358 191.071 312.777C194.195 313.311 197.358 313.845 200.598 314.302C210.01 315.712 219.956 316.894 230.398 317.733C235.847 318.19 241.411 318.571 247.089 318.838C255.701 319.257 264.618 319.486 273.764 319.486C282.91 319.486 291.789 319.257 300.439 318.838C306.117 318.571 311.681 318.19 317.092 317.733C327.533 316.856 337.479 315.712 346.892 314.302C350.131 313.806 353.332 313.311 356.419 312.777C358.858 312.358 361.258 311.9 363.659 311.443C367.851 310.643 371.89 309.766 375.816 308.851C412.78 300.16 437.207 287.276 443.532 274.43C437.207 261.585 412.78 248.701 375.816 240.048C372.386 229.871 367.508 220.417 361.373 211.879C360.039 210.011 358.667 208.219 357.219 206.466C358.4 206.657 359.62 206.885 360.801 207.114C376.997 209.973 392.049 213.67 405.425 218.168C443.38 230.823 464.301 248.51 464.301 267.95Z" fill="#F1F2F2"/>
<path d="M341.557 190.92C339.804 189.472 338.013 188.1 336.146 186.766C327.61 180.629 318.121 175.749 307.984 172.319C299.334 135.344 286.454 110.911 273.611 104.583C260.769 110.911 247.889 135.344 239.238 172.319C238.286 176.245 237.447 180.285 236.609 184.478C236.152 186.842 235.694 189.281 235.275 191.721C234.742 194.847 234.208 198.01 233.751 201.25C232.341 210.666 231.16 220.614 230.321 231.059C229.864 236.471 229.483 242.037 229.216 247.716C228.797 256.331 228.568 265.251 228.568 274.399C228.568 283.547 228.797 292.429 229.216 301.081C218.546 300.129 208.676 298.909 199.569 297.422C199.264 289.837 199.111 282.175 199.111 274.437C199.111 266.699 199.264 258.999 199.569 251.452C199.835 245.734 200.14 240.131 200.559 234.566C200.94 229 201.436 223.511 202.007 218.175C202.503 213.524 203.036 208.95 203.646 204.452C204.256 199.878 204.942 195.38 205.666 190.997C205.856 189.815 206.085 188.595 206.314 187.414C209.172 171.213 212.868 156.157 217.365 142.777C230.016 104.812 247.698 83.885 267.133 83.885H280.204C299.639 83.885 317.321 104.812 329.972 142.777C334.431 156.157 338.127 171.213 341.023 187.414C341.252 188.595 341.443 189.815 341.671 190.997L341.557 190.92Z" fill="#F1F2F2"/>
<path d="M340.948 361.469C338.09 377.669 334.393 392.726 329.896 406.105C317.245 444.071 299.563 464.998 280.128 464.998H267.057C247.622 464.998 229.941 444.071 217.289 406.105C212.83 392.726 209.134 377.669 206.238 361.469C207.838 361.66 209.401 361.85 211.039 362.041C219.385 363.032 227.883 363.794 236.571 364.328C237.41 368.521 238.248 372.561 239.201 376.488C247.851 413.462 260.731 437.896 273.574 444.223C286.416 437.896 299.296 413.462 307.985 376.488C308.899 372.561 309.776 368.521 310.576 364.328C319.264 363.756 327.801 362.994 336.108 362.041C337.708 361.888 339.309 361.66 340.91 361.469H340.948Z" fill="#F1F2F2"/>
<defs>
<linearGradient id="paint0_linear_4515_47154" x1="434.552" y1="553.674" x2="111.147" y2="-6.48069" gradientUnits="userSpaceOnUse">
<stop stop-color="#4F4849"/>
<stop offset="0.34" stop-color="#393435"/>
<stop offset="0.72" stop-color="#282425"/>
<stop offset="1" stop-color="#231F20"/>
</linearGradient>
</defs>
</svg>
