<svg width="128" height="128" viewBox="0 0 128 128" fill="none" xmlns="http://www.w3.org/2000/svg">
<ellipse rx="13.0383" ry="13.0336" transform="matrix(-1 0 0 1 23.3469 32.0336)" fill="black"/>
<path d="M21.1738 30.0786L45.5118 54.408" stroke="black" stroke-width="6.5168"/>
<ellipse cx="103.749" cy="32.0336" rx="13.0383" ry="13.0336" fill="black"/>
<path d="M106.14 30.0786L81.8016 54.408" stroke="black" stroke-width="6.5168"/>
<path fill-rule="evenodd" clip-rule="evenodd" d="M14.0089 96.7749C6.98257 93.4312 2.89281 85.9202 4.26317 78.2605C10.1437 45.3906 34.6476 20.7376 63.983 20.7376C93.3895 20.7376 117.941 45.5101 123.745 78.4992C125.095 86.1728 120.972 93.6801 113.922 96.9968C98.8337 104.095 81.9804 108.063 64.2 108.063C46.2352 108.063 29.2168 104.012 14.0089 96.7749Z" fill="#FFDF6F"/>
<path fill-rule="evenodd" clip-rule="evenodd" d="M14.0089 96.7749C6.98257 93.4312 2.89281 85.9202 4.26317 78.2605C10.1437 45.3906 34.6476 20.7376 63.983 20.7376C93.3895 20.7376 117.941 45.5101 123.745 78.4992C125.095 86.1728 120.972 93.6801 113.922 96.9968C98.8337 104.095 81.9804 108.063 64.2 108.063C46.2352 108.063 29.2168 104.012 14.0089 96.7749Z" fill="black" fill-opacity="0.5" style="mix-blend-mode:saturation"/>
<path d="M123.745 78.4991L120.536 79.0637L123.745 78.4991ZM113.922 96.9968L115.309 99.9452L113.922 96.9968ZM14.0089 96.7749L12.6087 99.7171L14.0089 96.7749ZM7.47063 78.8342C13.1526 47.074 36.6375 23.9959 63.983 23.9959V17.4792C32.6577 17.4792 7.13473 43.7072 1.05569 77.6866L7.47063 78.8342ZM63.983 23.9959C91.3944 23.9959 114.927 47.1865 120.536 79.0637L126.954 77.9345C120.954 43.8335 95.3845 17.4792 63.983 17.4792V23.9959ZM112.535 94.0484C97.8715 100.947 81.491 104.804 64.2 104.804V111.321C82.4698 111.321 99.7959 107.243 115.309 99.9452L112.535 94.0484ZM64.2 104.804C46.7298 104.804 30.1888 100.866 15.409 93.8327L12.6087 99.7171C28.2448 107.158 45.7406 111.321 64.2 111.321V104.804ZM120.536 79.0637C121.619 85.2158 118.324 91.3251 112.535 94.0484L115.309 99.9452C123.621 96.0351 128.572 87.1297 126.954 77.9345L120.536 79.0637ZM1.05569 77.6866C-0.586427 86.8654 4.32539 95.7752 12.6087 99.7171L15.409 93.8327C9.63974 91.0871 6.37204 84.975 7.47063 78.8342L1.05569 77.6866Z" fill="black"/>
<path fill-rule="evenodd" clip-rule="evenodd" d="M26.5472 88.6032C20.8916 86.3006 17.5363 80.2835 19.4967 74.5003C25.5417 56.6682 43.1737 43.7639 63.9833 43.7639C84.7927 43.7639 102.425 56.6679 108.47 74.4998C110.43 80.2829 107.075 86.3001 101.419 88.6027C89.866 93.3066 77.2271 95.8984 63.9827 95.8984C50.7388 95.8984 38.1003 93.3068 26.5472 88.6032Z" fill="black"/>
<path d="M87.6688 73.5239H70.2845" stroke="white" stroke-width="4.34453" stroke-linecap="round"/>
<path d="M57.2462 73.5239H39.8619" stroke="white" stroke-width="4.34453" stroke-linecap="round"/>
</svg>
