<svg width="128" height="128" viewBox="0 0 128 128" fill="none" xmlns="http://www.w3.org/2000/svg">
<circle r="12.153" transform="matrix(-1 0 0 1 13.9308 28.153)" fill="black"/>
<path d="M11.9053 26.3298L34.5909 49.0155" stroke="black" stroke-width="3.03825"/>
<circle cx="113.18" cy="28.153" r="12.153" fill="black"/>
<path d="M115.408 26.3298L92.7228 49.0155" stroke="black" stroke-width="3.03825"/>
<path fill-rule="evenodd" clip-rule="evenodd" d="M12.1565 98.011C8.97033 96.2774 7.10278 92.8256 7.47688 89.2177C10.9512 55.7112 34.9151 29.7734 63.9606 29.7734C93.0737 29.7734 117.081 55.8321 120.468 89.4518C120.832 93.0654 118.949 96.5156 115.752 98.2374C100.395 106.506 82.8269 111.198 64.1632 111.198C45.3297 111.198 27.6122 106.421 12.1565 98.011Z" fill="#FFDF6F"/>
<path d="M120.468 89.4518L121.98 89.2995L120.468 89.4518ZM115.752 98.2374L116.472 99.575L115.752 98.2374ZM12.1565 98.011L12.8825 96.6766L12.1565 98.011ZM8.9879 89.3744C12.4058 56.4115 35.9052 31.2926 63.9606 31.2926V28.2543C33.925 28.2543 9.49653 55.0109 5.96586 89.0611L8.9879 89.3744ZM63.9606 31.2926C92.0811 31.2926 115.625 56.529 118.957 89.604L121.98 89.2995C118.538 55.1352 94.0662 28.2543 63.9606 28.2543V31.2926ZM115.031 96.8999C99.8905 105.052 82.5694 109.679 64.1632 109.679V112.717C83.0845 112.717 100.899 107.96 116.472 99.575L115.031 96.8999ZM64.1632 109.679C45.5897 109.679 28.121 104.968 12.8825 96.6766L11.4304 99.3454C27.1034 107.873 45.0698 112.717 64.1632 112.717V109.679ZM118.957 89.604C119.258 92.5914 117.702 95.4617 115.031 96.8999L116.472 99.575C120.196 97.5695 122.407 93.5395 121.98 89.2995L118.957 89.604ZM5.96586 89.0611C5.52691 93.2943 7.71947 97.3263 11.4304 99.3454L12.8825 96.6766C10.2212 95.2286 8.67864 92.3569 8.9879 89.3744L5.96586 89.0611Z" fill="black"/>
<path fill-rule="evenodd" clip-rule="evenodd" d="M24.7655 91.1723C22.1875 89.9656 20.6697 87.2163 21.2557 84.4308C25.2371 65.5051 42.8436 51.2437 63.9606 51.2437C85.0777 51.2437 102.684 65.505 106.666 84.4308C107.252 87.2163 105.734 89.9656 103.156 91.1723C91.2535 96.7434 77.9705 99.8558 63.9606 99.8558C49.9507 99.8558 36.6678 96.7434 24.7655 91.1723Z" fill="black"/>
<ellipse cx="78.7468" cy="78.1828" rx="10.9377" ry="7.08925" fill="white"/>
<ellipse cx="49.7545" cy="78.1879" rx="10.9377" ry="7.08925" fill="white"/>
</svg>
