<svg width="39" height="39" viewBox="0 0 39 39" fill="none" xmlns="http://www.w3.org/2000/svg">
    <path d="M13.8938 34.8989C14.5869 35.0408 15.2957 35.1271 16.0075 35.1567C14.5445 35.6414 13.0913 36.1569 11.643 36.6827L11.6421 36.683C10.2943 37.1663 8.9505 37.6639 7.5848 38.0951C6.48421 38.4362 5.36077 38.7337 4.21266 38.755C1.99156 38.81 0.302532 37.6237 0.036228 35.3433C-0.18294 33.2726 0.637189 31.2251 1.28908 29.2853C1.98829 27.3143 2.71319 25.3515 3.38538 23.3711C3.43002 23.7776 3.49319 24.1813 3.57479 24.5799C3.74922 25.4323 4.00948 26.2707 4.34836 27.0718C4.68085 27.8579 5.09221 28.616 5.57111 29.3248C6.04506 30.0263 6.58924 30.6859 7.18856 31.2852C7.78784 31.8845 8.44741 32.4287 9.14893 32.9026C9.85775 33.3815 10.6158 33.7929 11.4019 34.1254C12.203 34.4643 13.0414 34.7245 13.8938 34.8989Z" fill="#BEDAFD"/>
    <path d="M7.18791 12.5382C6.75355 12.9725 6.34819 13.4385 5.97754 13.9291C6.42077 11.8264 6.80693 9.71041 7.20619 7.59923C7.72714 5.08619 8.30962 1.42614 11.0963 0.524747C12.5915 0.0664903 14.1253 0.752121 15.2939 1.69124C16.6473 2.78343 17.7589 4.16056 18.8984 5.46976C19.8016 6.53627 20.7071 7.60225 21.6273 8.65513H16.5624C15.6645 8.65513 14.7664 8.74576 13.8932 8.92446C13.0408 9.09884 12.2024 9.35915 11.4012 9.69798C10.6151 10.0305 9.85709 10.4419 9.14828 10.9208C8.44675 11.3947 7.78719 11.9389 7.18791 12.5382Z" fill="#BEDAFD"/>
    <path d="M37.3103 29.162C36.2631 30.2108 34.811 30.6994 33.3893 31.0624C33.0526 31.1471 32.714 31.2245 32.3746 31.298C29.5483 31.8875 26.6959 32.3557 23.876 32.9748C23.9098 32.9524 23.9435 32.9299 23.9772 32.9072C24.6786 32.4332 25.3382 31.8891 25.9375 31.2897C26.5369 30.6904 27.081 30.0309 27.5549 29.3294C28.0338 28.6205 28.4452 27.8625 28.7777 27.0764C29.1166 26.2752 29.3769 25.4368 29.5513 24.5845C29.73 23.7112 29.8206 22.8131 29.8206 21.9152V16.8867C31.517 18.3677 33.2516 19.8056 34.9387 21.2977C35.323 21.6425 35.7025 21.993 36.0672 22.3583C36.9976 23.2944 37.8586 24.342 38.221 25.6125C38.5947 26.9039 38.2656 28.2104 37.3103 29.162Z" fill="#BEDAFD"/>
    <path d="M24.9719 22.1773C24.9719 26.8165 21.211 30.5773 16.5719 30.5773C11.9327 30.5773 8.17188 26.8165 8.17188 22.1773C8.17189 17.5382 11.9327 13.7774 16.5719 13.7773H24.9719L24.9719 22.1773Z" fill="#1D4ED7"/>
    </svg>