<svg width="16" height="16" viewBox="0 0 16 16" fill="none" xmlns="http://www.w3.org/2000/svg">
<circle r="1.2" transform="matrix(-1 0 0 1 3.08027 4.51934)" fill="#3C6ECF"/>
<path d="M2.88012 4.33887L5.12012 6.57887" stroke="#3C6ECF" stroke-width="0.6"/>
<circle cx="12.8802" cy="4.51934" r="1.2" fill="#3C6ECF"/>
<path d="M13.1004 4.33887L10.8604 6.57887" stroke="#3C6ECF" stroke-width="0.6"/>
<path fill-rule="evenodd" clip-rule="evenodd" d="M3.42031 11.6804C2.77355 11.3725 2.39714 10.6811 2.52323 9.97599C3.0644 6.94958 5.31969 4.67969 8.01969 4.67969C10.7262 4.67969 12.9859 6.96059 13.5201 9.998C13.6443 10.7044 13.2648 11.3955 12.6158 11.7009C11.2272 12.3544 9.67609 12.7197 8.03969 12.7197C6.38629 12.7197 4.81999 12.3468 3.42031 11.6804Z" fill="#5D8FED"/>
<path d="M12.6158 11.7009L12.7436 11.9723L12.6158 11.7009ZM2.81855 10.0288C3.34146 7.10447 5.50299 4.97969 8.01969 4.97969V4.37969C5.1364 4.37969 2.78734 6.79469 2.22792 9.92318L2.81855 10.0288ZM8.01969 4.97969C10.5425 4.97969 12.7084 7.11485 13.2246 10.05L13.8155 9.94604C13.2634 6.80633 10.91 4.37969 8.01969 4.37969V4.97969ZM12.4881 11.4295C11.1386 12.0645 9.63102 12.4197 8.03969 12.4197V13.0197C9.72117 13.0197 11.3158 12.6443 12.7436 11.9723L12.4881 11.4295ZM8.03969 12.4197C6.43184 12.4197 4.90951 12.0571 3.54926 11.4096L3.29136 11.9513C4.73047 12.6364 6.34074 13.0197 8.03969 13.0197V12.4197ZM13.2246 10.05C13.3242 10.6163 13.0209 11.1787 12.4881 11.4295L12.7436 11.9723C13.5087 11.6123 13.9644 10.7925 13.8155 9.94604L13.2246 10.05ZM2.22792 9.92318C2.07683 10.7681 2.52888 11.5883 3.29136 11.9513L3.54926 11.4096C3.01822 11.1568 2.71746 10.5941 2.81855 10.0288L2.22792 9.92318Z" fill="#3C6ECF"/>
<path fill-rule="evenodd" clip-rule="evenodd" d="M4.57386 10.9281C4.05325 10.7161 3.74443 10.1622 3.92483 9.62982C4.48115 7.98795 6.10397 6.7998 8.01927 6.7998C9.93456 6.7998 11.5574 7.98795 12.1137 9.62982C12.2941 10.1622 11.9853 10.7161 11.4647 10.9282C10.4014 11.3612 9.23818 11.5998 8.01927 11.5998C6.80035 11.5998 5.63716 11.3612 4.57386 10.9281Z" fill="white"/>
<path d="M7.35986 8.51953L7.35986 10.3995" stroke="#5D8FED" stroke-width="0.8" stroke-linecap="round"/>
<path d="M5.95996 9.08008L5.95996 9.80008" stroke="#5D8FED" stroke-width="0.8" stroke-linecap="round"/>
<path d="M8.75977 8.51953L8.75977 10.3995" stroke="#5D8FED" stroke-width="0.8" stroke-linecap="round"/>
<path d="M10.1602 9.15918L10.1602 9.71918" stroke="#5D8FED" stroke-width="0.8" stroke-linecap="round"/>
</svg>
