<svg xmlns="http://www.w3.org/2000/svg" width="400" height="578" fill="none"><ellipse cx="201.3" cy="559.4" fill="#fff" opacity=".3" rx="98" ry="18.1"/><path fill="#FFDF6F" fill-rule="evenodd" d="M47 113a30 30 0 0 0 45 26l12.3 12.4a183.6 183.6 0 0 0-48.6 96.7 46 46 0 0 0 .2 17.3c-3.1 2-6 4.3-8.8 6.9a60.3 60.3 0 0 0-17.5 44.4c0 22.2 6 61.7 18.3 95.8A154 154 0 0 0 72.2 458c10 12.1 22.9 20.9 38.6 20.9 15.5 0 24.4-13 29.7-27 1.6-4.3 3-9 4.2-14 12.5 6.4 21.2 18 30 29.5 7 9.3 14.2 18.7 23.3 25.5 1 .8 2.1 1.2 3.3 1.2 1.1 0 2.2-.4 3.3-1.2 9.1-6.8 16.2-16.2 23.3-25.5 8.8-11.6 17.5-23 30-29.6l3.5-2a119 119 0 0 0 4.7 16.1c5.3 14 14.2 27 29.7 27 15.7 0 28.5-8.8 38.6-21 10-12 18-28.3 24.3-45.4a318.2 318.2 0 0 0 18.3-95.8c0-18.3-6.4-33.7-17.5-44.4a53 53 0 0 0-13.8-9.7 46 46 0 0 0-.3-14c-6.8-38.6-24.6-73-49.5-98l11.5-11.4a30 30 0 1 0-10.9-10.3l-11.7 11.7a132 132 0 0 0-84.3-31.1c-31.9 0-61.2 11.8-85.1 31.8l-12.7-12.7A30 30 0 1 0 47 113Z" clip-rule="evenodd"/><path fill="#fff" d="m92 139 10.5-10.6-8-8.1-10 5.7 7.4 13Zm12.3 12.4L115 162l10.5-10.6-10.6-10.6-10.6 10.6Zm-48.6 96.7L41 245.4l14.8 2.7Zm.2 17.3 8 12.7 8.8-5.6-2.1-10.1-14.7 3Zm-8.8 6.9-10.4-10.8L47 272.3Zm.8 140.2 14.1-5-14 5ZM72.2 458l-11.6 9.6 11.6-9.6Zm68.3-6 14 5.2-14-5.3Zm4.2-14.2 7-13.3-17-8.9-4.6 18.7 14.6 3.5Zm30 29.6-12 9 12-9Zm23.3 25.5 9-12-9 12Zm6.6 0 9 12-9-12Zm23.3-25.5 12 9-12-9Zm30-29.6-7-13.3 7 13.3Zm3.5-2 14.7-3.2-4.5-19.6-17.5 9.8 7.3 13Zm4.7 16.1 14-5.3-14 5.3Zm68.3 6 11.6 9.7-11.6-9.6Zm24.3-45.4 14 5.2-14-5.2Zm.8-140.2L349 283l10.5-10.8Zm-13.8-9.7-14.9-2-1.3 10.6 9.5 4.8 6.7-13.4Zm-.3-14 14.8-2.5-14.8 2.6Zm-49.5-98-10.6-10.5-10.6 10.6 10.6 10.6 10.6-10.6Zm11.5-11.4 7.3-13-9.9-5.6-8 8 10.6 10.6ZM296.5 129l10.6 10.6 8.5-8.5-6.3-10-12.8 7.9Zm-11.7 11.7-9.5 11.6 10.5 8.6 9.6-9.6-10.6-10.6Zm-169.4.7L104.8 152l9.7 9.7 10.5-8.8-9.6-11.5Zm-12.7-12.7-12.9-7.8-6 10 8.3 8.4 10.6-10.6ZM77 128a15 15 0 0 1-15-15H32a45 45 0 0 0 45 45v-30Zm7.5-2c-2.2 1.3-4.8 2-7.5 2v30a45 45 0 0 0 22.4-6l-15-26Zm30.4 14.8-12.4-12.4-21.2 21.2L93.7 162l21.2-21.2Zm-44.4 110A168.6 168.6 0 0 1 115 162l-21.3-21.1a198.5 198.5 0 0 0-52.8 104.5l29.6 5.3Zm.1 11.6a31 31 0 0 1-.1-11.7l-29.6-5.3a61 61 0 0 0 .3 23l29.4-6Zm-13 20.7c1.9-2 4-3.6 6.3-5l-16-25.4c-4 2.5-7.8 5.5-11.2 8.8l20.8 21.6Zm-13 33.6c0-14.7 5-26 13-33.6l-21-21.6a75.2 75.2 0 0 0-22 55.2h30ZM62 407.4a303.6 303.6 0 0 1-17.4-90.7h-30c0 24 6.3 65.3 19.2 101L62 407.4Zm21.7 41a140 140 0 0 1-21.7-41l-28.2 10.3a171.1 171.1 0 0 0 26.8 49.9l23.1-19.2Zm27.1 15.5c-9.6 0-18.6-5.3-27-15.5l-23.2 19.2c11.7 14 28.4 26.3 50.2 26.3v-30Zm15.6-17.3c-2.2 6-4.9 10.7-7.7 13.6-2.6 2.6-5 3.7-7.9 3.7v30c25.8 0 38.2-22 43.7-36.7l-28-10.6Zm3.7-12.3c-1 4.6-2.3 8.7-3.7 12.3l28.1 10.6a135 135 0 0 0 4.8-15.9l-29.2-7Zm56.5 24c-8.3-11-19-25.4-35-33.8l-13.8 26.6c9 4.7 15.7 13.2 25 25.3l23.8-18Zm20.3 22.5c-7-5.2-13-12.8-20.3-22.5l-23.9 18.1c6.8 9 15.2 20.2 26.3 28.5l18-24Zm-5.6-1.7c2.7 0 4.7 1 5.6 1.7L189 505c3 2.3 7.3 4.2 12.3 4.2v-30Zm-5.7 1.7c1-.7 3-1.7 5.7-1.7v30c5 0 9.2-2 12.2-4.2l-17.9-24Zm20.4-22.5a110.3 110.3 0 0 1-20.4 22.5l18 24.1c11-8.3 19.4-19.5 26.3-28.5l-24-18Zm35-33.8c-16 8.4-26.7 22.8-35 33.8l23.9 18.1c9.1-12 16-20.6 25-25.3l-14-26.6Zm3-1.7-3 1.7 13.8 26.6 4-2.1-14.7-26.2Zm26.2 23.8c-1.6-4-3-8.8-4.1-14l-29.3 6.6c1.4 6.3 3.2 12.4 5.3 18l28-10.6Zm15.6 17.3c-3 0-5.4-1-7.9-3.7-2.8-3-5.5-7.6-7.7-13.6L252 457.2c5.5 14.7 17.9 36.7 43.7 36.7v-30Zm27-15.5c-8.4 10.2-17.5 15.5-27 15.5v30c21.8 0 38.5-12.3 50.2-26.3l-23.1-19.2Zm21.8-41a140 140 0 0 1-21.7 41l23 19.2c11.7-14 20.4-32 26.9-50l-28.2-10.2Zm17.4-90.7c0 20.4-5.6 58.2-17.4 90.7l28.2 10.3c13-35.7 19.2-77 19.2-101h-30Zm-13-33.6c7.9 7.6 13 18.9 13 33.6h30c0-22-7.8-41.3-22.1-55.2L349 283.1Zm-10-7.1c3.7 1.9 7.1 4.2 10 7l20.9-21.5c-5.2-5-11-9.1-17.5-12.3L339 276Zm-8.4-24.7c.6 3.2.6 6.3.2 9.3l29.8 4a61 61 0 0 0-.4-18.5l-29.6 5.2Zm-45.3-90a168 168 0 0 1 45.3 90l29.6-5.2a198.4 198.4 0 0 0-53.7-106l-21.2 21.2Zm11.5-32.7-11.5 11.5 21.2 21.2 11.5-11.5-21.2-21.2Zm25.2-.6a15 15 0 0 1-7.3-1.9l-14.6 26.2c6.5 3.6 14 5.7 21.9 5.7v-30Zm15-15a15 15 0 0 1-15 15v30a45 45 0 0 0 45-45h-30Zm-15-15a15 15 0 0 1 15 15h30a45 45 0 0 0-45-45v30Zm-15 15a15 15 0 0 1 15-15V68a45 45 0 0 0-45 45h30Zm2.3 8c-1.5-2.4-2.3-5-2.3-8h-30a45 45 0 0 0 6.8 23.8l25.5-15.9Zm-13.9 30.2 11.7-11.7-21.2-21.2-11.7 11.7 21.2 21.2Zm-94.9-26.7a117 117 0 0 1 74.8 27.7l19-23.2a147 147 0 0 0-93.8-34.5v30ZM125 152.8c21.5-18 47.5-28.3 75.5-28.3v-30c-35.8 0-68.4 13.3-94.7 35.3l19.2 23Zm-33-13.6 12.8 12.7 21.2-21.2-12.7-12.8L92 139.2Zm0-26.2c0 2.9-.8 5.5-2.2 7.8l25.7 15.5A44.9 44.9 0 0 0 122 113H92ZM77 98a15 15 0 0 1 15 15h30a45 45 0 0 0-45-45v30Zm-15 15a15 15 0 0 1 15-15V68a45 45 0 0 0-45 45h30Z"/><ellipse cx="201.3" cy="559.4" fill="#000" opacity=".1" rx="98" ry="18.1"/><path fill="#fff" stroke="#000" stroke-width="15.1" d="M295.8 471.3c50.6 0 73.6-112 73.6-154.6 0-33-22.8-53.2-52.9-53.2-29.9 0-54.1 12.9-54.4 28.8 0 42-7.4 179 33.7 179Zm-185 0c-50.6 0-73.6-112-73.6-154.6 0-33 22.8-53.2 52.9-53.2 29.8 0 54 12.9 54.4 28.8 0 42 7.4 179-33.7 179Z"/><mask id="a" fill="#fff"><path fill-rule="evenodd" d="M341.5 303.9c.8-8.2-8.3-13-15.4-8.9a245.1 245.1 0 0 1-125.3 34.3c-45.4 0-87.9-12.3-124.4-33.7-7-4.1-16 .8-15.2 9 6.2 59.8 38.8 109.9 83.5 133.2 12.5 6.5 21.2 18 30 29.6 7 9.3 14.2 18.7 23.3 25.5 1 .8 2.1 1.2 3.3 1.2 1.1 0 2.2-.4 3.3-1.2 9.1-6.8 16.2-16.2 23.3-25.5 8.8-11.6 17.5-23 30-29.6 44.8-23.4 77.5-73.8 83.6-134Z" clip-rule="evenodd"/></mask><path fill="#FFDF6F" fill-rule="evenodd" d="M341.5 303.9c.8-8.2-8.3-13-15.4-8.9a245.1 245.1 0 0 1-125.3 34.3c-45.4 0-87.9-12.3-124.4-33.7-7-4.1-16 .8-15.2 9 6.2 59.8 38.8 109.9 83.5 133.2 12.5 6.5 21.2 18 30 29.6 7 9.3 14.2 18.7 23.3 25.5 1 .8 2.1 1.2 3.3 1.2 1.1 0 2.2-.4 3.3-1.2 9.1-6.8 16.2-16.2 23.3-25.5 8.8-11.6 17.5-23 30-29.6 44.8-23.4 77.5-73.8 83.6-134Z" clip-rule="evenodd"/><path fill="#000" d="m144.7 437.8-7 13.4 7-13.4Zm30 29.6-12 9 12-9Zm23.3 25.5 9-12.1-9 12Zm6.6 0 9 12-9-12Zm23.3-25.5-12-9.1 12 9Zm30-29.6-7-13.4 7 13.4ZM326 295l-7.6-13 7.6 13Zm15.4 8.9 15 1.5-15-1.5Zm-23-21.9a230 230 0 0 1-117.7 32.2v30.1c48.5 0 94-13.2 133-36.3l-15.3-26Zm-117.7 32.2A230 230 0 0 1 84 282.6l-15.3 26a260.2 260.2 0 0 0 132 35.7v-30.1ZM46.2 306c6.7 64.1 41.7 119 91.5 145l14-26.7C112 403.8 82 358.5 76.2 303l-30 3.1Zm91.5 145c9 4.8 15.8 13.3 25 25.4l24-18.2c-8.4-11-19-25.5-35-33.9l-14 26.8Zm25 25.4c6.8 9 15.1 20.2 26.3 28.5l18-24.2c-7.1-5.3-13-12.8-20.3-22.5l-24 18.2ZM189 505c3 2.3 7.2 4.2 12.3 4.2V479a9 9 0 0 1 5.7 1.8L189 505Zm12.3 4.2c5 0 9.2-2 12.3-4.2l-18-24.2c1-.7 3-1.8 5.7-1.8v30.2Zm12.3-4.2c11.1-8.3 19.5-19.5 26.3-28.5l-24-18.2a110.3 110.3 0 0 1-20.3 22.5l18 24.2Zm26.3-28.5c9.2-12.1 16-20.6 25-25.3l-14-26.8c-16 8.4-26.7 22.9-35 33.9l24 18.2Zm25-25.3c50-26.1 85-81.4 91.6-145.8l-30-3c-5.7 55.8-35.9 101.3-75.6 122l14 26.8ZM84 282.6c-8.4-5-18.2-4.5-25.7-.2A24.2 24.2 0 0 0 46.2 306l30-3.1a6 6 0 0 1-3 5.6c-1.3.8-3 .8-4.4 0l15.3-26ZM333.8 308c-1.3.8-3 .7-4.4 0a6 6 0 0 1-2.9-5.6l30 3c1-10.7-4.6-19.4-12.3-23.7a25.7 25.7 0 0 0-25.7.3l15.3 26Z" mask="url(#a)"/><ellipse cx="201.8" cy="302.1" fill="#000" stroke="#000" stroke-width="15.1" rx="132.7" ry="44.2"/><path stroke="#000" stroke-linecap="round" stroke-width="15.1" d="M95.2 376.5s65.5 22.1 107.6 22.1c42.1 0 107.5-22.1 107.5-22.1"/><circle r="30" fill="#000" transform="matrix(-1 0 0 1 77 113)"/><path stroke="#000" stroke-width="15" d="m72 108.5 56 56"/><circle cx="322" cy="113" r="30" fill="#000"/><path stroke="#000" stroke-width="15" d="m327.5 108.5-56 56"/><path fill="#FFDF6F" fill-rule="evenodd" d="M85.5 292a39.7 39.7 0 0 1-22.4-42.6C76.6 173.7 133 117 200.5 117c67.7 0 124.2 57 137.5 133a39.6 39.6 0 0 1-22.6 42.5A268 268 0 0 1 201 318a268 268 0 0 1-115.5-26Z" clip-rule="evenodd"/><path fill="#000" d="m338 250 7.4-1.3-7.4 1.3Zm-22.6 42.5-3.2-6.8 3.2 6.8Zm-245-41.8c13.1-73 67.2-126.2 130.1-126.2v-15c-72 0-130.8 60.4-144.8 138.6l14.8 2.6Zm130.1-126.2c63 0 117.2 53.4 130.1 126.8l14.8-2.6c-13.8-78.5-72.6-139.2-144.9-139.2v15Zm111.7 161.2A260.5 260.5 0 0 1 201 310.5v15c42 0 81.9-9.4 117.6-26.2l-6.4-13.6ZM201 310.5a259 259 0 0 1-112.3-25.3l-6.4 13.6c36 17.1 76.2 26.7 118.7 26.7v-15Zm129.6-59.2a32 32 0 0 1-18.4 34.4l6.4 13.6a47.2 47.2 0 0 0 26.8-50.6l-14.8 2.6ZM55.7 248a47.2 47.2 0 0 0 26.6 50.7l6.4-13.6a32.2 32.2 0 0 1-18.2-34.5L55.7 248Z"/><path fill="#000" fill-rule="evenodd" d="M114.4 273.2c-13-5.3-20.8-19.1-16.3-32.4 14-41.1 54.5-70.8 102.4-70.8 47.9 0 88.5 29.7 102.4 70.8 4.5 13.3-3.2 27.1-16.3 32.4a227.9 227.9 0 0 1-172.2 0Z" clip-rule="evenodd"/><ellipse cx="235" cy="234" fill="#fff" rx="25" ry="20"/><ellipse cx="163.4" cy="234" fill="#fff" rx="25" ry="20"/></svg>