<svg width="32" height="32" viewBox="0 0 32 32" fill="none" xmlns="http://www.w3.org/2000/svg">
<circle r="2.4" transform="matrix(-1 0 0 1 6.15957 9.04062)" fill="#3C6ECF"/>
<path d="M5.75975 8.68066L10.2397 13.1607" stroke="#3C6ECF" stroke-width="1.2"/>
<circle cx="25.7599" cy="9.04062" r="2.4" fill="#3C6ECF"/>
<path d="M26.1997 8.68066L21.7197 13.1607" stroke="#3C6ECF" stroke-width="1.2"/>
<path fill-rule="evenodd" clip-rule="evenodd" d="M6.8416 23.3619C5.54808 22.7461 4.79527 21.3632 5.04744 19.953C6.12977 13.9001 10.6404 9.36035 16.0404 9.36035C21.4534 9.36035 25.9728 13.9222 27.0411 19.997C27.2895 21.4098 26.5306 22.792 25.2327 23.4028C22.4553 24.7098 19.3532 25.4404 16.0804 25.4404C12.7736 25.4404 9.64095 24.6945 6.8416 23.3619Z" fill="#5D8FED"/>
<path d="M27.0411 19.997L26.4502 20.1009L27.0411 19.997ZM25.2327 23.4028L24.9772 22.8599L25.2327 23.4028ZM6.8416 23.3619L6.5837 23.9036L6.8416 23.3619ZM5.63807 20.0586C6.6839 14.2099 11.0069 9.96035 16.0404 9.96035V8.76035C10.2738 8.76035 5.57565 13.5903 4.45681 19.8473L5.63807 20.0586ZM16.0404 9.96035C21.0859 9.96035 25.4178 14.2307 26.4502 20.1009L27.632 19.8931C26.5277 13.6136 21.821 8.76035 16.0404 8.76035V9.96035ZM24.9772 22.8599C22.2781 24.13 19.263 24.8404 16.0804 24.8404V26.0404C19.4433 26.0404 22.6326 25.2895 25.4881 23.9457L24.9772 22.8599ZM16.0804 24.8404C12.8647 24.8404 9.82 24.1152 7.0995 22.8201L6.5837 23.9036C9.46191 25.2738 12.6825 26.0404 16.0804 26.0404V24.8404ZM26.4502 20.1009C26.6493 21.2336 26.0429 22.3584 24.9772 22.8599L25.4881 23.9457C27.0184 23.2256 27.9297 21.586 27.632 19.8931L26.4502 20.1009ZM4.45681 19.8473C4.15463 21.5372 5.05874 23.1776 6.5837 23.9036L7.0995 22.8201C6.03742 22.3145 5.4359 21.1892 5.63807 20.0586L4.45681 19.8473Z" fill="#3C6ECF"/>
<path fill-rule="evenodd" clip-rule="evenodd" d="M9.14967 21.8573C8.10846 21.4332 7.49082 20.3254 7.85161 19.2606C8.96425 15.9769 12.2099 13.6006 16.0405 13.6006C19.8711 13.6006 23.1167 15.9769 24.2294 19.2606C24.5902 20.3254 23.9725 21.4332 22.9313 21.8573C20.8047 22.7234 18.4783 23.2006 16.0405 23.2006C13.6027 23.2006 11.2763 22.7234 9.14967 21.8573Z" fill="white"/>
<path d="M14.7202 17.04L14.7202 20.8" stroke="#5D8FED" stroke-width="1.6" stroke-linecap="round"/>
<path d="M11.9199 18.1602L11.9199 19.6002" stroke="#5D8FED" stroke-width="1.6" stroke-linecap="round"/>
<path d="M17.52 17.04L17.52 20.8" stroke="#5D8FED" stroke-width="1.6" stroke-linecap="round"/>
<path d="M20.3198 18.3203L20.3198 19.4403" stroke="#5D8FED" stroke-width="1.6" stroke-linecap="round"/>
</svg>
