<svg width="96" height="96" viewBox="0 0 96 96" fill="none" xmlns="http://www.w3.org/2000/svg">
<ellipse cx="84.9032" cy="37.4818" rx="7.2" ry="7.2" transform="rotate(51.3373 84.9032 37.4818)" fill="#D24204"/>
<path d="M86.571 37.8378L67.6801 35.7398" stroke="#D24204" stroke-width="3.825"/>
<circle cx="7.2" cy="7.2" r="7.2" transform="matrix(-0.624734 0.780837 0.780837 0.624734 9.71631 27.3617)" fill="#D24204"/>
<path d="M9.17242 37.8378L28.0633 35.7398" stroke="#D24204" stroke-width="3.825"/>
<path fill-rule="evenodd" clip-rule="evenodd" d="M20.9166 70.2698C16.7803 68.3349 14.3741 63.9187 15.2197 59.4312C18.6009 41.4865 32.0472 28.08 48.1201 28.08C64.2321 28.08 77.7048 41.5518 81.0451 59.5624C81.8789 64.0581 79.4531 68.4723 75.3028 70.3912C67.0719 74.1967 57.904 76.32 48.2401 76.32C38.4741 76.32 29.2145 74.1515 20.9166 70.2698Z" fill="#FF7337"/>
<path d="M81.0451 59.5624L79.1646 59.9111L81.0451 59.5624ZM20.9166 70.2698L21.727 68.5375L20.9166 70.2698ZM17.0991 59.7853C20.3585 42.487 33.2059 29.9925 48.1201 29.9925V26.1675C30.8885 26.1675 16.8433 40.4859 13.3402 59.0771L17.0991 59.7853ZM48.1201 29.9925C63.0704 29.9925 75.9445 42.5484 79.1646 59.9111L82.9255 59.2136C79.4651 40.5553 65.3938 26.1675 48.1201 26.1675V29.9925ZM74.5002 68.6553C66.5157 72.3468 57.6212 74.4075 48.2401 74.4075V78.2325C58.1867 78.2325 67.628 76.0466 76.1054 72.1271L74.5002 68.6553ZM48.2401 74.4075C38.7599 74.4075 29.7764 72.303 21.727 68.5375L20.1062 72.0022C28.6525 76.0001 38.1883 78.2325 48.2401 78.2325V74.4075ZM79.1646 59.9111C79.8304 63.501 77.9006 67.0831 74.5002 68.6553L76.1054 72.1271C81.0056 69.8616 83.9273 64.6153 82.9255 59.2136L79.1646 59.9111ZM13.3402 59.0771C12.3243 64.469 15.2227 69.7177 20.1062 72.0022L21.727 68.5375C18.3379 66.9521 16.424 63.3684 17.0991 59.7853L13.3402 59.0771Z" fill="#D24204"/>
<path fill-rule="evenodd" clip-rule="evenodd" d="M27.8074 65.7002C24.48 64.3697 22.5045 60.8283 23.7047 57.4517C27.1459 47.7709 36.7937 40.8 48.1574 40.8C59.5211 40.8 69.1689 47.7709 72.6101 57.4517C73.8103 60.8283 71.8348 64.3697 68.5074 65.7002C62.2152 68.2161 55.3479 69.6 48.1574 69.6C40.9669 69.6 34.0996 68.2161 27.8074 65.7002Z" fill="white"/>
<path d="M44.2454 60.8053L35.7601 52.32" stroke="#FF7337" stroke-width="5.1" stroke-linecap="round"/>
<path d="M35.8452 60.8052L44.3305 52.32" stroke="#FF7337" stroke-width="5.1" stroke-linecap="round"/>
<path d="M61.2854 60.8053L52.8001 52.32" stroke="#FF7337" stroke-width="5.1" stroke-linecap="round"/>
<path d="M52.8853 60.8052L61.3705 52.3199" stroke="#FF7337" stroke-width="5.1" stroke-linecap="round"/>
</svg>
