<svg width="39" height="39" viewBox="0 0 39 39" fill="none" xmlns="http://www.w3.org/2000/svg">
    <path d="M13.8938 34.6567C14.5869 34.7986 15.2957 34.8849 16.0075 34.9145C14.5445 35.3992 13.0913 35.9147 11.643 36.4405L11.6421 36.4408C10.2943 36.9241 8.9505 37.4217 7.5848 37.8529C6.48421 38.194 5.36077 38.4915 4.21266 38.5128C1.99156 38.5678 0.302532 37.3815 0.036228 35.1012C-0.18294 33.0304 0.637189 30.983 1.28908 29.0431C1.98829 27.0721 2.71319 25.1093 3.38538 23.1289C3.43002 23.5354 3.49319 23.9391 3.57479 24.3377C3.74922 25.1901 4.00948 26.0285 4.34836 26.8297C4.68085 27.6158 5.09221 28.3738 5.57111 29.0826C6.04506 29.7841 6.58924 30.4437 7.18856 31.043C7.78784 31.6423 8.44741 32.1865 9.14893 32.6604C9.85775 33.1393 10.6158 33.5507 11.4019 33.8832C12.203 34.2221 13.0414 34.4823 13.8938 34.6567Z" fill="#4ADD80"/>
    <path d="M7.18791 12.296C6.75355 12.7304 6.34819 13.1963 5.97754 13.6869C6.42077 11.5843 6.80693 9.46822 7.20619 7.35704C7.72714 4.844 8.30962 1.18395 11.0963 0.28256C12.5915 -0.175697 14.1253 0.509934 15.2939 1.44905C16.6473 2.54125 17.7589 3.91837 18.8984 5.22757C19.8016 6.29408 20.7071 7.36006 21.6273 8.41294H16.5624C15.6645 8.41294 14.7664 8.50357 13.8932 8.68227C13.0408 8.85665 12.2024 9.11696 11.4012 9.45579C10.6151 9.78829 9.85709 10.1997 9.14828 10.6786C8.44675 11.1525 7.78719 11.6967 7.18791 12.296Z" fill="#4ADD80"/>
    <path d="M37.3103 28.9198C36.2631 29.9686 34.811 30.4573 33.3893 30.8202C33.0526 30.9049 32.714 30.9823 32.3746 31.0558C29.5483 31.6453 26.6959 32.1135 23.876 32.7326C23.9098 32.7102 23.9435 32.6877 23.9772 32.665C24.6786 32.1911 25.3382 31.6469 25.9375 31.0476C26.5369 30.4482 27.081 29.7887 27.5549 29.0872C28.0338 28.3783 28.4452 27.6203 28.7777 26.8342C29.1166 26.033 29.3769 25.1946 29.5513 24.3423C29.73 23.469 29.8206 22.5709 29.8206 21.673V16.6445C31.517 18.1255 33.2516 19.5635 34.9387 21.0555C35.323 21.4003 35.7025 21.7508 36.0672 22.1161C36.9976 23.0522 37.8586 24.0998 38.221 25.3703C38.5947 26.6617 38.2656 27.9682 37.3103 28.9198Z" fill="#4ADD80"/>
    <path d="M24.9719 21.9352C24.9719 26.5744 21.211 30.3352 16.5719 30.3352C11.9327 30.3352 8.17188 26.5743 8.17188 21.9352C8.17189 17.296 11.9327 13.5352 16.5719 13.5352H24.9719L24.9719 21.9352Z" fill="#15803D"/>
    </svg>