<svg width="128" height="128" viewBox="0 0 128 128" fill="none" xmlns="http://www.w3.org/2000/svg">
<circle r="9.6" transform="matrix(-1 0 0 1 24.64 36.1601)" fill="black"/>
<path d="M23.04 34.72L40.96 52.64" stroke="black" stroke-width="2.4"/>
<circle cx="103.04" cy="36.1601" r="9.6" fill="black"/>
<path d="M104.8 34.72L86.88 52.64" stroke="black" stroke-width="2.4"/>
<path fill-rule="evenodd" clip-rule="evenodd" d="M23.2384 91.3432C20.7216 89.9738 19.2464 87.2471 19.5419 84.3972C22.2862 57.9293 41.216 37.4402 64.16 37.4402C87.1573 37.4402 106.122 58.0248 108.797 84.582C109.084 87.4366 107.597 90.1619 105.071 91.5221C92.9404 98.0538 79.063 101.76 64.32 101.76C49.4429 101.76 35.4473 97.9861 23.2384 91.3432Z" fill="#FFDF6F"/>
<path d="M105.071 91.5221L104.502 90.4655L105.071 91.5221ZM23.2384 91.3432L23.8119 90.2891L23.2384 91.3432ZM20.7355 84.5209C23.4353 58.4825 41.9981 38.6402 64.16 38.6402V36.2402C40.4339 36.2402 21.1371 57.3761 18.3483 84.2734L20.7355 84.5209ZM64.16 38.6402C86.3732 38.6402 104.971 58.5753 107.603 84.7023L109.991 84.4618C107.272 57.4743 87.9413 36.2402 64.16 36.2402V38.6402ZM104.502 90.4655C92.542 96.9054 78.8596 100.56 64.32 100.56V102.96C79.2665 102.96 93.3388 99.2022 105.64 92.5786L104.502 90.4655ZM64.32 100.56C49.6483 100.56 35.8493 96.8387 23.8119 90.2891L22.6649 92.3973C35.0454 99.1336 49.2376 102.96 64.32 102.96V100.56ZM107.603 84.7023C107.841 87.0621 106.612 89.3294 104.502 90.4655L105.64 92.5786C108.582 90.9944 110.328 87.811 109.991 84.4618L107.603 84.7023ZM18.3483 84.2734C18.0016 87.6174 19.7335 90.8023 22.6649 92.3973L23.8119 90.2891C21.7097 89.1453 20.4912 86.8769 20.7355 84.5209L18.3483 84.2734Z" fill="black"/>
<path fill-rule="evenodd" clip-rule="evenodd" d="M33.1987 85.9408C31.1622 84.9876 29.9633 82.8158 30.4262 80.6155C33.5713 65.6656 47.4791 54.4001 64.16 54.4001C80.8409 54.4001 94.7487 65.6656 97.8938 80.6155C98.3567 82.8158 97.1577 84.9876 95.1213 85.9408C85.7193 90.3416 75.2268 92.8001 64.16 92.8001C53.0932 92.8001 42.6006 90.3416 33.1987 85.9408Z" fill="black"/>
<ellipse cx="75.84" cy="75.6801" rx="8.64" ry="5.6" fill="white"/>
<ellipse cx="52.9381" cy="75.684" rx="8.64" ry="5.6" fill="white"/>
</svg>
