<svg width="39" height="39" viewBox="0 0 39 39" fill="none" xmlns="http://www.w3.org/2000/svg">
    <path d="M13.8938 34.52C14.5869 34.6619 15.2957 34.7482 16.0075 34.7778C14.5445 35.2625 13.0913 35.778 11.643 36.3038L11.6421 36.3041C10.2943 36.7874 8.9505 37.285 7.5848 37.7162C6.48421 38.0573 5.36077 38.3548 4.21266 38.376C1.99156 38.4311 0.302532 37.2448 0.036228 34.9644C-0.18294 32.8937 0.637189 30.8462 1.28908 28.9064C1.98829 26.9354 2.71319 24.9726 3.38538 22.9922C3.43002 23.3987 3.49319 23.8024 3.57479 24.201C3.74922 25.0534 4.00948 25.8918 4.34836 26.6929C4.68085 27.479 5.09221 28.2371 5.57111 28.9459C6.04506 29.6474 6.58924 30.307 7.18856 30.9063C7.78784 31.5056 8.44741 32.0498 9.14893 32.5237C9.85775 33.0026 10.6158 33.414 11.4019 33.7465C12.203 34.0854 13.0414 34.3456 13.8938 34.52Z" fill="#3B81F5"/>
    <path d="M7.18791 12.1593C6.75355 12.5936 6.34819 13.0596 5.97754 13.5502C6.42077 11.4475 6.80693 9.3315 7.20619 7.22032C7.72714 4.70728 8.30962 1.04723 11.0963 0.145841C12.5915 -0.312416 14.1253 0.373215 15.2939 1.31233C16.6473 2.40453 17.7589 3.78165 18.8984 5.09085C19.8016 6.15736 20.7071 7.22334 21.6273 8.27622H16.5624C15.6645 8.27622 14.7664 8.36685 13.8932 8.54555C13.0408 8.71993 12.2024 8.98024 11.4012 9.31907C10.6151 9.65157 9.85709 10.063 9.14828 10.5419C8.44675 11.0158 7.78719 11.56 7.18791 12.1593Z" fill="#3B81F5"/>
    <path d="M37.3103 28.7792C36.2631 29.8279 34.811 30.3166 33.3893 30.6796C33.0526 30.7643 32.714 30.8417 32.3746 30.9152C29.5483 31.5047 26.6959 31.9729 23.876 32.592C23.9098 32.5696 23.9435 32.547 23.9772 32.5243C24.6786 32.0504 25.3382 31.5063 25.9375 30.9069C26.5369 30.3076 27.081 29.648 27.5549 28.9466C28.0338 28.2377 28.4452 27.4797 28.7777 26.6936C29.1166 25.8924 29.3769 25.054 29.5513 24.2017C29.73 23.3284 29.8206 22.4303 29.8206 21.5324V16.5039C31.517 17.9849 33.2516 19.4228 34.9387 20.9149C35.323 21.2597 35.7025 21.6101 36.0672 21.9755C36.9976 22.9116 37.8586 23.9592 38.221 25.2296C38.5947 26.5211 38.2656 27.8275 37.3103 28.7792Z" fill="#3B81F5"/>
    <path d="M24.9719 21.7984C24.9719 26.4376 21.211 30.1984 16.5719 30.1984C11.9327 30.1984 8.17188 26.4376 8.17188 21.7984C8.17189 17.1593 11.9327 13.3985 16.5719 13.3984H24.9719L24.9719 21.7984Z" fill="#BEDAFD"/>
    </svg>