<svg width="24" height="24" viewBox="0 0 24 24" fill="none" xmlns="http://www.w3.org/2000/svg">
  <path fill-rule="evenodd" clip-rule="evenodd" d="M8.02371 8.05312C7.99987 7.64038 8.31518 7.28574 8.72798 7.26102L15.8766 6.83289C16.0901 6.8201 16.2987 6.89921 16.4497 7.05026C16.6008 7.20131 16.6799 7.40989 16.6671 7.62338L16.239 14.772C16.2143 15.1848 15.8596 15.5001 15.4469 15.4763C15.0341 15.4525 14.7196 15.0985 14.7443 14.6857L15.0547 9.50294L7.60904 16.9486C7.31635 17.2413 6.84231 17.2418 6.55025 16.9498C6.25819 16.6577 6.2587 16.1837 6.55138 15.891L13.9971 8.44529L8.8143 8.75569C8.40151 8.78041 8.04755 8.46586 8.02371 8.05312Z" fill="black"/>
  </svg>
  