<svg height="203" viewBox="0 0 203 203" width="203" xmlns="http://www.w3.org/2000/svg"><g fill="none" transform="translate(52 7)"><path d="m12.05 189.470113c-6.08482485-.033123-11.00008954-4.975199-11-11.060113v-166.35c-.12118569-4.02885494 1.9589792-7.8046339 5.42927231-9.85485921 3.47029312-2.05022531 7.78116229-2.05022531 11.25145539 0s5.550458 5.82600427 5.4292723 9.85485921v166.35c.0000301 2.941978-1.1720777 5.762736-3.2570566 7.838332-2.084979 2.075596-4.9109954 3.234968-7.8529434 3.221781z" fill="#cedc21"/><path d="m12.06 189.470044c-5.1309929-.045899-9.55661899-3.614808-10.68864972-8.619576-1.13203073-5.004767 1.326862-10.130889 5.93864972-12.380468l66.66-31.64-68.47-50.48c-4.91533427-3.6202265-5.96522654-10.5396657-2.345-15.455s10.5396657-5.9652265 15.455-2.345l83.35 61.41c3.157119 2.289257 4.866157 6.078978 4.491961 9.96074-.374195 3.881762-2.775681 7.275235-6.311961 8.91926l-83.33 39.56c-1.4828525.708956-3.1063918 1.074679-4.75 1.070044z" fill="#51b13e"/><path d="m12.06 124.08029c-4.80505169.034349-9.08168789-3.040281-10.57928452-7.606125-1.49759664-4.565843.1271841-9.576138 4.01928452-12.394165l68.47-50.45-66.66-31.59c-5.5228475-2.6178297-7.87782971-9.2171525-5.26-14.74s9.2171525-7.87782971 14.74-5.26l83.35 39.56c3.516874 1.6642765 5.899311 5.0554902 6.27245 8.9283425s-1.318016 7.6565457-4.45245 9.9616575l-83.35 61.44c-1.8965586 1.399988-4.1926948 2.153682-6.55 2.15029z" fill="#cedc21"/><path d="m23.11 71.86v46.75l31.71-23.36z" fill="#1e7a44"/><path d="m1 52.26h22.11v53.89h-22.11z" fill="#fff"/><path d="m23.11 12.06c.1211857-4.02885494-1.9589792-7.8046339-5.4292723-9.85485921-3.4702931-2.05022531-7.78116227-2.05022531-11.25145539 0-3.47029311 2.05022531-5.550458 5.82600427-5.42927231 9.85485921v139.09h22.11z" fill="#cedc21"/></g></svg>