<svg xmlns="http://www.w3.org/2000/svg" width="203" height="203"><g fill="none"><path fill="#cedc21" d="M64 196.5c-6 0-11-5-11-11V19a11 11 0 1 1 22.2 0v166.3a11 11 0 0 1-11.2 11z"/><path fill="#51b13e" d="M64 196.5a11 11 0 0 1-4.7-21l66.7-31.7-68.5-50.5a11 11 0 1 1 13.1-17.8L154 137a11 11 0 0 1-1.9 18.8l-83.3 39.6a11 11 0 0 1-4.7 1z"/><path fill="#cedc21" d="M64 131a11 11 0 0 1-6.5-20L126 60.7 59.3 29a11 11 0 1 1 9.5-20L152 48.6a11 11 0 0 1 1.9 18.9l-83.4 61.4a11 11 0 0 1-6.5 2.2z"/><path fill="#1e7a44" d="M75.1 78.9v46.7l31.7-23.3z"/><path fill="#fff" d="M53 59.3h22.1v53.9H53z"/><path fill="#cedc21" d="M75.1 19A11 11 0 1 0 53 19v139.2h22.1z"/></g></svg>