<?xml version="1.0" standalone="no"?>
<!DOCTYPE svg PUBLIC "-//W3C//DTD SVG 20010904//EN"
 "http://www.w3.org/TR/2001/REC-SVG-20010904/DTD/svg10.dtd">
<svg version="1.0" xmlns="http://www.w3.org/2000/svg"
 width="400.000000pt" height="400.000000pt" viewBox="0 0 400.000000 400.000000"
 preserveAspectRatio="xMidYMid meet">

<g transform="translate(0.000000,400.000000) scale(0.100000,-0.100000)"
fill="#000000" stroke="none">
<path d="M0 2000 l0 -2000 2000 0 2000 0 0 2000 0 2000 -2000 0 -2000 0 0
-2000z m2359 1233 c-72 -142 -144 -280 -159 -308 -52 -95 -320 -623 -320 -629
0 -3 174 -7 387 -8 l387 -3 -264 -69 c-146 -38 -359 -93 -475 -123 -464 -121
-575 -149 -575 -145 0 2 83 115 183 251 101 135 277 372 392 526 435 586 569
765 573 765 2 0 -56 -116 -129 -257z m131 -1415 c-95 -128 -260 -350 -366
-493 -107 -143 -291 -390 -409 -549 -118 -160 -215 -286 -215 -282 0 5 13 32
29 60 15 28 79 150 141 271 62 121 189 367 281 546 93 180 169 329 169 333 0
3 -175 7 -389 8 l-390 3 657 171 c361 94 659 170 661 168 2 -2 -74 -108 -169
-236z"/>
</g>
</svg>
