<svg width="544" height="544" xmlns="http://www.w3.org/2000/svg">
  <path stroke="#000" d="M0 0h544v544H0z"/>
  <g stroke="null">
    <path fill="#FFF" class="st0" d="M160.929 321.22v-36.59h-8.278v43.456h23.683l3.416-6.865zm32.452-36.59h8.245v43.456h-8.245zm102.581 43.456V284.63h-8.278v17.54h-15.996v-17.54h-8.245v43.456h8.245v-19.084h15.996v19.084zm44.211-43.456h-28.675l-3.482 6.897h11.957v36.559h8.244v-36.559h8.475zm44.705 43.456V284.63h-7.785v28.61l-17.836-28.61h-6.898v43.456h7.818V299.87l17.77 28.216zm16.653-43.456h8.245v43.456h-8.245zm57.318 43.456V284.63h-7.818v28.61l-17.836-28.61h-6.865v43.456h7.785V299.87l17.77 28.216zm27.197.197c.558.131 1.116.23 1.675.328l.131.033c.887.132 1.675.164 2.43.164.625 0 1.282-.032 2.005-.098h.131c.033 0 .066 0 .098-.033.033 0 .099-.033.165-.033 4.565-.361 8.408-2.102 11.397-5.091 3.022-3.022 4.172-6.767 4.172-13.369v-6.306h-12.679l-3.711 6.898h8.145v1.839c0 2.595-.69 4.631-2.036 6.01-1.708 1.775-3.745 2.267-5.321 2.497a12.37 12.37 0 0 1-1.872.164c-5.453 0-10.971-4.598-10.971-14.846 0-7.424 3.284-14.913 10.642-14.913.526 0 1.051.033 1.61.099 2.989.493 6.503 2.463 7.62 5.814l6.996-4.106c-.82-1.61-4.664-8.146-14.19-9.131h-.164a22.751 22.751 0 0 0-2.036-.099 18.4 18.4 0 0 0-4.237.493l-.197.033-.099.032c-.263.066-.526.132-.821.23-8.54 2.431-13.73 10.708-13.533 21.613 0 11.037 5.321 19.314 13.861 21.614v.098h.033l.033-.066c.263.033.493.099.723.132zm-257.42 0c.558.131 1.117.23 1.675.328l.131.033c.887.132 1.676.164 2.431.164.624 0 1.281-.032 2.004-.098h.131c.033 0 .066 0 .099-.033.033 0 .098-.033.164-.033 4.566-.361 8.409-2.102 11.398-5.091 3.022-3.022 4.171-6.767 4.171-13.369v-6.306h-12.679l-3.711 6.898h8.146v1.839c0 2.595-.69 4.631-2.037 6.01-1.708 1.775-3.744 2.267-5.32 2.497a12.37 12.37 0 0 1-1.873.164c-5.453 0-10.971-4.598-10.971-14.846 0-7.424 3.285-14.913 10.642-14.913.526 0 1.051.033 1.61.099 2.989.493 6.504 2.463 7.62 5.814l6.997-4.106c-.822-1.61-4.665-8.146-14.19-9.131h-.164a22.751 22.751 0 0 0-2.037-.099c-1.412 0-2.858.164-4.237.493l-.197.033-.099.032c-.262.066-.525.132-.82.23-8.541 2.431-13.73 10.708-13.534 21.613 0 11.037 5.321 19.314 13.862 21.614v.098h.032l.033-.066c.23.033.46.099.723.132z"/>
    <path fill="#F0D003" d="m260.192 242.29 7.85 17.146h9.066l-9.066-18.657.361-.131c4.862-2.004 7.325-5.88 7.325-11.53 0-8.474-5.748-13.138-16.16-13.138h-15.471v43.456h8.244v-17.343h7.752l.099.197zm-7.85-7.03v-12.35h6.372c4.335 0 8.737.756 8.737 6.241 0 5.387-4.205 6.11-8.737 6.11h-6.373zm64.74-12.382v-6.898H290.28v43.456h26.803v-6.832h-18.558v-12.252h16.653v-6.832h-16.653v-10.642zM169.01 252.965c-.56.066-1.118.132-1.643.132-7.555 0-10.938-7.654-10.938-15.241 0-7.588 3.383-15.241 10.938-15.241.525 0 1.084.033 1.642.131 2.99.493 6.537 2.464 7.785 5.781l6.668-3.941c-1.084-2.07-4.96-7.982-14.059-8.935l-.328-.032a19.372 19.372 0 0 0-1.872-.099 18.16 18.16 0 0 0-4.205.493l-.295.065a7.133 7.133 0 0 0-.789.23c-8.507 2.431-13.664 10.643-13.533 21.45v.196c-.131 10.807 5.026 19.019 13.533 21.45.263.098.526.164.789.23l.295.065a18.16 18.16 0 0 0 4.205.493 19.3 19.3 0 0 0 1.872-.099l.328-.033c9.099-.92 12.975-6.865 14.059-8.934l-6.668-3.942c-1.248 3.318-4.796 5.289-7.785 5.781zm62.835-15.306v-.033c.066-5.124-1.084-9.657-3.153-13.303-.592-1.117-2.004-3.35-4.566-5.321-.099-.066-.164-.132-.263-.197-.197-.164-.427-.296-.657-.46a17.897 17.897 0 0 0-4.992-2.365c-.263-.099-.526-.164-.789-.23l-.295-.066a18.439 18.439 0 0 0-4.238-.492h-.591a18.23 18.23 0 0 0-4.237.492l-.296.066a7.133 7.133 0 0 0-.788.23 16.64 16.64 0 0 0-4.993 2.365c-.23.131-.427.296-.657.46-.098.065-.164.131-.262.197-2.562 1.97-3.975 4.204-4.566 5.321-2.102 3.646-3.22 8.179-3.153 13.303v.197c-.066 5.124 1.084 9.657 3.153 13.303.591 1.117 2.004 3.35 4.566 5.321.098.066.164.131.262.197.197.164.427.296.657.46a17.897 17.897 0 0 0 4.993 2.365c.263.099.525.164.788.23l.296.066c1.38.328 2.825.492 4.237.492h.591a18.23 18.23 0 0 0 4.238-.492l.295-.066c.263-.066.526-.131.789-.23a16.64 16.64 0 0 0 4.992-2.365c.23-.131.427-.296.657-.46.099-.066.164-.131.263-.197 2.562-1.97 3.974-4.204 4.566-5.321 2.102-3.646 3.219-8.179 3.153-13.303v-.164zm-14.157 14.058c-1.183.624-2.43 1.051-3.58 1.248a12.18 12.18 0 0 1-3.088 0 11.647 11.647 0 0 1-3.58-1.248c-4.139-2.562-6.011-8.277-6.011-13.993 0-5.715 1.905-11.43 6.01-13.992 1.183-.624 2.431-1.051 3.581-1.248a12.18 12.18 0 0 1 3.088 0c1.182.197 2.43.624 3.58 1.248 4.139 2.562 6.01 8.277 6.01 13.992.034 5.716-1.871 11.431-6.01 13.993zM106.24 181.557l-69.767 93.875 80.211-20.857-48.054.033z" class="st1"/>
    <path fill="#FFFAE6" class="st2" d="m46.195 362.443 69.734-93.875-80.179 20.857 48.055-.033z"/>
  </g>
</svg>
