<svg xmlns="http://www.w3.org/2000/svg" width="533.3" height="533.3" version="1.0" viewBox="0 0 400 400"><path d="M0 200v200h400V0H0v200zM235.9 76.7c-7.2 14.2-14.4 28-15.9 30.8a2738 2738 0 0 0-32 62.9c0 .3 17.4.7 38.7.8l38.7.3-26.4 6.9-47.5 12.3a954.4 954.4 0 0 1-57.5 14.5c0-.2 8.3-11.5 18.3-25.1l39.2-52.6C235 68.9 248.4 51 248.8 51c.2 0-5.6 11.6-12.9 25.7zM249 218.2l-36.6 49.3-40.9 54.9a612.7 612.7 0 0 1-21.5 28.2 2362 2362 0 0 0 17-33.1l28.1-54.6c9.3-18 16.9-32.9 16.9-33.3 0-.3-17.5-.7-38.9-.8l-39-.3 65.7-17.1a2802 2802 0 0 1 66.1-16.8c.2.2-7.4 10.8-16.9 23.6z"/></svg>