<svg width="41" height="40" viewBox="0 0 41 40" fill="none" xmlns="http://www.w3.org/2000/svg">
<circle cx="20.5" cy="20" r="20" fill="#F04438"/>
<path fill-rule="evenodd" clip-rule="evenodd" d="M11.7929 11.2929C12.1834 10.9024 12.8166 10.9024 13.2071 11.2929L20.5 18.5858L27.7929 11.2929C28.1834 10.9024 28.8166 10.9024 29.2071 11.2929C29.5976 11.6834 29.5976 12.3166 29.2071 12.7071L21.9142 20L29.2071 27.2929C29.5976 27.6834 29.5976 28.3166 29.2071 28.7071C28.8166 29.0976 28.1834 29.0976 27.7929 28.7071L20.5 21.4142L13.2071 28.7071C12.8166 29.0976 12.1834 29.0976 11.7929 28.7071C11.4024 28.3166 11.4024 27.6834 11.7929 27.2929L19.0858 20L11.7929 12.7071C11.4024 12.3166 11.4024 11.6834 11.7929 11.2929Z" fill="white"/>
</svg>
