<svg width="20" height="20" viewBox="0 0 20 20" fill="none" xmlns="http://www.w3.org/2000/svg">
<path d="M1 17.8277V15.3268C1 14.4984 1.67157 13.8268 2.5 13.8268H2.99998C3.29106 13.8267 3.57861 13.7631 3.84259 13.6405C4.10657 13.5179 4.34063 13.3391 4.52846 13.1168C4.71629 12.8944 4.85337 12.6338 4.93014 12.353C5.00691 12.0722 5.02152 11.7781 4.97297 11.4911C4.87666 11.0132 4.61513 10.5845 4.23427 10.2802C3.85341 9.97583 3.37755 9.81535 2.89017 9.82686H2.5C1.67157 9.82686 1 9.15529 1 8.32686V5.82689C0.999882 5.69549 1.02566 5.56536 1.07586 5.44393C1.12606 5.32251 1.1997 5.21216 1.29257 5.11921C1.38544 5.02626 1.49572 4.95252 1.6171 4.9022C1.73849 4.85189 1.8686 4.826 1.99999 4.826H4.50086C5.32929 4.826 6.00086 4.15443 6.00086 3.326V2.82602C6.00086 2.53449 6.06453 2.24649 6.18742 1.98213C6.31032 1.71778 6.48947 1.48346 6.71235 1.29555C6.93524 1.10764 7.19647 0.970683 7.4778 0.894248C7.75912 0.817814 8.05375 0.803748 8.34107 0.853035C8.81768 0.95019 9.245 1.21172 9.54838 1.59192C9.85175 1.97213 10.0119 2.44684 10.0008 2.93313V3.3233C10.0008 4.15173 10.6724 4.8233 11.5008 4.8233H14.0008C14.2662 4.8233 14.5208 4.92875 14.7085 5.11645C14.8962 5.30416 15.0017 5.55874 15.0017 5.82419V8.32686C15.0017 9.15529 15.6733 9.82686 16.5017 9.82686H16.8919C17.3788 9.81599 17.854 9.97677 18.2343 10.281C18.6146 10.5853 18.8757 11.0137 18.972 11.4911C19.0205 11.7781 19.0059 12.0722 18.9291 12.353C18.8524 12.6338 18.7153 12.8944 18.5274 13.1168C18.3396 13.3391 18.1056 13.5179 17.8416 13.6405C17.5776 13.7631 17.29 13.8267 16.999 13.8268H16.5017C15.6733 13.8268 15.0017 14.4984 15.0017 15.3268V17.8277C15.0017 17.9591 14.9758 18.0892 14.9255 18.2106C14.8752 18.332 14.8014 18.4422 14.7085 18.5351C14.6155 18.628 14.5052 18.7016 14.3838 18.7518C14.2623 18.802 14.1322 18.8278 14.0008 18.8277H12.5008C11.6724 18.8277 11.0008 18.1561 11.0008 17.3277V16.8277C11.0008 16.5362 10.9371 16.2482 10.8143 15.9838C10.6914 15.7195 10.5122 15.4851 10.2893 15.2972C10.0664 15.1093 9.80521 14.9724 9.52388 14.8959C9.24256 14.8195 8.94793 14.8054 8.6606 14.8547C8.18353 14.952 7.75585 15.2139 7.45242 15.5946C7.14899 15.9754 6.98914 16.4508 7.00085 16.9375V17.3277C7.00085 18.1561 6.32928 18.8277 5.50085 18.8277H1.99999C1.86864 18.8278 1.73855 18.802 1.61717 18.7518C1.49579 18.7016 1.38551 18.6279 1.29263 18.5351C1.19975 18.4422 1.12609 18.3319 1.07588 18.2105C1.02567 18.0891 0.999882 17.959 1 17.8277Z" stroke="#4B5563" stroke-width="1.5" stroke-linejoin="round"/>
</svg>
