<svg width="20" height="15" viewBox="0 0 20 15" fill="none" xmlns="http://www.w3.org/2000/svg">
<path d="M4.5773 4.40135H4.56845C4.42036 4.40135 4.30319 4.40135 4.21053 4.41195C4.11556 4.42282 4.03733 4.44561 3.97182 4.49765C3.94958 4.51533 3.92914 4.5351 3.91083 4.5567C3.85668 4.62059 3.83285 4.69717 3.82153 4.78988C3.81053 4.87994 3.81054 4.99366 3.81054 5.13673V5.146C3.81054 5.28907 3.81053 5.4028 3.82153 5.49286C3.83285 5.58557 3.85668 5.66216 3.91083 5.72604C3.92914 5.74764 3.94958 5.76741 3.97182 5.78509C4.03733 5.83713 4.11556 5.85992 4.21053 5.87079C4.30319 5.88139 4.42036 5.88139 4.56847 5.88139H4.57728C4.72538 5.88139 4.84256 5.88139 4.93522 5.87079C5.03019 5.85992 5.10842 5.83713 5.17393 5.78509C5.19617 5.76741 5.21661 5.74764 5.23492 5.72604C5.28907 5.66216 5.3129 5.58557 5.32422 5.49286C5.33522 5.4028 5.33521 5.28907 5.33521 5.146V5.13674C5.33521 4.99367 5.33522 4.87994 5.32422 4.78988C5.3129 4.69717 5.28907 4.62059 5.23492 4.5567C5.21661 4.5351 5.19617 4.51533 5.17393 4.49765C5.10842 4.44561 5.03019 4.42282 4.93522 4.41195C4.84256 4.40135 4.72539 4.40135 4.5773 4.40135Z" fill="#4B5563"/>
<path d="M7.11765 4.40135H7.10881C6.96072 4.40135 6.84354 4.40135 6.75088 4.41195C6.65591 4.42282 6.57768 4.44561 6.51218 4.49765C6.48993 4.51533 6.4695 4.5351 6.45119 4.5567C6.39703 4.62059 6.37321 4.69717 6.36189 4.78988C6.35089 4.87994 6.35089 4.99367 6.35089 5.13674V5.146C6.35089 5.28907 6.35089 5.4028 6.36189 5.49286C6.37321 5.58557 6.39703 5.66216 6.45119 5.72604C6.4695 5.74764 6.48993 5.76741 6.51218 5.78509C6.57768 5.83713 6.65591 5.85992 6.75088 5.87079C6.84355 5.88139 6.96072 5.88139 7.10882 5.88139H7.11763C7.26574 5.88139 7.38292 5.88139 7.47558 5.87079C7.57055 5.85992 7.64878 5.83713 7.71428 5.78509C7.73653 5.76741 7.75696 5.74764 7.77527 5.72604C7.82943 5.66216 7.85326 5.58557 7.86458 5.49286C7.87557 5.4028 7.87557 5.28906 7.87557 5.14599V5.13675C7.87557 4.99368 7.87557 4.87994 7.86458 4.78988C7.85326 4.69717 7.82943 4.62058 7.77527 4.5567C7.75696 4.5351 7.73653 4.51533 7.71428 4.49765C7.64878 4.44561 7.57055 4.42282 7.47558 4.41195C7.38292 4.40135 7.26575 4.40135 7.11765 4.40135Z" fill="#4B5563"/>
<path d="M9.88895 4.40135H9.88011C9.73202 4.40135 9.61484 4.40135 9.52218 4.41195C9.42721 4.42282 9.34898 4.44561 9.28348 4.49765C9.26123 4.51533 9.2408 4.5351 9.22249 4.5567C9.16833 4.62059 9.1445 4.69717 9.13318 4.78988C9.12219 4.87994 9.12219 4.99366 9.12219 5.13672V5.14602C9.12219 5.28908 9.12219 5.4028 9.13318 5.49286C9.1445 5.58557 9.16833 5.66216 9.22249 5.72604C9.2408 5.74764 9.26123 5.76741 9.28348 5.78509C9.34898 5.83713 9.42721 5.85992 9.52218 5.87079C9.61485 5.88139 9.73202 5.88139 9.88012 5.88139H9.88893C10.037 5.88139 10.1542 5.88139 10.2469 5.87079C10.3418 5.85992 10.4201 5.83713 10.4856 5.78509C10.5078 5.76741 10.5283 5.74764 10.5466 5.72604C10.6007 5.66216 10.6246 5.58557 10.6359 5.49286C10.6469 5.4028 10.6469 5.28906 10.6469 5.14599V5.13675C10.6469 4.99368 10.6469 4.87994 10.6359 4.78988C10.6246 4.69717 10.6007 4.62059 10.5466 4.5567C10.5283 4.5351 10.5078 4.51533 10.4856 4.49765C10.4201 4.44561 10.3418 4.42282 10.2469 4.41195C10.1542 4.40135 10.037 4.40135 9.88895 4.40135Z" fill="#4B5563"/>
<path d="M12.6602 4.40135H12.6514C12.5033 4.40135 12.3861 4.40135 12.2935 4.41195C12.1985 4.42282 12.1203 4.44561 12.0548 4.49765C12.0325 4.51533 12.0121 4.5351 11.9938 4.5567C11.9396 4.62059 11.9158 4.69717 11.9045 4.78988C11.8935 4.87994 11.8935 4.99368 11.8935 5.13675V5.14599C11.8935 5.28906 11.8935 5.4028 11.9045 5.49286C11.9158 5.58557 11.9396 5.66216 11.9938 5.72604C12.0121 5.74764 12.0325 5.76741 12.0548 5.78509C12.1203 5.83713 12.1985 5.85992 12.2935 5.87079C12.3861 5.88139 12.5033 5.88139 12.6514 5.88139H12.6602C12.8083 5.88139 12.9255 5.88139 13.0182 5.87079C13.1131 5.85992 13.1914 5.83713 13.2569 5.78509C13.2791 5.76741 13.2996 5.74764 13.3179 5.72604C13.372 5.66216 13.3959 5.58557 13.4072 5.49286C13.4182 5.4028 13.4182 5.28906 13.4182 5.14599V5.13675C13.4182 4.99368 13.4182 4.87994 13.4072 4.78988C13.3959 4.69717 13.372 4.62059 13.3179 4.5567C13.2996 4.5351 13.2791 4.51533 13.2569 4.49765C13.1914 4.44561 13.1131 4.42282 13.0182 4.41195C12.9255 4.40135 12.8083 4.40135 12.6602 4.40135Z" fill="#4B5563"/>
<path d="M15.4315 4.40135H15.4227C15.2746 4.40135 15.1574 4.40135 15.0648 4.41195C14.9698 4.42282 14.8916 4.44561 14.8261 4.49765C14.8038 4.51533 14.7834 4.5351 14.7651 4.5567C14.7109 4.62059 14.6871 4.69718 14.6758 4.78988C14.6648 4.87994 14.6648 4.99366 14.6648 5.13671V5.14602C14.6648 5.28908 14.6648 5.40281 14.6758 5.49286C14.6871 5.58557 14.7109 5.66216 14.7651 5.72604C14.7834 5.74764 14.8038 5.76742 14.8261 5.78509C14.8916 5.83713 14.9698 5.85992 15.0648 5.87079C15.1574 5.88139 15.2746 5.88139 15.4227 5.88139H15.4315C15.5796 5.88139 15.6968 5.88139 15.7895 5.87079C15.8844 5.85992 15.9627 5.83713 16.0282 5.78509C16.0504 5.76741 16.0709 5.74764 16.0892 5.72604C16.1433 5.66216 16.1672 5.58557 16.1785 5.49286C16.1895 5.4028 16.1895 5.28908 16.1895 5.14602V5.13672C16.1895 4.99366 16.1895 4.87994 16.1785 4.78989C16.1672 4.69718 16.1433 4.62059 16.0892 4.5567C16.0709 4.5351 16.0504 4.51533 16.0282 4.49765C15.9627 4.44561 15.8844 4.42282 15.7895 4.41195C15.6968 4.40135 15.5796 4.40135 15.4315 4.40135Z" fill="#4B5563"/>
<path d="M4.57728 7.0842H4.56847C4.42037 7.0842 4.30319 7.0842 4.21053 7.0948C4.11556 7.10567 4.03733 7.12846 3.97182 7.1805C3.94958 7.19818 3.92914 7.21795 3.91083 7.23955C3.85668 7.30343 3.83285 7.38002 3.82153 7.47273C3.81053 7.56279 3.81054 7.67651 3.81054 7.81958V7.82885C3.81054 7.97192 3.81053 8.08565 3.82153 8.1757C3.83285 8.26841 3.85668 8.345 3.91083 8.40889C3.92914 8.43049 3.94958 8.45026 3.97182 8.46794C4.03733 8.51998 4.11556 8.54277 4.21053 8.55364C4.30319 8.56424 4.42036 8.56424 4.56847 8.56424H4.57728C4.72538 8.56424 4.84256 8.56424 4.93522 8.55364C5.03019 8.54277 5.10843 8.51998 5.17393 8.46794C5.19617 8.45026 5.21661 8.43049 5.23492 8.40889C5.28907 8.345 5.3129 8.26841 5.32422 8.1757C5.33522 8.08565 5.33521 7.97192 5.33521 7.82885V7.81959C5.33521 7.67652 5.33522 7.56279 5.32422 7.47273C5.3129 7.38002 5.28907 7.30343 5.23492 7.23955C5.21661 7.21795 5.19617 7.19818 5.17393 7.1805C5.10842 7.12846 5.03019 7.10567 4.93522 7.0948C4.84256 7.0842 4.72538 7.0842 4.57728 7.0842Z" fill="#4B5563"/>
<path d="M7.11763 7.0842H7.10883C6.96073 7.0842 6.84355 7.0842 6.75088 7.0948C6.65591 7.10567 6.57768 7.12846 6.51218 7.1805C6.48993 7.19818 6.4695 7.21795 6.45119 7.23955C6.39703 7.30343 6.37321 7.38002 6.36189 7.47273C6.35089 7.56279 6.35089 7.67652 6.35089 7.81959V7.82885C6.35089 7.97192 6.35089 8.08565 6.36189 8.1757C6.37321 8.26841 6.39703 8.345 6.45119 8.40889C6.4695 8.43049 6.48993 8.45026 6.51218 8.46794C6.57768 8.51998 6.65591 8.54277 6.75088 8.55364C6.84355 8.56424 6.96072 8.56424 7.10882 8.56424H7.11763C7.26574 8.56424 7.38292 8.56424 7.47558 8.55364C7.57055 8.54277 7.64878 8.51998 7.71428 8.46794C7.73653 8.45026 7.75696 8.43049 7.77527 8.40889C7.82943 8.345 7.85326 8.26841 7.86458 8.1757C7.87557 8.08565 7.87557 7.97191 7.87557 7.82884V7.8196C7.87557 7.67653 7.87557 7.56279 7.86458 7.47273C7.85326 7.38002 7.82943 7.30343 7.77527 7.23955C7.75696 7.21795 7.73653 7.19818 7.71428 7.1805C7.64878 7.12846 7.57055 7.10567 7.47558 7.0948C7.38292 7.0842 7.26574 7.0842 7.11763 7.0842Z" fill="#4B5563"/>
<path d="M9.88893 7.0842H9.88013C9.73203 7.0842 9.61485 7.0842 9.52218 7.0948C9.42721 7.10567 9.34898 7.12846 9.28348 7.1805C9.26123 7.19818 9.2408 7.21795 9.22249 7.23955C9.16833 7.30343 9.1445 7.38002 9.13318 7.47273C9.12219 7.56279 9.12219 7.67651 9.12219 7.81957V7.82887C9.12219 7.97193 9.12219 8.08565 9.13318 8.1757C9.1445 8.26841 9.16833 8.345 9.22249 8.40889C9.2408 8.43049 9.26123 8.45026 9.28348 8.46794C9.34898 8.51998 9.42721 8.54277 9.52218 8.55364C9.61485 8.56424 9.73202 8.56424 9.88012 8.56424H9.88893C10.037 8.56424 10.1542 8.56424 10.2469 8.55364C10.3418 8.54277 10.4201 8.51998 10.4856 8.46794C10.5078 8.45026 10.5283 8.43049 10.5466 8.40889C10.6007 8.345 10.6246 8.26841 10.6359 8.1757C10.6469 8.08565 10.6469 7.97191 10.6469 7.82884V7.8196C10.6469 7.67653 10.6469 7.56279 10.6359 7.47273C10.6246 7.38002 10.6007 7.30343 10.5466 7.23955C10.5283 7.21795 10.5078 7.19818 10.4856 7.1805C10.4201 7.12846 10.3418 7.10567 10.2469 7.0948C10.1542 7.0842 10.037 7.0842 9.88893 7.0842Z" fill="#4B5563"/>
<path d="M12.6602 7.0842H12.6514C12.5033 7.0842 12.3861 7.0842 12.2935 7.0948C12.1985 7.10567 12.1203 7.12846 12.0548 7.1805C12.0325 7.19818 12.0121 7.21795 11.9938 7.23955C11.9396 7.30343 11.9158 7.38002 11.9045 7.47273C11.8935 7.56279 11.8935 7.67653 11.8935 7.8196V7.82884C11.8935 7.97191 11.8935 8.08565 11.9045 8.1757C11.9158 8.26841 11.9396 8.345 11.9938 8.40889C12.0121 8.43049 12.0325 8.45026 12.0548 8.46794C12.1203 8.51998 12.1985 8.54277 12.2935 8.55364C12.3861 8.56424 12.5033 8.56424 12.6514 8.56424H12.6602C12.8083 8.56424 12.9255 8.56424 13.0182 8.55364C13.1131 8.54277 13.1914 8.51998 13.2569 8.46794C13.2791 8.45026 13.2996 8.43049 13.3179 8.40889C13.372 8.345 13.3959 8.26841 13.4072 8.1757C13.4182 8.08565 13.4182 7.97191 13.4182 7.82884V7.8196C13.4182 7.67653 13.4182 7.56279 13.4072 7.47273C13.3959 7.38002 13.372 7.30343 13.3179 7.23955C13.2996 7.21795 13.2791 7.19818 13.2569 7.1805C13.1914 7.12846 13.1131 7.10567 13.0182 7.0948C12.9255 7.0842 12.8083 7.0842 12.6602 7.0842Z" fill="#4B5563"/>
<path d="M15.4315 7.0842H15.4227C15.2746 7.0842 15.1574 7.0842 15.0648 7.0948C14.9698 7.10567 14.8916 7.12846 14.8261 7.1805C14.8038 7.19818 14.7834 7.21795 14.7651 7.23955C14.7109 7.30343 14.6871 7.38002 14.6758 7.47273C14.6648 7.56278 14.6648 7.6765 14.6648 7.81956V7.82887C14.6648 7.97193 14.6648 8.08565 14.6758 8.1757C14.6871 8.26841 14.7109 8.345 14.7651 8.40889C14.7834 8.43049 14.8038 8.45026 14.8261 8.46794C14.8916 8.51998 14.9698 8.54277 15.0648 8.55364C15.1574 8.56424 15.2746 8.56424 15.4227 8.56424H15.4315C15.5796 8.56424 15.6968 8.56424 15.7895 8.55364C15.8844 8.54277 15.9627 8.51997 16.0282 8.46794C16.0504 8.45026 16.0709 8.43049 16.0892 8.40889C16.1433 8.345 16.1672 8.26841 16.1785 8.1757C16.1895 8.08565 16.1895 7.97193 16.1895 7.82887V7.81957C16.1895 7.67651 16.1895 7.56279 16.1785 7.47273C16.1672 7.38002 16.1433 7.30343 16.0892 7.23955C16.0709 7.21795 16.0504 7.19818 16.0282 7.1805C15.9627 7.12846 15.8844 7.10567 15.7895 7.0948C15.6968 7.0842 15.5796 7.0842 15.4315 7.0842Z" fill="#4B5563"/>
<path d="M4.57731 9.76705H4.56844C4.42035 9.76705 4.30318 9.76705 4.21053 9.77765C4.11556 9.78852 4.03733 9.81131 3.97182 9.86335C3.94958 9.88103 3.92914 9.9008 3.91083 9.9224C3.85668 9.98628 3.83285 10.0629 3.82153 10.1556C3.81053 10.2456 3.81054 10.3594 3.81054 10.5024V10.5117C3.81054 10.6548 3.81053 10.7685 3.82153 10.8586C3.83285 10.9513 3.85668 11.0279 3.91083 11.0917C3.92914 11.1133 3.94957 11.1331 3.97182 11.1508C4.03733 11.2028 4.11556 11.2256 4.21053 11.2365C4.30318 11.2471 4.42034 11.2471 4.56843 11.2471H4.57731C4.7254 11.2471 4.84257 11.2471 4.93522 11.2365C5.03019 11.2256 5.10842 11.2028 5.17393 11.1508C5.19617 11.1331 5.21661 11.1133 5.23492 11.0917C5.28907 11.0279 5.3129 10.9513 5.32422 10.8586C5.33522 10.7685 5.33521 10.6548 5.33521 10.5117V10.5024C5.33521 10.3594 5.33522 10.2456 5.32422 10.1556C5.3129 10.0629 5.28907 9.98628 5.23492 9.9224C5.21661 9.9008 5.19617 9.88103 5.17393 9.86335C5.10842 9.81131 5.03019 9.78852 4.93522 9.77765C4.84257 9.76705 4.7254 9.76705 4.57731 9.76705Z" fill="#4B5563"/>
<path d="M7.11323 9.76705C6.69415 9.76705 6.35089 10.0965 6.35089 10.5071C6.35089 10.9177 6.69415 11.2471 7.11323 11.2471L12.6558 11.2471C13.0749 11.2471 13.4182 10.9177 13.4182 10.5071C13.4182 10.0965 13.0749 9.76705 12.6558 9.76705L7.11323 9.76705Z" fill="#4B5563"/>
<path d="M15.4316 9.76705H15.4227C15.2746 9.76705 15.1574 9.76705 15.0648 9.77765C14.9698 9.78852 14.8916 9.81131 14.8261 9.86335C14.8038 9.88102 14.7834 9.9008 14.7651 9.9224C14.7109 9.98628 14.6871 10.0629 14.6758 10.1556C14.6648 10.2456 14.6648 10.3594 14.6648 10.5024V10.5117C14.6648 10.6548 14.6648 10.7685 14.6758 10.8586C14.6871 10.9513 14.7109 11.0279 14.7651 11.0917C14.7834 11.1133 14.8038 11.1331 14.8261 11.1508C14.8916 11.2028 14.9698 11.2256 15.0648 11.2365C15.1574 11.2471 15.2746 11.2471 15.4227 11.2471H15.4316C15.5796 11.2471 15.6968 11.2471 15.7895 11.2365C15.8844 11.2256 15.9627 11.2028 16.0282 11.1508C16.0504 11.1331 16.0709 11.1133 16.0892 11.0917C16.1433 11.0279 16.1672 10.9513 16.1785 10.8586C16.1895 10.7685 16.1895 10.6548 16.1895 10.5117V10.5024C16.1895 10.3594 16.1895 10.2456 16.1785 10.1556C16.1672 10.0629 16.1433 9.98628 16.0892 9.9224C16.0709 9.9008 16.0504 9.88103 16.0282 9.86335C15.9627 9.81131 15.8844 9.78852 15.7895 9.77765C15.6968 9.76705 15.5796 9.76705 15.4316 9.76705Z" fill="#4B5563"/>
<path fill-rule="evenodd" clip-rule="evenodd" d="M12.8277 0.824219L7.17228 0.824219C5.69594 0.824203 4.51081 0.824191 3.57971 0.945378C2.61512 1.07092 1.80981 1.33857 1.17099 1.957C0.531882 2.57571 0.255026 3.35614 0.125209 4.29089C-2.86698e-05 5.19267 -1.57441e-05 6.34029 3.64136e-07 7.76916L3.64136e-07 7.87927C-1.57441e-05 9.30814 -2.86698e-05 10.4558 0.125209 11.3575C0.255026 12.2923 0.531882 13.0727 1.17099 13.6914C1.80981 14.3099 2.61512 14.5775 3.57971 14.7031C4.5108 14.8242 5.69592 14.8242 7.17226 14.8242H12.8277C14.3041 14.8242 15.4892 14.8242 16.4203 14.7031C17.3849 14.5775 18.1902 14.3099 18.829 13.6914C19.4681 13.0727 19.745 12.2923 19.8748 11.3575C20 10.4558 20 9.30812 20 7.87923V7.76921C20 6.34032 20 5.19268 19.8748 4.29089C19.745 3.35614 19.4681 2.57571 18.829 1.957C18.1902 1.33857 17.3849 1.07092 16.4203 0.945378C15.4892 0.824191 14.3041 0.824203 12.8277 0.824219ZM3.78234 2.41229C4.60033 2.30582 5.68304 2.30426 7.2287 2.30426L12.7713 2.30426C14.317 2.30426 15.3997 2.30582 16.2177 2.41229C17.0139 2.51592 17.4442 2.70663 17.7524 3.00498C18.0603 3.30305 18.2569 3.71878 18.3638 4.48865C18.4737 5.28004 18.4753 6.32772 18.4753 7.82422C18.4753 9.32072 18.4737 10.3684 18.3638 11.1598C18.2569 11.9297 18.0603 12.3454 17.7524 12.6435C17.4442 12.9418 17.0139 13.1325 16.2177 13.2361C15.3997 13.3426 14.317 13.3442 12.7713 13.3442H7.2287C5.68304 13.3442 4.60033 13.3426 3.78234 13.2361C2.9861 13.1325 2.55583 12.9418 2.24764 12.6435C1.93974 12.3454 1.74313 11.9297 1.63621 11.1598C1.52631 10.3684 1.52468 9.32072 1.52468 7.82422C1.52468 6.32772 1.52631 5.28004 1.63621 4.48865C1.74313 3.71878 1.93974 3.30305 2.24764 3.00498C2.55583 2.70663 2.9861 2.51592 3.78234 2.41229Z" fill="#4B5563"/>
</svg>
