<svg id="svg" version="1.1" xmlns="http://www.w3.org/2000/svg" xmlns:xlink="http://www.w3.org/1999/xlink" width="400" height="400" viewBox="0, 0, 400,400"><g id="svgg"><path id="path0" d="M185.200 0.546 C 185.200 1.367,176.180 2.157,173.000 1.614 C 168.567 0.858,166.671 1.031,166.956 2.168 C 167.312 3.585,165.058 3.976,159.900 3.394 L 157.200 3.090 157.200 4.118 C 157.200 5.596,154.934 6.035,150.560 5.406 C 148.540 5.116,147.530 5.717,148.205 6.807 C 148.579 7.413,146.752 7.688,144.183 7.413 L 141.659 7.143 141.529 8.271 C 141.405 9.360,141.315 9.403,139.000 9.474 C 137.680 9.514,136.285 9.559,135.900 9.574 C 135.478 9.590,135.200 9.914,135.200 10.392 C 135.200 11.341,134.110 11.684,131.627 11.518 C 130.026 11.411,129.831 11.496,129.605 12.400 C 129.372 13.333,129.189 13.400,126.878 13.396 C 124.577 13.392,124.400 13.456,124.400 14.288 C 124.400 15.275,123.413 15.678,121.428 15.503 C 120.469 15.419,120.212 15.582,120.012 16.400 C 119.801 17.263,119.513 17.417,117.916 17.521 C 116.470 17.615,115.925 17.855,115.423 18.621 C 114.919 19.390,114.438 19.600,113.178 19.600 C 112.016 19.600,111.504 19.793,111.317 20.300 C 110.974 21.229,110.401 21.586,109.246 21.594 C 108.721 21.597,107.875 22.050,107.365 22.600 C 106.764 23.249,106.006 23.600,105.209 23.600 C 104.266 23.600,103.892 23.833,103.600 24.600 C 103.293 25.407,102.946 25.600,101.801 25.600 C 100.668 25.600,100.289 25.806,99.916 26.624 C 99.523 27.487,99.225 27.629,98.025 27.524 C 96.817 27.419,96.581 27.534,96.475 28.277 C 96.391 28.865,95.909 29.300,95.011 29.597 C 94.274 29.840,93.575 30.288,93.458 30.592 C 93.341 30.897,92.652 31.203,91.926 31.273 C 90.964 31.366,90.470 31.685,90.105 32.450 C 89.788 33.115,89.165 33.587,88.402 33.740 C 87.741 33.872,87.200 34.234,87.200 34.545 C 87.200 34.872,86.626 35.219,85.844 35.365 C 84.955 35.532,84.416 35.895,84.279 36.418 C 84.164 36.858,83.533 37.405,82.875 37.634 C 82.218 37.863,81.582 38.424,81.463 38.881 C 81.278 39.586,81.030 39.677,79.823 39.481 C 78.536 39.272,78.400 39.339,78.400 40.177 C 78.400 40.829,78.045 41.250,77.200 41.600 C 76.540 41.873,76.000 42.350,76.000 42.658 C 76.000 42.967,75.550 43.391,75.000 43.600 C 74.450 43.809,74.000 44.250,74.000 44.580 C 74.000 44.910,73.482 45.447,72.848 45.775 C 72.215 46.102,71.591 46.647,71.461 46.985 C 71.331 47.323,70.880 47.600,70.459 47.600 C 70.038 47.600,69.606 47.933,69.500 48.340 C 69.367 48.849,68.784 49.164,67.641 49.347 C 66.379 49.549,65.886 49.848,65.607 50.581 C 65.144 51.800,63.597 53.600,63.014 53.600 C 62.771 53.600,61.775 54.500,60.800 55.600 C 59.825 56.700,58.792 57.600,58.504 57.600 C 58.216 57.600,57.824 58.005,57.633 58.500 C 57.442 58.995,56.457 60.117,55.443 60.994 C 54.429 61.870,53.600 62.782,53.600 63.021 C 53.600 63.588,51.801 65.143,50.630 65.588 C 49.951 65.847,49.643 66.372,49.445 67.609 C 49.254 68.803,48.952 69.340,48.389 69.487 C 47.939 69.605,47.600 70.033,47.600 70.484 C 47.600 70.927,47.263 71.363,46.834 71.475 C 46.413 71.585,45.962 72.097,45.833 72.611 C 45.704 73.126,45.228 73.664,44.776 73.808 C 44.324 73.951,43.789 74.503,43.587 75.034 C 43.385 75.565,42.967 76.000,42.658 76.000 C 42.350 76.000,41.873 76.540,41.600 77.200 C 41.250 78.045,40.829 78.400,40.177 78.400 C 39.346 78.400,39.273 78.541,39.471 79.761 C 39.652 80.876,39.536 81.206,38.827 81.586 C 38.351 81.840,37.788 82.505,37.576 83.063 C 37.364 83.621,36.837 84.170,36.405 84.283 C 35.902 84.414,35.531 84.962,35.372 85.807 C 35.221 86.612,34.839 87.201,34.393 87.318 C 33.947 87.434,33.611 87.953,33.531 88.651 C 33.443 89.417,33.136 89.843,32.600 89.943 C 31.590 90.132,31.214 90.710,31.206 92.086 C 31.202 92.732,30.898 93.334,30.453 93.572 C 30.042 93.792,29.599 94.505,29.469 95.156 C 29.301 95.996,28.966 96.378,28.316 96.470 C 27.529 96.582,27.418 96.800,27.524 98.025 C 27.629 99.225,27.487 99.523,26.624 99.916 C 25.806 100.289,25.600 100.668,25.600 101.801 C 25.600 102.946,25.407 103.293,24.600 103.600 C 23.796 103.906,23.600 104.255,23.600 105.381 C 23.600 106.434,23.352 106.944,22.600 107.437 C 21.857 107.924,21.600 108.442,21.600 109.456 C 21.600 110.543,21.397 110.897,20.600 111.200 C 19.736 111.529,19.600 111.827,19.600 113.400 C 19.600 114.962,19.461 115.272,18.623 115.591 C 17.803 115.903,17.626 116.272,17.523 117.878 C 17.423 119.426,17.247 119.820,16.600 119.935 C 15.378 120.153,15.176 120.523,15.557 121.850 C 15.989 123.358,15.466 124.400,14.276 124.400 C 13.459 124.400,13.392 124.587,13.396 126.878 C 13.400 129.189,13.333 129.372,12.400 129.605 C 11.496 129.831,11.411 130.026,11.518 131.627 C 11.683 134.092,11.339 135.200,10.409 135.200 C 9.719 135.200,9.621 135.539,9.517 138.300 C 9.401 141.372,9.390 141.401,8.271 141.529 L 7.143 141.659 7.413 144.183 C 7.759 147.412,7.456 148.400,6.122 148.400 C 5.111 148.400,5.101 148.429,5.419 150.500 C 6.076 154.787,5.672 156.800,4.155 156.800 L 3.125 156.800 3.409 160.588 C 3.794 165.714,3.490 167.288,2.181 166.960 C 1.030 166.671,0.854 168.545,1.614 173.000 C 2.157 176.180,1.367 185.200,0.546 185.200 C 0.094 185.200,0.000 187.757,0.000 200.000 C 0.000 212.492,0.088 214.800,0.566 214.800 C 1.607 214.800,2.063 222.337,1.431 229.100 L 1.085 232.800 2.111 232.800 C 3.482 232.800,3.771 234.194,3.406 239.054 L 3.125 242.800 4.124 242.800 C 5.226 242.800,6.093 244.480,5.793 246.035 C 4.990 250.206,5.072 251.600,6.121 251.600 C 7.459 251.600,7.759 252.588,7.410 255.846 C 7.138 258.381,7.144 258.400,8.145 258.400 C 9.654 258.400,10.042 259.776,9.413 262.901 C 9.119 264.358,9.149 264.410,10.407 264.661 L 11.704 264.921 11.467 267.460 C 11.236 269.939,11.253 270.000,12.188 270.000 C 13.352 270.000,13.703 270.908,13.543 273.506 C 13.444 275.116,13.543 275.416,14.214 275.543 C 15.372 275.763,15.650 276.405,15.391 278.271 C 15.170 279.870,15.208 279.949,16.280 280.071 C 17.313 280.190,17.410 280.349,17.523 282.119 C 17.626 283.729,17.803 284.097,18.623 284.409 C 19.460 284.727,19.600 285.039,19.600 286.582 C 19.600 288.171,19.718 288.414,20.600 288.636 C 21.454 288.850,21.600 289.116,21.600 290.453 C 21.600 291.776,21.763 292.082,22.651 292.419 C 23.567 292.767,23.674 292.989,23.487 294.144 C 23.235 295.694,23.500 296.247,24.600 296.469 C 25.248 296.600,25.383 296.913,25.312 298.112 C 25.236 299.400,25.384 299.675,26.453 300.228 C 27.484 300.761,27.654 301.050,27.510 302.031 C 27.372 302.974,27.486 303.200,28.101 303.200 C 28.617 303.200,29.064 303.707,29.479 304.766 C 29.818 305.627,30.433 306.420,30.847 306.528 C 31.409 306.675,31.600 307.092,31.600 308.172 C 31.600 309.328,31.792 309.693,32.549 309.981 C 33.071 310.179,33.609 310.783,33.745 311.323 C 33.880 311.863,34.375 312.405,34.845 312.528 C 35.578 312.719,35.662 312.945,35.439 314.133 C 35.200 315.406,35.275 315.548,36.390 315.937 C 37.055 316.169,37.600 316.634,37.600 316.970 C 37.600 317.306,38.050 317.876,38.600 318.237 C 39.150 318.597,39.600 319.131,39.600 319.423 C 39.600 319.716,39.945 320.196,40.366 320.491 C 40.787 320.786,41.257 321.696,41.410 322.514 C 41.564 323.335,41.925 324.000,42.215 324.000 C 42.505 324.000,43.096 324.450,43.529 325.000 C 43.961 325.550,44.510 326.000,44.747 326.000 C 44.985 326.000,45.459 326.540,45.800 327.200 C 46.141 327.860,46.600 328.400,46.819 328.400 C 47.038 328.400,47.415 328.835,47.657 329.366 C 47.899 329.897,48.408 330.413,48.788 330.513 C 49.217 330.625,49.567 331.241,49.713 332.142 C 49.949 333.595,51.639 335.600,52.627 335.600 C 52.908 335.600,53.343 336.221,53.594 336.981 C 53.844 337.740,54.398 338.473,54.825 338.608 C 55.251 338.743,55.600 339.116,55.600 339.437 C 55.600 339.757,56.067 340.198,56.639 340.415 C 57.210 340.632,57.771 341.167,57.885 341.605 C 58.000 342.042,58.347 342.400,58.657 342.400 C 58.966 342.400,59.391 342.850,59.600 343.400 C 59.809 343.950,60.227 344.400,60.529 344.400 C 60.830 344.400,61.690 344.985,62.439 345.700 C 63.187 346.415,64.367 347.468,65.059 348.040 C 65.752 348.612,66.384 349.422,66.465 349.840 C 66.581 350.439,66.893 350.572,67.935 350.467 C 68.985 350.361,69.301 350.499,69.467 351.134 C 69.582 351.574,70.199 352.151,70.838 352.416 C 71.477 352.680,72.000 353.069,72.000 353.280 C 72.000 353.869,75.192 356.800,75.833 356.800 C 76.145 356.800,76.400 357.165,76.400 357.610 C 76.400 358.198,76.744 358.489,77.653 358.671 C 78.379 358.816,78.986 359.223,79.094 359.638 C 79.202 360.052,79.729 360.407,80.341 360.477 C 80.971 360.550,81.556 360.956,81.785 361.478 C 81.997 361.961,82.561 362.454,83.038 362.574 C 83.514 362.693,83.999 363.153,84.115 363.596 C 84.275 364.207,84.659 364.400,85.717 364.400 C 86.748 364.400,87.272 364.651,87.743 365.370 C 88.093 365.903,88.732 366.451,89.164 366.589 C 89.596 366.726,90.006 367.234,90.075 367.719 C 90.180 368.459,90.456 368.600,91.800 368.600 C 93.092 368.600,93.477 368.779,93.800 369.527 C 94.030 370.060,94.668 370.550,95.300 370.677 C 95.905 370.800,96.423 371.058,96.450 371.250 C 96.478 371.443,96.523 371.824,96.550 372.099 C 96.583 372.426,97.121 372.552,98.122 372.466 C 99.505 372.347,99.688 372.448,100.111 373.569 C 100.533 374.688,100.699 374.780,101.882 374.558 C 103.025 374.344,103.236 374.443,103.584 375.357 C 103.929 376.266,104.209 376.400,105.768 376.400 C 107.324 376.400,107.625 376.543,108.084 377.500 C 108.524 378.417,108.827 378.578,109.901 378.470 C 110.956 378.364,111.274 378.524,111.650 379.351 C 112.030 380.184,112.431 380.382,113.939 380.480 C 115.515 380.583,115.801 380.738,116.004 381.600 C 116.212 382.479,116.453 382.600,117.998 382.600 C 119.540 382.600,119.785 382.722,120.000 383.600 C 120.225 384.519,120.405 384.591,122.222 384.490 C 124.330 384.373,124.740 384.539,125.451 385.800 C 125.757 386.344,126.269 386.578,127.051 386.530 C 129.219 386.399,130.000 386.741,130.000 387.821 C 130.000 388.796,130.062 388.819,131.979 388.565 C 134.785 388.193,136.000 388.571,136.000 389.819 C 136.000 390.814,136.021 390.820,138.593 390.557 C 141.180 390.292,142.528 391.150,141.706 392.539 C 141.595 392.725,142.872 392.749,144.542 392.593 C 148.496 392.222,149.600 392.496,149.600 393.849 L 149.600 394.883 152.764 394.603 C 156.632 394.261,157.600 394.510,157.600 395.848 L 157.600 396.843 161.951 396.568 C 167.643 396.207,169.200 396.486,169.200 397.866 L 169.200 398.896 174.553 398.610 C 180.973 398.266,186.000 398.634,186.000 399.447 C 186.000 399.907,188.351 400.000,200.000 400.000 C 211.649 400.000,214.000 399.907,214.000 399.447 C 214.000 398.634,218.907 398.278,225.387 398.621 L 230.800 398.908 230.800 397.872 C 230.800 396.520,232.039 396.279,238.053 396.462 C 242.315 396.592,242.586 396.554,242.735 395.800 C 242.986 394.528,243.594 394.364,247.069 394.635 L 250.338 394.889 250.469 393.745 L 250.600 392.600 254.300 392.676 C 257.969 392.752,258.000 392.744,258.000 391.784 C 258.000 390.640,258.990 390.283,261.634 390.473 C 262.606 390.543,263.415 390.510,263.432 390.400 C 263.712 388.672,264.492 388.294,267.243 388.549 C 269.982 388.804,270.000 388.799,270.000 387.810 C 270.000 386.739,270.785 386.401,272.976 386.530 C 273.926 386.587,274.201 386.407,274.402 385.600 C 274.639 384.650,274.783 384.603,277.325 384.662 C 279.867 384.720,280.000 384.678,280.000 383.805 C 280.000 382.687,280.708 382.371,282.546 382.669 C 283.844 382.879,283.947 382.817,284.069 381.747 C 284.194 380.655,284.295 380.600,286.200 380.600 C 287.970 380.600,288.215 380.496,288.328 379.700 C 288.461 378.765,288.685 378.669,290.465 378.784 C 291.274 378.836,291.663 378.581,292.076 377.727 C 292.537 376.774,292.864 376.600,294.195 376.600 C 295.473 376.600,295.865 376.411,296.276 375.600 C 296.682 374.800,297.084 374.600,298.291 374.600 C 299.554 374.600,299.788 374.470,299.729 373.806 C 299.645 372.872,300.237 372.415,301.537 372.406 C 302.135 372.402,302.551 372.110,302.684 371.600 C 302.803 371.145,303.230 370.800,303.673 370.800 C 304.790 370.800,306.000 370.069,306.000 369.394 C 306.000 368.739,307.312 368.312,308.799 368.484 C 309.573 368.574,309.826 368.398,309.926 367.701 C 310.005 367.156,310.419 366.710,310.978 366.570 C 311.485 366.443,312.105 365.889,312.355 365.339 C 312.742 364.489,313.036 364.358,314.305 364.469 C 315.572 364.580,315.818 364.471,315.921 363.755 C 315.987 363.290,316.482 362.709,317.021 362.463 C 317.559 362.218,318.000 361.747,318.000 361.416 C 318.000 361.086,318.441 360.705,318.979 360.570 C 319.517 360.434,320.223 359.920,320.546 359.426 C 321.002 358.730,321.411 358.569,322.367 358.710 C 323.466 358.871,323.600 358.781,323.600 357.885 C 323.600 357.126,323.896 356.775,324.800 356.460 C 325.460 356.230,326.000 355.762,326.000 355.421 C 326.000 355.079,326.186 354.800,326.413 354.800 C 326.641 354.800,327.457 354.170,328.227 353.400 C 328.997 352.630,329.780 352.000,329.967 352.000 C 330.154 352.000,330.401 351.640,330.516 351.200 C 330.645 350.708,331.062 350.400,331.600 350.400 C 332.130 350.400,332.555 350.094,332.678 349.622 C 332.790 349.195,333.268 348.790,333.741 348.722 C 334.279 348.646,334.648 348.263,334.728 347.700 C 334.811 347.113,335.131 346.800,335.647 346.800 C 336.082 346.800,336.835 346.378,337.319 345.862 C 337.804 345.346,338.695 344.803,339.300 344.655 C 339.905 344.506,340.400 344.112,340.400 343.779 C 340.400 342.983,342.997 340.400,343.797 340.400 C 344.166 340.400,344.516 339.922,344.654 339.228 C 344.783 338.583,345.319 337.652,345.844 337.158 C 346.370 336.665,346.800 335.932,346.800 335.530 C 346.800 335.018,347.098 334.800,347.800 334.800 C 348.587 334.800,348.800 334.597,348.800 333.847 C 348.800 333.230,349.082 332.819,349.600 332.684 C 350.092 332.555,350.400 332.138,350.400 331.600 C 350.400 331.066,350.707 330.645,351.187 330.519 C 351.619 330.406,352.085 329.962,352.221 329.532 C 352.358 329.103,352.904 328.553,353.435 328.311 C 353.966 328.070,354.400 327.635,354.400 327.345 C 354.400 327.055,354.850 326.524,355.400 326.163 C 355.950 325.803,356.400 325.272,356.400 324.983 C 356.400 324.158,357.559 323.209,358.244 323.472 C 358.748 323.666,358.828 323.470,358.666 322.443 C 358.506 321.431,358.653 321.053,359.395 320.567 C 359.906 320.232,360.434 319.517,360.570 318.979 C 360.705 318.441,361.086 318.000,361.416 318.000 C 361.747 318.000,362.218 317.559,362.463 317.021 C 362.709 316.482,363.290 315.987,363.755 315.921 C 364.471 315.818,364.580 315.572,364.469 314.305 C 364.358 313.036,364.489 312.742,365.339 312.355 C 365.889 312.105,366.443 311.485,366.570 310.978 C 366.710 310.419,367.156 310.005,367.701 309.926 C 368.398 309.826,368.574 309.573,368.484 308.799 C 368.303 307.232,368.721 306.114,369.573 305.891 C 370.043 305.768,370.496 305.151,370.710 304.343 C 370.969 303.362,371.283 303.007,371.876 303.026 C 372.464 303.044,372.635 302.854,372.498 302.332 C 372.127 300.914,372.751 299.600,373.796 299.600 C 374.678 299.600,374.767 299.449,374.688 298.100 C 374.613 296.817,374.730 296.582,375.500 296.472 C 376.464 296.335,376.506 296.232,376.563 293.823 C 376.594 292.487,376.753 292.208,377.600 292.001 C 378.454 291.792,378.600 291.528,378.600 290.197 C 378.600 288.864,378.745 288.603,379.600 288.399 C 380.500 288.184,380.600 287.962,380.600 286.180 C 380.600 284.320,380.666 284.192,381.694 284.074 C 382.729 283.955,382.784 283.846,382.694 282.074 C 382.606 280.316,382.666 280.192,383.660 280.077 C 384.695 279.957,384.719 279.892,384.660 277.303 C 384.603 274.785,384.651 274.638,385.600 274.402 C 386.407 274.201,386.587 273.926,386.530 272.976 C 386.402 270.804,386.741 270.000,387.784 270.000 C 388.740 270.000,388.750 269.961,388.519 267.199 L 388.284 264.399 389.560 263.954 C 390.796 263.523,390.827 263.455,390.573 261.760 C 390.193 259.224,390.593 258.000,391.803 258.000 C 392.788 258.000,392.790 257.993,392.695 254.300 L 392.600 250.600 393.749 250.469 L 394.898 250.337 394.629 247.254 C 394.316 243.662,394.500 242.962,395.850 242.623 L 396.841 242.374 396.567 238.037 C 396.207 232.353,396.487 230.800,397.869 230.800 L 398.903 230.800 398.618 225.662 C 398.272 219.392,398.657 214.000,399.452 214.000 C 399.906 214.000,400.000 211.561,400.000 199.800 C 400.000 187.981,399.907 185.600,399.447 185.600 C 398.638 185.600,398.270 180.635,398.616 174.386 L 398.903 169.200 397.869 169.200 C 396.478 169.200,396.213 167.673,396.577 161.760 L 396.858 157.200 395.856 157.200 C 394.522 157.200,394.270 156.262,394.615 152.583 L 394.894 149.600 393.855 149.600 C 392.502 149.600,392.222 148.501,392.585 144.619 L 392.863 141.659 391.731 141.530 C 390.602 141.400,390.600 141.396,390.709 138.700 C 390.815 136.070,390.792 136.000,389.836 136.000 C 388.575 136.000,388.238 134.962,388.588 132.157 C 388.852 130.041,388.838 130.000,387.836 130.000 C 386.783 130.000,386.018 128.542,386.588 127.619 C 387.048 126.874,386.368 125.568,385.310 125.166 C 384.329 124.793,384.298 124.683,384.538 122.389 C 384.783 120.049,384.768 120.000,383.801 120.000 C 382.760 120.000,382.364 119.144,382.521 117.225 C 382.581 116.484,382.360 116.192,381.600 116.009 C 380.729 115.799,380.584 115.519,380.476 113.840 C 380.379 112.329,380.185 111.869,379.576 111.710 C 379.018 111.564,378.798 111.154,378.794 110.253 C 378.786 108.713,378.439 108.137,377.400 107.943 C 376.754 107.822,376.576 107.423,376.477 105.878 C 376.373 104.248,376.203 103.905,375.334 103.575 C 374.427 103.230,374.343 103.032,374.575 101.793 C 374.815 100.512,374.758 100.400,373.861 100.400 C 372.785 100.400,372.400 99.749,372.400 97.930 C 372.400 97.073,372.175 96.666,371.623 96.522 C 371.191 96.409,370.741 95.843,370.611 95.249 C 370.482 94.661,369.976 94.004,369.488 93.790 C 368.882 93.524,368.580 93.019,368.537 92.200 C 368.502 91.540,368.457 90.775,368.437 90.500 C 368.417 90.225,368.043 90.000,367.608 90.000 C 367.107 90.000,366.727 89.650,366.577 89.050 C 366.446 88.528,365.902 87.902,365.369 87.659 C 364.604 87.310,364.400 86.913,364.400 85.771 C 364.400 84.659,364.214 84.277,363.596 84.115 C 363.153 83.999,362.686 83.486,362.558 82.975 C 362.420 82.425,361.973 81.996,361.462 81.923 C 360.814 81.830,360.569 81.478,360.475 80.500 C 360.398 79.701,360.130 79.200,359.780 79.200 C 359.467 79.200,358.948 78.570,358.626 77.800 C 358.304 77.030,357.762 76.400,357.420 76.400 C 357.079 76.400,356.800 76.141,356.800 75.824 C 356.800 75.508,355.720 74.176,354.400 72.864 C 353.080 71.552,352.000 70.302,352.000 70.086 C 352.000 69.870,351.618 69.593,351.151 69.471 C 350.416 69.279,350.338 69.057,350.569 67.825 C 350.818 66.495,350.768 66.400,349.818 66.400 C 349.258 66.400,348.797 66.265,348.794 66.100 C 348.788 65.821,346.879 63.432,346.047 62.660 C 345.845 62.473,345.295 61.971,344.825 61.545 C 344.355 61.119,344.078 60.597,344.209 60.385 C 344.341 60.172,343.987 59.823,343.424 59.609 C 342.861 59.395,342.400 58.966,342.400 58.657 C 342.400 58.347,342.042 58.000,341.605 57.885 C 341.167 57.771,340.632 57.210,340.415 56.639 C 340.198 56.067,339.757 55.600,339.437 55.600 C 339.116 55.600,338.743 55.251,338.608 54.825 C 338.473 54.398,337.740 53.844,336.981 53.594 C 336.221 53.343,335.600 52.895,335.600 52.598 C 335.600 51.789,332.752 49.600,331.699 49.600 C 331.087 49.600,330.653 49.266,330.400 48.600 C 330.191 48.050,329.740 47.600,329.397 47.600 C 329.055 47.600,328.669 47.323,328.539 46.985 C 328.409 46.647,327.785 46.102,327.152 45.775 C 326.518 45.447,326.000 45.029,326.000 44.846 C 326.000 44.128,323.315 41.716,322.207 41.437 C 321.563 41.276,320.793 40.796,320.495 40.372 C 320.198 39.947,319.716 39.600,319.423 39.600 C 319.131 39.600,318.597 39.150,318.237 38.600 C 317.876 38.050,317.306 37.600,316.970 37.600 C 316.634 37.600,316.170 37.060,315.940 36.400 C 315.586 35.384,315.313 35.200,314.161 35.200 C 313.412 35.200,312.800 35.011,312.800 34.781 C 312.800 34.550,312.246 34.128,311.568 33.843 C 310.891 33.559,310.120 32.892,309.856 32.363 C 309.468 31.586,309.121 31.426,308.059 31.533 C 307.008 31.639,306.699 31.502,306.529 30.850 C 306.406 30.379,305.760 29.851,305.000 29.600 C 304.266 29.358,303.594 28.819,303.480 28.383 C 303.332 27.817,302.929 27.600,302.029 27.600 C 301.088 27.600,300.671 27.355,300.327 26.600 C 299.848 25.547,299.666 25.471,297.902 25.588 C 297.055 25.643,296.713 25.424,296.411 24.630 C 296.007 23.566,295.763 23.465,293.902 23.588 C 293.055 23.643,292.713 23.424,292.411 22.630 C 292.122 21.868,291.731 21.598,290.910 21.594 C 289.603 21.587,289.037 21.258,288.683 20.300 C 288.489 19.774,287.973 19.600,286.603 19.600 C 285.038 19.600,284.728 19.462,284.409 18.623 C 284.097 17.803,283.729 17.626,282.119 17.523 C 280.349 17.410,280.190 17.313,280.071 16.280 C 279.947 15.194,279.888 15.168,278.175 15.425 C 276.473 15.680,275.199 14.647,275.847 13.538 C 275.931 13.394,274.796 13.304,273.325 13.338 C 270.783 13.397,270.639 13.351,270.402 12.400 C 270.165 11.447,270.037 11.407,267.670 11.539 C 265.192 11.677,265.184 11.675,264.741 10.404 C 264.322 9.200,264.218 9.146,262.849 9.423 C 259.805 10.037,258.400 9.645,258.400 8.181 C 258.400 7.229,258.340 7.212,255.326 7.305 C 252.347 7.397,252.244 7.369,252.002 6.400 C 251.755 5.415,251.700 5.402,248.257 5.539 C 243.725 5.719,242.800 5.485,242.800 4.160 L 242.800 3.136 238.863 3.415 C 234.150 3.749,233.200 3.532,233.200 2.118 L 233.200 1.090 229.300 1.438 C 222.303 2.063,214.800 1.611,214.800 0.566 C 214.800 0.088,212.492 0.000,200.000 0.000 C 187.757 0.000,185.200 0.094,185.200 0.546 M251.824 94.009 C 253.173 94.522,253.097 97.792,251.701 99.313 C 251.253 99.801,250.764 100.777,250.616 101.481 C 250.467 102.186,250.022 103.176,249.627 103.681 C 249.233 104.187,248.775 105.050,248.609 105.600 C 248.444 106.150,247.988 106.960,247.597 107.400 C 247.206 107.840,246.764 108.777,246.616 109.481 C 246.467 110.186,246.022 111.176,245.627 111.681 C 245.233 112.187,244.775 113.050,244.609 113.600 C 244.444 114.150,243.988 114.960,243.597 115.400 C 243.206 115.840,242.764 116.777,242.616 117.481 C 242.467 118.186,242.022 119.176,241.627 119.681 C 241.233 120.187,240.775 121.050,240.609 121.600 C 240.444 122.150,239.988 122.960,239.597 123.400 C 239.206 123.840,238.764 124.777,238.616 125.481 C 238.467 126.186,238.022 127.176,237.627 127.681 C 237.233 128.187,236.775 129.050,236.609 129.600 C 236.444 130.150,235.988 130.960,235.597 131.400 C 235.206 131.840,234.764 132.777,234.616 133.481 C 234.467 134.186,234.022 135.176,233.627 135.681 C 233.233 136.187,232.775 137.050,232.609 137.600 C 232.444 138.150,231.988 138.960,231.597 139.400 C 231.206 139.840,230.764 140.777,230.616 141.481 C 230.467 142.186,230.022 143.176,229.627 143.681 C 229.233 144.187,228.775 145.050,228.609 145.600 C 228.444 146.150,227.988 146.960,227.597 147.400 C 227.206 147.840,226.764 148.777,226.616 149.481 C 226.467 150.186,226.022 151.176,225.627 151.681 C 225.233 152.187,224.775 153.050,224.609 153.600 C 224.444 154.150,223.988 154.960,223.597 155.400 C 223.206 155.840,222.764 156.777,222.616 157.481 C 222.467 158.186,222.022 159.176,221.627 159.681 C 221.233 160.187,220.775 161.050,220.609 161.600 C 220.444 162.150,219.988 162.960,219.597 163.400 C 219.206 163.840,218.764 164.777,218.616 165.481 C 218.467 166.186,218.022 167.176,217.627 167.681 C 217.233 168.187,216.775 169.050,216.609 169.600 C 216.444 170.150,215.999 170.960,215.622 171.400 C 215.245 171.840,214.725 172.944,214.466 173.853 C 214.208 174.761,213.727 175.728,213.398 176.002 C 211.035 177.963,211.369 177.999,232.100 178.013 C 247.514 178.023,251.541 178.132,252.100 178.557 C 253.111 179.325,252.979 181.326,251.826 182.696 C 251.290 183.333,250.728 184.349,250.576 184.955 C 250.424 185.561,249.962 186.267,249.550 186.524 C 249.137 186.782,248.800 187.407,248.800 187.914 C 248.800 188.421,248.367 189.270,247.837 189.799 C 247.308 190.328,246.660 191.413,246.397 192.209 C 246.134 193.005,245.679 193.748,245.384 193.861 C 245.090 193.974,244.733 194.593,244.592 195.237 C 244.451 195.880,244.013 196.579,243.620 196.789 C 243.227 196.999,242.798 197.712,242.665 198.373 C 242.533 199.034,242.059 199.941,241.613 200.388 C 241.166 200.834,240.800 201.445,240.800 201.745 C 240.800 202.045,240.260 202.969,239.600 203.800 C 238.940 204.631,238.400 205.574,238.400 205.897 C 238.400 206.220,237.950 207.019,237.400 207.673 C 236.850 208.327,236.400 209.107,236.400 209.408 C 236.400 209.709,236.064 210.190,235.654 210.477 C 235.243 210.765,234.777 211.594,234.618 212.319 C 234.458 213.045,233.984 213.853,233.564 214.115 C 233.144 214.378,232.800 214.884,232.800 215.241 C 232.800 215.598,232.260 216.569,231.600 217.400 C 230.940 218.231,230.400 219.223,230.400 219.606 C 230.400 219.989,230.115 220.539,229.766 220.828 C 229.417 221.118,228.863 222.026,228.535 222.846 C 228.206 223.667,227.682 224.437,227.369 224.557 C 227.056 224.677,226.800 225.127,226.800 225.557 C 226.800 225.987,226.350 226.873,225.800 227.527 C 225.250 228.181,224.800 228.901,224.800 229.127 C 224.800 229.353,224.362 230.060,223.826 230.696 C 223.290 231.333,222.728 232.349,222.576 232.955 C 222.424 233.561,221.962 234.267,221.550 234.524 C 221.137 234.782,220.800 235.407,220.800 235.914 C 220.800 236.421,220.367 237.270,219.837 237.799 C 219.308 238.328,218.660 239.413,218.397 240.209 C 218.134 241.005,217.679 241.748,217.384 241.861 C 217.090 241.974,216.733 242.593,216.592 243.237 C 216.451 243.880,216.013 244.579,215.620 244.789 C 215.227 244.999,214.798 245.712,214.665 246.373 C 214.533 247.034,214.059 247.941,213.613 248.388 C 213.166 248.834,212.800 249.445,212.800 249.745 C 212.800 250.045,212.260 250.969,211.600 251.800 C 210.940 252.631,210.400 253.574,210.400 253.897 C 210.400 254.220,209.950 255.019,209.400 255.673 C 208.850 256.327,208.400 257.107,208.400 257.408 C 208.400 257.709,208.064 258.190,207.654 258.477 C 207.243 258.765,206.777 259.594,206.618 260.319 C 206.458 261.045,205.984 261.853,205.564 262.115 C 205.144 262.378,204.800 262.884,204.800 263.241 C 204.800 263.598,204.260 264.569,203.600 265.400 C 202.940 266.231,202.400 267.223,202.400 267.606 C 202.400 267.989,202.115 268.539,201.766 268.828 C 201.417 269.118,200.863 270.026,200.535 270.846 C 200.206 271.667,199.682 272.437,199.369 272.557 C 199.056 272.677,198.800 273.127,198.800 273.557 C 198.800 273.987,198.350 274.873,197.800 275.527 C 197.250 276.181,196.800 276.901,196.800 277.127 C 196.800 277.353,196.362 278.060,195.826 278.696 C 195.290 279.333,194.728 280.349,194.576 280.955 C 194.424 281.561,193.962 282.267,193.550 282.524 C 193.137 282.782,192.800 283.407,192.800 283.914 C 192.800 284.421,192.367 285.270,191.837 285.799 C 191.308 286.328,190.660 287.413,190.397 288.209 C 190.134 289.005,189.679 289.748,189.384 289.861 C 189.090 289.974,188.733 290.593,188.592 291.237 C 188.451 291.880,188.013 292.579,187.620 292.789 C 187.227 292.999,186.798 293.712,186.665 294.373 C 186.533 295.034,186.059 295.941,185.613 296.387 C 185.166 296.834,184.800 297.445,184.800 297.745 C 184.800 298.045,184.260 298.969,183.600 299.800 C 182.940 300.631,182.400 301.644,182.400 302.052 C 182.400 302.465,181.650 303.338,180.710 304.019 C 177.818 306.114,178.000 309.180,178.000 258.404 C 178.000 223.592,177.888 212.848,177.520 212.480 C 177.165 212.125,173.379 212.000,162.964 212.000 C 149.701 212.000,148.834 211.956,147.944 211.235 L 147.000 210.471 147.000 152.800 L 147.000 95.129 147.944 94.365 C 149.040 93.478,249.521 93.134,251.824 94.009 " stroke="none" fill="#633bb3" fill-rule="evenodd"></path><path id="path1" d="M148.598 96.900 C 148.479 97.395,148.430 122.910,148.490 153.600 L 148.600 209.400 163.489 209.600 C 178.325 209.799,178.382 209.803,179.289 210.711 L 180.200 211.622 180.406 256.311 C 180.519 280.890,180.658 301.090,180.715 301.200 C 180.771 301.310,181.145 300.680,181.545 299.800 C 181.946 298.920,182.572 297.953,182.937 297.651 C 183.301 297.349,183.600 296.876,183.600 296.599 C 183.600 296.036,186.209 291.572,186.742 291.224 C 186.930 291.101,187.304 290.326,187.572 289.503 C 187.840 288.680,188.272 287.870,188.530 287.703 C 188.789 287.536,189.326 286.770,189.724 286.000 C 190.122 285.230,190.969 283.700,191.606 282.600 C 192.243 281.500,193.040 280.027,193.376 279.327 C 193.713 278.627,194.186 277.933,194.427 277.783 C 194.669 277.634,195.222 276.767,195.658 275.856 C 196.826 273.411,197.849 271.631,198.523 270.872 C 198.852 270.503,199.418 269.570,199.782 268.800 C 200.730 266.792,201.808 264.912,202.447 264.151 C 203.064 263.417,204.401 260.980,205.439 258.700 C 205.814 257.875,206.266 257.200,206.442 257.200 C 206.618 257.200,207.137 256.435,207.594 255.500 C 209.458 251.689,210.343 250.146,210.955 249.637 C 211.310 249.343,211.600 248.876,211.600 248.599 C 211.600 248.036,214.209 243.572,214.742 243.224 C 214.930 243.101,215.304 242.326,215.572 241.503 C 215.840 240.680,216.272 239.870,216.530 239.703 C 216.789 239.536,217.326 238.770,217.724 238.000 C 218.122 237.230,218.969 235.700,219.606 234.600 C 220.243 233.500,221.040 232.027,221.376 231.327 C 221.713 230.627,222.186 229.933,222.427 229.783 C 222.669 229.634,223.222 228.767,223.658 227.856 C 224.826 225.411,225.849 223.631,226.523 222.872 C 226.852 222.503,227.418 221.570,227.782 220.800 C 228.730 218.792,229.808 216.912,230.447 216.151 C 231.064 215.417,232.401 212.980,233.439 210.700 C 233.814 209.875,234.266 209.200,234.442 209.200 C 234.618 209.200,235.137 208.435,235.594 207.500 C 237.458 203.689,238.343 202.146,238.955 201.637 C 239.310 201.343,239.600 200.876,239.600 200.599 C 239.600 200.036,242.209 195.572,242.742 195.224 C 242.930 195.101,243.304 194.326,243.572 193.503 C 243.840 192.680,244.272 191.870,244.530 191.703 C 244.789 191.536,245.326 190.770,245.724 190.000 C 246.122 189.230,246.969 187.700,247.606 186.600 C 248.243 185.500,249.032 184.046,249.359 183.368 C 249.686 182.691,250.243 181.897,250.596 181.603 C 251.888 180.531,249.996 180.412,231.400 180.400 C 211.970 180.388,210.358 180.260,210.748 178.767 C 211.638 175.364,212.035 174.221,212.524 173.660 C 212.840 173.297,213.320 172.312,213.590 171.472 C 213.860 170.632,214.328 169.849,214.629 169.733 C 214.931 169.618,215.293 168.909,215.434 168.158 C 215.575 167.407,216.004 166.390,216.387 165.897 C 216.770 165.403,217.308 164.312,217.582 163.472 C 217.856 162.632,218.328 161.849,218.629 161.733 C 218.931 161.618,219.293 160.909,219.434 160.158 C 219.575 159.407,220.004 158.390,220.387 157.897 C 220.770 157.403,221.308 156.312,221.582 155.472 C 221.856 154.632,222.328 153.849,222.629 153.733 C 222.931 153.618,223.293 152.909,223.434 152.158 C 223.575 151.407,224.004 150.390,224.387 149.897 C 224.770 149.403,225.308 148.312,225.582 147.472 C 225.856 146.632,226.328 145.849,226.629 145.733 C 226.931 145.618,227.293 144.909,227.434 144.158 C 227.575 143.407,228.004 142.390,228.387 141.897 C 228.770 141.403,229.308 140.312,229.582 139.472 C 229.856 138.632,230.328 137.849,230.629 137.733 C 230.931 137.618,231.293 136.909,231.434 136.158 C 231.575 135.407,232.004 134.390,232.387 133.897 C 232.770 133.403,233.308 132.312,233.582 131.472 C 233.856 130.632,234.328 129.849,234.629 129.733 C 234.931 129.618,235.293 128.909,235.434 128.158 C 235.575 127.407,236.004 126.390,236.387 125.897 C 236.770 125.403,237.308 124.312,237.582 123.472 C 237.856 122.632,238.328 121.849,238.629 121.733 C 238.931 121.618,239.293 120.909,239.434 120.158 C 239.575 119.407,240.004 118.390,240.387 117.897 C 240.770 117.403,241.308 116.312,241.582 115.472 C 241.856 114.632,242.328 113.849,242.629 113.733 C 242.931 113.618,243.293 112.909,243.434 112.158 C 243.575 111.407,244.004 110.390,244.387 109.897 C 244.770 109.403,245.308 108.312,245.582 107.472 C 245.856 106.632,246.328 105.849,246.629 105.733 C 246.931 105.618,247.293 104.909,247.434 104.158 C 247.575 103.407,248.004 102.390,248.387 101.897 C 248.770 101.403,249.308 100.312,249.582 99.472 C 249.856 98.632,250.332 97.847,250.640 97.729 C 251.504 97.398,251.302 96.521,250.300 96.252 C 249.805 96.119,226.768 96.008,199.108 96.005 L 148.815 96.000 148.598 96.900 " stroke="none" fill="#ebebeb" fill-rule="evenodd"></path><path id="path2" d="M148.210 95.980 C 147.272 97.794,147.284 208.571,148.223 209.911 L 148.845 210.800 163.412 210.800 L 177.979 210.800 178.590 211.980 C 179.126 213.017,179.200 218.517,179.200 257.300 C 179.200 291.098,179.312 301.552,179.680 301.920 C 180.543 302.783,181.170 302.430,182.202 300.500 C 182.761 299.455,183.668 297.880,184.218 297.000 C 184.768 296.120,185.430 294.950,185.689 294.400 C 185.949 293.850,186.529 292.860,186.980 292.200 C 187.833 290.949,188.790 289.304,189.654 287.600 C 189.933 287.050,190.522 286.070,190.964 285.421 C 191.405 284.773,192.110 283.603,192.530 282.821 C 194.090 279.917,194.889 278.513,196.983 275.000 C 198.163 273.020,199.887 270.050,200.814 268.400 C 201.741 266.750,202.725 265.130,203.000 264.800 C 203.275 264.470,204.158 262.949,204.961 261.420 C 205.764 259.891,206.668 258.361,206.969 258.020 C 207.270 257.679,207.851 256.749,208.258 255.954 C 209.247 254.025,210.988 250.968,212.218 249.000 C 212.768 248.120,213.430 246.950,213.689 246.400 C 213.949 245.850,214.529 244.860,214.980 244.200 C 215.833 242.949,216.790 241.304,217.654 239.600 C 217.933 239.050,218.522 238.070,218.964 237.421 C 219.405 236.773,220.110 235.603,220.530 234.821 C 222.090 231.917,222.889 230.513,224.983 227.000 C 226.163 225.020,227.887 222.050,228.814 220.400 C 229.741 218.750,230.725 217.130,231.000 216.800 C 231.275 216.470,232.158 214.949,232.961 213.420 C 233.764 211.891,234.668 210.361,234.969 210.020 C 235.270 209.679,235.851 208.749,236.258 207.954 C 237.247 206.025,238.988 202.968,240.218 201.000 C 240.768 200.120,241.430 198.950,241.689 198.400 C 241.949 197.850,242.529 196.860,242.980 196.200 C 243.833 194.949,244.790 193.304,245.654 191.600 C 245.933 191.050,246.522 190.070,246.964 189.421 C 247.405 188.773,248.053 187.693,248.402 187.021 C 249.333 185.235,250.057 183.989,251.147 182.295 C 253.177 179.142,253.546 179.200,231.581 179.200 C 211.055 179.200,211.979 179.291,212.010 177.267 C 212.019 176.681,214.196 172.030,215.506 169.800 C 215.764 169.360,216.609 167.650,217.384 166.000 C 218.159 164.350,219.059 162.550,219.384 162.000 C 219.709 161.450,220.609 159.650,221.384 158.000 C 222.159 156.350,223.059 154.550,223.384 154.000 C 223.709 153.450,224.609 151.650,225.384 150.000 C 226.159 148.350,227.059 146.550,227.384 146.000 C 227.709 145.450,228.609 143.650,229.384 142.000 C 230.159 140.350,231.059 138.550,231.384 138.000 C 231.709 137.450,232.609 135.650,233.384 134.000 C 234.159 132.350,235.059 130.550,235.384 130.000 C 235.709 129.450,236.609 127.650,237.384 126.000 C 238.159 124.350,239.059 122.550,239.384 122.000 C 239.709 121.450,240.609 119.650,241.384 118.000 C 242.159 116.350,243.059 114.550,243.384 114.000 C 243.709 113.450,244.609 111.650,245.384 110.000 C 246.159 108.350,247.059 106.550,247.384 106.000 C 247.709 105.450,248.609 103.650,249.384 102.000 C 250.159 100.350,251.099 98.517,251.473 97.927 C 252.030 97.047,252.068 96.668,251.685 95.827 L 251.217 94.800 200.019 94.800 L 148.821 94.800 148.210 95.980 M250.300 96.252 C 251.302 96.521,251.504 97.398,250.640 97.729 C 250.332 97.847,249.856 98.632,249.582 99.472 C 249.308 100.312,248.770 101.403,248.387 101.897 C 248.004 102.390,247.575 103.407,247.434 104.158 C 247.293 104.909,246.931 105.618,246.629 105.733 C 246.328 105.849,245.856 106.632,245.582 107.472 C 245.308 108.312,244.770 109.403,244.387 109.897 C 244.004 110.390,243.575 111.407,243.434 112.158 C 243.293 112.909,242.931 113.618,242.629 113.733 C 242.328 113.849,241.856 114.632,241.582 115.472 C 241.308 116.312,240.770 117.403,240.387 117.897 C 240.004 118.390,239.575 119.407,239.434 120.158 C 239.293 120.909,238.931 121.618,238.629 121.733 C 238.328 121.849,237.856 122.632,237.582 123.472 C 237.308 124.312,236.770 125.403,236.387 125.897 C 236.004 126.390,235.575 127.407,235.434 128.158 C 235.293 128.909,234.931 129.618,234.629 129.733 C 234.328 129.849,233.856 130.632,233.582 131.472 C 233.308 132.312,232.770 133.403,232.387 133.897 C 232.004 134.390,231.575 135.407,231.434 136.158 C 231.293 136.909,230.931 137.618,230.629 137.733 C 230.328 137.849,229.856 138.632,229.582 139.472 C 229.308 140.312,228.770 141.403,228.387 141.897 C 228.004 142.390,227.575 143.407,227.434 144.158 C 227.293 144.909,226.931 145.618,226.629 145.733 C 226.328 145.849,225.856 146.632,225.582 147.472 C 225.308 148.312,224.770 149.403,224.387 149.897 C 224.004 150.390,223.575 151.407,223.434 152.158 C 223.293 152.909,222.931 153.618,222.629 153.733 C 222.328 153.849,221.856 154.632,221.582 155.472 C 221.308 156.312,220.770 157.403,220.387 157.897 C 220.004 158.390,219.575 159.407,219.434 160.158 C 219.293 160.909,218.931 161.618,218.629 161.733 C 218.328 161.849,217.856 162.632,217.582 163.472 C 217.308 164.312,216.770 165.403,216.387 165.897 C 216.004 166.390,215.575 167.407,215.434 168.158 C 215.293 168.909,214.931 169.618,214.629 169.733 C 214.328 169.849,213.860 170.632,213.590 171.472 C 213.320 172.312,212.840 173.297,212.524 173.660 C 212.035 174.221,211.638 175.364,210.748 178.767 C 210.358 180.260,211.970 180.388,231.400 180.400 C 249.996 180.412,251.888 180.531,250.596 181.603 C 250.243 181.897,249.686 182.691,249.359 183.368 C 249.032 184.046,248.243 185.500,247.606 186.600 C 246.969 187.700,246.122 189.230,245.724 190.000 C 245.326 190.770,244.789 191.536,244.530 191.703 C 244.272 191.870,243.840 192.680,243.572 193.503 C 243.304 194.326,242.930 195.101,242.742 195.224 C 242.209 195.572,239.600 200.036,239.600 200.599 C 239.600 200.876,239.310 201.343,238.955 201.637 C 238.343 202.146,237.458 203.689,235.594 207.500 C 235.137 208.435,234.618 209.200,234.442 209.200 C 234.266 209.200,233.814 209.875,233.439 210.700 C 232.401 212.980,231.064 215.417,230.447 216.151 C 229.808 216.912,228.730 218.792,227.782 220.800 C 227.418 221.570,226.852 222.503,226.523 222.872 C 225.849 223.631,224.826 225.411,223.658 227.856 C 223.222 228.767,222.669 229.634,222.427 229.783 C 222.186 229.933,221.713 230.627,221.376 231.327 C 221.040 232.027,220.243 233.500,219.606 234.600 C 218.969 235.700,218.122 237.230,217.724 238.000 C 217.326 238.770,216.789 239.536,216.530 239.703 C 216.272 239.870,215.840 240.680,215.572 241.503 C 215.304 242.326,214.930 243.101,214.742 243.224 C 214.209 243.572,211.600 248.036,211.600 248.599 C 211.600 248.876,211.310 249.343,210.955 249.637 C 210.343 250.146,209.458 251.689,207.594 255.500 C 207.137 256.435,206.618 257.200,206.442 257.200 C 206.266 257.200,205.814 257.875,205.439 258.700 C 204.401 260.980,203.064 263.417,202.447 264.151 C 201.808 264.912,200.730 266.792,199.782 268.800 C 199.418 269.570,198.852 270.503,198.523 270.872 C 197.849 271.631,196.826 273.411,195.658 275.856 C 195.222 276.767,194.669 277.634,194.427 277.783 C 194.186 277.933,193.713 278.627,193.376 279.327 C 193.040 280.027,192.243 281.500,191.606 282.600 C 190.969 283.700,190.122 285.230,189.724 286.000 C 189.326 286.770,188.789 287.536,188.530 287.703 C 188.272 287.870,187.840 288.680,187.572 289.503 C 187.304 290.326,186.930 291.101,186.742 291.224 C 186.209 291.572,183.600 296.036,183.600 296.599 C 183.600 296.876,183.301 297.349,182.937 297.651 C 182.572 297.953,181.946 298.920,181.545 299.800 C 181.145 300.680,180.771 301.310,180.715 301.200 C 180.658 301.090,180.519 280.890,180.406 256.311 L 180.200 211.622 179.289 210.711 C 178.382 209.803,178.325 209.799,163.489 209.600 L 148.600 209.400 148.490 153.600 C 148.430 122.910,148.479 97.395,148.598 96.900 L 148.815 96.000 199.108 96.005 C 226.768 96.008,249.805 96.119,250.300 96.252 " stroke="none" fill="#b4a4d4" fill-rule="evenodd"></path><path id="path3" d="M147.944 94.365 L 147.000 95.129 147.000 152.800 L 147.000 210.471 147.944 211.235 C 148.834 211.956,149.701 212.000,162.964 212.000 C 173.379 212.000,177.165 212.125,177.520 212.480 C 177.888 212.848,178.000 223.592,178.000 258.404 C 178.000 309.180,177.818 306.114,180.710 304.019 C 181.650 303.338,182.400 302.465,182.400 302.052 C 182.400 301.644,182.940 300.631,183.600 299.800 C 184.260 298.969,184.800 298.045,184.800 297.745 C 184.800 297.445,185.166 296.834,185.613 296.387 C 186.059 295.941,186.533 295.034,186.665 294.373 C 186.798 293.712,187.227 292.999,187.620 292.789 C 188.013 292.579,188.451 291.880,188.592 291.237 C 188.733 290.593,189.090 289.974,189.384 289.861 C 189.679 289.748,190.134 289.005,190.397 288.209 C 190.660 287.413,191.308 286.328,191.837 285.799 C 192.367 285.270,192.800 284.421,192.800 283.914 C 192.800 283.407,193.137 282.782,193.550 282.524 C 193.962 282.267,194.424 281.561,194.576 280.955 C 194.728 280.349,195.290 279.333,195.826 278.696 C 196.362 278.060,196.800 277.353,196.800 277.127 C 196.800 276.901,197.250 276.181,197.800 275.527 C 198.350 274.873,198.800 273.987,198.800 273.557 C 198.800 273.127,199.056 272.677,199.369 272.557 C 199.682 272.437,200.206 271.667,200.535 270.846 C 200.863 270.026,201.417 269.118,201.766 268.828 C 202.115 268.539,202.400 267.989,202.400 267.606 C 202.400 267.223,202.940 266.231,203.600 265.400 C 204.260 264.569,204.800 263.598,204.800 263.241 C 204.800 262.884,205.144 262.378,205.564 262.115 C 205.984 261.853,206.458 261.045,206.618 260.319 C 206.777 259.594,207.243 258.765,207.654 258.477 C 208.064 258.190,208.400 257.709,208.400 257.408 C 208.400 257.107,208.850 256.327,209.400 255.673 C 209.950 255.019,210.400 254.220,210.400 253.897 C 210.400 253.574,210.940 252.631,211.600 251.800 C 212.260 250.969,212.800 250.045,212.800 249.745 C 212.800 249.445,213.166 248.834,213.613 248.388 C 214.059 247.941,214.533 247.034,214.665 246.373 C 214.798 245.712,215.227 244.999,215.620 244.789 C 216.013 244.579,216.451 243.880,216.592 243.237 C 216.733 242.593,217.090 241.974,217.384 241.861 C 217.679 241.748,218.134 241.005,218.397 240.209 C 218.660 239.413,219.308 238.328,219.837 237.799 C 220.367 237.270,220.800 236.421,220.800 235.914 C 220.800 235.407,221.137 234.782,221.550 234.524 C 221.962 234.267,222.424 233.561,222.576 232.955 C 222.728 232.349,223.290 231.333,223.826 230.696 C 224.362 230.060,224.800 229.353,224.800 229.127 C 224.800 228.901,225.250 228.181,225.800 227.527 C 226.350 226.873,226.800 225.987,226.800 225.557 C 226.800 225.127,227.056 224.677,227.369 224.557 C 227.682 224.437,228.206 223.667,228.535 222.846 C 228.863 222.026,229.417 221.118,229.766 220.828 C 230.115 220.539,230.400 219.989,230.400 219.606 C 230.400 219.223,230.940 218.231,231.600 217.400 C 232.260 216.569,232.800 215.598,232.800 215.241 C 232.800 214.884,233.144 214.378,233.564 214.115 C 233.984 213.853,234.458 213.045,234.618 212.319 C 234.777 211.594,235.243 210.765,235.654 210.477 C 236.064 210.190,236.400 209.709,236.400 209.408 C 236.400 209.107,236.850 208.327,237.400 207.673 C 237.950 207.019,238.400 206.220,238.400 205.897 C 238.400 205.574,238.940 204.631,239.600 203.800 C 240.260 202.969,240.800 202.045,240.800 201.745 C 240.800 201.445,241.166 200.834,241.613 200.388 C 242.059 199.941,242.533 199.034,242.665 198.373 C 242.798 197.712,243.227 196.999,243.620 196.789 C 244.013 196.579,244.451 195.880,244.592 195.237 C 244.733 194.593,245.090 193.974,245.384 193.861 C 245.679 193.748,246.134 193.005,246.397 192.209 C 246.660 191.413,247.308 190.328,247.837 189.799 C 248.367 189.270,248.800 188.421,248.800 187.914 C 248.800 187.407,249.137 186.782,249.550 186.524 C 249.962 186.267,250.424 185.561,250.576 184.955 C 250.728 184.349,251.290 183.333,251.826 182.696 C 252.979 181.326,253.111 179.325,252.100 178.557 C 251.541 178.132,247.514 178.023,232.100 178.013 C 211.369 177.999,211.035 177.963,213.398 176.002 C 213.727 175.728,214.208 174.761,214.466 173.853 C 214.725 172.944,215.245 171.840,215.622 171.400 C 215.999 170.960,216.444 170.150,216.609 169.600 C 216.775 169.050,217.233 168.187,217.627 167.681 C 218.022 167.176,218.467 166.186,218.616 165.481 C 218.764 164.777,219.206 163.840,219.597 163.400 C 219.988 162.960,220.444 162.150,220.609 161.600 C 220.775 161.050,221.233 160.187,221.627 159.681 C 222.022 159.176,222.467 158.186,222.616 157.481 C 222.764 156.777,223.206 155.840,223.597 155.400 C 223.988 154.960,224.444 154.150,224.609 153.600 C 224.775 153.050,225.233 152.187,225.627 151.681 C 226.022 151.176,226.467 150.186,226.616 149.481 C 226.764 148.777,227.206 147.840,227.597 147.400 C 227.988 146.960,228.444 146.150,228.609 145.600 C 228.775 145.050,229.233 144.187,229.627 143.681 C 230.022 143.176,230.467 142.186,230.616 141.481 C 230.764 140.777,231.206 139.840,231.597 139.400 C 231.988 138.960,232.444 138.150,232.609 137.600 C 232.775 137.050,233.233 136.187,233.627 135.681 C 234.022 135.176,234.467 134.186,234.616 133.481 C 234.764 132.777,235.206 131.840,235.597 131.400 C 235.988 130.960,236.444 130.150,236.609 129.600 C 236.775 129.050,237.233 128.187,237.627 127.681 C 238.022 127.176,238.467 126.186,238.616 125.481 C 238.764 124.777,239.206 123.840,239.597 123.400 C 239.988 122.960,240.444 122.150,240.609 121.600 C 240.775 121.050,241.233 120.187,241.627 119.681 C 242.022 119.176,242.467 118.186,242.616 117.481 C 242.764 116.777,243.206 115.840,243.597 115.400 C 243.988 114.960,244.444 114.150,244.609 113.600 C 244.775 113.050,245.233 112.187,245.627 111.681 C 246.022 111.176,246.467 110.186,246.616 109.481 C 246.764 108.777,247.206 107.840,247.597 107.400 C 247.988 106.960,248.444 106.150,248.609 105.600 C 248.775 105.050,249.233 104.187,249.627 103.681 C 250.022 103.176,250.467 102.186,250.616 101.481 C 250.764 100.777,251.253 99.801,251.701 99.313 C 253.097 97.792,253.173 94.522,251.824 94.009 C 249.521 93.134,149.040 93.478,147.944 94.365 M251.685 95.827 C 252.068 96.668,252.030 97.047,251.473 97.927 C 251.099 98.517,250.159 100.350,249.384 102.000 C 248.609 103.650,247.709 105.450,247.384 106.000 C 247.059 106.550,246.159 108.350,245.384 110.000 C 244.609 111.650,243.709 113.450,243.384 114.000 C 243.059 114.550,242.159 116.350,241.384 118.000 C 240.609 119.650,239.709 121.450,239.384 122.000 C 239.059 122.550,238.159 124.350,237.384 126.000 C 236.609 127.650,235.709 129.450,235.384 130.000 C 235.059 130.550,234.159 132.350,233.384 134.000 C 232.609 135.650,231.709 137.450,231.384 138.000 C 231.059 138.550,230.159 140.350,229.384 142.000 C 228.609 143.650,227.709 145.450,227.384 146.000 C 227.059 146.550,226.159 148.350,225.384 150.000 C 224.609 151.650,223.709 153.450,223.384 154.000 C 223.059 154.550,222.159 156.350,221.384 158.000 C 220.609 159.650,219.709 161.450,219.384 162.000 C 219.059 162.550,218.159 164.350,217.384 166.000 C 216.609 167.650,215.764 169.360,215.506 169.800 C 214.196 172.030,212.019 176.681,212.010 177.267 C 211.979 179.291,211.055 179.200,231.581 179.200 C 253.546 179.200,253.177 179.142,251.147 182.295 C 250.057 183.989,249.333 185.235,248.402 187.021 C 248.053 187.693,247.405 188.773,246.964 189.421 C 246.522 190.070,245.933 191.050,245.654 191.600 C 244.790 193.304,243.833 194.949,242.980 196.200 C 242.529 196.860,241.949 197.850,241.689 198.400 C 241.430 198.950,240.768 200.120,240.218 201.000 C 238.988 202.968,237.247 206.025,236.258 207.954 C 235.851 208.749,235.270 209.679,234.969 210.020 C 234.668 210.361,233.764 211.891,232.961 213.420 C 232.158 214.949,231.275 216.470,231.000 216.800 C 230.725 217.130,229.741 218.750,228.814 220.400 C 227.887 222.050,226.163 225.020,224.983 227.000 C 222.889 230.513,222.090 231.917,220.530 234.821 C 220.110 235.603,219.405 236.773,218.964 237.421 C 218.522 238.070,217.933 239.050,217.654 239.600 C 216.790 241.304,215.833 242.949,214.980 244.200 C 214.529 244.860,213.949 245.850,213.689 246.400 C 213.430 246.950,212.768 248.120,212.218 249.000 C 210.988 250.968,209.247 254.025,208.258 255.954 C 207.851 256.749,207.270 257.679,206.969 258.020 C 206.668 258.361,205.764 259.891,204.961 261.420 C 204.158 262.949,203.275 264.470,203.000 264.800 C 202.725 265.130,201.741 266.750,200.814 268.400 C 199.887 270.050,198.163 273.020,196.983 275.000 C 194.889 278.513,194.090 279.917,192.530 282.821 C 192.110 283.603,191.405 284.773,190.964 285.421 C 190.522 286.070,189.933 287.050,189.654 287.600 C 188.790 289.304,187.833 290.949,186.980 292.200 C 186.529 292.860,185.949 293.850,185.689 294.400 C 185.430 294.950,184.768 296.120,184.218 297.000 C 183.668 297.880,182.761 299.455,182.202 300.500 C 181.170 302.430,180.543 302.783,179.680 301.920 C 179.312 301.552,179.200 291.098,179.200 257.300 C 179.200 218.517,179.126 213.017,178.590 211.980 L 177.979 210.800 163.412 210.800 L 148.845 210.800 148.223 209.911 C 147.284 208.571,147.272 97.794,148.210 95.980 L 148.821 94.800 200.019 94.800 L 251.217 94.800 251.685 95.827 " stroke="none" fill="#9c82cc" fill-rule="evenodd"></path><path id="path4" d="M169.200 0.539 C 169.200 0.912,170.242 1.225,172.570 1.550 C 176.723 2.131,185.200 1.454,185.200 0.541 C 185.200 0.104,183.660 0.000,177.200 0.000 C 170.755 0.000,169.200 0.105,169.200 0.539 M214.800 0.566 C 214.800 0.977,215.650 1.222,217.900 1.462 C 223.956 2.107,230.800 1.635,230.800 0.571 C 230.800 0.095,229.465 0.000,222.800 0.000 C 216.170 0.000,214.800 0.097,214.800 0.566 M159.200 2.168 C 159.200 2.930,159.470 3.196,160.466 3.414 C 163.359 4.050,167.402 3.504,167.028 2.529 C 166.903 2.202,166.800 1.769,166.800 1.567 C 166.800 1.365,165.090 1.200,163.000 1.200 C 159.247 1.200,159.200 1.212,159.200 2.168 M233.200 2.157 C 233.200 3.307,233.847 3.600,236.383 3.600 C 239.673 3.600,240.800 3.230,240.800 2.150 C 240.800 1.217,240.733 1.200,237.000 1.200 C 233.259 1.200,233.200 1.215,233.200 2.157 M149.200 4.165 C 149.200 4.987,149.452 5.174,150.900 5.427 C 154.627 6.079,157.200 5.567,157.200 4.173 C 157.200 3.207,157.170 3.200,153.200 3.200 C 149.239 3.200,149.200 3.209,149.200 4.165 M242.800 4.157 C 242.800 5.303,243.450 5.601,245.933 5.596 C 249.504 5.587,250.800 5.202,250.800 4.148 C 250.800 3.214,250.741 3.200,246.800 3.200 C 242.848 3.200,242.800 3.211,242.800 4.157 M143.200 6.157 C 143.200 8.292,148.069 8.238,148.295 6.100 C 148.385 5.249,148.248 5.200,145.795 5.200 C 143.325 5.200,143.200 5.246,143.200 6.157 M251.968 6.300 C 252.262 7.380,256.125 8.009,257.012 7.121 C 258.015 6.119,256.674 5.200,254.208 5.200 L 251.669 5.200 251.968 6.300 M135.200 8.200 C 135.200 9.135,135.068 9.200,133.173 9.200 C 131.199 9.200,131.150 9.228,131.273 10.300 C 131.472 12.029,135.200 12.117,135.200 10.392 C 135.200 9.914,135.478 9.590,135.900 9.574 C 136.285 9.559,137.680 9.514,139.000 9.474 C 141.300 9.403,141.405 9.354,141.527 8.300 L 141.653 7.200 138.427 7.200 C 135.252 7.200,135.200 7.216,135.200 8.200 M258.400 8.160 C 258.400 9.646,259.789 10.040,262.849 9.423 C 264.211 9.148,264.323 9.204,264.728 10.365 C 265.108 11.455,265.337 11.599,266.679 11.594 C 270.065 11.580,270.285 9.475,266.921 9.280 C 265.137 9.177,264.833 9.038,264.725 8.280 C 264.517 6.819,258.400 6.702,258.400 8.160 M125.200 12.421 C 125.200 14.215,129.158 14.108,129.638 12.300 L 129.931 11.200 127.565 11.200 L 125.200 11.200 125.200 12.421 M270.356 12.282 C 270.847 14.132,275.389 14.136,275.126 12.286 C 275.014 11.496,274.732 11.387,272.530 11.282 L 270.059 11.163 270.356 12.282 M119.829 13.829 C 119.483 14.174,119.200 14.624,119.200 14.829 C 119.200 15.033,118.300 15.200,117.200 15.200 C 115.333 15.200,115.200 15.267,115.200 16.200 C 115.200 17.133,115.067 17.200,113.200 17.200 C 111.333 17.200,111.200 17.267,111.200 18.200 C 111.200 19.133,111.067 19.200,109.200 19.200 C 107.333 19.200,107.200 19.267,107.200 20.200 C 107.200 21.133,107.067 21.200,105.200 21.200 C 103.333 21.200,103.200 21.267,103.200 22.200 C 103.200 23.133,103.067 23.200,101.200 23.200 C 99.333 23.200,99.200 23.267,99.200 24.200 C 99.200 24.950,98.989 25.200,98.358 25.200 C 97.894 25.200,97.161 25.650,96.729 26.200 C 96.163 26.919,95.557 27.200,94.571 27.200 C 93.384 27.200,93.200 27.331,93.200 28.177 C 93.200 29.040,93.002 29.168,91.500 29.277 C 90.187 29.372,89.710 29.605,89.405 30.300 C 89.163 30.852,88.660 31.200,88.105 31.200 C 87.412 31.200,87.200 31.429,87.200 32.178 C 87.200 33.061,87.015 33.168,85.300 33.278 C 83.679 33.382,83.381 33.532,83.272 34.300 C 83.180 34.951,82.876 35.200,82.172 35.200 C 81.402 35.200,81.200 35.408,81.200 36.200 C 81.200 37.000,81.000 37.200,80.200 37.200 C 79.356 37.200,79.200 37.387,79.200 38.400 C 79.200 39.860,81.114 40.217,81.478 38.825 C 81.589 38.399,82.218 37.863,82.875 37.634 C 83.533 37.405,84.164 36.858,84.279 36.418 C 84.416 35.895,84.955 35.532,85.844 35.365 C 86.626 35.219,87.200 34.872,87.200 34.545 C 87.200 34.234,87.741 33.872,88.402 33.740 C 89.165 33.587,89.788 33.115,90.105 32.450 C 90.470 31.685,90.964 31.366,91.926 31.273 C 92.652 31.203,93.341 30.897,93.458 30.592 C 93.575 30.288,94.274 29.840,95.011 29.597 C 95.909 29.300,96.391 28.865,96.475 28.277 C 96.581 27.534,96.817 27.419,98.025 27.524 C 99.225 27.629,99.523 27.487,99.916 26.624 C 100.289 25.806,100.668 25.600,101.801 25.600 C 102.946 25.600,103.293 25.407,103.600 24.600 C 103.892 23.833,104.266 23.600,105.209 23.600 C 106.006 23.600,106.764 23.249,107.365 22.600 C 107.875 22.050,108.721 21.597,109.246 21.594 C 110.401 21.586,110.974 21.229,111.317 20.300 C 111.504 19.793,112.016 19.600,113.178 19.600 C 114.438 19.600,114.919 19.390,115.423 18.621 C 115.925 17.855,116.470 17.615,117.916 17.521 C 119.513 17.417,119.801 17.263,120.012 16.400 C 120.212 15.582,120.469 15.419,121.428 15.503 C 123.487 15.685,124.400 15.282,124.400 14.192 C 124.400 12.970,120.961 12.696,119.829 13.829 M275.884 13.478 C 275.461 14.194,276.394 15.600,277.287 15.594 C 279.713 15.578,279.936 13.479,277.534 13.278 C 276.731 13.211,275.989 13.301,275.884 13.478 M280.073 16.300 C 280.190 17.309,280.359 17.410,282.119 17.523 C 283.729 17.626,284.097 17.803,284.409 18.623 C 284.728 19.462,285.038 19.600,286.603 19.600 C 287.973 19.600,288.489 19.774,288.683 20.300 C 289.037 21.258,289.603 21.587,290.910 21.594 C 291.731 21.598,292.122 21.868,292.411 22.630 C 292.713 23.424,293.055 23.643,293.902 23.588 C 295.763 23.465,296.007 23.566,296.411 24.630 C 296.713 25.424,297.055 25.643,297.902 25.588 C 299.666 25.471,299.848 25.547,300.327 26.600 C 300.671 27.355,301.088 27.600,302.029 27.600 C 302.929 27.600,303.332 27.817,303.480 28.383 C 303.594 28.819,304.266 29.358,305.000 29.600 C 305.760 29.851,306.406 30.379,306.529 30.850 C 306.699 31.502,307.008 31.639,308.059 31.533 C 309.121 31.426,309.468 31.586,309.856 32.363 C 310.120 32.892,310.891 33.559,311.568 33.843 C 312.246 34.128,312.800 34.550,312.800 34.781 C 312.800 35.011,313.412 35.200,314.161 35.200 C 315.313 35.200,315.586 35.384,315.940 36.400 C 316.170 37.060,316.634 37.600,316.970 37.600 C 317.306 37.600,317.876 38.050,318.237 38.600 C 318.597 39.150,319.131 39.600,319.423 39.600 C 319.716 39.600,320.198 39.947,320.495 40.372 C 320.793 40.796,321.563 41.276,322.207 41.437 C 323.315 41.716,326.000 44.128,326.000 44.846 C 326.000 45.029,326.518 45.447,327.152 45.775 C 327.785 46.102,328.409 46.647,328.539 46.985 C 328.669 47.323,329.055 47.600,329.397 47.600 C 329.740 47.600,330.191 48.050,330.400 48.600 C 330.653 49.266,331.087 49.600,331.699 49.600 C 332.752 49.600,335.600 51.789,335.600 52.598 C 335.600 52.895,336.221 53.343,336.981 53.594 C 337.740 53.844,338.473 54.398,338.608 54.825 C 338.743 55.251,339.116 55.600,339.437 55.600 C 339.757 55.600,340.198 56.067,340.415 56.639 C 340.632 57.210,341.167 57.771,341.605 57.885 C 342.042 58.000,342.400 58.347,342.400 58.657 C 342.400 58.966,342.861 59.395,343.424 59.609 C 343.987 59.823,344.341 60.172,344.209 60.385 C 344.078 60.597,344.355 61.119,344.825 61.545 C 345.295 61.971,345.845 62.473,346.047 62.660 C 346.879 63.432,348.788 65.821,348.794 66.100 C 348.797 66.265,349.261 66.400,349.824 66.400 C 351.249 66.400,351.156 63.479,349.725 63.275 C 349.179 63.198,348.802 62.821,348.725 62.275 C 348.646 61.721,348.270 61.353,347.700 61.272 C 347.049 61.180,346.800 60.876,346.800 60.172 C 346.800 59.402,346.592 59.200,345.800 59.200 C 345.000 59.200,344.800 59.000,344.800 58.200 C 344.800 57.400,344.600 57.200,343.800 57.200 C 343.000 57.200,342.800 57.000,342.800 56.200 C 342.800 55.408,342.598 55.200,341.828 55.200 C 341.124 55.200,340.820 54.951,340.728 54.300 C 340.646 53.722,340.278 53.354,339.700 53.272 C 339.049 53.180,338.800 52.876,338.800 52.172 C 338.800 51.446,338.584 51.200,337.946 51.200 C 337.076 51.200,335.338 49.645,334.594 48.200 C 334.299 47.629,333.697 47.365,332.491 47.277 C 330.998 47.168,330.800 47.039,330.800 46.177 C 330.800 45.402,330.594 45.200,329.800 45.200 C 329.000 45.200,328.800 45.000,328.800 44.200 C 328.800 43.400,328.600 43.200,327.800 43.200 C 327.000 43.200,326.800 43.000,326.800 42.200 C 326.800 41.408,326.598 41.200,325.828 41.200 C 325.124 41.200,324.820 40.951,324.728 40.300 C 324.619 39.532,324.321 39.382,322.700 39.278 C 320.985 39.168,320.800 39.061,320.800 38.178 C 320.800 37.401,320.594 37.200,319.800 37.200 C 319.000 37.200,318.800 37.000,318.800 36.200 C 318.800 35.328,318.625 35.200,317.429 35.200 C 316.443 35.200,315.837 34.919,315.271 34.200 C 314.839 33.650,314.106 33.200,313.642 33.200 C 313.011 33.200,312.800 32.950,312.800 32.200 C 312.800 31.428,312.594 31.200,311.895 31.200 C 311.340 31.200,310.837 30.852,310.595 30.300 C 310.290 29.605,309.813 29.372,308.500 29.277 C 306.998 29.168,306.800 29.040,306.800 28.177 C 306.800 27.288,306.640 27.200,305.028 27.200 C 303.495 27.200,303.238 27.079,303.128 26.300 C 303.037 25.662,302.687 25.364,301.925 25.276 C 301.172 25.189,300.812 24.889,300.725 24.276 C 300.619 23.536,300.305 23.381,298.700 23.278 C 296.985 23.168,296.800 23.061,296.800 22.178 C 296.800 21.289,296.640 21.200,295.043 21.200 C 293.514 21.200,293.255 21.074,293.041 20.222 C 292.830 19.381,292.530 19.227,290.898 19.122 C 289.293 19.019,288.981 18.864,288.875 18.121 C 288.769 17.379,288.456 17.223,286.875 17.121 C 285.279 17.018,284.981 16.866,284.872 16.100 C 284.651 14.541,279.894 14.740,280.073 16.300 M75.200 40.200 C 75.200 41.000,75.000 41.200,74.200 41.200 C 73.400 41.200,73.200 41.400,73.200 42.200 C 73.200 43.000,73.000 43.200,72.200 43.200 C 71.400 43.200,71.200 43.400,71.200 44.200 C 71.200 44.950,70.989 45.200,70.358 45.200 C 69.894 45.200,69.170 45.639,68.748 46.175 C 68.280 46.770,67.477 47.199,66.690 47.275 C 65.704 47.371,65.370 47.612,65.272 48.300 C 65.180 48.951,64.876 49.200,64.172 49.200 C 63.402 49.200,63.200 49.408,63.200 50.200 C 63.200 51.000,63.000 51.200,62.200 51.200 C 61.400 51.200,61.200 51.400,61.200 52.200 C 61.200 53.000,61.000 53.200,60.200 53.200 C 59.400 53.200,59.200 53.400,59.200 54.200 C 59.200 55.000,59.000 55.200,58.200 55.200 C 57.400 55.200,57.200 55.400,57.200 56.200 C 57.200 57.000,57.000 57.200,56.200 57.200 C 55.400 57.200,55.200 57.400,55.200 58.200 C 55.200 59.000,55.000 59.200,54.200 59.200 C 53.400 59.200,53.200 59.400,53.200 60.200 C 53.200 61.000,53.000 61.200,52.200 61.200 C 51.400 61.200,51.200 61.400,51.200 62.200 C 51.200 63.000,51.000 63.200,50.200 63.200 C 49.408 63.200,49.200 63.402,49.200 64.172 C 49.200 64.876,48.951 65.180,48.300 65.272 C 47.612 65.370,47.371 65.704,47.275 66.690 C 47.199 67.477,46.770 68.280,46.175 68.748 C 45.639 69.170,45.200 69.894,45.200 70.358 C 45.200 70.989,44.950 71.200,44.200 71.200 C 43.400 71.200,43.200 71.400,43.200 72.200 C 43.200 73.000,43.000 73.200,42.200 73.200 C 41.400 73.200,41.200 73.400,41.200 74.200 C 41.200 75.000,41.000 75.200,40.200 75.200 C 39.300 75.200,39.200 75.360,39.200 76.800 C 39.200 78.895,40.788 79.160,41.600 77.200 C 41.873 76.540,42.350 76.000,42.658 76.000 C 42.967 76.000,43.385 75.565,43.587 75.034 C 43.789 74.503,44.324 73.951,44.776 73.808 C 45.228 73.664,45.704 73.126,45.833 72.611 C 45.962 72.097,46.413 71.585,46.834 71.475 C 47.263 71.363,47.600 70.927,47.600 70.484 C 47.600 70.033,47.939 69.605,48.389 69.487 C 48.952 69.340,49.254 68.803,49.445 67.609 C 49.643 66.372,49.951 65.847,50.630 65.588 C 51.801 65.143,53.600 63.588,53.600 63.021 C 53.600 62.782,54.429 61.870,55.443 60.994 C 56.457 60.117,57.442 58.995,57.633 58.500 C 57.824 58.005,58.216 57.600,58.504 57.600 C 58.792 57.600,59.825 56.700,60.800 55.600 C 61.775 54.500,62.771 53.600,63.014 53.600 C 63.597 53.600,65.144 51.800,65.607 50.581 C 65.886 49.848,66.379 49.549,67.641 49.347 C 68.784 49.164,69.367 48.849,69.500 48.340 C 69.606 47.933,70.038 47.600,70.459 47.600 C 70.880 47.600,71.331 47.323,71.461 46.985 C 71.591 46.647,72.215 46.102,72.848 45.775 C 73.482 45.447,74.000 44.910,74.000 44.580 C 74.000 44.250,74.450 43.809,75.000 43.600 C 75.550 43.391,76.000 42.967,76.000 42.658 C 76.000 42.350,76.540 41.873,77.200 41.600 C 79.160 40.788,78.895 39.200,76.800 39.200 C 75.360 39.200,75.200 39.300,75.200 40.200 M350.667 67.467 C 350.101 68.032,350.432 69.283,351.200 69.484 C 351.640 69.599,352.000 69.870,352.000 70.086 C 352.000 70.302,353.080 71.552,354.400 72.864 C 355.720 74.176,356.800 75.508,356.800 75.824 C 356.800 76.141,357.079 76.400,357.420 76.400 C 357.762 76.400,358.304 77.030,358.626 77.800 C 358.948 78.570,359.467 79.200,359.780 79.200 C 360.130 79.200,360.398 79.701,360.475 80.500 C 360.569 81.478,360.814 81.830,361.462 81.923 C 361.973 81.996,362.420 82.425,362.558 82.975 C 362.686 83.486,363.153 83.999,363.596 84.115 C 364.214 84.277,364.400 84.659,364.400 85.771 C 364.400 86.913,364.604 87.310,365.369 87.659 C 365.902 87.902,366.446 88.528,366.577 89.050 C 366.727 89.650,367.107 90.000,367.608 90.000 C 368.043 90.000,368.417 90.225,368.437 90.500 C 368.457 90.775,368.502 91.540,368.537 92.200 C 368.580 93.019,368.882 93.524,369.488 93.790 C 369.976 94.004,370.482 94.661,370.611 95.249 C 370.741 95.843,371.191 96.409,371.623 96.522 C 372.175 96.666,372.400 97.073,372.400 97.930 C 372.400 99.749,372.785 100.400,373.861 100.400 C 374.758 100.400,374.815 100.512,374.575 101.793 C 374.343 103.032,374.427 103.230,375.334 103.575 C 376.203 103.905,376.373 104.248,376.477 105.878 C 376.576 107.423,376.754 107.822,377.400 107.943 C 378.439 108.137,378.786 108.713,378.794 110.253 C 378.798 111.154,379.018 111.564,379.576 111.710 C 380.185 111.869,380.379 112.329,380.476 113.840 C 380.584 115.519,380.729 115.799,381.600 116.009 C 382.360 116.192,382.581 116.484,382.521 117.225 C 382.364 119.144,382.760 120.000,383.801 120.000 C 384.768 120.000,384.783 120.049,384.538 122.389 C 384.298 124.683,384.329 124.793,385.310 125.166 C 386.368 125.568,387.048 126.874,386.588 127.619 C 386.027 128.527,386.782 130.000,387.808 130.000 C 388.754 130.000,388.800 129.888,388.800 127.600 C 388.800 125.307,388.756 125.200,387.800 125.200 C 386.854 125.200,386.800 125.081,386.800 122.981 C 386.800 121.145,386.632 120.606,385.829 119.862 C 385.188 119.268,384.814 118.425,384.729 117.381 C 384.632 116.196,384.374 115.701,383.700 115.405 C 382.948 115.075,382.800 114.697,382.800 113.105 C 382.800 111.340,382.727 111.200,381.800 111.200 C 380.867 111.200,380.800 111.067,380.800 109.200 C 380.800 107.333,380.733 107.200,379.800 107.200 C 378.867 107.200,378.800 107.067,378.800 105.200 C 378.800 103.333,378.733 103.200,377.800 103.200 C 376.952 103.200,376.800 103.015,376.800 101.981 C 376.800 101.194,376.445 100.433,375.800 99.835 C 375.250 99.325,374.800 98.595,374.800 98.212 C 374.800 97.829,374.350 97.161,373.800 96.729 C 373.081 96.163,372.800 95.557,372.800 94.571 C 372.800 93.384,372.669 93.200,371.823 93.200 C 370.960 93.200,370.832 93.002,370.723 91.500 C 370.628 90.187,370.395 89.710,369.700 89.405 C 369.148 89.163,368.800 88.660,368.800 88.105 C 368.800 87.412,368.571 87.200,367.822 87.200 C 366.939 87.200,366.832 87.015,366.722 85.300 C 366.618 83.679,366.468 83.381,365.700 83.272 C 365.049 83.180,364.800 82.876,364.800 82.172 C 364.800 81.402,364.592 81.200,363.800 81.200 C 363.000 81.200,362.800 81.000,362.800 80.200 C 362.800 79.406,362.599 79.200,361.822 79.200 C 360.939 79.200,360.832 79.015,360.722 77.300 C 360.618 75.679,360.468 75.381,359.700 75.272 C 359.049 75.180,358.800 74.876,358.800 74.172 C 358.800 73.402,358.592 73.200,357.800 73.200 C 357.000 73.200,356.800 73.000,356.800 72.200 C 356.800 71.400,356.600 71.200,355.800 71.200 C 355.000 71.200,354.800 71.000,354.800 70.200 C 354.800 69.400,354.600 69.200,353.800 69.200 C 353.000 69.200,352.800 69.000,352.800 68.200 C 352.800 67.220,351.396 66.737,350.667 67.467 M37.200 80.200 C 37.200 81.000,37.000 81.200,36.200 81.200 C 35.408 81.200,35.200 81.402,35.200 82.172 C 35.200 82.876,34.951 83.180,34.300 83.272 C 33.532 83.381,33.382 83.679,33.278 85.300 C 33.168 87.015,33.061 87.200,32.178 87.200 C 31.429 87.200,31.200 87.412,31.200 88.105 C 31.200 88.660,30.852 89.163,30.300 89.405 C 29.605 89.710,29.372 90.187,29.277 91.500 C 29.168 93.002,29.040 93.200,28.177 93.200 C 27.331 93.200,27.200 93.384,27.200 94.571 C 27.200 95.557,26.919 96.163,26.200 96.729 C 25.650 97.161,25.200 97.894,25.200 98.358 C 25.200 98.989,24.950 99.200,24.200 99.200 C 23.267 99.200,23.200 99.333,23.200 101.200 C 23.200 103.067,23.133 103.200,22.200 103.200 C 21.267 103.200,21.200 103.333,21.200 105.200 C 21.200 107.067,21.133 107.200,20.200 107.200 C 19.267 107.200,19.200 107.333,19.200 109.200 C 19.200 111.067,19.133 111.200,18.200 111.200 C 17.267 111.200,17.200 111.333,17.200 113.200 C 17.200 115.067,17.133 115.200,16.200 115.200 C 15.267 115.200,15.200 115.333,15.200 117.200 C 15.200 118.300,15.033 119.200,14.829 119.200 C 13.882 119.200,13.200 120.551,13.200 122.429 C 13.200 124.254,13.273 124.400,14.180 124.400 C 15.459 124.400,16.001 123.397,15.557 121.850 C 15.176 120.523,15.378 120.153,16.600 119.935 C 17.247 119.820,17.423 119.426,17.523 117.878 C 17.626 116.272,17.803 115.903,18.623 115.591 C 19.461 115.272,19.600 114.962,19.600 113.400 C 19.600 111.827,19.736 111.529,20.600 111.200 C 21.397 110.897,21.600 110.543,21.600 109.456 C 21.600 108.442,21.857 107.924,22.600 107.437 C 23.352 106.944,23.600 106.434,23.600 105.381 C 23.600 104.255,23.796 103.906,24.600 103.600 C 25.407 103.293,25.600 102.946,25.600 101.801 C 25.600 100.668,25.806 100.289,26.624 99.916 C 27.487 99.523,27.629 99.225,27.524 98.025 C 27.418 96.800,27.529 96.582,28.316 96.470 C 28.966 96.378,29.301 95.996,29.469 95.156 C 29.599 94.505,30.042 93.792,30.453 93.572 C 30.898 93.334,31.202 92.732,31.206 92.086 C 31.214 90.710,31.590 90.132,32.600 89.943 C 33.136 89.843,33.443 89.417,33.531 88.651 C 33.611 87.953,33.947 87.434,34.393 87.318 C 34.839 87.201,35.221 86.612,35.372 85.807 C 35.531 84.962,35.902 84.414,36.405 84.283 C 36.837 84.170,37.364 83.621,37.576 83.063 C 37.788 82.505,38.330 81.851,38.781 81.610 C 40.143 80.881,39.877 79.200,38.400 79.200 C 37.387 79.200,37.200 79.356,37.200 80.200 M11.200 127.565 L 11.200 129.931 12.300 129.638 C 14.108 129.158,14.215 125.200,12.421 125.200 L 11.200 125.200 11.200 127.565 M9.200 133.173 C 9.200 135.068,9.135 135.200,8.200 135.200 C 7.216 135.200,7.200 135.252,7.200 138.427 L 7.200 141.653 8.300 141.527 C 9.383 141.402,9.402 141.351,9.517 138.300 C 9.621 135.539,9.719 135.200,10.409 135.200 C 12.119 135.200,12.015 131.471,10.300 131.273 C 9.228 131.150,9.200 131.199,9.200 133.173 M388.643 131.833 C 387.898 133.773,388.540 136.000,389.843 136.000 C 390.746 136.000,390.800 135.865,390.800 133.600 C 390.800 131.149,389.358 129.968,388.643 131.833 M390.581 138.560 C 390.189 140.649,390.467 141.384,391.703 141.527 C 392.783 141.651,392.800 141.618,392.800 139.427 C 392.800 136.637,391.069 135.961,390.581 138.560 M5.200 145.800 C 5.200 148.439,6.607 149.722,7.357 147.767 C 8.136 145.738,7.469 143.200,6.157 143.200 C 5.246 143.200,5.200 143.324,5.200 145.800 M392.652 144.100 C 391.900 146.905,392.484 149.600,393.843 149.600 C 394.773 149.600,394.800 149.509,394.800 146.400 C 394.800 143.295,394.772 143.200,393.847 143.200 C 393.196 143.200,392.817 143.486,392.652 144.100 M3.200 153.000 C 3.200 156.779,3.206 156.800,4.192 156.800 C 4.950 156.800,5.242 156.540,5.426 155.700 C 5.558 155.095,5.736 154.376,5.820 154.101 C 6.267 152.652,5.087 149.200,4.145 149.200 C 3.218 149.200,3.200 149.273,3.200 153.000 M394.650 152.450 C 394.036 155.518,394.459 157.200,395.843 157.200 C 396.767 157.200,396.800 157.098,396.800 154.200 C 396.800 150.795,395.236 149.522,394.650 152.450 M1.200 162.953 C 1.200 166.583,1.969 168.164,3.158 166.976 C 4.322 165.812,3.492 159.200,2.182 159.200 C 1.209 159.200,1.200 159.235,1.200 162.953 M396.657 160.700 C 395.906 165.239,396.461 169.200,397.847 169.200 L 398.800 169.200 398.800 164.200 C 398.800 159.207,398.799 159.200,397.852 159.200 C 397.068 159.200,396.862 159.459,396.657 160.700 M0.000 177.200 C 0.000 183.660,0.104 185.200,0.541 185.200 C 1.454 185.200,2.131 176.723,1.550 172.570 C 0.652 166.149,0.000 168.096,0.000 177.200 M398.657 174.059 C 398.113 179.263,398.552 185.600,399.457 185.600 C 399.894 185.600,400.000 184.229,400.000 178.600 C 400.000 172.971,399.894 171.600,399.457 171.600 C 399.086 171.600,398.832 172.381,398.657 174.059 M398.661 216.700 C 398.111 222.515,398.446 226.800,399.450 226.800 C 399.894 226.800,400.000 225.564,400.000 220.400 C 400.000 215.281,399.891 214.000,399.458 214.000 C 399.080 214.000,398.838 214.820,398.661 216.700 M0.000 222.800 C 0.000 229.326,0.101 230.800,0.551 230.800 C 1.469 230.800,2.117 224.137,1.619 219.800 C 1.392 217.820,1.205 215.885,1.203 215.500 C 1.201 215.115,0.930 214.800,0.600 214.800 C 0.087 214.800,0.000 215.956,0.000 222.800 M396.652 231.700 C 395.792 234.910,396.569 240.800,397.852 240.800 C 398.799 240.800,398.800 240.793,398.800 235.800 L 398.800 230.800 397.847 230.800 C 397.196 230.800,396.817 231.086,396.652 231.700 M1.200 236.800 C 1.200 240.744,1.213 240.800,2.150 240.800 C 3.226 240.800,3.604 239.661,3.595 236.450 C 3.586 233.638,3.255 232.800,2.153 232.800 C 1.212 232.800,1.200 232.852,1.200 236.800 M395.519 242.672 C 393.847 243.112,394.135 248.800,395.829 248.800 C 396.776 248.800,396.800 248.721,396.800 245.600 C 396.800 243.840,396.665 242.421,396.500 242.446 C 396.335 242.472,395.893 242.573,395.519 242.672 M3.200 246.800 C 3.200 250.758,3.210 250.800,4.162 250.800 C 5.021 250.800,5.156 250.573,5.409 248.700 C 5.566 247.545,5.753 246.283,5.825 245.896 C 6.087 244.485,5.182 242.800,4.161 242.800 C 3.210 242.800,3.200 242.843,3.200 246.800 M392.667 250.667 C 392.330 251.003,392.320 253.902,392.650 255.550 C 392.846 256.529,393.106 256.800,393.850 256.800 C 394.771 256.800,394.800 256.702,394.800 253.600 C 394.800 250.426,394.003 249.330,392.667 250.667 M5.200 254.200 C 5.200 256.676,5.246 256.800,6.157 256.800 C 7.469 256.800,8.136 254.262,7.357 252.233 C 6.607 250.278,5.200 251.561,5.200 254.200 M390.643 258.633 C 389.898 260.573,390.540 262.800,391.843 262.800 C 392.746 262.800,392.800 262.665,392.800 260.400 C 392.800 257.949,391.358 256.768,390.643 258.633 M7.283 261.500 C 7.391 264.369,7.467 264.610,8.300 264.728 C 9.096 264.841,9.200 265.086,9.200 266.854 C 9.200 268.799,9.230 268.850,10.300 268.727 C 12.129 268.516,12.193 265.019,10.375 264.655 C 9.153 264.411,9.121 264.352,9.413 262.901 C 10.040 259.787,9.654 258.400,8.160 258.400 C 7.177 258.400,7.168 258.434,7.283 261.500 M389.279 264.020 C 387.775 264.624,388.126 268.545,389.700 268.727 L 390.800 268.853 390.800 266.227 C 390.800 263.478,390.763 263.425,389.279 264.020 M11.200 272.400 L 11.200 274.800 12.400 274.800 C 13.630 274.800,14.127 272.638,13.357 270.633 C 12.642 268.768,11.200 269.949,11.200 272.400 M386.638 270.900 C 386.541 271.395,386.492 272.329,386.530 272.976 C 386.587 273.928,386.409 274.199,385.600 274.394 C 383.998 274.781,384.085 278.541,385.700 278.727 C 386.770 278.850,386.800 278.799,386.800 276.854 C 386.800 275.086,386.904 274.841,387.700 274.728 C 389.178 274.518,389.300 270.000,387.828 270.000 C 387.097 270.000,386.766 270.250,386.638 270.900 M13.200 277.055 C 13.200 278.655,13.284 278.800,14.213 278.800 C 16.072 278.800,16.065 275.859,14.204 275.503 C 13.256 275.322,13.200 275.408,13.200 277.055 M15.200 282.373 C 15.200 284.695,15.243 284.800,16.200 284.800 C 17.133 284.800,17.200 284.933,17.200 286.800 C 17.200 288.667,17.267 288.800,18.200 288.800 C 19.133 288.800,19.200 288.933,19.200 290.800 C 19.200 292.655,19.271 292.800,20.178 292.800 C 21.061 292.800,21.168 292.985,21.278 294.700 C 21.381 296.307,21.536 296.619,22.279 296.725 C 23.021 296.831,23.177 297.144,23.279 298.725 C 23.382 300.321,23.534 300.619,24.300 300.728 C 24.951 300.820,25.200 301.124,25.200 301.828 C 25.200 302.641,25.396 302.800,26.400 302.800 C 28.107 302.800,28.115 301.087,26.412 300.206 C 25.387 299.676,25.237 299.390,25.312 298.112 C 25.383 296.913,25.248 296.600,24.600 296.469 C 23.500 296.247,23.235 295.694,23.487 294.144 C 23.674 292.989,23.567 292.767,22.651 292.419 C 21.763 292.082,21.600 291.776,21.600 290.453 C 21.600 289.116,21.454 288.850,20.600 288.636 C 19.718 288.414,19.600 288.171,19.600 286.582 C 19.600 285.039,19.460 284.727,18.623 284.409 C 17.803 284.097,17.626 283.729,17.523 282.119 C 17.307 278.752,15.200 278.983,15.200 282.373 M382.554 280.577 C 382.117 281.713,382.591 282.598,383.703 282.727 C 384.718 282.844,384.800 282.746,384.800 281.427 C 384.800 279.905,383.064 279.248,382.554 280.577 M380.564 284.550 C 380.448 284.852,380.408 285.785,380.476 286.623 C 380.585 287.963,380.479 288.176,379.600 288.392 C 378.746 288.602,378.600 288.866,378.600 290.197 C 378.600 291.528,378.454 291.792,377.600 292.001 C 376.753 292.208,376.594 292.487,376.563 293.823 C 376.506 296.232,376.464 296.335,375.500 296.472 C 374.076 296.674,374.243 298.559,375.700 298.727 C 376.640 298.835,376.800 298.708,376.800 297.854 C 376.800 297.123,377.041 296.821,377.700 296.728 C 378.461 296.620,378.618 296.319,378.718 294.787 C 378.811 293.366,379.027 292.890,379.718 292.587 C 380.393 292.291,380.629 291.801,380.723 290.500 C 380.832 288.998,380.960 288.800,381.823 288.800 C 382.750 288.800,382.800 288.678,382.800 286.400 C 382.800 284.000,381.263 282.728,380.564 284.550 M372.643 300.233 C 372.014 301.871,372.361 302.800,373.600 302.800 C 374.733 302.800,374.800 302.711,374.800 301.200 C 374.800 299.490,373.203 298.773,372.643 300.233 M370.966 303.470 C 370.372 305.346,369.971 306.000,369.416 306.000 C 368.741 306.000,368.310 307.295,368.484 308.799 C 368.574 309.573,368.398 309.826,367.701 309.926 C 367.156 310.005,366.710 310.419,366.570 310.978 C 366.443 311.485,365.889 312.105,365.339 312.355 C 364.489 312.742,364.358 313.036,364.469 314.305 C 364.580 315.572,364.471 315.818,363.755 315.921 C 363.290 315.987,362.709 316.482,362.463 317.021 C 362.218 317.559,361.747 318.000,361.416 318.000 C 361.086 318.000,360.705 318.441,360.570 318.979 C 360.434 319.517,359.906 320.232,359.395 320.566 C 358.170 321.369,358.358 322.563,359.736 322.727 C 360.645 322.835,360.800 322.703,360.800 321.827 C 360.800 320.998,360.993 320.800,361.800 320.800 C 362.600 320.800,362.800 320.600,362.800 319.800 C 362.800 319.000,363.000 318.800,363.800 318.800 C 364.672 318.800,364.800 318.625,364.800 317.429 C 364.800 316.443,365.081 315.837,365.800 315.271 C 366.350 314.839,366.800 314.106,366.800 313.642 C 366.800 313.011,367.050 312.800,367.800 312.800 C 368.554 312.800,368.800 312.590,368.800 311.946 C 368.800 311.476,369.250 310.675,369.800 310.165 C 370.445 309.567,370.800 308.806,370.800 308.019 C 370.800 306.978,370.950 306.800,371.822 306.800 C 372.791 306.800,372.838 306.702,372.722 304.904 C 372.592 302.889,371.447 301.954,370.966 303.470 M27.200 305.000 C 27.200 306.642,27.286 306.800,28.177 306.800 C 29.040 306.800,29.168 306.998,29.277 308.500 C 29.372 309.813,29.605 310.290,30.300 310.595 C 30.852 310.837,31.200 311.340,31.200 311.895 C 31.200 312.594,31.428 312.800,32.200 312.800 C 32.950 312.800,33.200 313.011,33.200 313.642 C 33.200 314.106,33.650 314.839,34.200 315.271 C 34.919 315.837,35.200 316.443,35.200 317.429 C 35.200 318.625,35.328 318.800,36.200 318.800 C 37.000 318.800,37.200 319.000,37.200 319.800 C 37.200 320.594,37.401 320.800,38.178 320.800 C 39.061 320.800,39.168 320.985,39.278 322.700 C 39.382 324.321,39.532 324.619,40.300 324.728 C 40.951 324.820,41.200 325.124,41.200 325.828 C 41.200 326.598,41.408 326.800,42.200 326.800 C 43.000 326.800,43.200 327.000,43.200 327.800 C 43.200 328.600,43.400 328.800,44.200 328.800 C 45.000 328.800,45.200 329.000,45.200 329.800 C 45.200 330.600,45.400 330.800,46.200 330.800 C 47.091 330.800,47.200 330.965,47.200 332.320 C 47.200 333.863,47.752 334.800,48.662 334.800 C 49.526 334.800,51.200 336.791,51.200 337.818 C 51.200 338.591,51.407 338.800,52.172 338.800 C 52.876 338.800,53.180 339.049,53.272 339.700 C 53.354 340.278,53.722 340.646,54.300 340.728 C 54.951 340.820,55.200 341.124,55.200 341.828 C 55.200 342.598,55.408 342.800,56.200 342.800 C 57.000 342.800,57.200 343.000,57.200 343.800 C 57.200 344.600,57.400 344.800,58.200 344.800 C 59.000 344.800,59.200 345.000,59.200 345.800 C 59.200 346.587,59.403 346.800,60.153 346.800 C 60.782 346.800,61.181 347.083,61.324 347.630 C 61.443 348.086,61.904 348.554,62.348 348.670 C 62.792 348.787,63.210 349.268,63.278 349.741 C 63.377 350.439,63.713 350.623,65.068 350.721 C 67.110 350.870,67.095 349.720,65.032 348.017 C 64.354 347.457,63.187 346.415,62.439 345.700 C 61.690 344.985,60.830 344.400,60.529 344.400 C 60.227 344.400,59.809 343.950,59.600 343.400 C 59.391 342.850,58.966 342.400,58.657 342.400 C 58.347 342.400,58.000 342.042,57.885 341.605 C 57.771 341.167,57.210 340.632,56.639 340.415 C 56.067 340.198,55.600 339.757,55.600 339.437 C 55.600 339.116,55.251 338.743,54.825 338.608 C 54.398 338.473,53.844 337.740,53.594 336.981 C 53.343 336.221,52.908 335.600,52.627 335.600 C 51.639 335.600,49.949 333.595,49.713 332.142 C 49.567 331.241,49.217 330.625,48.788 330.513 C 48.408 330.413,47.899 329.897,47.657 329.366 C 47.415 328.835,47.038 328.400,46.819 328.400 C 46.600 328.400,46.141 327.860,45.800 327.200 C 45.459 326.540,44.985 326.000,44.747 326.000 C 44.510 326.000,43.961 325.550,43.529 325.000 C 43.096 324.450,42.505 324.000,42.215 324.000 C 41.925 324.000,41.564 323.335,41.410 322.514 C 41.257 321.696,40.787 320.786,40.366 320.491 C 39.945 320.196,39.600 319.716,39.600 319.423 C 39.600 319.131,39.150 318.597,38.600 318.237 C 38.050 317.876,37.600 317.306,37.600 316.970 C 37.600 316.634,37.055 316.169,36.390 315.937 C 35.275 315.548,35.200 315.406,35.439 314.133 C 35.662 312.945,35.578 312.719,34.845 312.528 C 34.375 312.405,33.880 311.863,33.745 311.323 C 33.609 310.783,33.071 310.179,32.549 309.981 C 31.792 309.693,31.600 309.328,31.600 308.172 C 31.600 307.092,31.409 306.675,30.847 306.528 C 30.433 306.420,29.818 305.627,29.479 304.766 C 28.550 302.400,27.200 302.539,27.200 305.000 M357.012 323.846 C 356.675 324.182,356.400 324.694,356.400 324.983 C 356.400 325.272,355.950 325.803,355.400 326.163 C 354.850 326.524,354.400 327.055,354.400 327.345 C 354.400 327.635,353.966 328.070,353.435 328.311 C 352.904 328.553,352.358 329.103,352.221 329.532 C 352.085 329.962,351.619 330.406,351.187 330.519 C 350.707 330.645,350.400 331.066,350.400 331.600 C 350.400 332.138,350.092 332.555,349.600 332.684 C 349.082 332.819,348.800 333.230,348.800 333.847 C 348.800 334.597,348.587 334.800,347.800 334.800 C 347.098 334.800,346.800 335.018,346.800 335.530 C 346.800 335.932,346.370 336.665,345.844 337.158 C 345.319 337.652,344.783 338.583,344.654 339.228 C 344.516 339.922,344.166 340.400,343.797 340.400 C 342.997 340.400,340.400 342.983,340.400 343.779 C 340.400 344.112,339.905 344.506,339.300 344.655 C 338.695 344.803,337.804 345.346,337.319 345.862 C 336.835 346.378,336.082 346.800,335.647 346.800 C 335.131 346.800,334.811 347.113,334.728 347.700 C 334.648 348.263,334.279 348.646,333.741 348.722 C 333.268 348.790,332.790 349.195,332.678 349.622 C 332.555 350.094,332.130 350.400,331.600 350.400 C 331.062 350.400,330.645 350.708,330.516 351.200 C 330.401 351.640,330.154 352.000,329.967 352.000 C 329.780 352.000,328.997 352.630,328.227 353.400 C 327.457 354.170,326.641 354.800,326.413 354.800 C 326.186 354.800,326.000 355.079,326.000 355.421 C 326.000 355.762,325.460 356.230,324.800 356.460 C 322.816 357.152,323.098 358.800,325.200 358.800 C 326.640 358.800,326.800 358.700,326.800 357.800 C 326.800 357.000,327.000 356.800,327.800 356.800 C 328.600 356.800,328.800 356.600,328.800 355.800 C 328.800 355.000,329.000 354.800,329.800 354.800 C 330.600 354.800,330.800 354.600,330.800 353.800 C 330.800 353.000,331.000 352.800,331.800 352.800 C 332.600 352.800,332.800 352.600,332.800 351.800 C 332.800 350.995,332.999 350.800,333.818 350.800 C 334.378 350.800,335.272 350.364,335.804 349.832 C 336.337 349.300,337.094 348.804,337.486 348.730 C 337.879 348.656,338.375 348.199,338.588 347.714 C 338.801 347.229,339.341 346.780,339.788 346.716 C 340.271 346.647,340.650 346.245,340.725 345.725 C 340.802 345.179,341.179 344.802,341.725 344.725 C 342.270 344.647,342.647 344.270,342.725 343.725 C 342.802 343.179,343.179 342.802,343.725 342.725 C 344.270 342.647,344.647 342.270,344.725 341.725 C 344.802 341.179,345.179 340.802,345.725 340.725 C 346.245 340.650,346.647 340.271,346.716 339.788 C 346.780 339.341,347.229 338.801,347.714 338.588 C 348.199 338.375,348.656 337.879,348.730 337.486 C 348.804 337.094,349.300 336.337,349.832 335.804 C 350.364 335.272,350.800 334.378,350.800 333.818 C 350.800 332.999,350.995 332.800,351.800 332.800 C 352.600 332.800,352.800 332.600,352.800 331.800 C 352.800 331.000,353.000 330.800,353.800 330.800 C 354.600 330.800,354.800 330.600,354.800 329.800 C 354.800 329.000,355.000 328.800,355.800 328.800 C 356.600 328.800,356.800 328.600,356.800 327.800 C 356.800 327.000,357.000 326.800,357.800 326.800 C 358.695 326.800,358.800 326.637,358.800 325.243 C 358.800 323.490,357.995 322.862,357.012 323.846 M67.200 351.600 C 67.200 352.613,67.356 352.800,68.200 352.800 C 69.000 352.800,69.200 353.000,69.200 353.800 C 69.200 354.600,69.400 354.800,70.200 354.800 C 71.000 354.800,71.200 355.000,71.200 355.800 C 71.200 356.600,71.400 356.800,72.200 356.800 C 73.000 356.800,73.200 357.000,73.200 357.800 C 73.200 358.572,73.406 358.800,74.105 358.800 C 74.660 358.800,75.163 359.148,75.405 359.700 C 75.710 360.395,76.187 360.628,77.500 360.723 C 79.002 360.832,79.200 360.960,79.200 361.823 C 79.200 362.598,79.406 362.800,80.200 362.800 C 81.000 362.800,81.200 363.000,81.200 363.800 C 81.200 364.592,81.402 364.800,82.172 364.800 C 82.876 364.800,83.180 365.049,83.272 365.700 C 83.381 366.468,83.679 366.618,85.300 366.722 C 87.015 366.832,87.200 366.939,87.200 367.822 C 87.200 368.599,87.406 368.800,88.200 368.800 C 88.750 368.800,89.200 368.967,89.200 369.171 C 89.200 369.978,90.527 370.800,91.829 370.800 C 93.025 370.800,93.200 370.928,93.200 371.800 C 93.200 372.672,93.375 372.800,94.571 372.800 C 95.557 372.800,96.163 373.081,96.729 373.800 C 97.161 374.350,97.886 374.800,98.339 374.800 C 98.793 374.800,99.614 375.250,100.164 375.800 C 100.714 376.350,101.622 376.800,102.182 376.800 C 103.001 376.800,103.200 376.995,103.200 377.800 C 103.200 378.733,103.333 378.800,105.200 378.800 C 107.067 378.800,107.200 378.867,107.200 379.800 C 107.200 380.733,107.333 380.800,109.200 380.800 C 111.067 380.800,111.200 380.867,111.200 381.800 C 111.200 382.727,111.340 382.800,113.105 382.800 C 114.697 382.800,115.075 382.948,115.405 383.700 C 115.701 384.374,116.196 384.632,117.381 384.729 C 118.425 384.814,119.268 385.188,119.862 385.829 C 120.606 386.632,121.145 386.800,122.981 386.800 C 125.081 386.800,125.200 386.854,125.200 387.800 C 125.200 388.756,125.307 388.800,127.600 388.800 C 129.888 388.800,130.000 388.754,130.000 387.808 C 130.000 386.742,129.209 386.400,127.051 386.530 C 126.269 386.578,125.757 386.344,125.451 385.800 C 124.740 384.539,124.330 384.373,122.222 384.490 C 120.405 384.591,120.225 384.519,120.000 383.600 C 119.785 382.722,119.540 382.600,117.998 382.600 C 116.453 382.600,116.212 382.479,116.004 381.600 C 115.801 380.738,115.515 380.583,113.939 380.480 C 112.431 380.382,112.030 380.184,111.650 379.351 C 111.274 378.524,110.956 378.364,109.901 378.470 C 108.827 378.578,108.524 378.417,108.084 377.500 C 107.625 376.543,107.324 376.400,105.768 376.400 C 104.209 376.400,103.929 376.266,103.584 375.357 C 103.236 374.443,103.025 374.344,101.882 374.558 C 100.699 374.780,100.533 374.688,100.111 373.569 C 99.688 372.448,99.505 372.347,98.122 372.466 C 97.121 372.552,96.583 372.426,96.550 372.099 C 96.523 371.824,96.478 371.443,96.450 371.250 C 96.423 371.058,95.905 370.800,95.300 370.677 C 94.668 370.550,94.030 370.060,93.800 369.527 C 93.477 368.779,93.092 368.600,91.800 368.600 C 90.456 368.600,90.180 368.459,90.075 367.719 C 90.006 367.234,89.596 366.726,89.164 366.589 C 88.732 366.451,88.093 365.903,87.743 365.370 C 87.272 364.651,86.748 364.400,85.717 364.400 C 84.659 364.400,84.275 364.207,84.115 363.596 C 83.999 363.153,83.514 362.693,83.038 362.574 C 82.561 362.454,81.997 361.961,81.785 361.478 C 81.556 360.956,80.971 360.550,80.341 360.477 C 79.729 360.407,79.202 360.052,79.094 359.638 C 78.986 359.223,78.379 358.816,77.653 358.671 C 76.744 358.489,76.400 358.198,76.400 357.610 C 76.400 357.165,76.145 356.800,75.833 356.800 C 75.192 356.800,72.000 353.869,72.000 353.280 C 72.000 353.069,71.477 352.680,70.838 352.416 C 70.199 352.151,69.586 351.589,69.476 351.167 C 69.113 349.782,67.200 350.146,67.200 351.600 M320.566 359.396 C 320.231 359.906,319.517 360.434,318.979 360.570 C 318.441 360.705,318.000 361.086,318.000 361.416 C 318.000 361.747,317.559 362.218,317.021 362.463 C 316.482 362.709,315.987 363.290,315.921 363.755 C 315.818 364.471,315.572 364.580,314.305 364.469 C 313.036 364.358,312.742 364.489,312.355 365.339 C 312.105 365.889,311.485 366.443,310.978 366.570 C 310.419 366.710,310.005 367.156,309.926 367.701 C 309.826 368.398,309.573 368.574,308.799 368.484 C 307.312 368.312,306.000 368.739,306.000 369.394 C 306.000 370.069,304.790 370.800,303.673 370.800 C 303.230 370.800,302.803 371.145,302.684 371.600 C 302.551 372.110,302.135 372.402,301.537 372.406 C 300.247 372.415,299.749 372.838,299.761 373.919 C 299.776 375.279,302.933 375.074,303.128 373.700 C 303.238 372.921,303.495 372.800,305.028 372.800 C 306.651 372.800,306.800 372.716,306.800 371.800 C 306.800 370.928,306.975 370.800,308.171 370.800 C 309.473 370.800,310.800 369.978,310.800 369.171 C 310.800 368.967,311.250 368.800,311.800 368.800 C 312.600 368.800,312.800 368.600,312.800 367.800 C 312.800 367.050,313.011 366.800,313.642 366.800 C 314.106 366.800,314.839 366.350,315.271 365.800 C 315.837 365.081,316.443 364.800,317.429 364.800 C 318.625 364.800,318.800 364.672,318.800 363.800 C 318.800 363.000,319.000 362.800,319.800 362.800 C 320.600 362.800,320.800 362.600,320.800 361.800 C 320.800 361.000,321.000 360.800,321.800 360.800 C 322.587 360.800,322.800 360.597,322.800 359.847 C 322.800 358.475,321.360 358.184,320.566 359.396 M296.313 375.500 C 295.867 376.425,295.531 376.600,294.202 376.600 C 292.864 376.600,292.537 376.773,292.076 377.727 C 291.663 378.581,291.274 378.836,290.465 378.784 C 288.685 378.669,288.461 378.765,288.328 379.700 C 288.215 380.496,287.970 380.600,286.200 380.600 C 284.316 380.600,284.193 380.664,284.073 381.700 C 283.948 382.793,283.962 382.800,286.373 382.800 C 288.680 382.800,288.800 382.752,288.800 381.823 C 288.800 380.960,288.998 380.832,290.500 380.723 C 291.801 380.629,292.291 380.393,292.587 379.718 C 292.890 379.027,293.366 378.811,294.787 378.718 C 296.319 378.618,296.620 378.461,296.728 377.700 C 296.827 377.000,297.117 376.800,298.028 376.800 C 298.998 376.800,299.200 376.635,299.200 375.843 C 299.200 374.119,297.100 373.869,296.313 375.500 M280.500 382.665 C 279.149 383.210,279.969 384.800,281.600 384.800 C 283.019 384.800,283.200 384.692,283.200 383.847 C 283.200 382.718,281.841 382.124,280.500 382.665 M274.587 385.000 C 274.484 385.330,274.308 385.890,274.196 386.244 C 274.039 386.739,273.681 386.829,272.649 386.636 C 270.843 386.297,270.000 386.687,270.000 387.863 C 270.000 389.289,274.521 389.152,274.725 387.720 C 274.833 386.962,275.137 386.823,276.921 386.720 C 279.060 386.596,280.015 385.563,278.739 384.754 C 277.796 384.156,274.796 384.334,274.587 385.000 M131.467 388.667 C 130.289 389.845,131.244 390.800,133.600 390.800 C 136.051 390.800,137.232 389.358,135.367 388.643 C 134.517 388.317,131.800 388.333,131.467 388.667 M264.201 388.798 C 263.162 390.479,263.559 390.839,266.320 390.718 C 268.701 390.613,269.013 390.505,269.121 389.752 C 269.293 388.550,264.883 387.695,264.201 388.798 M137.700 390.665 C 137.425 390.776,137.200 391.302,137.200 391.833 C 137.200 392.801,141.205 393.391,141.729 392.500 C 142.572 391.068,139.814 389.812,137.700 390.665 M258.500 390.643 C 256.800 391.403,258.013 392.800,260.373 392.800 C 262.643 392.800,263.985 391.852,263.045 390.912 C 262.723 390.589,259.101 390.375,258.500 390.643 M143.900 392.676 C 143.476 392.787,143.200 393.241,143.200 393.829 C 143.200 394.776,143.279 394.800,146.400 394.800 C 149.509 394.800,149.600 394.773,149.600 393.843 C 149.600 392.510,146.760 391.928,143.900 392.676 M250.700 392.625 C 249.351 394.012,250.392 394.800,253.573 394.800 C 256.642 394.800,258.125 393.992,257.044 392.910 C 256.674 392.540,251.029 392.286,250.700 392.625 M152.100 394.682 C 151.461 394.805,151.200 395.138,151.200 395.828 C 151.200 396.776,151.278 396.800,154.400 396.800 C 157.509 396.800,157.600 396.773,157.600 395.843 C 157.600 394.482,155.471 394.033,152.100 394.682 M243.365 394.706 C 241.532 395.944,242.461 396.800,245.637 396.800 C 248.698 396.800,248.800 396.769,248.800 395.852 C 248.800 394.659,244.711 393.797,243.365 394.706 M160.300 396.687 C 159.447 396.816,159.200 397.072,159.200 397.827 L 159.200 398.800 164.200 398.800 L 169.200 398.800 169.200 397.847 C 169.200 396.495,165.094 395.960,160.300 396.687 M231.500 396.676 C 231.076 396.787,230.800 397.241,230.800 397.829 L 230.800 398.800 235.800 398.800 C 240.790 398.800,240.800 398.798,240.800 397.854 C 240.800 396.611,234.705 395.838,231.500 396.676 M173.300 398.693 C 172.156 398.796,171.600 399.035,171.600 399.423 C 171.600 399.904,172.794 400.000,178.800 400.000 C 184.598 400.000,186.000 399.894,186.000 399.457 C 186.000 398.562,179.258 398.156,173.300 398.693 M215.700 398.693 C 214.556 398.796,214.000 399.035,214.000 399.423 C 214.000 399.902,215.091 400.000,220.400 400.000 C 225.550 400.000,226.800 399.893,226.800 399.452 C 226.800 398.514,221.620 398.160,215.700 398.693 " stroke="none" fill="#412575" fill-rule="evenodd"></path></g></svg>