<svg id="svg" version="1.1" xmlns="http://www.w3.org/2000/svg" xmlns:xlink="http://www.w3.org/1999/xlink" width="400" height="400" viewBox="0, 0, 400,400"><g id="svgg"><path id="path0" d="M0.000 200.000 L 0.000 400.000 200.000 400.000 L 400.000 400.000 400.000 200.000 L 400.000 0.000 200.000 0.000 L 0.000 0.000 0.000 200.000 M107.855 129.400 C 107.982 129.730,108.439 130.000,108.871 130.000 C 110.895 130.000,110.791 126.684,110.821 191.792 L 110.849 252.448 112.308 253.824 L 113.767 255.200 136.008 255.200 L 158.250 255.200 159.400 254.000 C 160.032 253.340,160.741 252.800,160.975 252.800 C 161.225 252.800,161.386 251.937,161.367 250.700 C 161.063 231.557,161.234 132.989,161.571 132.876 C 161.807 132.798,162.000 132.428,162.000 132.055 C 162.000 131.681,162.614 130.796,163.366 130.088 L 164.731 128.800 172.178 128.800 C 178.429 128.800,179.662 128.896,179.855 129.400 C 180.040 129.881,180.923 130.000,184.305 130.000 L 188.524 130.000 190.876 132.300 C 192.769 134.151,193.184 134.780,193.001 135.524 C 192.829 136.219,193.074 136.712,193.986 137.513 C 194.654 138.099,195.200 138.898,195.200 139.289 C 195.200 139.680,195.380 140.000,195.600 140.000 C 195.820 140.000,196.000 140.431,196.000 140.957 C 196.000 141.484,196.289 142.025,196.642 142.161 C 197.016 142.304,197.185 142.661,197.048 143.019 C 196.915 143.365,197.071 143.729,197.407 143.858 C 197.733 143.983,198.000 144.497,198.000 145.000 C 198.000 145.503,198.281 146.022,198.625 146.154 C 198.969 146.286,199.126 146.596,198.974 146.842 C 198.820 147.091,199.275 147.781,200.006 148.405 C 201.025 149.275,201.260 149.728,201.069 150.458 C 200.891 151.137,201.077 151.616,201.741 152.198 C 202.715 153.049,204.000 155.361,204.000 156.261 C 204.000 156.558,204.145 156.800,204.323 156.800 C 204.664 156.800,206.000 159.576,206.000 160.285 C 206.000 160.515,206.274 160.930,206.610 161.208 C 206.945 161.486,207.122 161.812,207.003 161.931 C 206.883 162.050,207.353 162.733,208.046 163.448 C 208.895 164.324,209.239 165.008,209.099 165.543 C 208.959 166.078,209.274 166.705,210.065 167.463 C 210.934 168.295,211.179 168.828,211.008 169.510 C 210.833 170.209,211.070 170.679,211.988 171.452 C 212.655 172.012,213.200 172.815,213.200 173.236 C 213.200 173.656,213.380 174.000,213.600 174.000 C 213.820 174.000,214.000 174.431,214.000 174.957 C 214.000 175.484,214.270 176.018,214.600 176.145 C 214.930 176.271,215.200 176.741,215.200 177.187 C 215.200 177.634,215.380 178.000,215.600 178.000 C 215.820 178.000,216.000 178.431,216.000 178.957 C 216.000 179.484,216.281 180.022,216.625 180.154 C 216.974 180.288,217.124 180.599,216.964 180.858 C 216.807 181.113,216.944 181.519,217.269 181.761 C 218.258 182.496,219.232 184.252,218.994 184.872 C 218.858 185.227,219.248 185.823,219.985 186.388 C 220.653 186.901,221.200 187.565,221.200 187.865 C 221.200 188.359,221.483 189.022,222.451 190.800 C 222.853 191.537,223.827 193.588,224.162 194.400 C 224.298 194.730,224.754 195.540,225.175 196.200 C 225.597 196.860,225.955 197.693,225.971 198.051 C 225.987 198.409,226.268 198.924,226.596 199.196 C 226.923 199.468,227.110 199.823,227.010 199.984 C 226.910 200.146,227.371 200.797,228.034 201.433 C 228.930 202.291,229.180 202.824,229.008 203.510 C 228.833 204.209,229.070 204.679,229.988 205.452 C 230.655 206.012,231.200 206.815,231.200 207.236 C 231.200 207.656,231.380 208.000,231.600 208.000 C 231.820 208.000,232.000 208.431,232.000 208.957 C 232.000 209.484,232.270 210.018,232.600 210.145 C 232.930 210.271,233.200 210.741,233.200 211.187 C 233.200 211.634,233.380 212.000,233.600 212.000 C 233.820 212.000,234.000 212.431,234.000 212.957 C 234.000 213.484,234.289 214.025,234.642 214.161 C 235.016 214.304,235.185 214.661,235.048 215.019 C 234.915 215.365,235.071 215.729,235.407 215.858 C 235.733 215.983,236.000 216.516,236.000 217.043 C 236.000 217.569,236.176 218.000,236.390 218.000 C 236.641 218.000,236.820 204.065,236.890 179.133 C 236.977 148.474,237.106 140.231,237.500 140.100 C 237.853 139.982,238.000 138.825,238.000 136.171 C 238.000 132.200,238.538 130.800,240.065 130.800 C 240.443 130.800,240.864 130.620,241.000 130.400 C 241.160 130.140,249.804 130.000,265.624 130.000 C 281.608 130.000,290.000 130.138,290.000 130.400 C 290.000 130.656,293.650 130.800,300.151 130.800 C 308.686 130.800,310.381 130.896,310.800 131.400 C 311.102 131.764,311.978 132.000,313.025 132.000 C 313.975 132.000,314.864 132.180,315.000 132.400 C 315.136 132.620,315.755 132.800,316.375 132.800 C 316.995 132.800,317.726 133.070,318.000 133.400 C 318.274 133.730,318.836 134.000,319.249 134.000 C 319.662 134.000,320.000 134.180,320.000 134.400 C 320.000 134.620,320.329 134.800,320.730 134.800 C 321.132 134.800,321.883 135.250,322.400 135.800 C 322.917 136.350,323.557 136.800,323.822 136.800 C 324.403 136.800,333.200 145.441,333.200 146.011 C 333.200 146.231,333.367 146.723,333.571 147.105 C 333.775 147.487,334.047 148.070,334.175 148.400 C 334.304 148.730,334.754 149.540,335.175 150.200 C 335.597 150.860,335.955 151.696,335.971 152.057 C 335.987 152.419,336.270 152.818,336.600 152.945 C 337.010 153.102,337.200 153.743,337.200 154.964 C 337.200 155.948,337.380 156.864,337.600 157.000 C 337.841 157.149,338.000 159.911,338.000 163.944 C 338.000 168.767,338.140 170.780,338.500 171.140 C 339.332 171.972,339.442 239.371,338.613 240.636 C 338.125 241.381,338.000 242.916,338.000 248.162 C 338.000 252.124,337.840 254.851,337.600 255.000 C 337.380 255.136,337.200 255.755,337.200 256.375 C 337.200 256.995,336.930 257.726,336.600 258.000 C 336.270 258.274,336.000 259.005,336.000 259.625 C 336.000 260.245,335.820 260.864,335.600 261.000 C 335.380 261.136,335.200 261.602,335.200 262.036 C 335.200 262.470,334.930 262.929,334.600 263.055 C 334.270 263.182,334.000 263.595,334.000 263.973 C 334.000 264.351,333.550 265.083,333.000 265.600 C 332.450 266.117,332.000 266.746,332.000 266.999 C 332.000 267.652,324.508 275.200,323.860 275.200 C 323.565 275.200,323.001 275.556,322.607 275.992 C 322.213 276.428,321.283 276.898,320.541 277.038 C 319.798 277.177,319.093 277.450,318.972 277.645 C 318.851 277.840,318.423 278.000,318.019 278.000 C 317.616 278.000,317.182 278.270,317.055 278.600 C 316.911 278.977,316.299 279.200,315.413 279.200 C 314.636 279.200,314.000 279.380,314.000 279.600 C 314.000 279.828,312.816 280.000,311.249 280.000 C 309.292 280.000,308.354 280.173,308.000 280.600 C 307.569 281.119,304.778 281.200,287.375 281.200 C 274.388 281.200,267.160 281.342,267.000 281.600 C 266.864 281.820,266.031 282.000,265.148 282.000 C 264.255 282.000,263.277 282.266,262.943 282.600 C 262.453 283.090,260.996 283.200,255.020 283.200 C 249.000 283.200,247.609 283.093,247.200 282.600 C 246.863 282.194,245.958 282.000,244.394 282.000 C 242.669 282.000,242.025 281.842,241.846 281.375 C 241.714 281.031,241.420 280.864,241.193 281.004 C 240.698 281.310,236.800 277.673,236.800 276.905 C 236.800 276.608,236.344 275.878,235.787 275.283 C 235.120 274.570,234.845 273.911,234.981 273.355 C 235.130 272.745,234.856 272.256,233.994 271.595 C 233.337 271.092,232.800 270.358,232.800 269.964 C 232.800 269.570,232.620 269.136,232.400 269.000 C 232.180 268.864,232.000 268.398,232.000 267.964 C 232.000 267.530,231.730 267.071,231.400 266.945 C 231.070 266.818,230.800 266.461,230.800 266.152 C 230.800 265.842,230.633 265.277,230.429 264.895 C 230.225 264.513,229.953 263.930,229.825 263.600 C 229.696 263.270,229.246 262.460,228.825 261.800 C 228.403 261.140,228.045 260.307,228.029 259.949 C 228.013 259.591,227.732 259.076,227.404 258.804 C 227.077 258.532,226.890 258.177,226.990 258.016 C 227.090 257.854,226.638 257.211,225.986 256.586 C 225.334 255.962,224.800 255.124,224.800 254.725 C 224.800 254.326,224.620 254.000,224.400 254.000 C 224.180 254.000,224.000 253.662,224.000 253.249 C 224.000 252.836,223.730 252.274,223.400 252.000 C 223.070 251.726,222.800 251.164,222.800 250.751 C 222.800 250.338,222.620 250.000,222.400 250.000 C 222.180 250.000,222.000 249.662,222.000 249.249 C 222.000 248.836,221.722 248.267,221.382 247.985 C 221.042 247.703,220.859 247.224,220.975 246.921 C 221.091 246.618,220.920 246.267,220.593 246.142 C 220.267 246.017,220.000 245.503,220.000 245.000 C 220.000 244.497,219.711 243.975,219.358 243.839 C 219.006 243.704,218.805 243.364,218.912 243.084 C 219.020 242.804,218.578 242.045,217.931 241.397 C 217.137 240.603,216.822 239.959,216.964 239.417 C 217.108 238.865,216.802 238.274,215.987 237.529 C 215.334 236.933,214.800 236.176,214.800 235.846 C 214.800 235.517,214.620 235.136,214.400 235.000 C 214.180 234.864,214.000 234.425,214.000 234.025 C 214.000 233.625,213.732 233.076,213.404 232.804 C 213.077 232.532,212.895 232.170,213.000 232.000 C 213.105 231.830,212.923 231.468,212.596 231.196 C 212.268 230.924,212.000 230.386,212.000 230.000 C 212.000 229.614,211.732 229.076,211.404 228.804 C 211.077 228.532,210.890 228.177,210.990 228.016 C 211.090 227.854,210.638 227.211,209.986 226.586 C 209.334 225.962,208.800 225.124,208.800 224.725 C 208.800 224.326,208.620 224.000,208.400 224.000 C 208.180 224.000,208.000 223.662,208.000 223.249 C 208.000 222.836,207.730 222.274,207.400 222.000 C 207.070 221.726,206.800 221.164,206.800 220.751 C 206.800 220.338,206.620 220.000,206.400 220.000 C 206.180 220.000,206.000 219.662,206.000 219.249 C 206.000 218.836,205.722 218.267,205.382 217.985 C 205.042 217.703,204.859 217.224,204.975 216.921 C 205.091 216.618,204.920 216.267,204.593 216.142 C 204.267 216.017,204.000 215.503,204.000 215.000 C 204.000 214.497,203.711 213.975,203.358 213.839 C 203.006 213.704,202.805 213.364,202.912 213.084 C 203.020 212.804,202.578 212.045,201.931 211.397 C 201.137 210.603,200.822 209.959,200.964 209.417 C 201.108 208.865,200.802 208.274,199.987 207.529 C 199.334 206.933,198.800 206.253,198.800 206.017 C 198.800 205.782,198.633 205.277,198.429 204.895 C 198.225 204.513,197.953 203.930,197.825 203.600 C 197.696 203.270,197.246 202.460,196.825 201.800 C 196.403 201.140,196.045 200.307,196.029 199.949 C 196.013 199.591,195.732 199.076,195.404 198.804 C 195.077 198.532,194.891 198.176,194.992 198.013 C 195.093 197.850,194.731 197.299,194.188 196.788 C 193.644 196.278,193.187 196.027,193.171 196.230 C 193.154 196.434,193.167 214.073,193.198 235.428 C 193.249 270.249,193.190 274.311,192.627 274.777 C 192.231 275.106,192.000 275.948,192.000 277.062 C 192.000 278.260,191.808 278.899,191.400 279.055 C 191.070 279.182,190.794 279.581,190.787 279.943 C 190.770 280.856,189.834 282.000,189.105 282.000 C 188.771 282.000,188.274 282.270,188.000 282.600 C 187.562 283.128,181.184 283.200,135.029 283.200 L 82.556 283.200 80.678 281.240 L 78.800 279.281 78.800 205.828 C 78.800 140.905,78.870 132.348,79.400 132.145 C 79.730 132.018,80.000 131.576,80.000 131.162 C 80.000 128.835,80.212 128.800,94.501 128.800 C 105.798 128.800,107.657 128.884,107.855 129.400 M270.300 157.127 C 269.220 157.251,269.200 157.302,269.200 159.984 C 269.200 162.042,269.052 162.771,268.600 162.945 C 268.072 163.147,268.000 168.296,268.000 205.945 C 268.000 243.593,268.072 248.742,268.600 248.945 C 269.035 249.111,269.200 249.793,269.200 251.416 C 269.200 254.985,268.380 254.800,284.171 254.800 C 293.124 254.800,298.000 254.659,298.000 254.400 C 298.000 254.179,299.050 254.000,300.351 254.000 C 301.953 254.000,302.861 253.809,303.200 253.400 C 303.474 253.070,303.954 252.800,304.267 252.800 C 305.765 252.800,308.000 249.184,308.000 246.762 C 308.000 245.929,308.180 245.136,308.400 245.000 C 308.662 244.838,308.800 232.529,308.800 209.376 C 308.800 186.059,308.664 174.000,308.400 174.000 C 308.153 174.000,308.000 171.929,308.000 168.587 C 308.000 164.145,307.892 163.134,307.400 162.945 C 307.070 162.818,306.800 162.411,306.800 162.040 C 306.800 160.980,303.529 158.000,302.365 158.000 C 301.812 158.000,301.137 157.777,300.865 157.505 C 300.411 157.051,273.822 156.721,270.300 157.127 " stroke="none" fill="#348ccc" fill-rule="evenodd"></path><path id="path1" d="M80.689 129.605 C 80.310 130.047,80.000 130.748,80.000 131.162 C 80.000 131.576,79.730 132.018,79.400 132.145 C 78.870 132.348,78.800 140.905,78.800 205.828 L 78.800 279.281 80.678 281.240 L 82.556 283.200 135.029 283.200 C 181.184 283.200,187.562 283.128,188.000 282.600 C 188.274 282.270,188.771 282.000,189.105 282.000 C 189.834 282.000,190.770 280.856,190.787 279.943 C 190.794 279.581,191.070 279.182,191.400 279.055 C 191.808 278.899,192.000 278.260,192.000 277.062 C 192.000 275.948,192.231 275.106,192.627 274.777 C 193.190 274.311,193.249 270.249,193.198 235.428 C 193.167 214.073,193.154 196.434,193.171 196.230 C 193.187 196.027,193.644 196.278,194.188 196.788 C 194.731 197.299,195.093 197.850,194.992 198.013 C 194.891 198.176,195.077 198.532,195.404 198.804 C 195.732 199.076,196.013 199.591,196.029 199.949 C 196.045 200.307,196.403 201.140,196.825 201.800 C 197.246 202.460,197.696 203.270,197.825 203.600 C 197.953 203.930,198.225 204.513,198.429 204.895 C 198.633 205.277,198.800 205.782,198.800 206.017 C 198.800 206.253,199.334 206.933,199.987 207.529 C 200.802 208.274,201.108 208.865,200.964 209.417 C 200.822 209.959,201.137 210.603,201.931 211.397 C 202.578 212.045,203.020 212.804,202.912 213.084 C 202.805 213.364,203.006 213.704,203.358 213.839 C 203.711 213.975,204.000 214.497,204.000 215.000 C 204.000 215.503,204.267 216.017,204.593 216.142 C 204.920 216.267,205.091 216.618,204.975 216.921 C 204.859 217.224,205.042 217.703,205.382 217.985 C 205.722 218.267,206.000 218.836,206.000 219.249 C 206.000 219.662,206.180 220.000,206.400 220.000 C 206.620 220.000,206.800 220.338,206.800 220.751 C 206.800 221.164,207.070 221.726,207.400 222.000 C 207.730 222.274,208.000 222.836,208.000 223.249 C 208.000 223.662,208.180 224.000,208.400 224.000 C 208.620 224.000,208.800 224.326,208.800 224.725 C 208.800 225.124,209.334 225.962,209.986 226.586 C 210.638 227.211,211.090 227.854,210.990 228.016 C 210.890 228.177,211.077 228.532,211.404 228.804 C 211.732 229.076,212.000 229.614,212.000 230.000 C 212.000 230.386,212.268 230.924,212.596 231.196 C 212.923 231.468,213.105 231.830,213.000 232.000 C 212.895 232.170,213.077 232.532,213.404 232.804 C 213.732 233.076,214.000 233.625,214.000 234.025 C 214.000 234.425,214.180 234.864,214.400 235.000 C 214.620 235.136,214.800 235.517,214.800 235.846 C 214.800 236.176,215.334 236.933,215.987 237.529 C 216.802 238.274,217.108 238.865,216.964 239.417 C 216.822 239.959,217.137 240.603,217.931 241.397 C 218.578 242.045,219.020 242.804,218.912 243.084 C 218.805 243.364,219.006 243.704,219.358 243.839 C 219.711 243.975,220.000 244.497,220.000 245.000 C 220.000 245.503,220.267 246.017,220.593 246.142 C 220.920 246.267,221.091 246.618,220.975 246.921 C 220.859 247.224,221.042 247.703,221.382 247.985 C 221.722 248.267,222.000 248.836,222.000 249.249 C 222.000 249.662,222.180 250.000,222.400 250.000 C 222.620 250.000,222.800 250.338,222.800 250.751 C 222.800 251.164,223.070 251.726,223.400 252.000 C 223.730 252.274,224.000 252.836,224.000 253.249 C 224.000 253.662,224.180 254.000,224.400 254.000 C 224.620 254.000,224.800 254.326,224.800 254.725 C 224.800 255.124,225.334 255.962,225.986 256.586 C 226.638 257.211,227.090 257.854,226.990 258.016 C 226.890 258.177,227.077 258.532,227.404 258.804 C 227.732 259.076,228.013 259.591,228.029 259.949 C 228.045 260.307,228.403 261.140,228.825 261.800 C 229.246 262.460,229.696 263.270,229.825 263.600 C 229.953 263.930,230.225 264.513,230.429 264.895 C 230.633 265.277,230.800 265.842,230.800 266.152 C 230.800 266.461,231.070 266.818,231.400 266.945 C 231.730 267.071,232.000 267.530,232.000 267.964 C 232.000 268.398,232.180 268.864,232.400 269.000 C 232.620 269.136,232.800 269.570,232.800 269.964 C 232.800 270.358,233.337 271.092,233.994 271.595 C 234.856 272.256,235.130 272.745,234.981 273.355 C 234.845 273.911,235.120 274.570,235.787 275.283 C 236.344 275.878,236.800 276.608,236.800 276.905 C 236.800 277.673,240.698 281.310,241.193 281.004 C 241.420 280.864,241.714 281.031,241.846 281.375 C 242.025 281.842,242.669 282.000,244.394 282.000 C 245.958 282.000,246.863 282.194,247.200 282.600 C 247.609 283.093,249.000 283.200,255.020 283.200 C 260.996 283.200,262.453 283.090,262.943 282.600 C 263.277 282.266,264.255 282.000,265.148 282.000 C 266.031 282.000,266.864 281.820,267.000 281.600 C 267.160 281.342,274.388 281.200,287.375 281.200 C 304.778 281.200,307.569 281.119,308.000 280.600 C 308.354 280.173,309.292 280.000,311.249 280.000 C 312.816 280.000,314.000 279.828,314.000 279.600 C 314.000 279.380,314.636 279.200,315.413 279.200 C 316.299 279.200,316.911 278.977,317.055 278.600 C 317.182 278.270,317.616 278.000,318.019 278.000 C 318.423 278.000,318.851 277.840,318.972 277.645 C 319.093 277.450,319.798 277.177,320.541 277.038 C 321.283 276.898,322.213 276.428,322.607 275.992 C 323.001 275.556,323.565 275.200,323.860 275.200 C 324.508 275.200,332.000 267.652,332.000 266.999 C 332.000 266.746,332.450 266.117,333.000 265.600 C 333.550 265.083,334.000 264.351,334.000 263.973 C 334.000 263.595,334.270 263.182,334.600 263.055 C 334.930 262.929,335.200 262.470,335.200 262.036 C 335.200 261.602,335.380 261.136,335.600 261.000 C 335.820 260.864,336.000 260.245,336.000 259.625 C 336.000 259.005,336.270 258.274,336.600 258.000 C 336.930 257.726,337.200 256.995,337.200 256.375 C 337.200 255.755,337.380 255.136,337.600 255.000 C 337.840 254.851,338.000 252.124,338.000 248.162 C 338.000 242.916,338.125 241.381,338.613 240.636 C 339.442 239.371,339.332 171.972,338.500 171.140 C 338.140 170.780,338.000 168.767,338.000 163.944 C 338.000 159.911,337.841 157.149,337.600 157.000 C 337.380 156.864,337.200 155.948,337.200 154.964 C 337.200 153.743,337.010 153.102,336.600 152.945 C 336.270 152.818,335.987 152.419,335.971 152.057 C 335.955 151.696,335.597 150.860,335.175 150.200 C 334.754 149.540,334.304 148.730,334.175 148.400 C 334.047 148.070,333.775 147.487,333.571 147.105 C 333.367 146.723,333.200 146.231,333.200 146.011 C 333.200 145.441,324.403 136.800,323.822 136.800 C 323.557 136.800,322.917 136.350,322.400 135.800 C 321.883 135.250,321.132 134.800,320.730 134.800 C 320.329 134.800,320.000 134.620,320.000 134.400 C 320.000 134.180,319.662 134.000,319.249 134.000 C 318.836 134.000,318.274 133.730,318.000 133.400 C 317.726 133.070,316.995 132.800,316.375 132.800 C 315.755 132.800,315.136 132.620,315.000 132.400 C 314.864 132.180,313.975 132.000,313.025 132.000 C 311.978 132.000,311.102 131.764,310.800 131.400 C 310.381 130.896,308.686 130.800,300.151 130.800 C 293.650 130.800,290.000 130.656,290.000 130.400 C 290.000 130.138,281.608 130.000,265.624 130.000 C 249.804 130.000,241.160 130.140,241.000 130.400 C 240.864 130.620,240.443 130.800,240.065 130.800 C 238.538 130.800,238.000 132.200,238.000 136.171 C 238.000 138.825,237.853 139.982,237.500 140.100 C 237.106 140.231,236.977 148.474,236.890 179.133 C 236.820 204.065,236.641 218.000,236.390 218.000 C 236.176 218.000,236.000 217.569,236.000 217.043 C 236.000 216.516,235.733 215.983,235.407 215.858 C 235.071 215.729,234.915 215.365,235.048 215.019 C 235.185 214.661,235.016 214.304,234.642 214.161 C 234.289 214.025,234.000 213.484,234.000 212.957 C 234.000 212.431,233.820 212.000,233.600 212.000 C 233.380 212.000,233.200 211.634,233.200 211.187 C 233.200 210.741,232.930 210.271,232.600 210.145 C 232.270 210.018,232.000 209.484,232.000 208.957 C 232.000 208.431,231.820 208.000,231.600 208.000 C 231.380 208.000,231.200 207.656,231.200 207.236 C 231.200 206.815,230.655 206.012,229.988 205.452 C 229.070 204.679,228.833 204.209,229.008 203.510 C 229.180 202.824,228.930 202.291,228.034 201.433 C 227.371 200.797,226.910 200.146,227.010 199.984 C 227.110 199.823,226.923 199.468,226.596 199.196 C 226.268 198.924,225.987 198.409,225.971 198.051 C 225.955 197.693,225.597 196.860,225.175 196.200 C 224.754 195.540,224.298 194.730,224.162 194.400 C 223.827 193.588,222.853 191.537,222.451 190.800 C 221.483 189.022,221.200 188.359,221.200 187.865 C 221.200 187.565,220.653 186.901,219.985 186.388 C 219.248 185.823,218.858 185.227,218.994 184.872 C 219.232 184.252,218.258 182.496,217.269 181.761 C 216.944 181.519,216.807 181.113,216.964 180.858 C 217.124 180.599,216.974 180.288,216.625 180.154 C 216.281 180.022,216.000 179.484,216.000 178.957 C 216.000 178.431,215.820 178.000,215.600 178.000 C 215.380 178.000,215.200 177.634,215.200 177.187 C 215.200 176.741,214.930 176.271,214.600 176.145 C 214.270 176.018,214.000 175.484,214.000 174.957 C 214.000 174.431,213.820 174.000,213.600 174.000 C 213.380 174.000,213.200 173.656,213.200 173.236 C 213.200 172.815,212.655 172.012,211.988 171.452 C 211.070 170.679,210.833 170.209,211.008 169.510 C 211.179 168.828,210.934 168.295,210.065 167.463 C 209.274 166.705,208.959 166.078,209.099 165.543 C 209.239 165.008,208.895 164.324,208.046 163.448 C 207.353 162.733,206.883 162.050,207.003 161.931 C 207.122 161.812,206.945 161.486,206.610 161.208 C 206.274 160.930,206.000 160.515,206.000 160.285 C 206.000 159.576,204.664 156.800,204.323 156.800 C 204.145 156.800,204.000 156.558,204.000 156.261 C 204.000 155.361,202.715 153.049,201.741 152.198 C 201.077 151.616,200.891 151.137,201.069 150.458 C 201.260 149.728,201.025 149.275,200.006 148.405 C 199.275 147.781,198.820 147.091,198.974 146.842 C 199.126 146.596,198.969 146.286,198.625 146.154 C 198.281 146.022,198.000 145.503,198.000 145.000 C 198.000 144.497,197.733 143.983,197.407 143.858 C 197.071 143.729,196.915 143.365,197.048 143.019 C 197.185 142.661,197.016 142.304,196.642 142.161 C 196.289 142.025,196.000 141.484,196.000 140.957 C 196.000 140.431,195.820 140.000,195.600 140.000 C 195.380 140.000,195.200 139.680,195.200 139.289 C 195.200 138.898,194.654 138.099,193.986 137.513 C 193.074 136.712,192.829 136.219,193.001 135.524 C 193.184 134.780,192.769 134.151,190.876 132.300 L 188.524 130.000 184.305 130.000 C 180.923 130.000,180.040 129.881,179.855 129.400 C 179.662 128.896,178.429 128.800,172.178 128.800 L 164.731 128.800 163.366 130.088 C 162.614 130.796,162.000 131.632,162.000 131.944 C 162.000 132.256,161.775 132.712,161.500 132.956 C 161.103 133.309,161.040 145.146,161.195 190.600 C 161.302 222.060,161.487 242.400,161.606 235.800 C 161.725 229.200,161.864 205.410,161.915 182.934 C 162.032 131.302,161.936 132.433,166.301 131.221 C 169.651 130.290,183.945 130.999,187.586 132.276 C 190.015 133.128,189.551 132.433,196.484 145.600 C 197.816 148.130,199.489 151.280,200.202 152.600 C 200.915 153.920,202.716 157.340,204.203 160.200 C 205.691 163.060,207.489 166.480,208.198 167.800 C 208.907 169.120,210.528 172.180,211.801 174.600 C 213.073 177.020,214.609 179.900,215.213 181.000 C 215.818 182.100,217.301 184.890,218.509 187.200 C 221.980 193.838,224.371 198.375,225.992 201.400 C 227.538 204.286,231.465 211.774,234.383 217.400 C 235.295 219.160,236.737 221.320,237.586 222.200 C 239.658 224.348,243.310 230.250,247.005 237.423 C 249.759 242.768,250.908 244.912,253.317 249.200 C 253.750 249.970,254.912 252.130,255.900 254.000 C 257.666 257.342,259.457 260.648,261.645 264.600 C 269.552 278.881,269.367 279.806,258.475 280.482 C 245.693 281.277,240.585 280.226,238.627 276.400 C 237.821 274.825,235.761 270.914,235.256 270.000 C 234.918 269.389,234.570 268.744,232.919 265.669 C 230.640 261.425,229.477 259.373,229.151 259.020 C 228.958 258.811,228.800 258.402,228.800 258.112 C 228.800 257.822,228.350 256.871,227.800 256.000 C 227.250 255.129,226.800 254.225,226.800 253.992 C 226.800 253.758,226.442 253.080,226.004 252.484 C 225.164 251.342,224.455 250.052,221.450 244.200 C 220.434 242.220,219.448 240.330,219.261 240.000 C 219.074 239.670,218.612 238.860,218.236 238.200 C 217.860 237.540,217.101 236.100,216.551 235.000 C 216.001 233.900,215.016 232.100,214.362 231.000 C 213.709 229.900,213.077 228.730,212.958 228.400 C 212.839 228.070,212.588 227.508,212.399 227.151 C 211.129 224.744,208.538 220.002,207.944 219.000 C 207.231 217.796,206.294 215.921,205.845 214.800 C 205.713 214.470,205.444 213.930,205.247 213.600 C 205.049 213.270,204.557 212.325,204.153 211.500 C 203.749 210.675,203.279 210.000,203.109 210.000 C 202.939 210.000,202.800 209.713,202.800 209.362 C 202.800 209.011,202.465 208.246,202.055 207.662 C 201.645 207.078,200.924 205.790,200.453 204.800 C 199.982 203.810,199.069 202.100,198.425 201.000 C 197.780 199.900,197.138 198.730,196.997 198.400 C 196.856 198.070,196.471 197.350,196.141 196.800 C 195.810 196.250,195.059 194.758,194.470 193.484 C 193.543 191.476,193.267 191.183,192.400 191.284 L 191.400 191.400 191.200 234.600 C 190.987 280.637,191.056 279.140,189.072 280.393 C 187.777 281.210,171.965 281.527,125.200 281.674 C 81.878 281.810,82.473 281.836,80.821 279.736 L 80.000 278.692 80.000 205.540 L 80.000 132.389 81.300 131.206 L 82.600 130.023 94.454 130.012 C 106.560 130.000,106.848 130.031,109.040 131.600 C 109.937 132.243,110.163 142.265,110.492 196.000 C 110.546 204.910,110.683 194.020,110.795 171.800 C 111.019 127.680,111.126 130.000,108.860 130.000 C 108.434 130.000,107.982 129.730,107.855 129.400 C 107.443 128.326,81.617 128.520,80.689 129.605 M300.865 157.505 C 301.137 157.777,301.812 158.000,302.365 158.000 C 303.529 158.000,306.800 160.980,306.800 162.040 C 306.800 162.411,307.070 162.818,307.400 162.945 C 307.892 163.134,308.000 164.145,308.000 168.587 C 308.000 171.929,308.153 174.000,308.400 174.000 C 308.664 174.000,308.800 186.059,308.800 209.376 C 308.800 232.529,308.662 244.838,308.400 245.000 C 308.180 245.136,308.000 245.929,308.000 246.762 C 308.000 249.184,305.765 252.800,304.267 252.800 C 303.954 252.800,303.474 253.070,303.200 253.400 C 302.861 253.809,301.953 254.000,300.351 254.000 C 299.050 254.000,298.000 254.179,298.000 254.400 C 298.000 254.659,293.124 254.800,284.171 254.800 C 268.380 254.800,269.200 254.985,269.200 251.416 C 269.200 249.793,269.035 249.111,268.600 248.945 C 268.072 248.742,268.000 243.593,268.000 205.945 C 268.000 168.296,268.072 163.147,268.600 162.945 C 269.052 162.771,269.200 162.042,269.200 159.984 C 269.200 157.302,269.220 157.251,270.300 157.127 C 273.822 156.721,300.411 157.051,300.865 157.505 M159.670 253.726 C 158.519 254.951,158.573 255.279,159.900 255.127 C 160.764 255.027,161.027 254.764,161.127 253.900 C 161.281 252.557,160.820 252.502,159.670 253.726 M111.200 254.000 C 111.200 254.602,111.467 254.800,112.275 254.800 L 113.351 254.800 112.492 254.000 C 112.020 253.560,111.536 253.200,111.417 253.200 C 111.298 253.200,111.200 253.560,111.200 254.000 M126.479 255.412 C 126.865 255.798,150.939 256.012,154.000 255.657 C 156.147 255.408,152.629 255.293,141.633 255.254 C 133.182 255.224,126.362 255.296,126.479 255.412 " stroke="none" fill="#b1d1e6" fill-rule="evenodd"></path><path id="path2" d="M89.600 131.200 C 85.195 131.342,83.053 131.575,82.200 132.005 L 81.000 132.611 80.899 205.695 L 80.798 278.778 81.899 279.344 C 82.815 279.814,89.905 279.962,124.000 280.223 C 183.888 280.680,187.540 280.625,189.262 279.230 L 190.124 278.532 190.436 234.863 C 190.608 210.844,190.862 190.834,191.001 190.396 C 191.644 188.372,193.635 190.066,195.867 194.536 C 196.873 196.551,198.119 198.920,198.635 199.800 C 199.151 200.680,200.084 202.390,200.708 203.600 C 203.631 209.267,207.344 216.242,207.644 216.627 C 207.827 216.862,208.851 218.752,209.919 220.827 C 212.016 224.902,215.049 230.647,217.297 234.800 C 218.071 236.230,219.469 238.840,220.403 240.600 C 221.337 242.360,222.886 245.240,223.845 247.000 C 224.803 248.760,226.052 251.100,226.620 252.200 C 228.320 255.495,231.339 261.193,233.190 264.600 C 234.146 266.360,235.900 269.690,237.087 272.000 C 241.008 279.629,240.931 279.595,254.600 279.595 C 267.879 279.596,268.505 278.884,263.226 269.800 C 262.714 268.920,261.128 265.950,259.701 263.200 C 258.273 260.450,256.971 258.020,256.806 257.800 C 256.462 257.341,255.027 254.715,251.999 249.000 C 248.369 242.149,246.717 239.076,245.877 237.612 C 245.432 236.836,244.536 235.210,243.887 234.000 C 243.237 232.790,241.981 230.450,241.095 228.800 C 240.209 227.150,238.541 224.685,237.388 223.322 C 236.173 221.885,233.952 218.274,232.099 214.722 C 230.343 211.355,228.162 207.205,227.253 205.500 C 223.297 198.080,222.391 196.370,220.319 192.400 C 217.083 186.200,206.946 167.032,205.193 163.800 C 204.359 162.260,202.875 159.470,201.897 157.600 C 189.136 133.203,189.242 133.392,188.115 133.041 C 182.641 131.334,165.830 131.771,163.800 133.672 C 162.722 134.682,162.577 141.690,162.426 200.200 C 162.362 225.280,162.195 248.043,162.055 250.785 L 161.800 255.770 160.400 256.104 C 157.283 256.849,112.228 256.971,111.493 256.236 C 109.974 254.717,109.943 253.655,109.640 192.687 L 109.343 133.096 107.971 131.940 L 106.600 130.784 101.200 130.892 C 98.230 130.951,93.010 131.090,89.600 131.200 " stroke="none" fill="#436581" fill-rule="evenodd"></path><path id="path3" d="M81.300 131.206 L 80.000 132.389 80.000 205.505 C 80.000 284.841,79.859 279.654,82.044 280.824 C 84.064 281.905,91.090 282.035,130.400 281.723 C 153.926 281.535,167.945 281.297,164.200 281.149 C 153.250 280.714,106.074 280.757,105.799 281.202 C 105.640 281.459,105.298 281.467,104.845 281.224 C 104.456 281.016,99.835 280.836,94.577 280.824 C 83.936 280.799,82.598 280.664,81.300 279.481 L 80.400 278.661 80.400 205.536 L 80.400 132.411 81.938 131.394 L 83.475 130.376 95.300 130.488 C 101.803 130.550,107.041 130.465,106.939 130.300 C 106.836 130.135,101.318 130.005,94.676 130.012 L 82.600 130.023 81.300 131.206 M108.460 131.702 C 109.043 132.196,109.614 132.870,109.729 133.200 C 109.885 133.651,109.945 133.617,109.968 133.064 C 110.000 132.331,108.560 130.837,107.800 130.815 C 107.580 130.809,107.877 131.208,108.460 131.702 M166.056 131.259 C 165.317 131.472,164.777 131.680,164.856 131.723 C 164.935 131.765,169.410 131.710,174.800 131.600 C 183.991 131.412,184.314 131.381,180.000 131.102 C 173.932 130.708,167.726 130.778,166.056 131.259 M162.131 143.000 C 162.133 144.540,162.205 145.121,162.292 144.291 C 162.379 143.461,162.377 142.201,162.289 141.491 C 162.200 140.781,162.129 141.460,162.131 143.000 M110.055 189.233 C 110.085 201.865,110.238 220.210,110.396 230.000 C 110.565 240.489,110.603 231.123,110.490 207.200 C 110.385 184.870,110.231 166.525,110.149 166.433 C 110.067 166.342,110.025 176.602,110.055 189.233 M161.760 230.200 C 161.761 233.500,161.822 234.797,161.898 233.082 C 161.973 231.367,161.972 228.667,161.897 227.082 C 161.821 225.497,161.759 226.900,161.760 230.200 M241.637 228.200 C 241.649 228.420,241.995 229.140,242.407 229.800 C 243.457 231.485,244.033 232.532,245.988 236.316 C 246.930 238.140,247.761 239.573,247.834 239.499 C 248.022 239.312,244.388 232.207,242.874 229.800 C 242.182 228.700,241.625 227.980,241.637 228.200 M161.724 238.600 C 161.726 239.920,161.801 240.412,161.890 239.693 C 161.979 238.974,161.977 237.894,161.886 237.293 C 161.795 236.692,161.722 237.280,161.724 238.600 M190.895 259.644 C 190.843 267.918,190.713 275.568,190.606 276.644 C 190.413 278.589,190.414 278.591,190.811 277.048 C 191.052 276.109,191.166 269.386,191.100 260.048 L 190.990 244.600 190.895 259.644 M251.601 246.647 C 251.600 247.242,254.866 252.867,255.086 252.647 C 255.180 252.553,254.795 251.742,254.229 250.846 C 253.663 249.949,253.200 249.127,253.200 249.018 C 253.200 248.909,252.841 248.230,252.401 247.510 C 251.962 246.789,251.602 246.401,251.601 246.647 M110.854 253.820 C 110.825 254.271,111.016 254.856,111.280 255.120 C 111.862 255.702,112.800 255.752,112.800 255.200 C 112.800 254.980,112.453 254.800,112.028 254.800 C 111.545 254.800,111.191 254.463,111.082 253.900 C 110.926 253.086,110.904 253.079,110.854 253.820 M161.175 254.000 C 161.007 254.960,160.822 255.019,156.600 255.475 L 152.200 255.950 156.539 255.816 C 161.152 255.674,161.760 255.445,161.509 253.946 L 161.351 253.000 161.175 254.000 M256.600 256.000 C 256.941 256.660,257.311 257.200,257.421 257.200 C 257.531 257.200,257.341 256.660,257.000 256.000 C 256.659 255.340,256.289 254.800,256.179 254.800 C 256.069 254.800,256.259 255.340,256.600 256.000 M119.000 255.552 L 115.400 255.800 118.800 256.098 C 122.615 256.432,145.048 256.515,144.727 256.194 C 144.614 256.080,141.119 255.915,136.960 255.825 C 132.802 255.736,127.870 255.583,126.000 255.484 C 124.130 255.386,120.980 255.416,119.000 255.552 M263.487 268.700 C 263.841 269.645,265.197 271.873,265.199 271.512 C 265.200 271.142,263.567 268.000,263.372 268.000 C 263.291 268.000,263.343 268.315,263.487 268.700 M266.600 276.600 C 266.600 277.768,266.735 278.640,266.900 278.538 C 267.285 278.300,267.280 275.545,266.894 274.938 C 266.732 274.684,266.600 275.432,266.600 276.600 M182.600 280.800 L 179.000 281.049 182.400 281.101 C 184.270 281.130,186.520 281.005,187.400 280.823 L 189.000 280.492 187.600 280.522 C 186.830 280.538,184.580 280.663,182.600 280.800 M250.100 280.696 C 251.365 280.775,253.435 280.775,254.700 280.696 C 255.965 280.616,254.930 280.551,252.400 280.551 C 249.870 280.551,248.835 280.616,250.100 280.696 " stroke="none" fill="#949ca7" fill-rule="evenodd"></path><path id="path4" d="M81.893 131.414 L 80.400 132.429 80.400 205.545 L 80.400 278.661 81.300 279.481 C 82.599 280.665,83.949 280.801,94.623 280.823 C 99.902 280.834,104.481 281.003,104.797 281.198 C 105.151 281.417,105.576 281.386,105.899 281.118 C 106.276 280.805,116.544 280.746,141.913 280.909 C 180.509 281.158,188.435 280.937,189.800 279.576 C 190.724 278.654,191.084 261.834,191.169 215.600 C 191.193 202.510,191.367 191.556,191.556 191.257 C 192.287 190.104,193.486 191.235,195.217 194.707 C 196.174 196.628,197.057 198.290,197.179 198.400 C 197.300 198.510,197.819 199.410,198.330 200.400 C 198.842 201.390,200.097 203.820,201.121 205.800 C 202.144 207.780,203.077 209.490,203.194 209.600 C 203.311 209.710,204.188 211.330,205.143 213.200 C 206.098 215.070,207.189 217.140,207.567 217.800 C 207.945 218.460,209.322 221.070,210.627 223.600 C 211.932 226.130,213.090 228.290,213.200 228.400 C 213.310 228.510,213.904 229.590,214.521 230.800 C 217.177 236.014,218.978 239.414,219.181 239.600 C 219.302 239.710,219.985 240.970,220.701 242.400 C 221.416 243.830,222.990 246.800,224.197 249.000 C 225.405 251.200,226.973 254.170,227.684 255.600 C 228.394 257.030,229.070 258.290,229.187 258.400 C 229.304 258.510,229.797 259.410,230.282 260.400 C 231.126 262.122,233.930 267.424,237.593 274.228 C 240.749 280.092,240.894 280.153,251.954 280.333 C 261.516 280.489,264.666 280.279,265.855 279.408 C 267.046 278.536,266.867 274.667,265.530 272.384 C 264.955 271.403,263.721 269.160,262.789 267.400 C 258.237 258.810,255.237 253.316,253.326 250.067 C 252.377 248.454,251.600 246.915,251.600 246.647 C 251.600 246.379,251.414 245.974,251.187 245.747 C 250.961 245.521,250.082 244.000,249.235 242.367 C 246.682 237.447,244.550 233.480,243.664 232.000 C 243.203 231.230,242.437 229.790,241.962 228.800 C 241.486 227.810,240.985 226.910,240.848 226.800 C 240.711 226.690,240.365 226.145,240.079 225.588 C 239.793 225.032,238.714 223.667,237.680 222.554 C 236.646 221.442,234.884 218.747,233.764 216.566 C 230.793 210.781,227.898 205.293,226.386 202.578 C 225.657 201.270,224.181 198.490,223.105 196.400 C 222.029 194.310,220.195 190.800,219.030 188.600 C 217.865 186.400,216.202 183.250,215.334 181.600 C 212.846 176.873,209.400 170.404,208.088 168.000 C 207.428 166.790,206.053 164.180,205.034 162.200 C 204.015 160.220,202.213 156.800,201.030 154.600 C 199.847 152.400,198.045 148.980,197.025 147.000 C 196.005 145.020,195.025 143.130,194.847 142.800 C 194.670 142.470,194.281 141.750,193.985 141.200 C 193.688 140.650,192.782 138.928,191.971 137.372 C 189.731 133.074,189.623 132.953,187.402 132.253 C 184.244 131.258,166.414 131.295,164.400 132.301 C 162.372 133.313,162.388 133.070,162.181 167.000 C 161.930 208.069,161.619 246.530,161.499 251.393 L 161.400 255.386 159.800 255.664 C 157.117 256.131,122.071 256.485,118.600 256.080 L 115.400 255.706 119.000 255.578 L 122.600 255.450 117.800 255.225 C 114.794 255.084,112.892 255.150,112.711 255.400 C 111.693 256.811,111.001 254.879,111.137 251.006 C 111.219 248.669,111.125 247.199,110.903 247.337 C 110.419 247.635,110.000 210.510,110.000 167.360 C 110.000 147.869,109.846 133.647,109.629 133.077 C 108.683 130.588,107.652 130.400,94.946 130.400 L 83.386 130.400 81.893 131.414 M107.971 131.940 L 109.343 133.096 109.640 192.687 C 109.943 253.655,109.974 254.717,111.493 256.236 C 112.228 256.971,157.283 256.849,160.400 256.104 L 161.800 255.770 162.055 250.785 C 162.195 248.043,162.362 225.280,162.426 200.200 C 162.577 141.690,162.722 134.682,163.800 133.672 C 165.830 131.771,182.641 131.334,188.115 133.041 C 189.242 133.392,189.136 133.203,201.897 157.600 C 202.875 159.470,204.359 162.260,205.193 163.800 C 206.946 167.032,217.083 186.200,220.319 192.400 C 222.391 196.370,223.297 198.080,227.253 205.500 C 228.162 207.205,230.343 211.355,232.099 214.722 C 233.952 218.274,236.173 221.885,237.388 223.322 C 238.541 224.685,240.209 227.150,241.095 228.800 C 241.981 230.450,243.237 232.790,243.887 234.000 C 244.536 235.210,245.432 236.836,245.877 237.612 C 246.717 239.076,248.369 242.149,251.999 249.000 C 255.027 254.715,256.462 257.341,256.806 257.800 C 256.971 258.020,258.273 260.450,259.701 263.200 C 261.128 265.950,262.714 268.920,263.226 269.800 C 268.505 278.884,267.879 279.596,254.600 279.595 C 240.931 279.595,241.008 279.629,237.087 272.000 C 235.900 269.690,234.146 266.360,233.190 264.600 C 231.339 261.193,228.320 255.495,226.620 252.200 C 226.052 251.100,224.803 248.760,223.845 247.000 C 222.886 245.240,221.337 242.360,220.403 240.600 C 219.469 238.840,218.071 236.230,217.297 234.800 C 215.049 230.647,212.016 224.902,209.919 220.827 C 208.851 218.752,207.827 216.862,207.644 216.627 C 207.344 216.242,203.631 209.267,200.708 203.600 C 200.084 202.390,199.151 200.680,198.635 199.800 C 198.119 198.920,196.873 196.551,195.867 194.536 C 193.635 190.066,191.644 188.372,191.001 190.396 C 190.862 190.834,190.608 210.844,190.436 234.863 L 190.124 278.532 189.262 279.230 C 187.540 280.625,183.888 280.680,124.000 280.223 C 89.905 279.962,82.815 279.814,81.899 279.344 L 80.798 278.778 80.899 205.695 L 81.000 132.611 82.200 132.005 C 83.397 131.402,87.379 131.168,101.200 130.892 L 106.600 130.784 107.971 131.940 " stroke="none" fill="#889aa8" fill-rule="evenodd"></path></g></svg>