<svg id="svg" version="1.1" xmlns="http://www.w3.org/2000/svg" xmlns:xlink="http://www.w3.org/1999/xlink" width="400" height="400" viewBox="0, 0, 400,400"><g id="svgg"><path id="path0" d="M94.328 131.182 C 83.874 131.388,83.194 131.447,82.128 132.243 L 81.000 133.086 80.899 205.882 L 80.798 278.678 82.299 279.331 C 83.644 279.917,88.100 280.009,125.200 280.219 C 184.268 280.553,187.730 280.501,189.187 279.258 C 189.931 278.622,189.965 277.564,190.184 248.000 C 190.471 209.415,190.804 190.240,191.200 189.601 C 191.749 188.712,193.883 190.364,194.785 192.377 C 195.691 194.398,198.597 199.828,199.935 202.000 C 200.409 202.770,200.798 203.656,200.799 203.969 C 200.799 204.281,201.051 204.821,201.359 205.169 C 201.666 205.516,202.809 207.510,203.899 209.600 C 204.989 211.690,206.447 214.390,207.138 215.600 C 207.829 216.810,209.133 219.240,210.035 221.000 C 210.937 222.760,212.553 225.820,213.627 227.800 C 214.701 229.780,215.876 232.030,216.238 232.800 C 216.601 233.570,217.059 234.470,217.257 234.800 C 217.455 235.130,217.928 236.032,218.309 236.805 C 218.689 237.578,219.405 238.776,219.900 239.467 C 220.395 240.158,220.801 240.966,220.803 241.262 C 220.804 241.558,221.166 242.340,221.608 243.000 C 222.049 243.660,223.083 245.498,223.905 247.085 C 224.727 248.671,225.940 250.961,226.600 252.173 C 227.260 253.385,228.714 256.137,229.831 258.288 C 232.195 262.839,232.796 263.978,233.271 264.800 C 233.461 265.130,233.928 266.032,234.309 266.805 C 234.689 267.578,235.405 268.776,235.900 269.467 C 236.395 270.158,236.800 270.902,236.800 271.121 C 236.800 271.879,239.255 276.207,240.468 277.588 L 241.687 278.976 248.744 279.317 C 255.958 279.666,264.047 279.511,265.300 279.000 C 266.910 278.343,266.103 274.758,263.228 269.800 C 262.718 268.920,261.535 266.760,260.599 265.000 C 257.845 259.822,256.162 256.699,255.266 255.112 C 254.015 252.894,251.919 249.022,249.900 245.200 C 248.912 243.330,247.750 241.170,247.317 240.400 C 244.979 236.239,243.697 233.872,241.911 230.422 C 239.805 226.352,238.582 224.522,236.693 222.613 C 236.047 221.960,234.455 219.350,233.154 216.813 C 231.853 214.276,229.734 210.220,228.445 207.800 C 224.353 200.119,222.560 196.722,220.105 192.000 C 218.789 189.470,216.130 184.430,214.195 180.800 C 212.261 177.170,210.108 173.120,209.411 171.800 C 208.714 170.480,207.238 167.690,206.132 165.600 C 205.025 163.510,202.901 159.460,201.411 156.600 C 199.921 153.740,198.567 151.220,198.402 151.000 C 198.237 150.780,196.895 148.260,195.420 145.400 C 192.440 139.624,189.180 133.466,189.002 133.277 C 187.260 131.420,165.635 131.793,163.715 133.713 C 162.754 134.674,162.495 148.291,162.382 203.800 C 162.334 227.340,162.183 248.663,162.047 251.185 L 161.800 255.770 160.400 256.117 C 159.630 256.308,148.353 256.561,135.340 256.679 L 111.680 256.893 110.949 255.779 C 109.983 254.304,109.749 242.499,109.446 180.044 C 109.222 133.885,109.205 133.079,108.429 132.535 C 107.995 132.231,107.373 131.716,107.048 131.391 C 106.723 131.066,106.219 130.837,105.929 130.882 C 105.638 130.927,100.418 131.062,94.328 131.182 " stroke="none" fill="#406480" fill-rule="evenodd"></path><path id="path1" d="M0.000 200.000 L 0.000 400.000 200.000 400.000 L 400.000 400.000 400.000 200.000 L 400.000 0.000 200.000 0.000 L 0.000 0.000 0.000 200.000 M109.022 130.600 C 109.463 131.040,110.044 131.688,110.312 132.041 C 110.688 132.535,110.856 146.446,111.046 192.841 C 111.253 243.572,111.380 253.141,111.855 253.900 L 112.418 254.800 135.909 254.787 C 154.588 254.777,159.541 254.668,160.087 254.253 C 160.728 253.766,160.790 249.925,161.020 196.166 C 161.282 134.926,161.345 132.927,163.073 131.124 L 164.150 130.000 175.889 130.000 C 189.734 130.000,190.068 130.105,192.458 135.200 C 192.922 136.190,193.424 137.090,193.573 137.200 C 193.723 137.310,194.237 138.210,194.716 139.200 C 195.195 140.190,196.480 142.620,197.570 144.600 C 198.661 146.580,199.849 148.830,200.210 149.600 C 200.571 150.370,201.025 151.270,201.218 151.600 C 201.411 151.930,202.395 153.804,203.404 155.765 C 204.413 157.726,205.590 159.824,206.019 160.427 C 206.449 161.030,206.800 161.724,206.800 161.970 C 206.800 162.215,207.210 163.087,207.710 163.908 C 208.211 164.729,209.216 166.570,209.944 168.000 C 210.672 169.430,211.634 171.320,212.081 172.200 C 212.529 173.080,213.058 174.070,213.258 174.400 C 213.457 174.730,213.987 175.720,214.437 176.600 C 214.886 177.480,215.776 179.100,216.414 180.200 C 217.053 181.300,217.690 182.470,217.831 182.800 C 218.401 184.141,219.330 185.962,220.994 189.000 C 221.959 190.760,222.759 192.484,222.774 192.830 C 222.788 193.177,223.250 193.883,223.800 194.400 C 224.350 194.917,224.800 195.582,224.800 195.878 C 224.800 196.174,225.250 197.129,225.800 198.000 C 226.350 198.871,226.800 199.847,226.800 200.168 C 226.800 200.490,226.980 200.864,227.201 201.001 C 227.422 201.137,227.965 202.003,228.408 202.924 C 228.851 203.846,229.370 204.870,229.561 205.200 C 229.751 205.530,230.145 206.340,230.436 207.000 C 230.727 207.660,231.180 208.470,231.443 208.800 C 231.705 209.130,232.950 211.439,234.209 213.931 C 235.855 217.190,236.619 218.341,236.932 218.028 C 237.615 217.345,237.923 202.130,237.972 166.617 C 238.022 130.897,237.833 133.524,240.518 131.162 L 241.698 130.124 255.549 130.272 C 263.167 130.353,274.080 130.595,279.800 130.810 C 285.520 131.025,293.611 131.200,297.779 131.200 C 305.773 131.200,311.330 131.708,313.514 132.640 C 314.236 132.948,315.271 133.200,315.814 133.200 C 316.356 133.200,316.800 133.380,316.800 133.600 C 316.800 133.820,317.164 134.000,317.608 134.000 C 318.321 134.000,319.408 134.540,322.215 136.289 C 322.647 136.558,323.585 137.073,324.299 137.434 C 325.648 138.115,332.000 144.557,332.000 145.243 C 332.000 145.458,332.315 145.974,332.700 146.390 C 333.085 146.806,333.731 147.833,334.135 148.673 C 334.539 149.513,335.124 150.710,335.435 151.332 C 335.746 151.955,336.000 152.723,336.000 153.038 C 336.000 153.353,336.159 153.923,336.353 154.305 C 337.776 157.107,337.800 157.967,337.800 205.600 C 337.800 253.233,337.776 254.093,336.353 256.895 C 336.159 257.277,336.000 258.020,336.000 258.546 C 336.000 259.072,335.730 259.726,335.400 260.000 C 335.070 260.274,334.787 260.791,334.771 261.149 C 334.755 261.507,334.397 262.340,333.975 263.000 C 333.554 263.660,333.086 264.470,332.936 264.800 C 331.745 267.423,326.401 273.362,324.694 273.961 C 324.443 274.049,323.871 274.462,323.424 274.879 C 322.533 275.708,320.514 276.800,319.870 276.800 C 319.646 276.800,319.179 277.038,318.831 277.329 C 318.484 277.620,317.390 278.089,316.400 278.372 C 315.410 278.655,313.970 279.119,313.200 279.404 C 311.243 280.129,294.832 280.819,279.789 280.809 C 268.604 280.801,267.280 280.869,266.389 281.500 C 265.504 282.127,264.269 282.197,254.600 282.173 C 239.903 282.137,239.695 282.028,234.453 271.600 C 233.513 269.730,232.429 267.660,232.045 267.000 C 231.198 265.545,227.063 257.770,225.664 255.000 C 225.108 253.900,224.551 252.910,224.427 252.800 C 224.302 252.690,223.030 250.295,221.600 247.478 C 220.170 244.660,218.775 242.163,218.500 241.929 C 218.225 241.694,217.987 241.209,217.971 240.851 C 217.955 240.493,217.606 239.660,217.196 239.000 C 216.786 238.340,215.733 236.450,214.856 234.800 C 213.980 233.150,212.616 230.630,211.826 229.200 C 211.037 227.770,209.999 225.745,209.520 224.700 C 209.042 223.655,208.504 222.800,208.325 222.800 C 208.146 222.800,208.000 222.451,208.000 222.024 C 208.000 221.597,207.821 221.136,207.601 221.001 C 207.382 220.865,206.752 219.820,206.201 218.677 C 205.651 217.535,204.132 214.620,202.826 212.200 C 201.520 209.780,199.928 206.810,199.288 205.600 C 198.648 204.390,197.623 202.500,197.010 201.400 C 196.397 200.300,195.358 198.350,194.700 197.067 C 194.043 195.785,193.358 194.885,193.178 195.067 C 192.998 195.250,192.749 206.380,192.624 219.800 C 192.017 285.010,192.358 279.445,188.830 281.701 L 187.400 282.615 134.709 282.408 L 82.018 282.200 80.909 281.091 L 79.800 279.983 79.570 258.091 C 79.240 226.707,79.145 135.485,79.440 133.638 C 79.583 132.746,80.181 131.542,80.841 130.820 L 81.992 129.559 95.106 129.680 C 107.600 129.794,108.258 129.838,109.022 130.600 M271.471 156.672 C 267.703 156.946,267.997 152.757,268.019 205.887 C 268.037 248.757,268.089 252.304,268.723 253.600 L 269.407 255.000 283.404 255.125 C 300.861 255.280,302.562 255.023,305.900 251.726 C 307.125 250.516,308.000 249.298,308.000 248.801 C 308.000 248.333,308.278 247.101,308.617 246.064 C 309.469 243.460,309.295 168.999,308.428 164.800 C 307.821 161.862,306.384 159.564,304.604 158.683 C 300.327 156.565,301.058 156.653,287.000 156.576 C 279.740 156.536,272.752 156.579,271.471 156.672 " stroke="none" fill="#e3ebec" fill-rule="evenodd"></path><path id="path2" d="M81.075 131.122 C 80.484 131.739,80.000 132.396,80.000 132.583 C 80.000 132.770,80.315 132.570,80.700 132.139 C 81.085 131.708,81.845 131.050,82.389 130.678 C 83.041 130.231,83.169 130.000,82.764 130.000 C 82.426 130.000,81.666 130.505,81.075 131.122 M105.600 130.364 C 107.435 130.626,108.014 130.877,109.283 131.964 C 109.959 132.543,110.003 134.204,110.056 160.989 C 110.087 176.615,110.240 201.370,110.395 216.000 C 110.569 232.339,110.605 221.384,110.491 187.600 C 110.320 137.537,110.245 132.533,109.653 131.859 C 108.622 130.685,106.966 129.996,105.320 130.053 L 103.800 130.107 105.600 130.364 M165.187 130.728 C 163.251 131.586,162.007 133.203,162.000 134.870 C 161.998 135.381,161.907 146.690,161.798 160.000 C 161.690 173.310,161.536 199.770,161.458 218.800 C 161.380 237.830,161.182 253.710,161.019 254.089 C 160.507 255.281,158.316 255.400,137.200 255.389 C 121.204 255.380,118.165 255.450,123.600 255.705 C 131.683 256.083,159.480 255.885,160.461 255.443 C 161.674 254.895,161.707 253.651,162.025 195.600 C 162.199 163.810,162.498 136.784,162.688 135.542 C 163.334 131.313,164.118 131.060,175.828 131.297 C 188.675 131.558,189.006 131.696,192.407 138.200 C 193.557 140.400,195.170 143.460,195.990 145.000 C 198.489 149.690,201.369 155.155,204.001 160.200 C 205.378 162.840,206.997 165.900,207.599 167.000 C 208.921 169.418,211.566 174.394,214.402 179.800 C 217.248 185.227,220.159 190.750,222.199 194.600 C 223.132 196.360,224.846 199.600,226.008 201.800 C 227.170 204.000,228.792 207.060,229.614 208.600 C 230.435 210.140,232.163 213.450,233.454 215.955 C 234.744 218.461,236.539 221.341,237.442 222.355 C 239.577 224.753,244.035 231.771,245.601 235.200 C 246.135 236.370,246.686 237.424,247.793 239.400 C 248.409 240.500,249.854 243.200,251.004 245.400 C 252.154 247.600,253.449 250.030,253.882 250.800 C 257.077 256.481,262.595 266.711,264.873 271.176 C 267.111 275.562,267.444 278.094,265.958 279.438 C 265.174 280.148,264.374 280.200,254.228 280.200 L 243.339 280.200 241.422 279.000 C 239.797 277.983,239.200 277.220,237.508 274.000 C 235.103 269.422,232.490 264.519,231.006 261.800 C 230.405 260.700,228.651 257.370,227.108 254.400 C 225.565 251.430,224.167 248.820,224.002 248.600 C 223.837 248.380,222.809 246.490,221.718 244.400 C 219.866 240.852,218.198 237.728,215.311 232.400 C 214.656 231.190,212.892 227.860,211.392 225.000 C 209.893 222.140,208.153 218.900,207.527 217.800 C 206.901 216.700,205.758 214.540,204.988 213.000 C 204.217 211.460,202.754 208.670,201.736 206.800 C 200.717 204.930,199.394 202.500,198.796 201.400 C 198.197 200.300,196.719 197.510,195.511 195.200 C 193.401 191.166,192.741 190.448,191.742 191.101 C 191.403 191.321,191.242 202.671,191.127 234.400 C 190.955 281.915,191.099 279.418,188.481 280.468 C 186.909 281.098,159.298 281.480,118.400 281.437 L 83.400 281.400 81.916 280.478 C 80.439 279.559,80.432 279.542,80.297 276.478 L 80.161 273.400 80.080 276.464 C 79.986 280.069,80.948 281.333,84.151 281.814 C 86.896 282.225,185.123 281.724,187.376 281.287 C 191.862 280.417,191.539 283.737,191.810 235.800 C 192.090 186.321,191.749 189.424,196.001 197.700 C 198.378 202.325,199.015 203.528,202.198 209.400 C 202.913 210.720,204.486 213.690,205.693 216.000 C 206.900 218.310,208.338 221.010,208.888 222.000 C 209.439 222.990,211.031 225.960,212.426 228.600 C 213.821 231.240,215.511 234.428,216.181 235.684 C 216.851 236.941,218.096 239.281,218.946 240.884 C 219.796 242.488,221.170 245.060,222.000 246.600 C 222.830 248.140,223.908 250.166,224.396 251.102 C 224.884 252.038,225.444 252.904,225.641 253.026 C 225.839 253.147,226.000 253.510,226.000 253.832 C 226.000 254.153,226.420 255.087,226.934 255.908 C 227.448 256.729,229.048 259.650,230.489 262.400 C 239.192 279.007,239.474 279.426,242.704 280.566 C 246.855 282.031,263.773 281.709,266.500 280.113 L 267.800 279.352 267.726 275.976 C 267.545 267.776,266.830 249.327,266.665 248.597 C 266.212 246.594,266.057 193.355,266.455 176.600 C 267.053 151.495,267.277 134.760,267.029 133.800 C 266.610 132.175,265.253 132.000,253.102 132.000 L 241.564 132.000 240.614 132.950 C 240.023 133.540,239.547 134.637,239.355 135.850 C 239.018 137.979,238.875 213.652,239.200 218.200 C 239.390 220.854,239.354 221.007,238.518 221.125 C 237.323 221.295,236.709 220.487,233.822 214.938 C 226.687 201.225,224.658 197.364,224.397 197.000 C 224.127 196.624,223.014 194.548,218.551 186.100 C 215.784 180.861,212.864 175.342,211.197 172.200 C 210.380 170.660,208.490 167.060,206.996 164.200 C 205.502 161.340,203.522 157.560,202.595 155.800 C 201.668 154.040,199.961 150.800,198.803 148.600 C 197.644 146.400,196.054 143.430,195.269 142.000 C 194.484 140.570,193.317 138.320,192.676 137.000 C 190.053 131.599,189.383 131.215,181.800 130.776 C 175.001 130.382,166.026 130.356,165.187 130.728 M79.787 166.600 C 79.787 178.700,79.837 183.708,79.900 177.728 C 79.962 171.749,79.962 161.849,79.900 155.728 C 79.838 149.608,79.787 154.500,79.787 166.600 M79.766 197.200 C 79.766 201.270,79.825 202.935,79.898 200.900 C 79.971 198.865,79.971 195.535,79.898 193.500 C 79.825 191.465,79.766 193.130,79.766 197.200 M79.693 206.400 C 79.693 207.170,79.775 207.485,79.876 207.100 C 79.976 206.715,79.976 206.085,79.876 205.700 C 79.775 205.315,79.693 205.630,79.693 206.400 M79.709 210.000 C 79.709 210.990,79.787 211.395,79.882 210.900 C 79.978 210.405,79.978 209.595,79.882 209.100 C 79.787 208.605,79.709 209.010,79.709 210.000 M79.714 216.600 C 79.717 217.700,79.795 218.103,79.887 217.495 C 79.979 216.886,79.977 215.986,79.882 215.495 C 79.787 215.003,79.711 215.500,79.714 216.600 M110.847 253.220 C 110.787 254.518,111.482 255.213,112.780 255.153 C 113.729 255.109,113.717 255.088,112.603 254.849 C 111.686 254.653,111.347 254.314,111.151 253.397 C 110.912 252.283,110.891 252.271,110.847 253.220 " stroke="none" fill="#9dc1de" fill-rule="evenodd"></path><path id="path3" d="M82.400 130.651 C 79.760 132.510,79.988 125.428,80.063 202.964 C 80.101 241.484,80.205 274.479,80.296 276.286 L 80.460 279.572 81.930 280.486 L 83.400 281.400 118.400 281.437 C 159.298 281.480,186.909 281.098,188.481 280.468 C 191.099 279.418,190.955 281.915,191.127 234.400 C 191.242 202.671,191.403 191.321,191.742 191.101 C 192.741 190.448,193.401 191.166,195.511 195.200 C 199.581 202.981,200.013 203.773,200.407 204.167 C 201.140 204.900,200.822 203.441,199.935 202.000 C 198.597 199.828,195.691 194.398,194.785 192.377 C 193.883 190.364,191.749 188.712,191.200 189.601 C 190.804 190.240,190.471 209.415,190.184 248.000 C 189.965 277.564,189.931 278.622,189.187 279.258 C 187.730 280.501,184.268 280.553,125.200 280.219 C 88.100 280.009,83.644 279.917,82.299 279.331 L 80.798 278.678 80.899 205.882 L 81.000 133.086 82.128 132.243 C 83.516 131.206,106.099 130.527,107.120 131.491 C 107.405 131.761,107.995 132.231,108.429 132.535 C 109.205 133.079,109.222 133.885,109.446 180.044 C 109.749 242.499,109.983 254.304,110.949 255.779 L 111.680 256.893 135.340 256.679 C 148.353 256.561,159.630 256.308,160.400 256.117 L 161.800 255.769 162.063 250.185 C 162.395 243.152,162.739 137.128,162.429 137.438 C 162.303 137.564,162.089 163.706,161.954 195.533 C 161.707 253.634,161.675 254.898,160.461 255.439 C 157.992 256.539,112.433 255.790,111.263 254.630 C 110.663 254.035,110.049 206.540,110.017 158.189 C 109.998 129.810,110.219 132.247,107.532 130.739 C 105.894 129.821,83.690 129.743,82.400 130.651 M164.917 131.807 C 163.339 132.522,162.702 133.637,162.912 135.318 L 163.072 136.600 163.136 135.349 C 163.222 133.659,164.043 133.085,167.160 132.532 C 172.172 131.642,187.975 132.181,189.002 133.277 C 189.180 133.466,192.440 139.624,195.420 145.400 C 196.895 148.260,198.237 150.780,198.402 151.000 C 198.567 151.220,199.921 153.740,201.411 156.600 C 202.901 159.460,205.025 163.510,206.132 165.600 C 207.238 167.690,208.714 170.480,209.411 171.800 C 210.108 173.120,212.261 177.170,214.195 180.800 C 216.130 184.430,218.789 189.470,220.105 192.000 C 222.560 196.722,224.353 200.119,228.445 207.800 C 229.734 210.220,231.853 214.276,233.154 216.813 C 234.455 219.350,236.047 221.960,236.693 222.613 C 238.582 224.522,239.805 226.352,241.911 230.422 C 243.697 233.872,244.979 236.239,247.317 240.400 C 247.750 241.170,248.912 243.330,249.900 245.200 C 251.919 249.022,254.015 252.894,255.266 255.112 C 256.162 256.699,257.845 259.822,260.599 265.000 C 261.535 266.760,262.718 268.920,263.228 269.800 C 266.103 274.758,266.910 278.343,265.300 279.000 C 264.047 279.511,255.958 279.666,248.744 279.317 L 241.687 278.976 240.468 277.588 C 239.236 276.185,236.800 271.875,236.800 271.097 C 236.800 270.865,236.350 270.086,235.800 269.364 C 235.250 268.643,234.799 267.906,234.799 267.727 C 234.796 267.196,233.174 264.693,232.967 264.900 C 232.862 265.004,233.441 266.330,234.254 267.845 C 235.066 269.360,236.580 272.220,237.618 274.200 C 239.200 277.219,239.814 277.994,241.422 279.000 L 243.339 280.200 254.228 280.200 C 270.822 280.200,270.750 281.323,255.884 254.400 C 255.216 253.190,254.315 251.570,253.882 250.800 C 253.449 250.030,252.154 247.600,251.004 245.400 C 249.854 243.200,248.409 240.500,247.793 239.400 C 246.686 237.424,246.135 236.370,245.601 235.200 C 244.035 231.771,239.577 224.753,237.442 222.355 C 236.539 221.341,234.744 218.461,233.454 215.955 C 232.163 213.450,230.435 210.140,229.614 208.600 C 228.792 207.060,227.170 204.000,226.008 201.800 C 224.846 199.600,223.132 196.360,222.199 194.600 C 220.159 190.750,217.248 185.227,214.402 179.800 C 211.566 174.394,208.921 169.418,207.599 167.000 C 206.997 165.900,205.378 162.840,204.001 160.200 C 201.369 155.155,198.489 149.690,195.990 145.000 C 195.170 143.460,193.557 140.400,192.407 138.200 C 189.878 133.363,189.590 133.054,186.800 132.168 C 183.736 131.196,166.880 130.918,164.917 131.807 M200.800 204.880 C 200.800 205.019,201.429 206.273,202.198 207.666 C 202.968 209.060,204.225 211.460,204.993 213.000 C 205.760 214.540,206.901 216.700,207.527 217.800 C 208.153 218.900,209.893 222.140,211.392 225.000 C 212.892 227.860,214.656 231.190,215.311 232.400 C 218.198 237.728,219.866 240.852,221.718 244.400 C 222.809 246.490,223.837 248.380,224.002 248.600 C 224.167 248.820,225.565 251.430,227.108 254.400 C 231.279 262.427,232.004 263.762,232.421 264.180 C 233.141 264.902,232.812 263.604,231.891 262.092 C 231.392 261.271,230.267 259.197,229.391 257.483 C 228.516 255.768,227.260 253.377,226.600 252.168 C 225.940 250.959,224.727 248.671,223.905 247.085 C 223.083 245.498,222.049 243.660,221.608 243.000 C 221.166 242.340,220.804 241.558,220.803 241.262 C 220.801 240.966,220.395 240.158,219.900 239.467 C 219.405 238.776,218.689 237.578,218.309 236.805 C 217.928 236.032,217.455 235.130,217.257 234.800 C 217.059 234.470,216.601 233.570,216.238 232.800 C 215.876 232.030,214.701 229.780,213.627 227.800 C 212.553 225.820,210.937 222.760,210.035 221.000 C 209.133 219.240,207.829 216.810,207.138 215.600 C 206.447 214.390,204.992 211.690,203.904 209.600 C 202.141 206.210,200.800 204.172,200.800 204.880 " stroke="none" fill="#8c959d" fill-rule="evenodd"></path><path id="path4" d="M80.841 130.820 C 80.181 131.542,79.583 132.746,79.440 133.638 C 79.138 135.529,79.254 227.834,79.596 257.400 C 79.731 269.060,79.832 245.717,79.820 205.527 L 79.800 132.454 80.975 131.227 L 82.150 130.000 94.495 130.000 C 107.466 130.000,108.080 130.075,109.657 131.859 C 110.255 132.535,110.337 137.824,110.599 192.400 C 110.756 225.290,110.980 252.290,111.096 252.400 C 111.589 252.865,110.805 132.688,110.311 132.040 C 108.513 129.677,109.372 129.811,95.106 129.680 L 81.992 129.559 80.841 130.820 M163.073 131.124 C 161.345 132.927,161.282 134.926,161.020 196.166 C 160.790 249.925,160.728 253.766,160.087 254.253 C 159.544 254.665,154.570 254.795,136.400 254.874 C 121.310 254.939,115.945 255.056,120.800 255.214 C 130.326 255.524,158.734 255.371,159.872 255.003 C 161.314 254.537,161.311 254.612,161.458 218.800 C 161.567 192.442,161.844 149.865,162.003 135.000 C 162.050 130.637,165.347 129.879,180.600 130.727 C 189.536 131.223,189.984 131.456,192.676 137.000 C 193.317 138.320,194.484 140.570,195.269 142.000 C 196.054 143.430,197.644 146.400,198.803 148.600 C 199.961 150.800,201.668 154.040,202.595 155.800 C 203.522 157.560,205.502 161.340,206.996 164.200 C 208.490 167.060,210.380 170.660,211.197 172.200 C 212.864 175.342,215.784 180.861,218.551 186.100 C 223.014 194.548,224.127 196.624,224.397 197.000 C 224.658 197.364,226.687 201.225,233.822 214.938 C 236.709 220.487,237.323 221.295,238.518 221.125 C 239.354 221.007,239.390 220.854,239.200 218.200 C 238.875 213.652,239.018 137.979,239.355 135.850 C 239.547 134.637,240.023 133.540,240.614 132.950 L 241.564 132.000 253.102 132.000 C 265.253 132.000,266.610 132.175,267.029 133.800 C 267.277 134.760,267.053 151.495,266.455 176.600 C 266.057 193.355,266.212 246.594,266.665 248.597 C 266.830 249.327,267.545 267.776,267.726 275.976 L 267.800 279.352 266.500 280.113 C 263.773 281.709,246.855 282.031,242.704 280.566 C 239.474 279.426,239.192 279.007,230.489 262.400 C 229.048 259.650,227.448 256.729,226.934 255.908 C 226.420 255.087,226.000 254.153,226.000 253.832 C 226.000 253.510,225.839 253.147,225.641 253.026 C 225.444 252.904,224.884 252.038,224.396 251.102 C 223.908 250.166,222.830 248.140,222.000 246.600 C 221.170 245.060,219.796 242.488,218.946 240.884 C 218.096 239.281,216.851 236.941,216.181 235.684 C 215.511 234.428,213.821 231.240,212.426 228.600 C 211.031 225.960,209.439 222.990,208.888 222.000 C 208.338 221.010,206.900 218.310,205.693 216.000 C 204.486 213.690,202.913 210.720,202.198 209.400 C 199.015 203.528,198.378 202.325,196.001 197.700 C 191.749 189.424,192.090 186.321,191.810 235.800 C 191.567 278.820,191.593 278.095,190.240 279.791 C 188.769 281.636,188.162 281.659,135.649 281.873 C 82.766 282.088,83.050 282.095,81.202 280.540 C 79.735 279.306,79.594 279.879,81.032 281.230 L 82.064 282.200 134.732 282.408 L 187.400 282.615 188.830 281.701 C 192.358 279.445,192.017 285.010,192.624 219.800 C 192.749 206.380,192.998 195.250,193.178 195.067 C 193.358 194.885,194.043 195.785,194.700 197.067 C 195.358 198.350,196.397 200.300,197.010 201.400 C 197.623 202.500,198.648 204.390,199.288 205.600 C 199.928 206.810,201.520 209.780,202.826 212.200 C 204.132 214.620,205.651 217.535,206.201 218.677 C 206.752 219.820,207.382 220.865,207.601 221.001 C 207.821 221.136,208.000 221.597,208.000 222.024 C 208.000 222.451,208.146 222.800,208.325 222.800 C 208.504 222.800,209.042 223.655,209.520 224.700 C 209.999 225.745,211.037 227.770,211.826 229.200 C 212.616 230.630,213.980 233.150,214.856 234.800 C 215.733 236.450,216.786 238.340,217.196 239.000 C 217.606 239.660,217.955 240.493,217.971 240.851 C 217.987 241.209,218.225 241.694,218.500 241.929 C 218.775 242.163,220.170 244.660,221.600 247.478 C 223.030 250.295,224.302 252.690,224.427 252.800 C 224.551 252.910,225.108 253.900,225.664 255.000 C 227.063 257.770,231.198 265.545,232.045 267.000 C 232.429 267.660,233.513 269.730,234.453 271.600 C 239.695 282.028,239.903 282.137,254.600 282.173 C 264.269 282.197,265.504 282.127,266.389 281.500 C 267.280 280.869,268.604 280.801,279.789 280.809 C 294.832 280.819,311.243 280.129,313.200 279.404 C 313.970 279.119,315.410 278.655,316.400 278.372 C 317.390 278.089,318.484 277.620,318.831 277.329 C 319.179 277.038,319.646 276.800,319.870 276.800 C 320.514 276.800,322.533 275.708,323.424 274.879 C 323.871 274.462,324.443 274.049,324.694 273.961 C 326.401 273.362,331.745 267.423,332.936 264.800 C 333.086 264.470,333.554 263.660,333.975 263.000 C 334.397 262.340,334.755 261.507,334.771 261.149 C 334.787 260.791,335.070 260.274,335.400 260.000 C 335.730 259.726,336.000 259.072,336.000 258.546 C 336.000 258.020,336.159 257.277,336.353 256.895 C 337.776 254.093,337.800 253.233,337.800 205.600 C 337.800 157.967,337.776 157.107,336.353 154.305 C 336.159 153.923,336.000 153.353,336.000 153.038 C 336.000 152.723,335.746 151.955,335.435 151.332 C 335.124 150.710,334.539 149.513,334.135 148.673 C 333.731 147.833,333.085 146.806,332.700 146.390 C 332.315 145.974,332.000 145.458,332.000 145.243 C 332.000 144.557,325.648 138.115,324.299 137.434 C 323.585 137.073,322.647 136.558,322.215 136.289 C 319.408 134.540,318.321 134.000,317.608 134.000 C 317.164 134.000,316.800 133.820,316.800 133.600 C 316.800 133.380,316.356 133.200,315.814 133.200 C 315.271 133.200,314.236 132.948,313.514 132.640 C 311.330 131.708,305.773 131.200,297.779 131.200 C 293.611 131.200,285.520 131.025,279.800 130.810 C 274.080 130.595,263.167 130.353,255.549 130.272 L 241.698 130.124 240.518 131.162 C 237.833 133.524,238.022 130.897,237.972 166.617 C 237.923 202.130,237.615 217.345,236.932 218.028 C 236.619 218.341,235.855 217.190,234.209 213.931 C 232.950 211.439,231.705 209.130,231.443 208.800 C 231.180 208.470,230.727 207.660,230.436 207.000 C 230.145 206.340,229.751 205.530,229.561 205.200 C 229.370 204.870,228.851 203.846,228.408 202.924 C 227.965 202.003,227.422 201.137,227.201 201.001 C 226.980 200.864,226.800 200.490,226.800 200.168 C 226.800 199.847,226.350 198.871,225.800 198.000 C 225.250 197.129,224.800 196.174,224.800 195.878 C 224.800 195.582,224.350 194.917,223.800 194.400 C 223.250 193.883,222.788 193.177,222.774 192.830 C 222.759 192.484,221.959 190.760,220.994 189.000 C 219.330 185.962,218.401 184.141,217.831 182.800 C 217.690 182.470,217.053 181.300,216.414 180.200 C 215.776 179.100,214.886 177.480,214.437 176.600 C 213.987 175.720,213.457 174.730,213.258 174.400 C 213.058 174.070,212.529 173.080,212.081 172.200 C 211.634 171.320,210.672 169.430,209.944 168.000 C 209.216 166.570,208.211 164.729,207.710 163.908 C 207.210 163.087,206.800 162.215,206.800 161.970 C 206.800 161.724,206.449 161.030,206.019 160.427 C 205.590 159.824,204.413 157.726,203.404 155.765 C 202.395 153.804,201.411 151.930,201.218 151.600 C 201.025 151.270,200.571 150.370,200.210 149.600 C 199.849 148.830,198.661 146.580,197.570 144.600 C 196.480 142.620,195.195 140.190,194.716 139.200 C 194.237 138.210,193.723 137.310,193.573 137.200 C 193.424 137.090,192.922 136.190,192.458 135.200 C 190.068 130.105,189.734 130.000,175.889 130.000 L 164.150 130.000 163.073 131.124 M301.800 157.367 C 309.387 160.778,308.931 157.754,309.100 205.789 C 309.218 239.546,309.160 244.405,308.617 246.064 C 308.278 247.101,308.000 248.333,308.000 248.801 C 308.000 249.298,307.125 250.516,305.900 251.726 C 302.562 255.023,300.861 255.280,283.404 255.125 L 269.407 255.000 268.723 253.600 C 267.765 251.640,267.619 160.485,268.571 158.208 C 269.293 156.479,269.303 156.478,287.000 156.576 C 298.748 156.640,300.376 156.727,301.800 157.367 M111.200 253.700 C 111.200 254.059,111.392 254.471,111.627 254.616 C 112.313 255.040,112.380 254.661,111.767 253.823 C 111.293 253.174,111.200 253.154,111.200 253.700 " stroke="none" fill="#bbdbeb" fill-rule="evenodd"></path></g></svg>