<svg id="svg" version="1.1" xmlns="http://www.w3.org/2000/svg" xmlns:xlink="http://www.w3.org/1999/xlink" width="400" height="400" viewBox="0, 0, 400,400"><g id="svgg"><path id="path0" d="M0.000 200.000 L 0.000 400.000 200.000 400.000 L 400.000 400.000 400.000 200.000 L 400.000 0.000 200.000 0.000 L 0.000 0.000 0.000 200.000 M220.000 170.400 C 221.240 171.640,221.077 174.640,219.600 177.800 C 218.940 179.212,218.394 180.509,218.387 180.683 C 218.381 180.857,217.932 181.900,217.391 183.000 C 216.850 184.100,216.405 185.270,216.402 185.600 C 216.399 185.930,216.059 186.755,215.645 187.433 C 215.231 188.112,214.764 189.282,214.607 190.033 C 214.450 190.785,214.071 191.796,213.765 192.279 C 212.963 193.547,213.504 193.743,218.548 194.005 C 224.134 194.295,226.042 196.045,224.349 199.326 C 223.872 200.251,223.737 200.386,217.074 206.537 C 214.729 208.702,211.757 211.492,210.470 212.737 C 209.183 213.982,206.616 216.412,204.765 218.139 C 202.914 219.865,200.558 222.070,199.529 223.039 C 198.499 224.007,197.464 224.800,197.229 224.800 C 196.993 224.800,196.800 225.064,196.800 225.386 C 196.800 225.708,196.444 226.162,196.009 226.395 C 195.574 226.628,194.772 227.264,194.227 227.809 C 193.474 228.563,192.816 228.800,191.480 228.800 C 187.143 228.800,187.387 224.988,192.412 214.200 C 192.822 213.320,193.805 210.918,194.597 208.863 C 196.434 204.093,196.372 204.000,191.382 204.000 C 183.810 204.000,182.912 200.179,189.168 194.582 C 190.140 193.712,191.694 192.280,192.622 191.400 C 193.549 190.520,195.886 188.360,197.815 186.600 C 199.744 184.840,201.520 183.211,201.761 182.981 C 202.003 182.750,204.630 180.328,207.600 177.599 C 210.570 174.870,213.091 172.508,213.203 172.352 C 214.912 169.952,218.517 168.917,220.000 170.400 M236.771 178.985 C 238.341 179.797,238.400 180.086,238.400 187.009 C 238.400 193.958,238.505 194.191,240.889 192.538 C 243.632 190.637,248.955 190.828,252.072 192.938 C 256.746 196.102,257.367 198.707,257.125 214.135 L 257.000 222.071 255.878 223.035 C 254.473 224.243,252.908 224.263,251.176 223.096 C 249.345 221.861,249.285 221.485,249.240 210.879 L 249.200 201.557 248.100 200.179 C 246.529 198.210,243.598 198.178,240.918 200.100 C 238.436 201.880,238.400 202.056,238.400 212.350 C 238.400 221.980,238.392 222.022,236.411 223.341 C 234.531 224.593,231.344 223.712,230.421 221.686 C 229.782 220.283,229.869 180.802,230.513 179.971 C 231.757 178.364,234.681 177.904,236.771 178.985 M303.818 179.382 C 304.782 180.345,304.800 180.487,304.800 187.009 L 304.800 193.654 305.700 193.381 C 306.195 193.231,307.202 192.744,307.938 192.298 C 310.442 190.781,316.914 190.972,318.553 192.611 C 318.878 192.935,319.331 193.200,319.562 193.200 C 320.049 193.200,322.288 195.582,323.038 196.897 C 324.934 200.225,324.960 200.370,324.962 207.400 C 324.965 214.529,325.000 214.342,322.885 218.272 C 322.101 219.727,318.908 222.800,318.179 222.800 C 317.911 222.800,317.176 223.069,316.546 223.398 C 314.468 224.481,309.566 224.204,307.048 222.860 C 304.774 221.646,303.916 221.751,301.927 223.488 C 301.127 224.186,299.446 223.910,298.061 222.854 C 296.806 221.897,296.586 216.174,296.994 195.088 L 297.294 179.576 298.347 179.004 C 300.086 178.059,302.674 178.238,303.818 179.382 M80.837 181.819 C 82.721 182.793,82.800 183.488,82.800 198.979 L 82.800 213.507 83.700 213.748 C 84.195 213.881,86.680 213.992,89.223 213.995 C 95.735 214.002,97.729 215.864,96.422 220.717 C 95.635 223.642,94.320 224.000,84.366 224.000 C 75.012 224.000,72.810 223.530,71.983 221.356 C 71.464 219.991,71.474 184.383,71.994 183.015 C 72.687 181.193,78.188 180.449,80.837 181.819 M111.136 182.292 C 111.687 182.703,112.332 183.390,112.569 183.817 C 112.806 184.244,113.405 185.104,113.900 185.728 C 114.395 186.351,114.800 187.020,114.800 187.213 C 114.800 187.406,115.250 188.228,115.800 189.038 C 116.350 189.849,116.800 190.776,116.800 191.098 C 116.800 191.421,117.250 192.219,117.800 192.873 C 118.350 193.527,118.800 194.408,118.800 194.831 C 118.800 195.254,118.975 195.600,119.189 195.600 C 119.644 195.600,121.898 199.932,122.561 202.080 C 123.699 205.769,124.187 203.407,124.413 193.115 C 124.679 180.965,124.700 180.922,130.173 181.271 C 134.765 181.563,134.424 179.841,134.304 202.121 L 134.200 221.312 132.663 222.556 C 128.657 225.798,121.418 223.354,119.205 218.013 C 118.929 217.346,118.559 216.800,118.382 216.800 C 118.206 216.800,117.846 216.125,117.582 215.300 C 117.318 214.475,116.784 213.440,116.397 213.000 C 116.009 212.560,115.558 211.750,115.393 211.200 C 115.229 210.650,114.759 209.722,114.348 209.138 C 113.936 208.554,113.600 207.921,113.600 207.731 C 113.600 207.541,113.175 206.759,112.656 205.993 C 112.138 205.227,111.573 204.150,111.401 203.600 C 111.230 203.050,110.767 202.187,110.373 201.681 C 109.978 201.176,109.535 200.213,109.387 199.542 C 108.629 196.090,108.195 199.549,108.000 210.587 C 107.890 216.829,107.710 222.006,107.600 222.093 C 104.767 224.330,102.544 224.649,100.142 223.164 C 97.970 221.822,98.000 222.107,98.000 202.774 C 98.000 182.691,98.044 182.355,100.733 181.764 C 101.320 181.635,101.980 181.458,102.200 181.369 C 103.401 180.885,110.191 181.586,111.136 182.292 M163.902 182.260 C 164.726 182.628,165.953 183.138,166.628 183.393 C 167.927 183.883,168.555 184.371,171.050 186.825 C 173.620 189.352,174.784 191.005,174.794 192.137 C 174.797 192.542,175.160 193.331,175.600 193.891 C 177.034 195.714,176.666 210.800,175.187 210.800 C 175.030 210.800,174.791 211.497,174.655 212.348 C 174.519 213.199,174.117 214.137,173.762 214.432 C 173.407 214.726,172.966 215.364,172.781 215.850 C 172.417 216.807,167.843 220.800,167.111 220.800 C 166.864 220.800,166.329 221.103,165.920 221.473 C 165.511 221.843,163.787 222.392,162.088 222.694 C 151.559 224.563,144.154 224.513,141.737 222.556 L 140.200 221.312 140.096 202.505 C 139.980 181.475,139.868 182.335,142.810 181.578 C 145.291 180.939,162.166 181.484,163.902 182.260 M152.100 190.479 L 151.200 190.922 151.200 202.047 C 151.200 214.804,151.033 214.276,155.000 214.073 C 160.140 213.809,162.376 212.559,164.225 208.914 C 165.437 206.527,165.712 197.323,164.600 196.400 C 164.270 196.126,164.000 195.650,164.000 195.342 C 164.000 193.707,160.003 190.911,157.267 190.632 C 155.800 190.483,154.240 190.288,153.800 190.199 C 153.360 190.110,152.595 190.236,152.100 190.479 M289.056 192.080 C 290.694 192.860,290.800 193.834,290.800 208.038 L 290.800 221.638 289.768 222.594 C 288.010 224.223,283.200 223.827,283.200 222.053 C 283.200 221.750,281.055 222.396,278.274 223.538 C 273.283 225.586,267.315 222.910,264.588 217.400 L 263.400 215.000 263.266 204.571 L 263.133 194.141 264.217 192.852 C 265.232 191.646,265.446 191.571,267.541 191.682 C 270.753 191.851,270.787 191.964,270.794 202.525 C 270.800 211.050,270.823 211.299,271.824 213.415 C 273.355 216.651,276.238 218.241,277.600 216.600 C 277.874 216.270,278.284 216.000,278.511 216.000 C 279.239 216.000,281.643 213.949,282.433 212.654 C 283.125 211.518,283.197 210.555,283.199 202.389 C 283.200 192.343,283.335 191.760,285.705 191.517 C 287.144 191.370,287.793 191.479,289.056 192.080 M306.848 200.754 L 304.800 202.708 304.800 207.723 L 304.800 212.738 305.992 213.931 C 310.149 218.088,313.650 217.939,316.136 213.500 C 317.431 211.188,317.758 203.361,316.600 202.400 C 316.270 202.126,316.000 201.727,316.000 201.513 C 316.000 198.141,310.101 197.652,306.848 200.754 " stroke="none" fill="#0c1313" fill-rule="evenodd"></path><path id="path1" d="M232.267 180.667 C 231.750 181.184,231.957 220.997,232.480 221.520 C 233.131 222.171,234.875 222.126,235.824 221.433 C 236.544 220.906,236.614 220.180,236.800 211.333 C 237.018 200.926,236.957 201.196,239.600 198.940 C 242.272 196.659,244.850 196.165,247.419 197.441 C 250.511 198.976,250.575 199.220,250.800 210.368 C 251.031 221.817,251.370 222.828,254.571 221.611 L 255.647 221.202 255.524 210.301 L 255.400 199.400 254.076 197.317 C 250.918 192.349,244.130 191.363,239.792 195.243 C 237.619 197.188,237.023 195.758,236.800 188.074 C 236.639 182.527,236.482 181.095,236.000 180.791 C 235.312 180.356,232.665 180.269,232.267 180.667 M299.067 180.667 C 298.920 180.813,298.800 189.998,298.800 201.077 L 298.800 221.220 299.849 221.618 C 301.050 222.075,301.868 221.599,302.432 220.116 C 302.623 219.612,303.060 219.200,303.403 219.200 C 304.307 219.200,306.800 220.300,306.800 220.699 C 306.800 221.733,312.678 222.404,315.966 221.747 C 322.092 220.522,326.191 207.086,322.600 200.000 C 322.050 198.915,321.600 197.860,321.600 197.656 C 321.600 194.636,312.704 191.651,309.510 193.599 C 308.789 194.038,307.913 194.398,307.561 194.399 C 307.210 194.399,306.520 194.749,306.029 195.175 C 303.843 197.071,303.200 195.261,303.200 187.217 C 303.200 180.255,303.254 180.400,300.634 180.400 C 299.919 180.400,299.213 180.520,299.067 180.667 M73.966 183.900 L 73.000 185.000 73.200 202.400 C 73.405 220.269,73.490 221.165,75.022 221.753 C 75.376 221.889,79.611 222.000,84.433 222.000 C 94.756 222.000,95.143 221.859,94.822 218.200 C 94.663 216.384,93.473 216.000,88.000 216.000 C 83.564 216.000,82.764 215.899,81.944 215.236 L 81.000 214.471 80.886 199.777 C 80.751 182.479,80.824 182.800,77.039 182.800 C 75.242 182.800,74.790 182.962,73.966 183.900 M102.000 183.315 C 99.988 184.260,100.026 183.890,100.019 202.400 C 100.011 222.322,99.922 221.730,102.941 221.923 C 106.132 222.128,105.998 222.716,106.014 208.451 C 106.025 198.877,106.154 195.573,106.545 194.868 L 107.062 193.936 108.302 194.979 C 108.985 195.553,109.856 196.873,110.239 197.911 C 110.622 198.950,111.170 200.079,111.457 200.420 C 111.744 200.761,112.636 202.291,113.439 203.820 C 114.242 205.349,115.145 206.882,115.445 207.226 C 115.745 207.570,116.198 208.470,116.452 209.226 C 116.706 209.982,117.139 210.870,117.415 211.200 C 117.906 211.786,118.767 213.366,120.365 216.611 C 122.470 220.883,125.371 222.485,129.803 221.821 C 132.865 221.361,132.800 221.794,132.800 201.890 L 132.800 184.539 131.874 183.670 C 131.088 182.931,127.111 182.336,126.733 182.900 C 126.696 182.955,126.561 188.439,126.433 195.086 C 126.126 211.033,125.614 211.760,121.000 202.800 C 117.420 195.846,116.781 194.627,114.670 190.706 C 113.517 188.565,112.354 186.594,112.086 186.326 C 111.819 186.059,111.600 185.624,111.600 185.360 C 111.600 183.779,104.317 182.228,102.000 183.315 M144.142 183.049 C 142.001 183.538,142.034 183.249,141.985 202.015 C 141.933 222.188,141.814 221.419,145.063 221.825 C 154.680 223.027,165.844 220.539,169.986 216.271 C 176.140 209.931,176.132 194.194,169.972 188.034 C 169.294 187.355,168.634 186.800,168.507 186.800 C 168.380 186.800,167.714 186.372,167.028 185.849 C 164.432 183.868,148.882 181.966,144.142 183.049 M158.800 189.188 C 163.141 190.634,165.813 193.669,166.478 197.910 C 167.121 202.012,166.674 208.233,165.635 209.639 C 165.176 210.260,164.800 210.921,164.800 211.108 C 164.800 211.600,161.264 214.800,160.721 214.800 C 160.469 214.800,159.965 215.070,159.601 215.399 C 158.353 216.528,151.309 216.419,150.366 215.256 C 149.569 214.273,149.146 190.489,149.906 189.366 C 150.987 187.769,154.338 187.702,158.800 189.188 M286.183 193.288 C 284.461 194.194,284.400 194.565,284.400 204.166 L 284.400 213.379 282.007 215.656 C 279.347 218.187,277.495 218.999,275.109 218.678 C 273.573 218.472,271.200 216.760,271.200 215.857 C 271.200 215.640,270.885 215.115,270.500 214.690 C 269.883 214.009,269.788 212.823,269.694 204.659 C 269.636 199.566,269.503 195.015,269.398 194.544 C 269.102 193.217,267.375 192.979,266.074 194.086 L 265.000 195.000 265.237 204.600 C 265.504 215.403,265.761 216.762,268.035 219.344 C 270.872 222.568,276.666 223.089,280.613 220.475 C 283.000 218.893,283.302 218.893,284.533 220.467 C 285.259 221.394,285.851 221.733,286.741 221.733 C 289.251 221.733,289.202 222.017,289.178 207.651 L 289.156 194.600 288.060 193.738 C 287.204 193.064,286.794 192.966,286.183 193.288 M314.379 197.300 C 317.435 198.874,318.487 200.874,318.712 205.542 C 318.927 210.023,318.575 213.756,317.866 214.500 C 317.604 214.775,317.067 215.504,316.673 216.119 C 314.721 219.167,310.090 219.647,306.970 217.124 C 303.560 214.367,303.200 213.474,303.200 207.761 C 303.200 201.327,304.436 199.087,309.000 197.249 C 311.588 196.207,312.268 196.213,314.379 197.300 M213.600 197.045 C 215.965 197.340,221.200 197.380,221.200 197.103 C 221.200 196.936,219.265 196.827,216.900 196.860 C 214.535 196.893,213.050 196.976,213.600 197.045 " stroke="none" fill="#d9e4e6" fill-rule="evenodd"></path><path id="path2" d="M233.521 179.596 C 230.622 180.128,230.800 178.797,230.802 199.949 C 230.805 219.541,230.952 221.625,232.391 222.395 C 233.736 223.115,235.572 222.864,236.618 221.818 L 237.600 220.836 237.618 211.918 C 237.638 202.128,237.729 201.661,240.007 199.695 C 243.998 196.250,249.345 197.677,249.839 202.319 C 249.925 203.133,250.064 207.580,250.147 212.200 C 250.331 222.388,250.481 222.800,254.010 222.800 C 256.337 222.800,256.463 222.114,256.324 210.133 L 256.200 199.400 254.919 197.185 C 252.066 192.251,246.666 190.707,241.449 193.332 C 237.719 195.210,237.651 195.101,237.511 187.002 L 237.400 180.644 236.200 179.984 C 235.354 179.519,234.564 179.404,233.521 179.596 M299.942 179.520 C 297.482 179.810,297.553 179.129,297.682 201.090 C 297.810 222.833,297.728 222.101,300.106 222.623 C 301.134 222.849,301.508 222.723,302.202 221.916 C 303.533 220.368,304.749 220.256,306.561 221.512 C 310.110 223.973,317.140 223.146,320.278 219.898 C 324.528 215.500,326.116 205.304,323.409 199.800 C 322.868 198.700,322.419 197.612,322.413 197.381 C 322.388 196.566,319.274 193.924,317.211 192.969 C 314.112 191.533,311.547 191.650,307.909 193.395 C 304.006 195.267,304.000 195.257,304.000 187.200 C 304.000 179.640,303.702 179.077,299.942 179.520 M236.000 180.791 C 236.482 181.095,236.639 182.527,236.800 188.074 C 237.023 195.758,237.619 197.188,239.792 195.243 C 244.130 191.363,250.918 192.349,254.076 197.317 L 255.400 199.400 255.524 210.301 L 255.647 221.202 254.571 221.611 C 251.370 222.828,251.031 221.817,250.800 210.368 C 250.575 199.220,250.511 198.976,247.419 197.441 C 244.850 196.165,242.272 196.659,239.600 198.940 C 236.957 201.196,237.018 200.926,236.800 211.333 C 236.614 220.180,236.544 220.906,235.824 221.433 C 234.875 222.126,233.131 222.171,232.480 221.520 C 231.957 220.997,231.750 181.184,232.267 180.667 C 232.665 180.269,235.312 180.356,236.000 180.791 M302.567 180.643 C 303.107 180.850,303.200 181.813,303.200 187.217 C 303.200 195.261,303.843 197.071,306.029 195.175 C 306.520 194.749,307.210 194.399,307.561 194.399 C 307.913 194.398,308.789 194.038,309.510 193.599 C 312.704 191.651,321.600 194.636,321.600 197.656 C 321.600 197.860,322.050 198.915,322.600 200.000 C 326.191 207.086,322.092 220.522,315.966 221.747 C 312.678 222.404,306.800 221.733,306.800 220.699 C 306.800 220.300,304.307 219.200,303.403 219.200 C 303.060 219.200,302.623 219.612,302.432 220.116 C 301.868 221.599,301.050 222.075,299.849 221.618 L 298.800 221.220 298.800 201.077 C 298.800 189.998,298.920 180.813,299.067 180.667 C 299.400 180.333,301.720 180.318,302.567 180.643 M73.707 182.485 C 72.389 183.121,72.351 183.763,72.481 203.135 L 72.600 220.870 73.722 221.835 C 74.839 222.796,74.888 222.800,84.200 222.800 C 95.204 222.800,95.683 222.646,95.760 219.080 C 95.829 215.868,95.044 215.440,88.651 215.200 C 81.267 214.923,82.000 216.646,82.000 199.570 C 82.000 184.154,81.933 183.600,79.942 182.570 C 78.662 181.908,75.006 181.858,73.707 182.485 M102.480 182.306 C 99.148 182.581,99.203 182.231,99.201 203.030 L 99.200 221.061 100.126 221.930 C 101.262 222.998,104.539 223.138,105.911 222.177 C 106.798 221.556,106.800 221.527,106.800 208.796 L 106.800 196.037 107.912 196.676 C 108.996 197.297,109.962 198.912,115.524 209.387 C 122.349 222.242,122.867 222.800,128.007 222.800 C 133.725 222.800,133.601 223.258,133.595 202.081 C 133.588 182.341,133.650 182.966,131.654 182.372 C 125.879 180.653,125.154 181.985,125.217 194.200 C 125.244 199.260,125.251 204.165,125.233 205.100 L 125.200 206.800 124.400 206.000 C 123.960 205.560,123.420 205.200,123.200 205.200 C 122.980 205.200,122.800 204.975,122.799 204.700 C 122.798 204.241,120.994 200.612,118.430 195.913 C 117.863 194.876,116.712 192.716,115.872 191.113 C 111.434 182.652,109.970 181.690,102.480 182.306 M143.610 182.409 C 140.706 183.092,140.800 182.437,140.800 202.018 C 140.800 212.662,140.956 219.959,141.197 220.593 C 142.588 224.250,161.138 223.458,167.400 219.475 C 179.813 211.579,178.263 189.223,164.925 183.797 C 161.299 182.321,147.737 181.438,143.610 182.409 M79.958 183.941 C 80.735 185.032,80.776 185.745,80.886 199.777 L 81.000 214.471 81.944 215.236 C 82.764 215.899,83.564 216.000,88.000 216.000 C 93.473 216.000,94.663 216.384,94.822 218.200 C 95.143 221.859,94.756 222.000,84.433 222.000 C 79.611 222.000,75.376 221.889,75.022 221.753 C 73.490 221.165,73.405 220.269,73.200 202.400 L 73.000 185.000 73.966 183.900 C 75.407 182.259,78.777 182.283,79.958 183.941 M110.283 184.102 C 111.008 184.529,111.600 185.095,111.600 185.360 C 111.600 185.624,111.819 186.059,112.086 186.326 C 112.354 186.594,113.517 188.565,114.670 190.706 C 116.781 194.627,117.420 195.846,121.000 202.800 C 125.614 211.760,126.126 211.033,126.433 195.086 C 126.561 188.439,126.696 182.955,126.733 182.900 C 127.111 182.336,131.088 182.931,131.874 183.670 L 132.800 184.539 132.800 201.890 C 132.800 221.794,132.865 221.361,129.803 221.821 C 125.371 222.485,122.470 220.883,120.365 216.611 C 118.767 213.366,117.906 211.786,117.415 211.200 C 117.139 210.870,116.706 209.982,116.452 209.226 C 116.198 208.470,115.745 207.570,115.445 207.226 C 115.145 206.882,114.242 205.349,113.439 203.820 C 112.636 202.291,111.744 200.761,111.457 200.420 C 111.170 200.079,110.622 198.950,110.239 197.911 C 109.856 196.873,108.985 195.553,108.302 194.979 L 107.062 193.936 106.545 194.868 C 106.154 195.573,106.025 198.877,106.014 208.451 C 105.998 222.716,106.132 222.128,102.941 221.923 C 99.922 221.730,100.011 222.322,100.019 202.400 C 100.026 183.890,99.988 184.260,102.000 183.315 C 103.450 182.635,108.630 183.127,110.283 184.102 M162.390 184.061 C 164.255 184.521,166.342 185.325,167.028 185.849 C 167.714 186.372,168.380 186.800,168.507 186.800 C 168.634 186.800,169.294 187.355,169.972 188.034 C 177.658 195.719,175.626 213.940,166.532 218.890 C 160.444 222.203,143.435 223.314,142.348 220.468 C 141.611 218.538,141.896 184.778,142.657 183.937 C 143.946 182.512,156.429 182.590,162.390 184.061 M151.000 188.452 C 149.635 189.271,149.612 189.487,149.606 202.056 C 149.599 217.172,149.242 216.249,155.035 216.099 C 157.827 216.027,159.128 215.828,159.601 215.399 C 159.965 215.070,160.469 214.800,160.721 214.800 C 161.264 214.800,164.800 211.600,164.800 211.108 C 164.800 210.921,165.176 210.260,165.635 209.639 C 167.524 207.083,167.056 196.545,164.928 193.726 C 161.831 189.622,153.995 186.655,151.000 188.452 M157.477 189.755 C 163.859 191.576,165.977 194.624,165.986 202.000 C 165.997 211.056,162.462 215.148,154.600 215.177 C 150.295 215.193,150.617 216.189,150.483 202.432 C 150.336 187.327,150.150 187.664,157.477 189.755 M265.953 192.666 C 264.170 193.142,263.901 194.872,264.096 204.613 C 264.336 216.602,265.434 219.796,270.165 222.277 C 271.948 223.212,278.772 222.863,280.285 221.759 C 282.258 220.320,282.829 220.278,284.082 221.478 C 285.491 222.829,287.881 222.994,289.168 221.829 C 289.979 221.095,290.000 220.739,290.000 207.720 L 290.000 194.364 289.018 193.382 C 288.035 192.399,285.955 192.059,284.925 192.714 C 283.842 193.403,283.600 195.501,283.600 204.189 L 283.600 213.126 281.500 215.021 C 277.008 219.074,273.677 218.894,271.439 214.478 C 270.486 212.597,270.448 212.209,270.368 203.763 C 270.261 192.380,269.950 191.599,265.953 192.666 M289.178 207.651 C 289.202 222.017,289.251 221.733,286.741 221.733 C 285.851 221.733,285.259 221.394,284.533 220.467 C 283.302 218.893,283.000 218.893,280.613 220.475 C 276.666 223.089,270.872 222.568,268.035 219.344 C 265.761 216.762,265.504 215.403,265.237 204.600 L 265.000 195.000 266.074 194.086 C 267.375 192.979,269.102 193.217,269.398 194.544 C 269.503 195.015,269.636 199.566,269.694 204.659 C 269.788 212.823,269.883 214.009,270.500 214.690 C 270.885 215.115,271.200 215.640,271.200 215.857 C 271.200 216.760,273.573 218.472,275.109 218.678 C 277.495 218.999,279.347 218.187,282.007 215.656 L 284.400 213.379 284.400 204.166 C 284.400 194.565,284.461 194.194,286.183 193.288 C 286.794 192.966,287.204 193.064,288.060 193.738 L 289.156 194.600 289.178 207.651 M309.000 197.249 C 304.436 199.087,303.200 201.327,303.200 207.761 C 303.200 213.474,303.560 214.367,306.970 217.124 C 310.090 219.647,314.721 219.167,316.673 216.119 C 317.067 215.504,317.604 214.775,317.866 214.500 C 319.449 212.839,319.059 202.327,317.323 199.884 C 315.094 196.747,312.380 195.888,309.000 197.249 M314.958 198.535 C 320.685 202.288,318.169 218.000,311.840 218.000 C 309.724 218.000,305.638 215.472,304.514 213.467 C 303.799 212.191,303.838 203.471,304.564 202.080 C 306.519 198.339,311.871 196.513,314.958 198.535 " stroke="none" fill="#8c8c8c" fill-rule="evenodd"></path><path id="path3" d="M214.958 170.833 C 214.104 171.512,213.315 172.195,213.203 172.352 C 213.091 172.508,210.570 174.870,207.600 177.599 C 204.630 180.328,202.003 182.750,201.761 182.981 C 201.520 183.211,199.744 184.840,197.815 186.600 C 195.886 188.360,193.549 190.520,192.622 191.400 C 191.694 192.280,190.140 193.712,189.168 194.582 C 182.912 200.179,183.810 204.000,191.382 204.000 C 196.372 204.000,196.434 204.093,194.597 208.863 C 193.805 210.918,192.822 213.320,192.412 214.200 C 187.387 224.988,187.143 228.800,191.480 228.800 C 192.816 228.800,193.474 228.563,194.227 227.809 C 194.772 227.264,195.574 226.628,196.009 226.395 C 196.444 226.162,196.800 225.708,196.800 225.386 C 196.800 225.064,196.993 224.800,197.229 224.800 C 197.464 224.800,198.499 224.007,199.529 223.039 C 200.558 222.070,202.914 219.865,204.765 218.139 C 206.616 216.412,209.183 213.982,210.470 212.737 C 211.757 211.492,214.729 208.702,217.074 206.537 C 223.737 200.386,223.872 200.251,224.349 199.326 C 226.042 196.045,224.134 194.295,218.548 194.005 C 213.504 193.743,212.963 193.547,213.765 192.279 C 214.071 191.796,214.450 190.785,214.607 190.033 C 214.764 189.282,215.231 188.112,215.645 187.433 C 216.059 186.755,216.399 185.930,216.402 185.600 C 216.405 185.270,216.850 184.100,217.391 183.000 C 217.932 181.900,218.381 180.857,218.387 180.683 C 218.394 180.509,218.940 179.212,219.600 177.800 C 222.520 171.554,219.588 167.154,214.958 170.833 M219.611 172.026 C 220.194 173.434,220.057 173.982,217.817 179.200 C 217.014 181.070,215.734 184.220,214.972 186.200 C 214.210 188.180,213.254 190.520,212.847 191.400 C 211.444 194.438,212.532 195.200,218.270 195.200 C 225.065 195.200,225.323 197.258,219.241 202.956 C 218.008 204.110,213.489 208.372,209.198 212.427 C 191.587 229.069,191.938 228.792,190.313 227.322 C 188.982 226.117,189.149 225.534,195.035 210.768 C 198.194 202.843,198.154 202.740,191.915 202.657 C 183.101 202.539,183.755 200.802,197.200 188.628 C 204.580 181.945,208.061 178.764,210.600 176.379 C 216.460 170.877,216.551 170.807,217.851 170.803 C 218.872 170.801,219.197 171.026,219.611 172.026 M231.800 178.883 C 230.002 179.914,230.026 179.625,230.013 200.681 C 230.004 213.903,230.144 221.078,230.421 221.686 C 231.344 223.712,234.531 224.593,236.411 223.341 C 238.392 222.022,238.400 221.980,238.400 212.350 C 238.400 202.056,238.436 201.880,240.918 200.100 C 243.598 198.178,246.529 198.210,248.100 200.179 L 249.200 201.557 249.240 210.879 C 249.285 221.485,249.345 221.861,251.176 223.096 C 252.908 224.263,254.473 224.243,255.878 223.035 L 257.000 222.071 257.125 214.135 C 257.367 198.707,256.746 196.102,252.072 192.938 C 248.955 190.828,243.632 190.637,240.889 192.538 C 238.505 194.191,238.400 193.958,238.400 187.009 C 238.400 183.630,238.288 180.574,238.152 180.218 C 237.558 178.672,233.613 177.843,231.800 178.883 M298.347 179.004 L 297.294 179.576 296.994 195.088 C 296.586 216.174,296.806 221.897,298.061 222.854 C 299.446 223.910,301.127 224.186,301.927 223.488 C 303.916 221.751,304.774 221.646,307.048 222.860 C 309.566 224.204,314.468 224.481,316.546 223.398 C 317.176 223.069,317.911 222.800,318.179 222.800 C 318.908 222.800,322.101 219.727,322.885 218.272 C 325.000 214.342,324.965 214.529,324.962 207.400 C 324.960 200.370,324.934 200.225,323.038 196.897 C 322.288 195.582,320.049 193.200,319.562 193.200 C 319.331 193.200,318.878 192.935,318.553 192.611 C 316.914 190.972,310.442 190.781,307.938 192.298 C 307.202 192.744,306.195 193.231,305.700 193.381 L 304.800 193.654 304.800 187.009 C 304.800 180.487,304.782 180.345,303.818 179.382 C 302.674 178.238,300.086 178.059,298.347 179.004 M237.511 187.002 C 237.651 195.101,237.719 195.210,241.449 193.332 C 246.666 190.707,252.066 192.251,254.919 197.185 L 256.200 199.400 256.324 210.133 C 256.463 222.114,256.337 222.800,254.010 222.800 C 250.481 222.800,250.331 222.388,250.147 212.200 C 250.064 207.580,249.925 203.133,249.839 202.319 C 249.345 197.677,243.998 196.250,240.007 199.695 C 237.729 201.661,237.638 202.128,237.618 211.918 L 237.600 220.836 236.618 221.818 C 234.765 223.671,231.907 222.971,231.220 220.495 C 230.477 217.822,230.662 181.012,231.421 180.383 C 232.536 179.457,234.885 179.261,236.200 179.984 L 237.400 180.644 237.511 187.002 M303.500 180.323 C 303.852 180.766,304.000 182.805,304.000 187.200 C 304.000 195.257,304.006 195.267,307.909 193.395 C 311.547 191.650,314.112 191.533,317.211 192.969 C 319.274 193.924,322.388 196.566,322.413 197.381 C 322.419 197.612,322.868 198.700,323.409 199.800 C 326.116 205.304,324.528 215.500,320.278 219.898 C 317.140 223.146,310.110 223.973,306.561 221.512 C 304.749 220.256,303.533 220.368,302.202 221.916 C 301.254 223.018,299.327 222.917,298.328 221.713 C 297.434 220.637,297.335 181.356,298.224 180.374 C 299.317 179.165,302.557 179.134,303.500 180.323 M73.294 181.615 C 71.691 182.259,71.600 183.359,71.600 202.200 C 71.600 222.311,71.562 221.998,74.161 223.182 C 76.911 224.435,91.969 224.420,94.382 223.162 C 97.204 221.692,97.604 217.114,95.093 215.034 C 93.912 214.055,93.602 214.000,89.223 213.995 C 86.680 213.992,84.195 213.881,83.700 213.748 L 82.800 213.507 82.800 198.979 C 82.800 183.488,82.721 182.793,80.837 181.819 C 79.512 181.134,74.808 181.007,73.294 181.615 M102.200 181.369 C 101.980 181.458,101.320 181.635,100.733 181.764 C 98.044 182.355,98.000 182.691,98.000 202.774 C 98.000 222.107,97.970 221.822,100.142 223.164 C 102.544 224.649,104.767 224.330,107.600 222.093 C 107.710 222.006,107.890 216.829,108.000 210.587 C 108.195 199.549,108.629 196.090,109.387 199.542 C 109.535 200.213,109.978 201.176,110.373 201.681 C 110.767 202.187,111.230 203.050,111.401 203.600 C 111.573 204.150,112.138 205.227,112.656 205.993 C 113.175 206.759,113.600 207.541,113.600 207.731 C 113.600 207.921,113.936 208.554,114.348 209.138 C 114.759 209.722,115.229 210.650,115.393 211.200 C 115.558 211.750,116.009 212.560,116.397 213.000 C 116.784 213.440,117.318 214.475,117.582 215.300 C 117.846 216.125,118.206 216.800,118.382 216.800 C 118.559 216.800,118.929 217.346,119.205 218.013 C 121.418 223.354,128.657 225.798,132.663 222.556 L 134.200 221.312 134.304 202.121 C 134.424 179.841,134.765 181.563,130.173 181.271 C 124.700 180.922,124.679 180.965,124.413 193.115 C 124.187 203.407,123.699 205.769,122.561 202.080 C 121.898 199.932,119.644 195.600,119.189 195.600 C 118.975 195.600,118.800 195.254,118.800 194.831 C 118.800 194.408,118.350 193.527,117.800 192.873 C 117.250 192.219,116.800 191.421,116.800 191.098 C 116.800 190.776,116.350 189.849,115.800 189.038 C 115.250 188.228,114.800 187.406,114.800 187.213 C 114.800 187.020,114.395 186.351,113.900 185.728 C 113.405 185.104,112.806 184.244,112.569 183.817 C 111.518 181.923,104.777 180.331,102.200 181.369 M142.810 181.578 C 139.868 182.335,139.980 181.475,140.096 202.505 L 140.200 221.312 141.737 222.556 C 144.154 224.513,151.559 224.563,162.088 222.694 C 163.787 222.392,165.511 221.843,165.920 221.473 C 166.329 221.103,166.864 220.800,167.111 220.800 C 167.843 220.800,172.417 216.807,172.781 215.850 C 172.966 215.364,173.407 214.726,173.762 214.432 C 174.117 214.137,174.519 213.199,174.655 212.348 C 174.791 211.497,175.030 210.800,175.187 210.800 C 176.666 210.800,177.034 195.714,175.600 193.891 C 175.160 193.331,174.797 192.542,174.794 192.137 C 174.784 191.005,173.620 189.352,171.050 186.825 C 168.555 184.371,167.927 183.883,166.628 183.393 C 165.953 183.138,164.726 182.628,163.902 182.260 C 162.166 181.484,145.291 180.939,142.810 181.578 M79.942 182.570 C 81.933 183.600,82.000 184.154,82.000 199.570 C 82.000 216.646,81.267 214.923,88.651 215.200 C 95.044 215.440,95.829 215.868,95.760 219.080 C 95.683 222.646,95.204 222.800,84.200 222.800 C 74.888 222.800,74.839 222.796,73.722 221.835 L 72.600 220.870 72.481 203.135 C 72.351 183.763,72.389 183.121,73.707 182.485 C 75.006 181.858,78.662 181.908,79.942 182.570 M110.412 183.089 C 111.538 183.734,113.560 186.706,115.872 191.113 C 116.712 192.716,117.863 194.876,118.430 195.913 C 120.994 200.612,122.798 204.241,122.799 204.700 C 122.800 204.975,122.980 205.200,123.200 205.200 C 123.420 205.200,123.960 205.560,124.400 206.000 L 125.200 206.800 125.233 205.100 C 125.251 204.165,125.244 199.260,125.217 194.200 C 125.154 181.985,125.879 180.653,131.654 182.372 C 133.650 182.966,133.588 182.341,133.595 202.081 C 133.601 223.258,133.725 222.800,128.007 222.800 C 122.867 222.800,122.349 222.242,115.524 209.387 C 109.962 198.912,108.996 197.297,107.912 196.676 L 106.800 196.037 106.800 208.796 C 106.800 221.527,106.798 221.556,105.911 222.177 C 104.539 223.138,101.262 222.998,100.126 221.930 L 99.200 221.061 99.201 203.030 C 99.203 182.231,99.148 182.581,102.480 182.306 C 105.313 182.073,109.332 182.469,110.412 183.089 M156.800 182.367 C 169.536 183.123,175.600 189.464,175.600 202.024 C 175.600 210.490,173.074 215.866,167.400 219.475 C 161.138 223.458,142.588 224.250,141.197 220.593 C 140.400 218.496,140.686 184.629,141.510 183.612 C 142.793 182.028,146.284 181.743,156.800 182.367 M151.183 189.617 C 150.097 190.703,150.112 214.122,151.200 214.809 C 153.331 216.155,160.101 214.758,162.612 212.454 C 167.714 207.774,167.402 196.284,162.052 191.782 C 159.422 189.569,152.591 188.209,151.183 189.617 M157.267 190.632 C 160.003 190.911,164.000 193.707,164.000 195.342 C 164.000 195.650,164.270 196.126,164.600 196.400 C 165.712 197.323,165.437 206.527,164.225 208.914 C 162.376 212.559,160.140 213.809,155.000 214.073 C 151.033 214.276,151.200 214.804,151.200 202.047 L 151.200 190.922 152.100 190.479 C 152.595 190.236,153.360 190.110,153.800 190.199 C 154.240 190.288,155.800 190.483,157.267 190.632 M285.705 191.517 C 283.335 191.760,283.200 192.343,283.199 202.389 C 283.197 210.555,283.125 211.518,282.433 212.654 C 281.643 213.949,279.239 216.000,278.511 216.000 C 278.284 216.000,277.874 216.270,277.600 216.600 C 276.238 218.241,273.355 216.651,271.824 213.415 C 270.823 211.299,270.800 211.050,270.794 202.525 C 270.787 191.964,270.753 191.851,267.541 191.682 C 265.446 191.571,265.232 191.646,264.217 192.852 L 263.133 194.141 263.266 204.571 L 263.400 215.000 264.588 217.400 C 267.315 222.910,273.283 225.586,278.274 223.538 C 281.055 222.396,283.200 221.750,283.200 222.053 C 283.200 223.827,288.010 224.223,289.768 222.594 L 290.800 221.638 290.800 208.038 C 290.800 198.921,290.654 194.116,290.356 193.463 C 289.695 192.013,287.957 191.286,285.705 191.517 M269.763 193.700 C 270.127 194.606,270.311 197.655,270.368 203.763 C 270.448 212.209,270.486 212.597,271.439 214.478 C 273.677 218.894,277.008 219.074,281.500 215.021 L 283.600 213.126 283.600 204.189 C 283.600 195.501,283.842 193.403,284.925 192.714 C 285.955 192.059,288.035 192.399,289.018 193.382 L 290.000 194.364 290.000 207.720 C 290.000 220.739,289.979 221.095,289.168 221.829 C 287.881 222.994,285.491 222.829,284.082 221.478 C 282.829 220.278,282.258 220.320,280.285 221.759 C 277.241 223.980,270.366 223.077,267.460 220.075 C 263.449 215.932,262.224 193.661,265.953 192.666 C 268.120 192.087,269.237 192.390,269.763 193.700 M309.055 198.165 C 305.133 199.617,303.996 201.809,304.014 207.880 C 304.030 213.153,304.214 213.702,306.600 215.618 C 312.825 220.615,317.643 217.418,317.942 208.093 C 318.205 199.907,314.756 196.054,309.055 198.165 M315.173 199.962 C 315.628 200.601,316.000 201.299,316.000 201.513 C 316.000 201.727,316.270 202.126,316.600 202.400 C 317.758 203.361,317.431 211.188,316.136 213.500 C 313.650 217.939,310.149 218.088,305.992 213.931 L 304.800 212.738 304.800 207.723 L 304.800 202.708 306.848 200.754 C 309.514 198.211,313.646 197.818,315.173 199.962 " stroke="none" fill="#5b5b5d" fill-rule="evenodd"></path><path id="path4" d="M215.000 172.279 C 214.120 173.088,212.140 174.933,210.600 176.379 C 208.061 178.764,204.580 181.945,197.200 188.628 C 183.755 200.802,183.101 202.539,191.915 202.657 C 198.154 202.740,198.194 202.843,195.035 210.768 C 189.149 225.534,188.982 226.117,190.313 227.322 C 191.938 228.792,191.587 229.069,209.198 212.427 C 213.489 208.372,218.008 204.110,219.241 202.956 C 225.323 197.258,225.065 195.200,218.270 195.200 C 212.532 195.200,211.444 194.438,212.847 191.400 C 213.254 190.520,214.210 188.180,214.972 186.200 C 215.734 184.220,217.014 181.070,217.817 179.200 C 220.057 173.982,220.194 173.434,219.611 172.026 C 218.870 170.236,217.116 170.333,215.000 172.279 M221.200 197.103 C 221.200 197.270,219.715 197.353,217.900 197.288 C 212.653 197.100,212.244 196.925,216.900 196.860 C 219.265 196.827,221.200 196.936,221.200 197.103 " stroke="none" fill="#769ca4" fill-rule="evenodd"></path></g></svg>