<svg version="1.1" viewBox="0 0 600 600" xml:space="preserve" xmlns="http://www.w3.org/2000/svg"> <style type="text/css"> .st0{display:none;} .st1{display:inline;} .st2{display:inline;fill:#FFFFFF;} .st3{display:inline;fill:#EE0000;} .st4{fill:#800080;} .st5{display:inline;fill:#434343;} .st6{fill:#FFFFFF;} .st7{display:inline;fill:#EFEFEF;} .st8{display:inline;fill:#800080;} .st9{display:inline;fill:#4066E0;} </style> <rect width="600" height="600" fill="#fff" stroke-width="1.49326"/><g class="st0"> <rect class="st1" y="-1.1" width="600" height="342.20001"/> <path id="e90627e1-4bcc-43c3-960e-d6ddd5ba81cb" class="st2" d="m452.2 182.8c0 7.1 4.1 10.5 11.4 10.5 2.3 0 4.6-0.5 6.6-0.9v-8.2c-1.4 0.5-2.7 0.7-4.3 0.7-3 0-4.1-0.9-4.1-3.9v-12.5h8.7v-8.5h-8.7v-10.7l-9.6 2.3v8.4h-6.4v8.4h6.4zm-29.7 0.2c0-2.3 2.1-3.2 5.2-3.2 1.8 0 3.9 0.2 5.7 0.7v4.1c-1.8 1.1-3.9 1.6-5.9 1.6-3.2 0-5-1.1-5-3.2m3 10.3c3 0.2 6.2-0.7 8.7-2.5v2.1h9.4v-21c0-8-5-12.3-13.7-12.3-5 0-10 1.4-14.6 3.7l3.4 7.3c3-1.6 6.2-2.3 9.4-2.5 3.9 0 5.9 1.6 5.9 4.8v1.6c-2.3-0.7-4.8-0.9-7.1-0.9-8 0-12.8 3.7-12.8 9.8 0 5.5 4.3 9.9 11.4 9.9m-51.8-0.5h10v-17.1h16.9v17.1h10.3v-43.3h-10v16.7h-16.9v-16.7h-10zm-38.6-16.4c-0.2-4.6 3.4-8.2 7.8-8.2h0.2c2.5 0 4.8 0.9 6.6 2.5v11.4c-1.8 1.8-4.1 2.7-6.6 2.7-4.6 0-8.2-3.7-8.2-8 0.2-0.2 0.2-0.4 0.2-0.4m14.9 16.4h9.4v-45.6l-9.6 2.3v12.3c-2.5-1.4-5.2-2.3-8-2.3-9.1 0-16.2 7.5-16.2 16.4v0.2c0 4.3 1.6 8.7 4.6 11.9s7.1 5 11.4 5c3 0 5.9-0.9 8.4-2.7zm-43.4-25.3c3.2 0 5.7 2.3 6.6 5.2h-13c0.7-2.9 3.5-5.2 6.4-5.2m-16 8.9c-0.2 9.4 7.3 16.9 16.4 16.9h0.5c4.8 0.2 9.6-1.6 13-5l-6.4-5.9c-1.6 1.6-3.9 2.5-6.2 2.5-3.4 0-6.4-2.1-7.8-5.2h22.1v-2.5c0-10.5-6.6-17.8-15.7-17.8-4.3 0-8.4 1.8-11.6 4.8-2.7 3.3-4.3 7.6-4.3 12.2m-16.4-18c2.7-0.2 5 1.8 5.2 4.6 0.2 2.7-1.8 5-4.6 5.2h-10.7v-9.8zm-20.1 34.4h10v-16h7.8l7.8 15.7h11.4l-9.1-17.3c4.8-2.1 7.8-6.8 7.8-12.3 0-7.8-5.9-13.9-14.6-13.9h-21.2v43.8z"/> <path id="a4240430-ad8a-419d-8d6c-db643d766acb" class="st3" d="m198.9 175.5c7.1 0 17.1-1.6 17.1-10.3 0-0.7 0-1.4-0.2-2.1l-4.1-19.2c-0.9-4.1-1.8-6.2-8.9-9.8-5.5-3-17.3-7.8-20.8-7.8-3.2 0-4.1 4.3-8 4.3-3.7 0-6.6-3.2-10-3.2s-5.5 2.5-7.3 7.3c0 0-4.8 13.9-5.2 16 0 0.5-0.2 0.7-0.2 1.1 0 5.9 20.3 23.7 47.6 23.7m18.3-6.6c0.5 2.1 0.9 3.9 0.9 5.9 0 8.2-8.9 12.8-20.3 12.8-26.2 0-49-16.2-49-26.7 0-1.4 0.2-3 0.9-4.3-9.4 0.5-21.7 2.3-21.7 13.7 0 18.5 41.7 41.5 74.8 41.5 25.3 0 31.7-12.1 31.7-21.7-0.2-7.8-6.4-16.2-17.3-21.2"/> <path id="f72331e7-d283-4f6d-9965-aa918d2f287b" class="st1" d="m217.2 169.3c0.5 2.1 0.9 3.9 0.9 5.9 0 8.2-8.9 12.8-20.3 12.8-26.2 0-49-16.2-49-26.7 0-1.4 0.2-3 0.9-4.3l2.1-5.2c0 0.5-0.2 0.7-0.2 1.1 0 5.5 20.3 23.3 47.7 23.3 7.1 0 17.1-1.6 17.1-10.3 0-0.7 0-1.4-0.2-2.1z"/> </g> <g id="Brands_x5F_Spects_x5F_Nirvati_x5F_purple-logo_x5F_one-color_x5F_on-black" class="st0"> <rect id="f5367c26-4304-4608-9b66-58dcca89a5d6_1_" class="st1" y="-1.1" width="600" height="342.20001"/> <g class="st1">  <path class="st4" d="m247.1 176.4v17.1h-8.2v-34.2h8.2v4.6c2.5-3.4 5.7-5.5 10.5-5.5 8 0 13.7 5.9 13.5 13.9v21.2h-8.4v-20.1c0-3.9-2.7-6.6-6.4-6.6-5.1 0-9.2 4.6-9.2 9.6z"/> <path class="st4" d="m285.9 151.1c0 2.7-2.3 5-5 5s-5-2.3-5-5 2.3-5 5-5 5 2.2 5 5zm-1 42.4h-8.2v-34.2h8.2z"/> <path class="st4" d="m308.7 158.4c1.4 0 4.1 0.5 4.1 0.5v8.2s-1.6-0.2-4.1-0.2c-5.2 0-9.4 4.1-9.4 9.4v17.6h-8.2v-34.2h8.2v3c2.3-3 5.3-4.3 9.4-4.3z"/> <path class="st4" d="m348.1 159.3h8.4l-15.1 34.2h-8.4l-15-34.2h8.4l10.7 24.6z"/> <path class="st4" d="m375.1 194.4c-9.8 0-17.6-8-17.6-18s8-18 17.6-18c4.1 0 7.1 1.4 9.4 3.9v-3h8.2v34.2h-8.2v-3c-2.4 2.5-5.3 3.9-9.4 3.9zm0-27.8c-5.2 0-9.4 4.3-9.4 9.8 0 5.2 4.1 9.8 9.4 9.8 5 0 8.9-4.1 9.4-9.1v-1.4c-0.5-5-4.4-9.1-9.4-9.1z"/> <path class="st4" d="m402.2 167.5h-4.6v-8.2h4.6v-8.2l8.2-0.9v9.1h9.8v8.2h-9.6v14.6c0 2.3 1.8 4.1 4.1 4.1s5.7-0.5 5.7-0.5l0.9 8s-4.1 0.7-6.8 0.7c-6.8 0-12.3-5.5-12.3-12.3z"/> <path class="st4" d="m436.7 151.1c0 2.7-2.3 5-5 5s-5-2.3-5-5 2.3-5 5-5 5 2.2 5 5zm-1 42.4h-8.2v-34.2h8.2z"/>   <path class="st4" d="m185.5 144.2c3 0.2 4.1 3.2 4.8 6.4 0.9 3 1.4 6.6 1.8 10.7 0.2 1.4 0.5 3.2 0.7 5 0.9 5.5 2.3 11.9 4.3 12.3 0.9 0.2 5.5 0 18.5-20.8 0.7-0.9 1.1-1.8 1.8-3-0.5-13.9-7.8-25.6-18.7-28.3-14.4-3.4-29.7 9.1-34.2 28.3-1.6 6.4-1.6 12.5-0.7 18 5.9-5.9 10-13.7 13-19.4 3.4-6 5.3-9.4 8.7-9.2z"/> <path class="st4" d="m197.6 184.4c-0.5 0-0.9 0-1.4-0.2-5.2-1.1-7.3-8-8.7-15.7-0.2-2.1-0.7-4.1-0.9-6.2-0.5-3.9-0.9-7.3-1.6-10 0-0.2-0.2-0.5-0.2-0.7-0.9 1.4-1.8 3.2-2.7 4.8-3 5.5-6.6 12.5-12.1 18.7-1.4 1.6-2.7 3-4.3 4.3 2.5 6.8 7.1 12.3 12.8 15.1l-9.4 8.9c-2.3 2.1-1.4 5.7 1.6 6.6l12.3 3.7c3 0.9 5.5-1.6 4.8-4.6l-3-12.5v-0.2c13.5 1.4 27.1-10.7 31.5-28.5-8 11.5-13.9 16.5-18.7 16.5z"/>  </g> </g> <g id="Brands_x5F_Spects_x5F_Nirvati_x5F_purple-logo_x5F_one-color_x5F_on-darkgray" class="st0"> <rect id="f5367c26-4304-4608-9b66-58dcca89a5d6_14_" class="st5" y="-1.1" width="600" height="342.20001"/> <g class="st1">  <path class="st4" d="m247.1 176.4v17.1h-8.2v-34.2h8.2v4.6c2.5-3.4 5.7-5.5 10.5-5.5 8 0 13.7 5.9 13.5 13.9v21.2h-8.4v-20.1c0-3.9-2.7-6.6-6.4-6.6-5.1 0-9.2 4.6-9.2 9.6z"/> <path class="st4" d="m285.9 151.1c0 2.7-2.3 5-5 5s-5-2.3-5-5 2.3-5 5-5 5 2.2 5 5zm-1 42.4h-8.2v-34.2h8.2z"/> <path class="st4" d="m308.7 158.4c1.4 0 4.1 0.5 4.1 0.5v8.2s-1.6-0.2-4.1-0.2c-5.2 0-9.4 4.1-9.4 9.4v17.6h-8.2v-34.2h8.2v3c2.3-3 5.3-4.3 9.4-4.3z"/> <path class="st4" d="m348.1 159.3h8.4l-15.1 34.2h-8.4l-15-34.2h8.4l10.7 24.6z"/> <path class="st4" d="m375.1 194.4c-9.8 0-17.6-8-17.6-18s8-18 17.6-18c4.1 0 7.1 1.4 9.4 3.9v-3h8.2v34.2h-8.2v-3c-2.4 2.5-5.3 3.9-9.4 3.9zm0-27.8c-5.2 0-9.4 4.3-9.4 9.8 0 5.2 4.1 9.8 9.4 9.8 5 0 8.9-4.1 9.4-9.1v-1.4c-0.5-5-4.4-9.1-9.4-9.1z"/> <path class="st4" d="m402.2 167.5h-4.6v-8.2h4.6v-8.2l8.2-0.9v9.1h9.8v8.2h-9.6v14.6c0 2.3 1.8 4.1 4.1 4.1s5.7-0.5 5.7-0.5l0.9 8s-4.1 0.7-6.8 0.7c-6.8 0-12.3-5.5-12.3-12.3z"/> <path class="st4" d="m436.7 151.1c0 2.7-2.3 5-5 5s-5-2.3-5-5 2.3-5 5-5 5 2.2 5 5zm-1 42.4h-8.2v-34.2h8.2z"/>   <path class="st4" d="m185.5 144.2c3 0.2 4.1 3.2 4.8 6.4 0.9 3 1.4 6.6 1.8 10.7 0.2 1.4 0.5 3.2 0.7 5 0.9 5.5 2.3 11.9 4.3 12.3 0.9 0.2 5.5 0 18.5-20.8 0.7-0.9 1.1-1.8 1.8-3-0.5-13.9-7.8-25.6-18.7-28.3-14.4-3.4-29.7 9.1-34.2 28.3-1.6 6.4-1.6 12.5-0.7 18 5.9-5.9 10-13.7 13-19.4 3.4-6 5.3-9.4 8.7-9.2z"/> <path class="st4" d="m197.6 184.4c-0.5 0-0.9 0-1.4-0.2-5.2-1.1-7.3-8-8.7-15.7-0.2-2.1-0.7-4.1-0.9-6.2-0.5-3.9-0.9-7.3-1.6-10 0-0.2-0.2-0.5-0.2-0.7-0.9 1.4-1.8 3.2-2.7 4.8-3 5.5-6.6 12.5-12.1 18.7-1.4 1.6-2.7 3-4.3 4.3 2.5 6.8 7.1 12.3 12.8 15.1l-9.4 8.9c-2.3 2.1-1.4 5.7 1.6 6.6l12.3 3.7c3 0.9 5.5-1.6 4.8-4.6l-3-12.5v-0.2c13.5 1.4 27.1-10.7 31.5-28.5-8 11.5-13.9 16.5-18.7 16.5z"/>  </g> </g> <g transform="matrix(4.5316165,0,0,4.5316165,-562.35275,-469.98726)"> <path class="st4" d="m185.5 144.2c3 0.2 4.1 3.2 4.8 6.4 0.9 3 1.4 6.6 1.8 10.7 0.2 1.4 0.5 3.2 0.7 5 0.9 5.5 2.3 11.9 4.3 12.3 0.9 0.2 5.5 0 18.5-20.8 0.7-0.9 1.1-1.8 1.8-3-0.5-13.9-7.8-25.6-18.7-28.3-14.4-3.4-29.7 9.1-34.2 28.3-1.6 6.4-1.6 12.5-0.7 18 5.9-5.9 10-13.7 13-19.4 3.4-6 5.3-9.4 8.7-9.2z"/> <path class="st4" d="m197.6 184.4c-0.5 0-0.9 0-1.4-0.2-5.2-1.1-7.3-8-8.7-15.7-0.2-2.1-0.7-4.1-0.9-6.2-0.5-3.9-0.9-7.3-1.6-10 0-0.2-0.2-0.5-0.2-0.7-0.9 1.4-1.8 3.2-2.7 4.8-3 5.5-6.6 12.5-12.1 18.7-1.4 1.6-2.7 3-4.3 4.3 2.5 6.8 7.1 12.3 12.8 15.1l-9.4 8.9c-2.3 2.1-1.4 5.7 1.6 6.6l12.3 3.7c3 0.9 5.5-1.6 4.8-4.6l-3-12.5v-0.2c13.5 1.4 27.1-10.7 31.5-28.5-8 11.5-13.9 16.5-18.7 16.5z"/> </g> <g id="Brands_x5F_Spects_x5F_Nirvati_x5F_purple-logo_x5F_one-color_x5F_on-lightgray" class="st0"> <rect id="f5367c26-4304-4608-9b66-58dcca89a5d6_12_" class="st7" y="-1.1" width="600" height="342.20001"/> <g class="st1">  <path class="st4" d="m247.1 176.4v17.1h-8.2v-34.2h8.2v4.6c2.5-3.4 5.7-5.5 10.5-5.5 8 0 13.7 5.9 13.5 13.9v21.2h-8.4v-20.1c0-3.9-2.7-6.6-6.4-6.6-5.1 0-9.2 4.6-9.2 9.6z"/> <path class="st4" d="m285.9 151.1c0 2.7-2.3 5-5 5s-5-2.3-5-5 2.3-5 5-5 5 2.2 5 5zm-1 42.4h-8.2v-34.2h8.2z"/> <path class="st4" d="m308.7 158.4c1.4 0 4.1 0.5 4.1 0.5v8.2s-1.6-0.2-4.1-0.2c-5.2 0-9.4 4.1-9.4 9.4v17.6h-8.2v-34.2h8.2v3c2.3-3 5.3-4.3 9.4-4.3z"/> <path class="st4" d="m348.1 159.3h8.4l-15.1 34.2h-8.4l-15-34.2h8.4l10.7 24.6z"/> <path class="st4" d="m375.1 194.4c-9.8 0-17.6-8-17.6-18s8-18 17.6-18c4.1 0 7.1 1.4 9.4 3.9v-3h8.2v34.2h-8.2v-3c-2.4 2.5-5.3 3.9-9.4 3.9zm0-27.8c-5.2 0-9.4 4.3-9.4 9.8 0 5.2 4.1 9.8 9.4 9.8 5 0 8.9-4.1 9.4-9.1v-1.4c-0.5-5-4.4-9.1-9.4-9.1z"/> <path class="st4" d="m402.2 167.5h-4.6v-8.2h4.6v-8.2l8.2-0.9v9.1h9.8v8.2h-9.6v14.6c0 2.3 1.8 4.1 4.1 4.1s5.7-0.5 5.7-0.5l0.9 8s-4.1 0.7-6.8 0.7c-6.8 0-12.3-5.5-12.3-12.3z"/> <path class="st4" d="m436.7 151.1c0 2.7-2.3 5-5 5s-5-2.3-5-5 2.3-5 5-5 5 2.2 5 5zm-1 42.4h-8.2v-34.2h8.2z"/>   <path class="st4" d="m185.5 144.2c3 0.2 4.1 3.2 4.8 6.4 0.9 3 1.4 6.6 1.8 10.7 0.2 1.4 0.5 3.2 0.7 5 0.9 5.5 2.3 11.9 4.3 12.3 0.9 0.2 5.5 0 18.5-20.8 0.7-0.9 1.1-1.8 1.8-3-0.5-13.9-7.8-25.6-18.7-28.3-14.4-3.4-29.7 9.1-34.2 28.3-1.6 6.4-1.6 12.5-0.7 18 5.9-5.9 10-13.7 13-19.4 3.4-6 5.3-9.4 8.7-9.2z"/> <path class="st4" d="m197.6 184.4c-0.5 0-0.9 0-1.4-0.2-5.2-1.1-7.3-8-8.7-15.7-0.2-2.1-0.7-4.1-0.9-6.2-0.5-3.9-0.9-7.3-1.6-10 0-0.2-0.2-0.5-0.2-0.7-0.9 1.4-1.8 3.2-2.7 4.8-3 5.5-6.6 12.5-12.1 18.7-1.4 1.6-2.7 3-4.3 4.3 2.5 6.8 7.1 12.3 12.8 15.1l-9.4 8.9c-2.3 2.1-1.4 5.7 1.6 6.6l12.3 3.7c3 0.9 5.5-1.6 4.8-4.6l-3-12.5v-0.2c13.5 1.4 27.1-10.7 31.5-28.5-8 11.5-13.9 16.5-18.7 16.5z"/>  </g> </g> <g id="Brands_x5F_Spects_x5F_Nirvati_x5F_white-logo_x5F_one-color_x5F_on-black" class="st0"> <rect id="f5367c26-4304-4608-9b66-58dcca89a5d6_6_" class="st1" y="-1.1" width="600" height="342.20001"/> <g class="st1">  <path class="st6" d="m247.1 176.4v17.1h-8.2v-34.2h8.2v4.6c2.5-3.4 5.7-5.5 10.5-5.5 8 0 13.7 5.9 13.5 13.9v21.2h-8.4v-20.1c0-3.9-2.7-6.6-6.4-6.6-5.1 0.2-9.2 4.8-9.2 9.6z"/> <path class="st6" d="m285.9 151.3c0 2.7-2.3 5-5 5s-5-2.3-5-5 2.3-5 5-5 5 2.3 5 5zm-1 42.4h-8.2v-34.4h8.2z"/> <path class="st6" d="m308.7 158.4c1.4 0 4.1 0.5 4.1 0.5v8.2s-1.6-0.2-4.1-0.2c-5.2 0-9.4 4.1-9.4 9.4v17.6h-8.2v-34.2h8.2v3c2.3-2.7 5.3-4.3 9.4-4.3z"/> <path class="st6" d="m348.1 159.3h8.4l-15.1 34.2h-8.4l-15-34.2h8.4l10.7 24.6z"/> <path class="st6" d="m375.1 194.4c-9.8 0-17.6-8-17.6-18s8-18 17.6-18c4.1 0 7.1 1.4 9.4 3.9v-3h8.2v34.2h-8.2v-3c-2.4 2.5-5.3 3.9-9.4 3.9zm0-27.6c-5.2 0-9.4 4.3-9.4 9.8 0 5.2 4.1 9.8 9.4 9.8 5 0 8.9-4.1 9.4-9.1v-1.4c-0.5-5.2-4.4-9.1-9.4-9.1z"/> <path class="st6" d="m402.2 167.5h-4.6v-8.2h4.6v-8.2l8.2-0.9v9.1h9.8v8.2h-9.6v14.6c0 2.3 1.8 4.1 4.1 4.1s5.7-0.5 5.7-0.5l0.9 8s-4.1 0.7-6.8 0.7c-6.8 0-12.3-5.5-12.3-12.3z"/> <path class="st6" d="m436.7 151.3c0 2.7-2.3 5-5 5s-5-2.3-5-5 2.3-5 5-5 5 2.3 5 5zm-1 42.4h-8.2v-34.4h8.2z"/>   <path class="st6" d="m185.5 144.4c3 0.2 4.1 3.2 4.8 6.4 0.9 3 1.4 6.6 1.8 10.7 0.2 1.4 0.5 3.2 0.7 5 0.9 5.5 2.3 11.9 4.3 12.3 0.9 0.2 5.5 0 18.5-20.8 0.7-0.9 1.1-1.8 1.8-3-0.5-13.9-7.8-25.6-18.7-28.3-14.4-3.4-29.7 9.1-34.2 28.3-1.6 6.4-1.6 12.5-0.7 18 5.9-5.9 10-13.7 13-19.4 3.4-6.2 5.3-9.6 8.7-9.2z"/> <path class="st6" d="m197.6 184.6c-0.5 0-0.9 0-1.4-0.2-5.2-1.1-7.3-8-8.7-15.7-0.2-2.1-0.7-4.1-0.9-6.2-0.5-3.9-0.9-7.3-1.6-10 0-0.2-0.2-0.5-0.2-0.7-0.9 1.4-1.8 3.2-2.7 4.8-3 5.5-6.6 12.5-12.1 18.7-1.4 1.6-2.7 3-4.3 4.3 2.5 6.8 7.1 12.3 12.8 15.1l-9.4 8.9c-2.3 2.1-1.4 5.7 1.6 6.6l12.3 3.7c3 0.9 5.5-1.6 4.8-4.6l-3-12.8v-0.2c13.5 1.4 27.1-10.7 31.5-28.5-8 11.6-13.9 16.8-18.7 16.8z"/>  </g> </g> <g id="Brands_x5F_Spects_x5F_Nirvati_x5F_white-logo_x5F_one-color_x5F_on-darkgray" class="st0"> <rect id="f5367c26-4304-4608-9b66-58dcca89a5d6_15_" class="st5" y="-1.1" width="600" height="342.20001"/> <g class="st1">  <path class="st6" d="m247.1 176.4v17.1h-8.2v-34.2h8.2v4.6c2.5-3.4 5.7-5.5 10.5-5.5 8 0 13.7 5.9 13.5 13.9v21.2h-8.4v-20.1c0-3.9-2.7-6.6-6.4-6.6-5.1 0.2-9.2 4.8-9.2 9.6z"/> <path class="st6" d="m285.9 151.3c0 2.7-2.3 5-5 5s-5-2.3-5-5 2.3-5 5-5 5 2.3 5 5zm-1 42.4h-8.2v-34.4h8.2z"/> <path class="st6" d="m308.7 158.4c1.4 0 4.1 0.5 4.1 0.5v8.2s-1.6-0.2-4.1-0.2c-5.2 0-9.4 4.1-9.4 9.4v17.6h-8.2v-34.2h8.2v3c2.3-2.7 5.3-4.3 9.4-4.3z"/> <path class="st6" d="m348.1 159.3h8.4l-15.1 34.2h-8.4l-15-34.2h8.4l10.7 24.6z"/> <path class="st6" d="m375.1 194.4c-9.8 0-17.6-8-17.6-18s8-18 17.6-18c4.1 0 7.1 1.4 9.4 3.9v-3h8.2v34.2h-8.2v-3c-2.4 2.5-5.3 3.9-9.4 3.9zm0-27.6c-5.2 0-9.4 4.3-9.4 9.8 0 5.2 4.1 9.8 9.4 9.8 5 0 8.9-4.1 9.4-9.1v-1.4c-0.5-5.2-4.4-9.1-9.4-9.1z"/> <path class="st6" d="m402.2 167.5h-4.6v-8.2h4.6v-8.2l8.2-0.9v9.1h9.8v8.2h-9.6v14.6c0 2.3 1.8 4.1 4.1 4.1s5.7-0.5 5.7-0.5l0.9 8s-4.1 0.7-6.8 0.7c-6.8 0-12.3-5.5-12.3-12.3z"/> <path class="st6" d="m436.7 151.3c0 2.7-2.3 5-5 5s-5-2.3-5-5 2.3-5 5-5 5 2.3 5 5zm-1 42.4h-8.2v-34.4h8.2z"/>   <path class="st6" d="m185.5 144.4c3 0.2 4.1 3.2 4.8 6.4 0.9 3 1.4 6.6 1.8 10.7 0.2 1.4 0.5 3.2 0.7 5 0.9 5.5 2.3 11.9 4.3 12.3 0.9 0.2 5.5 0 18.5-20.8 0.7-0.9 1.1-1.8 1.8-3-0.5-13.9-7.8-25.6-18.7-28.3-14.4-3.4-29.7 9.1-34.2 28.3-1.6 6.4-1.6 12.5-0.7 18 5.9-5.9 10-13.7 13-19.4 3.4-6.2 5.3-9.6 8.7-9.2z"/> <path class="st6" d="m197.6 184.6c-0.5 0-0.9 0-1.4-0.2-5.2-1.1-7.3-8-8.7-15.7-0.2-2.1-0.7-4.1-0.9-6.2-0.5-3.9-0.9-7.3-1.6-10 0-0.2-0.2-0.5-0.2-0.7-0.9 1.4-1.8 3.2-2.7 4.8-3 5.5-6.6 12.5-12.1 18.7-1.4 1.6-2.7 3-4.3 4.3 2.5 6.8 7.1 12.3 12.8 15.1l-9.4 8.9c-2.3 2.1-1.4 5.7 1.6 6.6l12.3 3.7c3 0.9 5.5-1.6 4.8-4.6l-3-12.8v-0.2c13.5 1.4 27.1-10.7 31.5-28.5-8 11.6-13.9 16.8-18.7 16.8z"/>  </g> </g> <g id="Brands_x5F_Spects_x5F_Nirvati_x5F_white-logo_x5F_on-purple" class="st0"> <rect id="f5367c26-4304-4608-9b66-58dcca89a5d6_4_" class="st8" y="-1.1" width="600" height="342.20001"/> <g class="st1">  <path class="st6" d="m247.1 176.4v17.1h-8.2v-34.2h8.2v4.6c2.5-3.4 5.7-5.5 10.5-5.5 8 0 13.7 5.9 13.5 13.9v21.2h-8.4v-20.1c0-3.9-2.7-6.6-6.4-6.6-5.1 0-9.2 4.6-9.2 9.6z"/> <path class="st6" d="m285.9 151.1c0 2.7-2.3 5-5 5s-5-2.3-5-5 2.3-5 5-5 5 2.2 5 5zm-1 42.4h-8.2v-34.2h8.2z"/> <path class="st6" d="m308.7 158.4c1.4 0 4.1 0.5 4.1 0.5v8.2s-1.6-0.2-4.1-0.2c-5.2 0-9.4 4.1-9.4 9.4v17.6h-8.2v-34.2h8.2v3c2.3-3 5.3-4.3 9.4-4.3z"/> <path class="st6" d="m348.1 159.3h8.4l-15.1 34.2h-8.4l-15-34.2h8.4l10.7 24.6z"/> <path class="st6" d="m375.1 194.4c-9.8 0-17.6-8-17.6-18s8-18 17.6-18c4.1 0 7.1 1.4 9.4 3.9v-3h8.2v34.2h-8.2v-3c-2.4 2.5-5.3 3.9-9.4 3.9zm0-27.8c-5.2 0-9.4 4.3-9.4 9.8 0 5.2 4.1 9.8 9.4 9.8 5 0 8.9-4.1 9.4-9.1v-1.4c-0.5-5-4.4-9.1-9.4-9.1z"/> <path class="st6" d="m402.2 167.5h-4.6v-8.2h4.6v-8.2l8.2-0.9v9.1h9.8v8.2h-9.6v14.6c0 2.3 1.8 4.1 4.1 4.1s5.7-0.5 5.7-0.5l0.9 8s-4.1 0.7-6.8 0.7c-6.8 0-12.3-5.5-12.3-12.3z"/> <path class="st6" d="m436.7 151.1c0 2.7-2.3 5-5 5s-5-2.3-5-5 2.3-5 5-5 5 2.2 5 5zm-1 42.4h-8.2v-34.2h8.2z"/>   <path class="st6" d="m185.5 144.2c3 0.2 4.1 3.2 4.8 6.4 0.9 3 1.4 6.6 1.8 10.7 0.2 1.4 0.5 3.2 0.7 5 0.9 5.5 2.3 11.9 4.3 12.3 0.9 0.2 5.5 0 18.5-20.8 0.7-0.9 1.1-1.8 1.8-3-0.5-13.9-7.8-25.6-18.7-28.3-14.4-3.4-29.7 9.1-34.2 28.3-1.6 6.4-1.6 12.5-0.7 18 5.9-5.9 10-13.7 13-19.4 3.4-6 5.3-9.4 8.7-9.2z"/> <path class="st6" d="m197.6 184.4c-0.5 0-0.9 0-1.4-0.2-5.2-1.1-7.3-8-8.7-15.7-0.2-2.1-0.7-4.1-0.9-6.2-0.5-3.9-0.9-7.3-1.6-10 0-0.2-0.2-0.5-0.2-0.7-0.9 1.4-1.8 3.2-2.7 4.8-3 5.5-6.6 12.5-12.1 18.7-1.4 1.6-2.7 3-4.3 4.3 2.5 6.8 7.1 12.3 12.8 15.1l-9.4 8.9c-2.3 2.1-1.4 5.7 1.6 6.6l12.3 3.7c3 0.9 5.5-1.6 4.8-4.6l-3-12.5v-0.2c13.5 1.4 27.1-10.7 31.5-28.5-8 11.5-13.9 16.5-18.7 16.5z"/>  </g> </g> <g id="Brands_x5F_Spects_x5F_Nirvati_x5F_black-logo_x5F_one-color_x5F_on-purple" class="st0"> <rect id="f5367c26-4304-4608-9b66-58dcca89a5d6_9_" class="st8" y="-1.1" width="600" height="342.20001"/> <g class="st1">  <path d="m247.1 176.4v17.1h-8.2v-34.2h8.2v4.6c2.5-3.4 5.7-5.5 10.5-5.5 8 0 13.7 5.9 13.5 13.9v21.2h-8.4v-20.1c0-3.9-2.7-6.6-6.4-6.6-5.1 0-9.2 4.6-9.2 9.6z"/> <path d="m285.9 151.1c0 2.7-2.3 5-5 5s-5-2.3-5-5 2.3-5 5-5 5 2.2 5 5zm-1 42.4h-8.2v-34.2h8.2z"/> <path d="m308.7 158.4c1.4 0 4.1 0.5 4.1 0.5v8.2s-1.6-0.2-4.1-0.2c-5.2 0-9.4 4.1-9.4 9.4v17.6h-8.2v-34.2h8.2v3c2.3-3 5.3-4.3 9.4-4.3z"/> <path d="m348.1 159.3h8.4l-15.1 34.2h-8.4l-15-34.2h8.4l10.7 24.6z"/> <path d="m375.1 194.4c-9.8 0-17.6-8-17.6-18s8-18 17.6-18c4.1 0 7.1 1.4 9.4 3.9v-3h8.2v34.2h-8.2v-3c-2.4 2.5-5.3 3.9-9.4 3.9zm0-27.8c-5.2 0-9.4 4.3-9.4 9.8 0 5.2 4.1 9.8 9.4 9.8 5 0 8.9-4.1 9.4-9.1v-1.4c-0.5-5-4.4-9.1-9.4-9.1z"/> <path d="m402.2 167.5h-4.6v-8.2h4.6v-8.2l8.2-0.9v9.1h9.8v8.2h-9.6v14.6c0 2.3 1.8 4.1 4.1 4.1s5.7-0.5 5.7-0.5l0.9 8s-4.1 0.7-6.8 0.7c-6.8 0-12.3-5.5-12.3-12.3z"/> <path d="m436.7 151.1c0 2.7-2.3 5-5 5s-5-2.3-5-5 2.3-5 5-5 5 2.2 5 5zm-1 42.4h-8.2v-34.2h8.2z"/>   <path d="m185.5 144.2c3 0.2 4.1 3.2 4.8 6.4 0.9 3 1.4 6.6 1.8 10.7 0.2 1.4 0.5 3.2 0.7 5 0.9 5.5 2.3 11.9 4.3 12.3 0.9 0.2 5.5 0 18.5-20.8 0.7-0.9 1.1-1.8 1.8-3-0.5-13.9-7.8-25.6-18.7-28.3-14.4-3.4-29.7 9.1-34.2 28.3-1.6 6.4-1.6 12.5-0.7 18 5.9-5.9 10-13.7 13-19.4 3.4-6 5.3-9.4 8.7-9.2z"/> <path d="m197.6 184.4c-0.5 0-0.9 0-1.4-0.2-5.2-1.1-7.3-8-8.7-15.7-0.2-2.1-0.7-4.1-0.9-6.2-0.5-3.9-0.9-7.3-1.6-10 0-0.2-0.2-0.5-0.2-0.7-0.9 1.4-1.8 3.2-2.7 4.8-3 5.5-6.6 12.5-12.1 18.7-1.4 1.6-2.7 3-4.3 4.3 2.5 6.8 7.1 12.3 12.8 15.1l-9.4 8.9c-2.3 2.1-1.4 5.7 1.6 6.6l12.3 3.7c3 0.9 5.5-1.6 4.8-4.6l-3-12.5v-0.2c13.5 1.4 27.1-10.7 31.5-28.5-8 11.5-13.9 16.5-18.7 16.5z"/>  </g> </g> <g id="Brands_x5F_Spects_x5F_Nirvati_x5F_black-logo_x5F_one-color_x5F_on-white" class="st0"> <rect id="f5367c26-4304-4608-9b66-58dcca89a5d6_10_" class="st2" y="-1.1" width="600" height="342.20001"/> <g class="st1">  <path d="m247.1 176.4v17.1h-8.2v-34.2h8.2v4.6c2.5-3.4 5.7-5.5 10.5-5.5 8 0 13.7 5.9 13.5 13.9v21.2h-8.4v-20.1c0-3.9-2.7-6.6-6.4-6.6-5.1 0-9.2 4.6-9.2 9.6z"/> <path d="m285.9 151.1c0 2.7-2.3 5-5 5s-5-2.3-5-5 2.3-5 5-5 5 2.2 5 5zm-1 42.4h-8.2v-34.2h8.2z"/> <path d="m308.7 158.4c1.4 0 4.1 0.5 4.1 0.5v8.2s-1.6-0.2-4.1-0.2c-5.2 0-9.4 4.1-9.4 9.4v17.6h-8.2v-34.2h8.2v3c2.3-3 5.3-4.3 9.4-4.3z"/> <path d="m348.1 159.3h8.4l-15.1 34.2h-8.4l-15-34.2h8.4l10.7 24.6z"/> <path d="m375.1 194.4c-9.8 0-17.6-8-17.6-18s8-18 17.6-18c4.1 0 7.1 1.4 9.4 3.9v-3h8.2v34.2h-8.2v-3c-2.4 2.5-5.3 3.9-9.4 3.9zm0-27.8c-5.2 0-9.4 4.3-9.4 9.8 0 5.2 4.1 9.8 9.4 9.8 5 0 8.9-4.1 9.4-9.1v-1.4c-0.5-5-4.4-9.1-9.4-9.1z"/> <path d="m402.2 167.5h-4.6v-8.2h4.6v-8.2l8.2-0.9v9.1h9.8v8.2h-9.6v14.6c0 2.3 1.8 4.1 4.1 4.1s5.7-0.5 5.7-0.5l0.9 8s-4.1 0.7-6.8 0.7c-6.8 0-12.3-5.5-12.3-12.3z"/> <path d="m436.7 151.1c0 2.7-2.3 5-5 5s-5-2.3-5-5 2.3-5 5-5 5 2.2 5 5zm-1 42.4h-8.2v-34.2h8.2z"/>   <path d="m185.5 144.2c3 0.2 4.1 3.2 4.8 6.4 0.9 3 1.4 6.6 1.8 10.7 0.2 1.4 0.5 3.2 0.7 5 0.9 5.5 2.3 11.9 4.3 12.3 0.9 0.2 5.5 0 18.5-20.8 0.7-0.9 1.1-1.8 1.8-3-0.5-13.9-7.8-25.6-18.7-28.3-14.4-3.4-29.7 9.1-34.2 28.3-1.6 6.4-1.6 12.5-0.7 18 5.9-5.9 10-13.7 13-19.4 3.4-6 5.3-9.4 8.7-9.2z"/> <path d="m197.6 184.4c-0.5 0-0.9 0-1.4-0.2-5.2-1.1-7.3-8-8.7-15.7-0.2-2.1-0.7-4.1-0.9-6.2-0.5-3.9-0.9-7.3-1.6-10 0-0.2-0.2-0.5-0.2-0.7-0.9 1.4-1.8 3.2-2.7 4.8-3 5.5-6.6 12.5-12.1 18.7-1.4 1.6-2.7 3-4.3 4.3 2.5 6.8 7.1 12.3 12.8 15.1l-9.4 8.9c-2.3 2.1-1.4 5.7 1.6 6.6l12.3 3.7c3 0.9 5.5-1.6 4.8-4.6l-3-12.5v-0.2c13.5 1.4 27.1-10.7 31.5-28.5-8 11.5-13.9 16.5-18.7 16.5z"/>  </g> </g> <g id="Brands_x5F_Spects_x5F_Nirvati_x5F_black-logo_x5F_one-color_x5F_on-lightgray" class="st0"> <rect id="f5367c26-4304-4608-9b66-58dcca89a5d6_13_" class="st7" y="-1.1" width="600" height="342.20001"/> <g class="st1">  <path d="m247.1 176.4v17.1h-8.2v-34.2h8.2v4.6c2.5-3.4 5.7-5.5 10.5-5.5 8 0 13.7 5.9 13.5 13.9v21.2h-8.4v-20.1c0-3.9-2.7-6.6-6.4-6.6-5.1 0-9.2 4.6-9.2 9.6z"/> <path d="m285.9 151.1c0 2.7-2.3 5-5 5s-5-2.3-5-5 2.3-5 5-5 5 2.2 5 5zm-1 42.4h-8.2v-34.2h8.2z"/> <path d="m308.7 158.4c1.4 0 4.1 0.5 4.1 0.5v8.2s-1.6-0.2-4.1-0.2c-5.2 0-9.4 4.1-9.4 9.4v17.6h-8.2v-34.2h8.2v3c2.3-3 5.3-4.3 9.4-4.3z"/> <path d="m348.1 159.3h8.4l-15.1 34.2h-8.4l-15-34.2h8.4l10.7 24.6z"/> <path d="m375.1 194.4c-9.8 0-17.6-8-17.6-18s8-18 17.6-18c4.1 0 7.1 1.4 9.4 3.9v-3h8.2v34.2h-8.2v-3c-2.4 2.5-5.3 3.9-9.4 3.9zm0-27.8c-5.2 0-9.4 4.3-9.4 9.8 0 5.2 4.1 9.8 9.4 9.8 5 0 8.9-4.1 9.4-9.1v-1.4c-0.5-5-4.4-9.1-9.4-9.1z"/> <path d="m402.2 167.5h-4.6v-8.2h4.6v-8.2l8.2-0.9v9.1h9.8v8.2h-9.6v14.6c0 2.3 1.8 4.1 4.1 4.1s5.7-0.5 5.7-0.5l0.9 8s-4.1 0.7-6.8 0.7c-6.8 0-12.3-5.5-12.3-12.3z"/> <path d="m436.7 151.1c0 2.7-2.3 5-5 5s-5-2.3-5-5 2.3-5 5-5 5 2.2 5 5zm-1 42.4h-8.2v-34.2h8.2z"/>   <path d="m185.5 144.2c3 0.2 4.1 3.2 4.8 6.4 0.9 3 1.4 6.6 1.8 10.7 0.2 1.4 0.5 3.2 0.7 5 0.9 5.5 2.3 11.9 4.3 12.3 0.9 0.2 5.5 0 18.5-20.8 0.7-0.9 1.1-1.8 1.8-3-0.5-13.9-7.8-25.6-18.7-28.3-14.4-3.4-29.7 9.1-34.2 28.3-1.6 6.4-1.6 12.5-0.7 18 5.9-5.9 10-13.7 13-19.4 3.4-6 5.3-9.4 8.7-9.2z"/> <path d="m197.6 184.4c-0.5 0-0.9 0-1.4-0.2-5.2-1.1-7.3-8-8.7-15.7-0.2-2.1-0.7-4.1-0.9-6.2-0.5-3.9-0.9-7.3-1.6-10 0-0.2-0.2-0.5-0.2-0.7-0.9 1.4-1.8 3.2-2.7 4.8-3 5.5-6.6 12.5-12.1 18.7-1.4 1.6-2.7 3-4.3 4.3 2.5 6.8 7.1 12.3 12.8 15.1l-9.4 8.9c-2.3 2.1-1.4 5.7 1.6 6.6l12.3 3.7c3 0.9 5.5-1.6 4.8-4.6l-3-12.5v-0.2c13.5 1.4 27.1-10.7 31.5-28.5-8 11.5-13.9 16.5-18.7 16.5z"/>  </g> </g> <g id="Brands_x5F_Spects_x5F_Nirvati_x5F_black-logo_x5F_one-color_x5F_on-darkgray" class="st0"> <rect id="f5367c26-4304-4608-9b66-58dcca89a5d6_16_" class="st5" y="-1.1" width="600" height="342.20001"/> <g class="st1">  <path d="m247.1 176.4v17.1h-8.2v-34.2h8.2v4.6c2.5-3.4 5.7-5.5 10.5-5.5 8 0 13.7 5.9 13.5 13.9v21.2h-8.4v-20.1c0-3.9-2.7-6.6-6.4-6.6-5.1 0-9.2 4.6-9.2 9.6z"/> <path d="m285.9 151.1c0 2.7-2.3 5-5 5s-5-2.3-5-5 2.3-5 5-5 5 2.2 5 5zm-1 42.4h-8.2v-34.2h8.2z"/> <path d="m308.7 158.4c1.4 0 4.1 0.5 4.1 0.5v8.2s-1.6-0.2-4.1-0.2c-5.2 0-9.4 4.1-9.4 9.4v17.6h-8.2v-34.2h8.2v3c2.3-3 5.3-4.3 9.4-4.3z"/> <path d="m348.1 159.3h8.4l-15.1 34.2h-8.4l-15-34.2h8.4l10.7 24.6z"/> <path d="m375.1 194.4c-9.8 0-17.6-8-17.6-18s8-18 17.6-18c4.1 0 7.1 1.4 9.4 3.9v-3h8.2v34.2h-8.2v-3c-2.4 2.5-5.3 3.9-9.4 3.9zm0-27.8c-5.2 0-9.4 4.3-9.4 9.8 0 5.2 4.1 9.8 9.4 9.8 5 0 8.9-4.1 9.4-9.1v-1.4c-0.5-5-4.4-9.1-9.4-9.1z"/> <path d="m402.2 167.5h-4.6v-8.2h4.6v-8.2l8.2-0.9v9.1h9.8v8.2h-9.6v14.6c0 2.3 1.8 4.1 4.1 4.1s5.7-0.5 5.7-0.5l0.9 8s-4.1 0.7-6.8 0.7c-6.8 0-12.3-5.5-12.3-12.3z"/> <path d="m436.7 151.1c0 2.7-2.3 5-5 5s-5-2.3-5-5 2.3-5 5-5 5 2.2 5 5zm-1 42.4h-8.2v-34.2h8.2z"/>   <path d="m185.5 144.2c3 0.2 4.1 3.2 4.8 6.4 0.9 3 1.4 6.6 1.8 10.7 0.2 1.4 0.5 3.2 0.7 5 0.9 5.5 2.3 11.9 4.3 12.3 0.9 0.2 5.5 0 18.5-20.8 0.7-0.9 1.1-1.8 1.8-3-0.5-13.9-7.8-25.6-18.7-28.3-14.4-3.4-29.7 9.1-34.2 28.3-1.6 6.4-1.6 12.5-0.7 18 5.9-5.9 10-13.7 13-19.4 3.4-6 5.3-9.4 8.7-9.2z"/> <path d="m197.6 184.4c-0.5 0-0.9 0-1.4-0.2-5.2-1.1-7.3-8-8.7-15.7-0.2-2.1-0.7-4.1-0.9-6.2-0.5-3.9-0.9-7.3-1.6-10 0-0.2-0.2-0.5-0.2-0.7-0.9 1.4-1.8 3.2-2.7 4.8-3 5.5-6.6 12.5-12.1 18.7-1.4 1.6-2.7 3-4.3 4.3 2.5 6.8 7.1 12.3 12.8 15.1l-9.4 8.9c-2.3 2.1-1.4 5.7 1.6 6.6l12.3 3.7c3 0.9 5.5-1.6 4.8-4.6l-3-12.5v-0.2c13.5 1.4 27.1-10.7 31.5-28.5-8 11.5-13.9 16.5-18.7 16.5z"/>  </g> </g> <g class="st0"> <rect id="f5367c26-4304-4608-9b66-58dcca89a5d6_8_" class="st1" y="-1.1" width="600" height="342.20001"/> <g class="st1">  <path class="st4" d="m247.1 176.4v17.1h-8.2v-34.2h8.2v4.6c2.5-3.4 5.7-5.5 10.5-5.5 8 0 13.7 5.9 13.5 13.9v21.2h-8.4v-20.1c0-3.9-2.7-6.6-6.4-6.6-5.1 0-9.2 4.6-9.2 9.6z"/> <path class="st4" d="m285.9 151.1c0 2.7-2.3 5-5 5s-5-2.3-5-5 2.3-5 5-5 5 2.2 5 5zm-1 42.4h-8.2v-34.2h8.2z"/> <path class="st4" d="m308.7 158.4c1.4 0 4.1 0.5 4.1 0.5v8.2s-1.6-0.2-4.1-0.2c-5.2 0-9.4 4.1-9.4 9.4v17.6h-8.2v-34.2h8.2v3c2.3-3 5.3-4.3 9.4-4.3z"/> <path class="st4" d="m348.1 159.3h8.4l-15.1 34.2h-8.4l-15-34.2h8.4l10.7 24.6z"/> <path class="st4" d="m375.1 194.4c-9.8 0-17.6-8-17.6-18s8-18 17.6-18c4.1 0 7.1 1.4 9.4 3.9v-3h8.2v34.2h-8.2v-3c-2.4 2.5-5.3 3.9-9.4 3.9zm0-27.8c-5.2 0-9.4 4.3-9.4 9.8 0 5.2 4.1 9.8 9.4 9.8 5 0 8.9-4.1 9.4-9.1v-1.4c-0.5-5-4.4-9.1-9.4-9.1z"/> <path class="st4" d="m402.2 167.5h-4.6v-8.2h4.6v-8.2l8.2-0.9v9.1h9.8v8.2h-9.6v14.6c0 2.3 1.8 4.1 4.1 4.1s5.7-0.5 5.7-0.5l0.9 8s-4.1 0.7-6.8 0.7c-6.8 0-12.3-5.5-12.3-12.3z"/> <path class="st4" d="m436.7 151.1c0 2.7-2.3 5-5 5s-5-2.3-5-5 2.3-5 5-5 5 2.2 5 5zm-1 42.4h-8.2v-34.2h8.2z"/>   <path class="st4" d="m185.5 144.2c3 0.2 4.1 3.2 4.8 6.4 0.9 3 1.4 6.6 1.8 10.7 0.2 1.4 0.5 3.2 0.7 5 0.9 5.5 2.3 11.9 4.3 12.3 0.9 0.2 5.5 0 18.5-20.8 0.7-0.9 1.1-1.8 1.8-3-0.5-13.9-7.8-25.6-18.7-28.3-14.4-3.4-29.7 9.1-34.2 28.3-1.6 6.4-1.6 12.5-0.7 18 5.9-5.9 10-13.7 13-19.4 3.4-6 5.3-9.4 8.7-9.2z"/> <path class="st4" d="m197.6 184.4c-0.5 0-0.9 0-1.4-0.2-5.2-1.1-7.3-8-8.7-15.7-0.2-2.1-0.7-4.1-0.9-6.2-0.5-3.9-0.9-7.3-1.6-10 0-0.2-0.2-0.5-0.2-0.7-0.9 1.4-1.8 3.2-2.7 4.8-3 5.5-6.6 12.5-12.1 18.7-1.4 1.6-2.7 3-4.3 4.3 2.5 6.8 7.1 12.3 12.8 15.1l-9.4 8.9c-2.3 2.1-1.4 5.7 1.6 6.6l12.3 3.7c3 0.9 5.5-1.6 4.8-4.6l-3-12.5v-0.2c13.5 1.4 27.1-10.7 31.5-28.5-8 11.5-13.9 16.5-18.7 16.5z"/>  </g> </g> <g class="st0"> <rect id="f5367c26-4304-4608-9b66-58dcca89a5d6_3_" class="st1" y="-1.1" width="600" height="342.20001"/> <g class="st1">  <path class="st4" d="m247.1 113.7v17.1h-8.2v-34.3h8.2v4.6c2.5-3.4 5.7-5.5 10.5-5.5 8 0 13.7 5.9 13.5 13.9v21.2h-8.4v-20.1c0-3.9-2.7-6.6-6.4-6.6-5.1 0.3-9.2 4.9-9.2 9.7z"/> <path class="st4" d="m285.9 88.6c0 2.7-2.3 5-5 5s-5-2.3-5-5 2.3-5 5-5 5 2.2 5 5zm-1 42.4h-8.2v-34.5h8.2z"/> <path class="st4" d="m308.7 95.6c1.4 0 4.1 0.5 4.1 0.5v8.2s-1.6-0.2-4.1-0.2c-5.2 0-9.4 4.1-9.4 9.4v17.5h-8.2v-34.2h8.2v3c2.3-2.6 5.3-4.2 9.4-4.2z"/> <path class="st4" d="m348.1 96.5h8.4l-15.1 34.2h-8.4l-15-34.2h8.4l10.7 24.6z"/> <path class="st4" d="m375.1 131.7c-9.8 0-17.6-8-17.6-18s8-18 17.6-18c4.1 0 7.1 1.4 9.4 3.9v-3h8.2v34.2h-8.2v-3c-2.4 2.5-5.3 3.9-9.4 3.9zm0-27.6c-5.2 0-9.4 4.3-9.4 9.8 0 5.2 4.1 9.8 9.4 9.8 5 0 8.9-4.1 9.4-9.1v-1.6c-0.5-5.1-4.4-8.9-9.4-8.9z"/> <path class="st4" d="m402.2 104.8h-4.6v-8.2h4.6v-8.2l8.2-0.9v9.1h9.8v8.2h-9.6v14.6c0 2.3 1.8 4.1 4.1 4.1s5.7-0.5 5.7-0.5l0.9 8s-4.1 0.7-6.8 0.7c-6.8 0-12.3-5.5-12.3-12.3z"/> <path class="st4" d="m436.7 88.6c0 2.7-2.3 5-5 5s-5-2.3-5-5 2.3-5 5-5 5 2.2 5 5zm-1 42.4h-8.2v-34.5h8.2z"/>   <path class="st4" d="m185.5 81.7c3 0.2 4.1 3.2 4.8 6.4 0.9 3 1.4 6.6 1.8 10.7 0.2 1.4 0.5 3.2 0.7 5 0.9 5.5 2.3 11.9 4.3 12.3 0.9 0.2 5.5 0 18.5-20.8 0.7-0.9 1.1-1.8 1.8-3-0.5-13.9-7.8-25.6-18.7-28.3-14.4-3.4-29.7 9.1-34.2 28.3-1.6 6.4-1.6 12.5-0.7 18 5.9-5.9 10-13.7 13-19.4 3.4-6.2 5.3-9.6 8.7-9.2z"/> <path class="st4" d="m197.6 121.9c-0.5 0-0.9 0-1.4-0.2-5.2-1.1-7.3-8-8.7-15.7-0.2-2.1-0.7-4.1-0.9-6.2-0.5-3.9-0.9-7.3-1.6-10 0-0.2-0.2-0.5-0.2-0.7-0.9 1.4-1.8 3.2-2.7 4.8-3 5.5-6.6 12.5-12.1 18.7-1.4 1.6-2.7 3-4.3 4.3 2.5 6.8 7.1 12.3 12.8 15.1l-9.4 8.9c-2.3 2.1-1.4 5.7 1.6 6.6l12.3 3.7c3 0.9 5.5-1.6 4.8-4.6l-3-12.8v-0.2c13.5 1.4 27.1-10.7 31.5-28.5-8 11.5-13.9 16.8-18.7 16.8z"/>  </g> <g class="st1">  <path class="st6" d="m247.1 228.9v17.1h-8.2v-34.2h8.2v4.6c2.5-3.4 5.7-5.5 10.5-5.5 8 0 13.7 5.9 13.5 13.9v21.2h-8.4v-20.1c0-3.9-2.7-6.6-6.4-6.6-5.1 0.2-9.2 4.8-9.2 9.6z"/> <path class="st6" d="m285.9 203.8c0 2.7-2.3 5-5 5s-5-2.3-5-5 2.3-5 5-5c2.7-0.1 5 2.2 5 5zm-1 42.4h-8.2v-34.4h8.2z"/> <path class="st6" d="m308.7 210.8c1.4 0 4.1 0.5 4.1 0.5v8.2s-1.6-0.2-4.1-0.2c-5.2 0-9.4 4.1-9.4 9.4v17.6h-8.2v-34.3h8.2v3c2.3-2.6 5.3-4.2 9.4-4.2z"/> <path class="st6" d="m348.1 211.7h8.4l-15 34.3h-8.4l-15.1-34.3h8.4l10.7 24.6z"/> <path class="st6" d="m375.1 246.9c-9.8 0-17.6-8-17.6-18s8-18 17.6-18c4.1 0 7.1 1.4 9.4 3.9v-3h8.2v34.2h-8.2v-3c-2.4 2.5-5.3 3.9-9.4 3.9zm0-27.6c-5.2 0-9.4 4.3-9.4 9.8 0 5.2 4.1 9.8 9.4 9.8 5 0 8.9-4.1 9.4-9.1v-1.4c-0.5-5.2-4.4-9.1-9.4-9.1z"/> <path class="st6" d="m402.2 220h-4.6v-8.2h4.6v-8.2l8.2-0.9v9.1h9.8v8.2h-9.6v14.6c0 2.3 1.8 4.1 4.1 4.1s5.7-0.5 5.7-0.5l0.9 8s-4.1 0.7-6.8 0.7c-6.8 0-12.3-5.5-12.3-12.3z"/> <path class="st6" d="m436.7 203.8c0 2.7-2.3 5-5 5s-5-2.3-5-5 2.3-5 5-5c2.7-0.1 5 2.2 5 5zm-1 42.4h-8.2v-34.4h8.2z"/>   <path class="st6" d="m185.5 196.9c3 0.2 4.1 3.2 4.8 6.4 0.9 3 1.4 6.6 1.8 10.7 0.2 1.4 0.5 3.2 0.7 5 0.9 5.5 2.3 11.9 4.3 12.3 0.9 0.2 5.5 0 18.5-20.8 0.7-0.9 1.1-1.8 1.8-3-0.5-13.9-7.8-25.6-18.7-28.3-14.4-3.4-29.7 9.1-34.2 28.3-1.6 6.4-1.6 12.5-0.7 18 5.9-5.9 10-13.7 13-19.4 3.4-6.2 5.3-9.6 8.7-9.2z"/> <path class="st6" d="m197.6 237.1c-0.5 0-0.9 0-1.4-0.2-5.2-1.1-7.3-8-8.7-15.7-0.2-2.1-0.7-4.1-0.9-6.2-0.5-3.9-0.9-7.3-1.6-10 0-0.2-0.2-0.5-0.2-0.7-0.9 1.4-1.8 3.2-2.7 4.8-3 5.5-6.6 12.5-12.1 18.7-1.4 1.6-2.7 3-4.3 4.3 2.5 6.8 7.1 12.3 12.8 15.1l-9.5 8.8c-2.3 2.1-1.4 5.7 1.6 6.6l12.3 3.7c3 0.9 5.5-1.6 4.8-4.6l-3-12.5v-0.2c13.5 1.4 27.1-10.7 31.5-28.5-7.9 11.3-13.8 16.6-18.6 16.6z"/>  </g> </g> <g id="Layer_3_copy" class="st0"> <rect id="f5367c26-4304-4608-9b66-58dcca89a5d6_2_" class="st1" y="-1.1" width="600" height="342.20001"/> <g class="st1">  <path class="st6" d="m247.1 176.4v17.1h-8.2v-34.2h8.2v4.6c2.5-3.4 5.7-5.5 10.5-5.5 8 0 13.7 5.9 13.5 13.9v21.2h-8.4v-20.1c0-3.9-2.7-6.6-6.4-6.6-5.1 0.2-9.2 4.8-9.2 9.6z"/> <path class="st6" d="m285.9 151.3c0 2.7-2.3 5-5 5s-5-2.3-5-5 2.3-5 5-5 5 2.3 5 5zm-1 42.4h-8.2v-34.4h8.2z"/> <path class="st6" d="m308.7 158.4c1.4 0 4.1 0.5 4.1 0.5v8.2s-1.6-0.2-4.1-0.2c-5.2 0-9.4 4.1-9.4 9.4v17.6h-8.2v-34.2h8.2v3c2.3-2.7 5.3-4.3 9.4-4.3z"/> <path class="st6" d="m348.1 159.3h8.4l-15.1 34.2h-8.4l-15-34.2h8.4l10.7 24.6z"/> <path class="st6" d="m375.1 194.4c-9.8 0-17.6-8-17.6-18s8-18 17.6-18c4.1 0 7.1 1.4 9.4 3.9v-3h8.2v34.2h-8.2v-3c-2.4 2.5-5.3 3.9-9.4 3.9zm0-27.6c-5.2 0-9.4 4.3-9.4 9.8 0 5.2 4.1 9.8 9.4 9.8 5 0 8.9-4.1 9.4-9.1v-1.4c-0.5-5.2-4.4-9.1-9.4-9.1z"/> <path class="st6" d="m402.2 167.5h-4.6v-8.2h4.6v-8.2l8.2-0.9v9.1h9.8v8.2h-9.6v14.6c0 2.3 1.8 4.1 4.1 4.1s5.7-0.5 5.7-0.5l0.9 8s-4.1 0.7-6.8 0.7c-6.8 0-12.3-5.5-12.3-12.3z"/> <path class="st6" d="m436.7 151.3c0 2.7-2.3 5-5 5s-5-2.3-5-5 2.3-5 5-5 5 2.3 5 5zm-1 42.4h-8.2v-34.4h8.2z"/>   <path class="st4" d="m185.5 144.4c3 0.2 4.1 3.2 4.8 6.4 0.9 3 1.4 6.6 1.8 10.7 0.2 1.4 0.5 3.2 0.7 5 0.9 5.5 2.3 11.9 4.3 12.3 0.9 0.2 5.5 0 18.5-20.8 0.7-0.9 1.1-1.8 1.8-3-0.5-13.9-7.8-25.6-18.7-28.3-14.4-3.4-29.7 9.1-34.2 28.3-1.6 6.4-1.6 12.5-0.7 18 5.9-5.9 10-13.7 13-19.4 3.4-6.2 5.3-9.6 8.7-9.2z"/> <path class="st4" d="m197.6 184.6c-0.5 0-0.9 0-1.4-0.2-5.2-1.1-7.3-8-8.7-15.7-0.2-2.1-0.7-4.1-0.9-6.2-0.5-3.9-0.9-7.3-1.6-10 0-0.2-0.2-0.5-0.2-0.7-0.9 1.4-1.8 3.2-2.7 4.8-3 5.5-6.6 12.5-12.1 18.7-1.4 1.6-2.7 3-4.3 4.3 2.5 6.8 7.1 12.3 12.8 15.1l-9.4 8.9c-2.3 2.1-1.4 5.7 1.6 6.6l12.3 3.7c3 0.9 5.5-1.6 4.8-4.6l-3-12.8v-0.2c13.5 1.4 27.1-10.7 31.5-28.5-8 11.6-13.9 16.8-18.7 16.8z"/>  </g> </g> <g class="st0"> <rect id="f5367c26-4304-4608-9b66-58dcca89a5d6_5_" class="st9" y="-1.1" width="600" height="342.20001"/> <g class="st1">  <path class="st6" d="m247.1 176.4v17.1h-8.2v-34.2h8.2v4.6c2.5-3.4 5.7-5.5 10.5-5.5 8 0 13.7 5.9 13.5 13.9v21.2h-8.4v-20.1c0-3.9-2.7-6.6-6.4-6.6-5.1 0.2-9.2 4.8-9.2 9.6z"/> <path class="st6" d="m285.9 151.3c0 2.7-2.3 5-5 5s-5-2.3-5-5 2.3-5 5-5 5 2.3 5 5zm-1 42.4h-8.2v-34.4h8.2z"/> <path class="st6" d="m308.7 158.4c1.4 0 4.1 0.5 4.1 0.5v8.2s-1.6-0.2-4.1-0.2c-5.2 0-9.4 4.1-9.4 9.4v17.6h-8.2v-34.2h8.2v3c2.3-2.7 5.3-4.3 9.4-4.3z"/> <path class="st6" d="m348.1 159.3h8.4l-15.1 34.2h-8.4l-15-34.2h8.4l10.7 24.6z"/> <path class="st6" d="m375.1 194.4c-9.8 0-17.6-8-17.6-18s8-18 17.6-18c4.1 0 7.1 1.4 9.4 3.9v-3h8.2v34.2h-8.2v-3c-2.4 2.5-5.3 3.9-9.4 3.9zm0-27.6c-5.2 0-9.4 4.3-9.4 9.8 0 5.2 4.1 9.8 9.4 9.8 5 0 8.9-4.1 9.4-9.1v-1.4c-0.5-5.2-4.4-9.1-9.4-9.1z"/> <path class="st6" d="m402.2 167.5h-4.6v-8.2h4.6v-8.2l8.2-0.9v9.1h9.8v8.2h-9.6v14.6c0 2.3 1.8 4.1 4.1 4.1s5.7-0.5 5.7-0.5l0.9 8s-4.1 0.7-6.8 0.7c-6.8 0-12.3-5.5-12.3-12.3z"/> <path class="st6" d="m436.7 151.3c0 2.7-2.3 5-5 5s-5-2.3-5-5 2.3-5 5-5 5 2.3 5 5zm-1 42.4h-8.2v-34.4h8.2z"/>   <path class="st4" d="m185.5 144.4c3 0.2 4.1 3.2 4.8 6.4 0.9 3 1.4 6.6 1.8 10.7 0.2 1.4 0.5 3.2 0.7 5 0.9 5.5 2.3 11.9 4.3 12.3 0.9 0.2 5.5 0 18.5-20.8 0.7-0.9 1.1-1.8 1.8-3-0.5-13.9-7.8-25.6-18.7-28.3-14.4-3.4-29.7 9.1-34.2 28.3-1.6 6.4-1.6 12.5-0.7 18 5.9-5.9 10-13.7 13-19.4 3.4-6.2 5.3-9.6 8.7-9.2z"/> <path class="st4" d="m197.6 184.6c-0.5 0-0.9 0-1.4-0.2-5.2-1.1-7.3-8-8.7-15.7-0.2-2.1-0.7-4.1-0.9-6.2-0.5-3.9-0.9-7.3-1.6-10 0-0.2-0.2-0.5-0.2-0.7-0.9 1.4-1.8 3.2-2.7 4.8-3 5.5-6.6 12.5-12.1 18.7-1.4 1.6-2.7 3-4.3 4.3 2.5 6.8 7.1 12.3 12.8 15.1l-9.4 8.9c-2.3 2.1-1.4 5.7 1.6 6.6l12.3 3.7c3 0.9 5.5-1.6 4.8-4.6l-3-12.8v-0.2c13.5 1.4 27.1-10.7 31.5-28.5-8 11.6-13.9 16.8-18.7 16.8z"/>  </g> </g> </svg>
