<svg width="32" height="32" fill="none" xmlns="http://www.w3.org/2000/svg"><path d="M13.826 3.884a3.279 3.279 0 0 0-4.632.018L.948 12.178a3.234 3.234 0 0 0 .02 4.594l13.521 13.522a3.274 3.274 0 0 0 4.627-.016l4.02-4.019c-1.173 1.172-2.137.33-3.28-.809l-2.242-2.241c-1.702.673-3.69.339-5.07-1.037l-1.708-1.709a.575.575 0 0 1-.18-.427c0-.08.016-.16.047-.235a.603.603 0 0 1 .137-.195l.966-.967-2.104-2.104c-.33-.33-.383-.86-.089-1.219a.888.888 0 0 1 1.317-.065l2.133 2.131 1.445-1.444-2.11-2.104c-.33-.33-.383-.86-.086-1.221a.89.89 0 0 1 1.317-.065l2.141 2.127.908-.908a.584.584 0 0 1 .188-.14.614.614 0 0 1 .67.134l1.712 1.707a4.733 4.733 0 0 1 1.08 5.026l2.243 2.242c1.143 1.138 2.1 1.988 3.272.816l5.071-5.072c-1.219 1.22-2.22.28-3.425-.923L13.826 3.884Z" fill="url(#a)"/><path d="m23.413 1.628-4.311 4.308 9.578 9.578c.917.913 1.714 1.64 2.598 1.288.511-.204.862-.758.666-1.272C27.361 3.503 27.36 3.503 26.751 2.188c-.608-1.314-2.318-1.593-3.338-.56Z" fill="#897FFF"/><path d="m23.413 1.628-4.311 4.308 9.578 9.578c.917.913 1.714 1.64 2.598 1.288.511-.204.862-.758.666-1.272C27.361 3.503 27.36 3.503 26.751 2.188c-.608-1.314-2.318-1.593-3.338-.56Z" fill="#897FFF"/><path d="m23.413 1.628-4.311 4.308 9.578 9.578c.917.913 1.714 1.64 2.598 1.288.511-.204.862-.758.666-1.272C27.361 3.503 27.36 3.503 26.751 2.188c-.608-1.314-2.318-1.593-3.338-.56Z" fill="#897FFF"/><path d="m23.413 1.628-4.311 4.308 9.578 9.578c.917.913 1.714 1.64 2.598 1.288.511-.204.862-.758.666-1.272C27.361 3.503 27.36 3.503 26.751 2.188c-.608-1.314-2.318-1.593-3.338-.56Z" fill="#897FFF"/><path d="m23.413 1.628-4.311 4.308 9.578 9.578c.917.913 1.714 1.64 2.598 1.288.511-.204.862-.758.666-1.272C27.361 3.503 27.36 3.503 26.751 2.188c-.608-1.314-2.318-1.593-3.338-.56Z" fill="#897FFF"/><defs><linearGradient id="a" x1="15.457" y1="1.306" x2="15.457" y2="31.243" gradientUnits="userSpaceOnUse"><stop stop-color="#FFCA4A"/><stop offset="1" stop-color="#F7931A"/></linearGradient></defs></svg>