<svg xmlns="http://www.w3.org/2000/svg" width="128" height="120" fill="none"><g clip-path="url(#a)"><path fill="#472459" d="M127.2 65.67c-5.13 5.11-12.23 3.88-17.35-1.25l-41.4-41.6 19.4-19.47a11.35 11.35 0 0 1 18.4 3.37l21.58 56.22a2.5 2.5 0 0 1-.57 2.67l-13.63 13.57 13.58-13.51Z"/><path fill="url(#b)" d="m109.85 64.42-54.16-54.4a13.13 13.13 0 0 0-18.57-.05L3.87 43.07a13.13 13.13 0 0 0-.05 18.57l54.16 54.4a13.13 13.13 0 0 0 18.57.04l10.7-10.64 3.12-3.12-10-10.03a19.04 19.04 0 0 1-23.83-2.56l-6.8-6.85a2.46 2.46 0 0 1 0-3.5l3.35-3.32-8.4-8.46a3.67 3.67 0 0 1-.34-4.9 3.57 3.57 0 0 1 5.29-.23l8.51 8.56 6.68-6.63-8.41-8.46a3.67 3.67 0 0 1-.33-4.9 3.58 3.58 0 0 1 5.3-.24l8.5 8.57 3.36-3.34a2.47 2.47 0 0 1 3.5.01l6.8 6.84a19.03 19.03 0 0 1 2.41 23.86l10 10.03 5.69-5.67 8.16-8.12 17.4-17.31c-5.15 5.11-12.25 3.88-17.36-1.25Z"/></g><defs><linearGradient id="b" x1="63.6" x2="63.6" y1="6.15" y2="119.91" gradientUnits="userSpaceOnUse"><stop stop-color="#FFCA4A"/><stop offset="1" stop-color="#F7931A"/></linearGradient><clipPath id="a"><path fill="#fff" d="M0 0h128v119.91H0z"/></clipPath></defs><script xmlns=""/></svg>