<svg xmlns="http://www.w3.org/2000/svg" width="37" height="37" fill="none"><path fill="#F8981D" d="m18.5 0 2.47 2.9 3.25-2 1.45 3.52 3.7-.89.3 3.8 3.8.3-.9 3.7 3.52 1.45-1.99 3.25L37 18.5l-2.9 2.47 2 3.25-3.52 1.45.89 3.7-3.8.3-.3 3.8-3.7-.9-1.45 3.52-3.25-1.99L18.5 37l-2.47-2.9-3.25 2-1.45-3.52-3.7.89-.3-3.8-3.8-.3.9-3.7L.9 24.22l1.99-3.25L0 18.5l2.9-2.47-2-3.25 3.52-1.45-.89-3.7 3.8-.3.3-3.8 3.7.9L12.78.9l3.25 1.99L18.5 0Z"/><path stroke="#fff" stroke-width="1.46" d="m13.39 18.66 2.78 3.5 7.44-7.31"/></svg>