<svg width="12" height="14" viewBox="0 0 12 14" fill="none" xmlns="http://www.w3.org/2000/svg">
<path fill-rule="evenodd" clip-rule="evenodd" d="M0.75102 6.66723C0.44231 6.39224 0.41451 5.91851 0.68891 5.60914L5.44103 0.25155C5.58295 0.09155 5.78638 0 6 0C6.2136 0 6.417 0.09155 6.559 0.25155L11.3111 5.60914C11.5855 5.91851 11.5577 6.39224 11.249 6.66723C10.9403 6.94223 10.4676 6.91436 10.1932 6.60499L6.7479 2.72074V13.2505C6.7479 13.6644 6.413 14 6 14C5.58696 14 5.25213 13.6644 5.25213 13.2505V2.72074L1.80685 6.60499C1.53244 6.91436 1.05973 6.94223 0.75102 6.66723Z" fill="#201F29"/>
</svg>
