<svg xmlns="http://www.w3.org/2000/svg" viewBox="0 0 477 278.88"><defs><linearGradient id="a" x1="106.31" y1="65.14" x2="370.69" y2="216.22" gradientUnits="userSpaceOnUse"><stop offset="0" stop-color="#fff21f"/><stop offset=".29" stop-color="#ffcd2d"/><stop offset="1" stop-color="#f79233"/></linearGradient></defs><g data-name="Layer 2"><g data-name="Layer 1"><path d="M127.29 0h118.38c29.73 0 52.52 3 68.86 8.91 29.23 10.37 48.54 29.16 58.94 56.85L314 95.44l-.49-1c-4.47-13.86-10.41-23.74-17.34-30.66-6.44-5.45-14.38-9.39-24.78-11.37l-.49-5.94-6.44 4.45c-5.45-1-11.89-1-18.83-1h-58.9v54.88l-59.44 40.54Zm257.09 112.74a252.75 252.75 0 0 1 1.47 27.19c0 25.22-3.47 48.95-10.89 71.21-6.93 23.24-19.32 40.05-36.16 50.93a94.5 94.5 0 0 1-35.17 13.34c-12.38 2.47-31.69 3.47-58 3.47H127.29v-74.67l59.44-29.67v54.89h23.78l.49 4.44 6.93-4.44h27.74c26.27 0 44.1-5.94 54-17.31 6.42-7.4 11.38-17.3 14.85-30.64a113.07 113.07 0 0 0 5-23.26Z" style="fill:#fff"/><path style="fill-rule:evenodd;fill:url(#a)" d="M0 251.19 258.56 73.18l6.45 63.78L477 30.17l-254.11 177.5-7.42-64.28L0 251.19z"/></g></g></svg>