<svg xmlns="http://www.w3.org/2000/svg" width="1094" height="525" fill="none"><ellipse cx="162.28" cy="480.52" fill="#000" opacity=".1" rx="79.008" ry="14.586"/><path fill="#fff" stroke="#000" stroke-width="12.155" d="M238.442 409.511c40.817 0 59.395-90.38 59.395-124.649 0-26.711-18.43-42.899-42.66-42.899-24.079 0-43.627 10.355-43.87 23.177-.001 33.838-5.956 144.371 27.135 144.371ZM89.36 409.511c-40.817 0-59.395-90.38-59.395-124.649 0-26.711 18.43-42.899 42.66-42.899 24.08 0 43.627 10.355 43.87 23.177.001 33.838 5.956 144.371-27.135 144.371Z"/><mask id="a" fill="#fff"><path fill-rule="evenodd" d="M275.311 274.482c.661-6.55-6.699-10.506-12.364-7.149-29.606 17.545-64.163 27.617-101.072 27.617-36.565 0-70.82-9.884-100.242-27.127-5.675-3.327-13.011.655-12.328 7.198 5.04 48.259 31.33 88.653 67.356 107.457 10.056 5.248 17.091 14.525 24.154 23.839 5.712 7.531 11.441 15.087 18.801 20.558.856.636 1.748.972 2.664.972.917 0 1.808-.336 2.664-.973 7.36-5.471 13.09-13.026 18.801-20.557 7.063-9.314 14.099-18.591 24.154-23.839 36.16-18.874 62.512-59.499 67.412-107.996Z" clip-rule="evenodd"/></mask><path fill="#FFDF6F" fill-rule="evenodd" d="M275.311 274.482c.661-6.55-6.699-10.506-12.364-7.149-29.606 17.545-64.163 27.617-101.072 27.617-36.565 0-70.82-9.884-100.242-27.127-5.675-3.327-13.011.655-12.328 7.198 5.04 48.259 31.33 88.653 67.356 107.457 10.056 5.248 17.091 14.525 24.154 23.839 5.712 7.531 11.441 15.087 18.801 20.558.856.636 1.748.972 2.664.972.917 0 1.808-.336 2.664-.973 7.36-5.471 13.09-13.026 18.801-20.557 7.063-9.314 14.099-18.591 24.154-23.839 36.16-18.874 62.512-59.499 67.412-107.996Z" clip-rule="evenodd"/><path fill="#000" d="m116.661 382.478 5.625-10.776-5.625 10.776Zm24.154 23.839-9.685 7.345 9.685-7.345Zm18.801 20.558 7.252-9.756-7.252 9.756Zm5.328 0 7.252 9.755-7.252-9.755Zm18.801-20.558-9.685-7.344 9.685 7.344Zm24.154-23.839 5.624 10.776-5.624-10.776Zm67.412-107.996-12.094-1.221 12.094 1.221Zm-18.561-17.606c-27.781 16.465-60.205 25.919-94.875 25.919v24.311c39.149 0 75.839-10.69 107.27-29.316l-12.395-20.914Zm-94.875 25.919c-34.346 0-66.488-9.279-94.096-25.459l-12.292 20.973c31.234 18.306 67.605 28.797 106.388 28.797v-24.311Zm-124.66-6.512c5.4 51.705 33.67 96.014 73.822 116.971l11.249-21.552c-31.902-16.65-56.212-53.131-60.892-97.944l-24.178 2.525Zm73.822 116.971c7.218 3.767 12.684 10.637 20.093 20.408l19.371-14.69c-6.718-8.857-15.322-20.54-28.215-27.27l-11.249 21.552Zm20.093 20.408c5.502 7.255 12.243 16.284 21.235 22.968l14.503-19.511c-5.729-4.258-10.447-10.34-16.367-18.147l-19.371 14.69Zm21.235 22.968c2.476 1.841 5.85 3.372 9.915 3.372v-24.31c2.233 0 3.823.859 4.588 1.427l-14.503 19.511Zm9.915 3.372c4.066 0 7.44-1.532 9.916-3.372l-14.503-19.511c.764-.568 2.354-1.427 4.587-1.427v24.31Zm9.916-3.372c8.991-6.684 15.732-15.713 21.234-22.968l-19.37-14.689c-5.921 7.806-10.639 13.888-16.367 18.146l14.503 19.511Zm21.234-22.968c7.41-9.77 12.875-16.641 20.093-20.408l-11.248-21.552c-12.893 6.73-21.498 18.413-28.215 27.271l19.37 14.689Zm20.093-20.408c40.3-21.035 68.632-65.594 73.881-117.55l-24.187-2.443c-4.55 45.037-28.922 81.728-60.942 98.441l11.248 21.552ZM67.779 257.336a20.69 20.69 0 0 0-20.702-.182c-6.2 3.525-10.757 10.558-9.861 19.129l24.178-2.525c.085.815-.078 1.818-.59 2.752-.48.876-1.128 1.445-1.712 1.777-1.122.639-2.508.666-3.605.022l12.292-20.973Zm201.366 20.454c-1.095.649-2.482.628-3.607-.006-.585-.329-1.236-.897-1.72-1.772-.516-.933-.683-1.937-.601-2.751l24.187 2.443c.867-8.581-3.721-15.602-9.939-19.103a20.694 20.694 0 0 0-20.715.275l12.395 20.914Z" mask="url(#a)"/><ellipse cx="162.686" cy="273.072" fill="#000" stroke="#000" stroke-width="12.155" rx="106.965" ry="35.655"/><path stroke="#000" stroke-linecap="round" stroke-width="12.155" d="M76.789 333.038s52.76 17.827 86.707 17.827c33.946 0 86.706-17.827 86.706-17.827"/><circle r="24.187" fill="#000" transform="matrix(-1 0 0 1 62.08 120.604)"/><path stroke="#000" stroke-width="12.093" d="m58.048 116.976 45.149 45.148"/><circle cx="259.606" cy="120.604" r="24.187" fill="#000"/><path stroke="#000" stroke-width="12.093" d="m264.04 116.976-45.149 45.148"/><path fill="#FFDF6F" fill-rule="evenodd" d="M68.945 264.934c-13.036-6.206-20.623-20.142-18.081-34.355 10.907-60.999 56.364-106.75 110.785-106.75 54.552 0 100.097 45.973 110.863 107.194 2.504 14.238-5.144 28.168-18.225 34.323-27.989 13.172-59.252 20.534-92.235 20.534-33.326 0-64.896-7.516-93.107-20.946Z" clip-rule="evenodd"/><path fill="#000" d="m272.512 231.023 5.956-1.047-5.956 1.047Zm-215.696.621c10.54-58.942 54.107-101.769 104.833-101.769v-12.093c-58.115 0-105.462 48.676-116.738 111.733l11.905 2.129Zm104.833-101.769c50.848 0 94.505 43.036 104.908 102.195l11.911-2.094c-11.129-63.283-58.563-112.194-116.819-112.194v12.093Zm90.064 130c-27.201 12.8-57.587 19.959-89.661 19.959v12.093c33.891 0 66.032-7.567 94.81-21.11l-5.149-10.942Zm-89.661 19.959c-32.407 0-63.091-7.308-90.508-20.36l-5.198 10.919c29.006 13.809 61.462 21.534 95.706 21.534v-12.093Zm104.505-47.764c2.008 11.415-4.105 22.751-14.844 27.805l5.149 10.942c15.421-7.257 24.606-23.78 21.606-40.841l-11.911 2.094Zm-221.646-2.555c-3.045 17.03 6.066 33.562 21.435 40.878l5.198-10.919c-10.703-5.095-16.765-16.436-14.728-27.83l-11.905-2.129Z"/><path fill="#000" fill-rule="evenodd" d="M92.204 249.768c-10.493-4.273-16.717-15.438-13.081-26.169 11.213-33.092 43.922-57.04 82.526-57.04s71.313 23.948 82.526 57.04c3.636 10.731-2.588 21.896-13.081 26.169-21.432 8.729-44.877 13.538-69.445 13.538-24.568 0-48.013-4.809-69.445-13.538Z" clip-rule="evenodd"/><ellipse cx="189.464" cy="218.157" fill="#fff" rx="20.156" ry="16.125"/><ellipse cx="131.763" cy="218.167" fill="#fff" rx="20.156" ry="16.125"/><path fill="#fff" d="M557.311 263.36h-42.56l20.8-59.2 21.76 59.2Zm-49.92-128.96-81.6 217.6h57.92l15.04-42.88h75.2l15.68 46.08 57.28-5.76-81.28-215.04h-58.24ZM721.131 352V126.08l-58.24 3.52V352h58.24Zm61.363 0 28.8-29.12v-196.8l-58.24 3.52V352h29.44Zm9.92-94.72c6.186-6.4 11.946-11.52 17.28-15.36 5.333-3.84 10.56-5.76 15.68-5.76 6.186 0 11.306 1.387 15.36 4.16 4.266 2.773 7.466 6.933 9.6 12.48 2.346 5.333 3.52 11.947 3.52 19.84 0 7.893-1.174 14.72-3.52 20.48-2.347 5.76-5.44 10.133-9.28 13.12-3.84 2.987-8.214 4.48-13.12 4.48-5.547 0-11.307-1.493-17.28-4.48-5.974-3.2-12.054-7.68-18.24-13.44l-16.32 34.24c5.973 6.827 11.946 12.373 17.92 16.64 6.186 4.053 12.373 7.04 18.56 8.96 6.4 1.92 12.8 2.88 19.2 2.88 16.426 0 30.72-3.093 42.88-9.28 12.373-6.187 21.973-15.467 28.8-27.84 7.04-12.373 10.56-27.733 10.56-46.08 0-18.56-3.52-33.813-10.56-45.76-6.827-11.947-16.214-20.8-28.16-26.56-11.947-5.76-25.6-8.64-40.96-8.64-7.894 0-15.574 1.387-23.04 4.16-7.467 2.773-14.294 6.4-20.48 10.88-5.974 4.267-10.88 8.747-14.72 13.44l16.32 37.44Zm179.202 95.36c-1.066 2.987-3.84 5.973-8.32 8.96-4.48 2.987-9.6 5.76-15.36 8.32a464.279 464.279 0 0 1-16 7.04l19.52 45.12c10.24-2.347 20.16-5.973 29.76-10.88 9.6-4.907 18.027-10.88 25.284-17.92 7.25-7.04 12.48-14.72 15.68-23.04l68.16-173.44h-57.92l-29.76 87.68-31.684-93.44-53.76 15.36 55.68 142.72-1.28 3.52Z"/></svg>