<svg width="24" height="24" fill="none" xmlns="http://www.w3.org/2000/svg"><path d="M3 3.697C3 3.312 3.312 3 3.697 3h5.151c.385 0 .697.312.697.697v5.006a.697.697 0 0 1-.697.697H3.697A.697.697 0 0 1 3 8.703V3.697Z" stroke="url(#a)" stroke-width="4"/><path d="M14.454 3.697c0-.385.312-.697.697-.697h5.152c.384 0 .697.312.697.697v5.006a.697.697 0 0 1-.697.697H15.15a.697.697 0 0 1-.697-.697V3.697Z" stroke="url(#b)" stroke-width="4"/><path d="M3 15.297c0-.385.312-.697.697-.697h5.151c.385 0 .697.312.697.697v5.006a.697.697 0 0 1-.697.697H3.697A.697.697 0 0 1 3 20.303v-5.006Z" stroke="url(#c)" stroke-width="4"/><path d="M14.454 17.8a3.2 3.2 0 0 1 3.2-3.2h.146a3.2 3.2 0 1 1 0 6.4h-.146a3.2 3.2 0 0 1-3.2-3.2Z" stroke="url(#d)" stroke-width="4"/><defs><linearGradient id="a" x1="-27" y1="-78.5" x2="21" y2="22.5" gradientUnits="userSpaceOnUse"><stop offset=".614" stop-color="#F8C455"/><stop offset=".884" stop-color="#FDD868"/><stop offset=".952" stop-color="#FFDE6E"/></linearGradient><linearGradient id="b" x1="-27" y1="-78.5" x2="21" y2="22.5" gradientUnits="userSpaceOnUse"><stop offset=".614" stop-color="#F8C455"/><stop offset=".884" stop-color="#FDD868"/><stop offset=".952" stop-color="#FFDE6E"/></linearGradient><linearGradient id="c" x1="-27" y1="-78.5" x2="21" y2="22.5" gradientUnits="userSpaceOnUse"><stop offset=".614" stop-color="#F8C455"/><stop offset=".884" stop-color="#FDD868"/><stop offset=".952" stop-color="#FFDE6E"/></linearGradient><linearGradient id="d" x1="-27" y1="-78.5" x2="21" y2="22.5" gradientUnits="userSpaceOnUse"><stop offset=".614" stop-color="#F8C455"/><stop offset=".884" stop-color="#FDD868"/><stop offset=".952" stop-color="#FFDE6E"/></linearGradient></defs></svg>