<svg width="16" height="16" fill="none" xmlns="http://www.w3.org/2000/svg"><path d="M8.446 1.34a.973.973 0 0 0-.663.175 2.453 2.453 0 0 0-.5.474c-.31.37-.675.92-1.132 1.607L3.576 7.474c-.316.476-.581.876-.737 1.207-.159.339-.267.738-.056 1.129.21.39.604.521.975.576.362.053.844.053 1.416.053h.41c.312 0 .505 0 .648.018.13.015.16.038.166.044a.275.275 0 0 1 .041.04c.006.007.029.036.044.166a6.3 6.3 0 0 1 .018.646v.033c0 .831 0 1.496.054 1.976.027.244.072.475.155.67a.969.969 0 0 0 .456.512c.121.06.252.1.386.116a.973.973 0 0 0 .664-.175c.177-.118.342-.286.5-.474.311-.371.68-.926 1.14-1.619l2.566-3.866c.316-.476.582-.877.737-1.207.16-.339.267-.738.057-1.129-.211-.39-.604-.521-.975-.576-.363-.053-.844-.053-1.417-.053h-.41c-.311 0-.505-.001-.647-.018-.131-.015-.16-.038-.167-.044a.28.28 0 0 1-.04-.04c-.006-.007-.03-.036-.045-.166a6.301 6.301 0 0 1-.017-.646v-.033c0-.831 0-1.496-.054-1.976a2.443 2.443 0 0 0-.155-.671.969.969 0 0 0-.456-.511c-.121-.06-.252-.1-.387-.116Z" fill="#FFDF6F"/><path d="M8.446 1.34a.973.973 0 0 0-.663.175 2.453 2.453 0 0 0-.5.474c-.31.37-.675.92-1.132 1.607L3.576 7.474c-.316.476-.581.876-.737 1.207-.159.339-.267.738-.056 1.129.21.39.604.521.975.576.362.053.844.053 1.416.053h.41c.312 0 .505 0 .648.018.13.015.16.038.166.044a.275.275 0 0 1 .041.04c.006.007.029.036.044.166a6.3 6.3 0 0 1 .018.646v.033c0 .831 0 1.496.054 1.976.027.244.072.475.155.67a.969.969 0 0 0 .456.512c.121.06.252.1.386.116a.973.973 0 0 0 .664-.175c.177-.118.342-.286.5-.474.311-.371.68-.926 1.14-1.619l2.566-3.866c.316-.476.582-.877.737-1.207.16-.339.267-.738.057-1.129-.211-.39-.604-.521-.975-.576-.363-.053-.844-.053-1.417-.053h-.41c-.311 0-.505-.001-.647-.018-.131-.015-.16-.038-.167-.044a.28.28 0 0 1-.04-.04c-.006-.007-.03-.036-.045-.166a6.301 6.301 0 0 1-.017-.646v-.033c0-.831 0-1.496-.054-1.976a2.443 2.443 0 0 0-.155-.671.969.969 0 0 0-.456-.511c-.121-.06-.252-.1-.387-.116Z" fill="url(#a)" fill-opacity=".3"/><defs><linearGradient id="a" x1="7.999" y1="1.333" x2="7.999" y2="14.667" gradientUnits="userSpaceOnUse"><stop stop-color="#fff"/><stop offset="1" stop-color="#F8C456"/></linearGradient></defs></svg>