<svg width="24" height="24" fill="none" xmlns="http://www.w3.org/2000/svg"><path fill-rule="evenodd" clip-rule="evenodd" d="M19.076 17.813C17.506 19.094 15.22 20 12 20c-3.887 0-6.413-1.32-7.96-3.027C2.518 15.293 2 13.298 2 12s.518-3.293 2.04-4.973A8.412 8.412 0 0 1 6.55 5.144l1.028 1.04.095.096C6.59 6.74 5.78 7.36 5.18 8.023 3.93 9.402 3.525 11.032 3.525 12s.405 2.598 1.654 3.977c1.225 1.352 3.318 2.525 6.821 2.525 2.826 0 4.734-.763 6.009-1.768l.327.33.74.749zm.972-.94C21.502 15.216 22 13.274 22 12c0-1.298-.518-3.293-2.04-4.973C18.412 5.32 15.886 4 12 4c-1.567 0-2.913.215-4.063.582l1.204 1.223A12.497 12.497 0 0 1 12 5.498c3.503 0 5.596 1.173 6.82 2.525 1.25 1.379 1.655 3.009 1.655 3.977 0 .925-.37 2.455-1.493 3.792l1.066 1.082zm-4.284-4.347c.02-.174.03-.35.03-.526 0-.98-.298-1.935-.96-2.654-.674-.729-1.648-1.133-2.834-1.133a4.93 4.93 0 0 0-.464.022l4.228 4.291zm-5.726-3.854c-.33.177-.621.403-.871.674-.663.719-.96 1.674-.96 2.654s.297 1.935.96 2.654c.673.729 1.647 1.133 2.833 1.133 1.186 0 2.16-.404 2.833-1.133.186-.201.343-.421.472-.654l-1.237-1.251a1.94 1.94 0 0 1-.433.803c-.32.347-.835.61-1.635.61s-1.315-.263-1.635-.61c-.33-.358-.53-.89-.53-1.552s.2-1.194.53-1.552c.21-.229.505-.42.91-.524l-1.238-1.252z" fill="currentColor"/><path d="M20.048 19.656a.692.692 0 0 0 .132-.797L5.783 4.364l-.793-.795a.693.693 0 0 0-.98.977l2.484 2.493 1.158 1.16 8.51 8.54 1.135 1.138 1.771 1.777c.27.271.709.272.98.002z" fill="currentColor"/></svg>